<?xml version="1.0" encoding="UTF-8" standalone="no"?>
<!-- Created with Inkscape (http://www.inkscape.org/) -->

<svg
   xmlns:dc="http://purl.org/dc/elements/1.1/"
   xmlns:cc="http://creativecommons.org/ns#"
   xmlns:rdf="http://www.w3.org/1999/02/22-rdf-syntax-ns#"
   xmlns:svg="http://www.w3.org/2000/svg"
   xmlns="http://www.w3.org/2000/svg"
   xmlns:sodipodi="http://sodipodi.sourceforge.net/DTD/sodipodi-0.dtd"
   xmlns:inkscape="http://www.inkscape.org/namespaces/inkscape"
   id="svg2"
   version="1.1"
   inkscape:version="0.91 r13725"
   width="272.94531"
   height="272.86343"
   viewBox="0 0 272.94531 272.86343"
   sodipodi:docname="shou-symbol-final.svg"
   inkscape:export-filename="D:\Dokumenty\Wikipedie\_loga, ikony, vyznamenání\Metuzalémova absolventská medaile\shou-symbol-final.png"
   inkscape:export-xdpi="90"
   inkscape:export-ydpi="90">
  <metadata
     id="metadata8">
    <rdf:RDF>
      <cc:Work
         rdf:about="">
        <dc:format>image/svg+xml</dc:format>
        <dc:type
           rdf:resource="http://purl.org/dc/dcmitype/StillImage" />
        <dc:title></dc:title>
      </cc:Work>
    </rdf:RDF>
  </metadata>
  <defs
     id="defs6" />
  <sodipodi:namedview
     pagecolor="#ffffff"
     bordercolor="#666666"
     borderopacity="1"
     objecttolerance="10"
     gridtolerance="10"
     guidetolerance="10"
     inkscape:pageopacity="0"
     inkscape:pageshadow="2"
     inkscape:window-width="1280"
     inkscape:window-height="971"
     id="namedview4"
     showgrid="false"
     inkscape:zoom="1.2421053"
     inkscape:cx="140.0109"
     inkscape:cy="118.35727"
     inkscape:window-x="-8"
     inkscape:window-y="-8"
     inkscape:window-maximized="1"
     inkscape:current-layer="svg2"
     showguides="false"
     fit-margin-top="1"
     fit-margin-left="1"
     fit-margin-right="1"
     fit-margin-bottom="1" />
  <path
     style="color:#000000;font-style:normal;font-variant:normal;font-weight:normal;font-stretch:normal;font-size:medium;line-height:normal;font-family:sans-serif;text-indent:0;text-align:start;text-decoration:none;text-decoration-line:none;text-decoration-style:solid;text-decoration-color:#000000;letter-spacing:normal;word-spacing:normal;text-transform:none;direction:ltr;block-progression:tb;writing-mode:lr-tb;baseline-shift:baseline;text-anchor:start;white-space:normal;clip-rule:nonzero;display:inline;overflow:visible;visibility:visible;opacity:1;isolation:auto;mix-blend-mode:normal;color-interpolation:sRGB;color-interpolation-filters:linearRGB;solid-color:#000000;solid-opacity:1;fill:#000000;fill-opacity:1;fill-rule:nonzero;stroke:none;stroke-width:12;stroke-linecap:butt;stroke-linejoin:miter;stroke-miterlimit:4;stroke-dasharray:none;stroke-dashoffset:0;stroke-opacity:1;color-rendering:auto;image-rendering:auto;shape-rendering:auto;text-rendering:auto;enable-background:accumulate"
     d="m 132.00581,1.000034 c -0.93872,0.03051 -1.87476,0.07152 -2.80859,0.121094 -0.005,3e-4 -0.0106,0.0017 -0.0156,0.002 -0.47245,0.02508 -0.9429,0.05798 -1.41406,0.08789 -0.53808,0.03423 -1.07691,0.06691 -1.61328,0.107422 -0.42303,0.03189 -0.84368,0.06969 -1.26562,0.105469 -0.49915,0.0424 -0.9985,0.08305 -1.4961,0.130859 -0.54696,0.05249 -1.09165,0.112855 -1.63672,0.171876 -0.41423,0.04488 -0.82907,0.08811 -1.24218,0.136718 -0.16893,0.01987 -0.33908,0.03614 -0.50782,0.05664 l 0,0.0078 C 69.622812,8.04952 27.7401,41.895814 10.054643,87.72074 l -0.01953,0 c -0.20116,0.52138 -0.390974,1.0479 -0.585938,1.57226 -0.150781,0.40577 -0.306136,0.80922 -0.453124,1.2168 -0.464704,1.28733 -0.905483,2.58572 -1.332032,3.89063 -0.121974,0.37367 -0.242527,0.74795 -0.361328,1.12304 -0.413717,1.30451 -0.813033,2.6159 -1.1875,3.9375 -0.0247,0.0872 -0.05359,0.17252 -0.07813,0.25977 l 0.002,0 12.490235,0 235.886714,0 12.49023,0 0.002,0 c -0.0245,-0.0873 -0.0534,-0.17259 -0.0781,-0.25977 -0.37446,-1.3216 -0.77378,-2.63299 -1.1875,-3.9375 -0.1188,-0.37509 -0.23935,-0.74937 -0.36133,-1.12304 -0.42655,-1.30491 -0.86733,-2.6033 -1.33203,-3.89063 -0.14699,-0.40758 -0.30234,-0.81103 -0.45312,-1.2168 -0.19497,-0.52436 -0.38478,-1.05088 -0.58594,-1.57226 l -0.0195,0 C 245.20512,41.895812 203.32241,8.04952 152.93941,1.927768 l 0,-0.0078 c -0.16874,-0.0205 -0.33889,-0.03677 -0.50782,-0.05664 -0.41311,-0.04861 -0.82795,-0.09184 -1.24218,-0.136718 -0.54507,-0.05902 -1.08976,-0.119384 -1.63672,-0.171876 -0.4976,-0.04781 -0.99695,-0.08846 -1.4961,-0.130859 -0.42194,-0.03578 -0.84259,-0.07358 -1.26562,-0.105469 -0.53637,-0.04051 -1.0752,-0.07319 -1.61328,-0.107422 -0.47116,-0.02991 -0.94161,-0.06281 -1.41406,-0.08789 -0.005,-2.77e-4 -0.0104,-0.0017 -0.0156,-0.002 C 142.8142,1.071524 141.87816,1.030514 140.93944,1 l 0,12.007813 0,65.781257 78.61523,0 14.18164,0 0.0176,0 c -0.41828,-0.70396 -0.85543,-1.39447 -1.28906,-2.08789 -0.38965,-0.62309 -0.78386,-1.24282 -1.18555,-1.85743 -0.24889,-0.38221 -0.50445,-0.75965 -0.75781,-1.13867 -0.34937,-0.52051 -0.69691,-1.04229 -1.05469,-1.55664 -0.49659,-0.71689 -1.00305,-1.42609 -1.51562,-2.13086 -0.15764,-0.21599 -0.31553,-0.43161 -0.47461,-0.64648 C 214.27874,51.49144 195.95384,37.622883 174.67578,29.964844 l 0,-0.0098 c -0.15324,-0.05513 -0.30934,-0.103721 -0.46289,-0.158203 -0.54333,-0.192856 -1.0896,-0.379724 -1.63671,-0.564453 -0.3786,-0.127801 -0.75636,-0.256973 -1.13672,-0.380859 -0.60412,-0.196794 -1.21179,-0.385442 -1.82032,-0.572266 -0.37158,-0.114079 -0.74203,-0.231461 -1.11523,-0.341797 -0.67942,-0.200864 -1.36416,-0.389779 -2.04883,-0.578125 -0.27084,-0.07451 -0.53889,-0.155979 -0.81054,-0.228516 -0.98483,-0.262955 -1.97358,-0.513231 -2.96876,-0.75 l 0,12.359375 0,17.94727 12,0 0,-13.91016 c 13.38036,5.45754 25.30954,13.70554 35.09571,24.01172 l -56.83203,0 0,-52.751955 c 43.775,5.820595 80.25239,34.500565 97.05078,73.683595 l -227.035156,0 C 39.753418,48.53771 76.230812,19.857738 120.00581,14.037143 l 0,52.751957 -56.832028,0 c 9.78617,-10.30618 21.71535,-18.55418 35.09571,-24.011722 l 0,13.910162 11.999998,0 0,-17.947272 0,-12.359375 c -0.99518,0.236769 -1.98393,0.487045 -2.96876,0.75 -0.27164,0.07254 -0.5397,0.154006 -0.81054,0.228516 -0.68467,0.188346 -1.36941,0.377261 -2.04883,0.578125 -0.3732,0.110336 -0.74365,0.227718 -1.11523,0.341797 -0.60853,0.186824 -1.2162,0.375472 -1.82032,0.572266 -0.38036,0.123885 -0.75812,0.253058 -1.13672,0.380859 -0.547108,0.184729 -1.093378,0.371597 -1.636708,0.564453 -0.15355,0.05448 -0.30965,0.103073 -0.46289,0.158203 l 0,0.0098 C 76.991422,37.622951 58.666532,51.4915 45.468706,69.37116 c -0.15908,0.21487 -0.31697,0.43049 -0.47461,0.64648 -0.51257,0.70477 -1.019035,1.41397 -1.515625,2.13086 -0.35778,0.51435 -0.705317,1.03613 -1.054687,1.55664 -0.25336,0.37902 -0.508923,0.75647 -0.757813,1.13867 -0.40169,0.61461 -0.795895,1.23434 -1.185547,1.85743 -0.43363,0.69342 -0.870782,1.38393 -1.289062,2.08789 l 0.01758,0 14.18164,0 78.615228,0 0,-65.781249 0,-12.007813 z M 3.89644,108.46488 c -0.225574,1.07382 -0.435193,2.1534 -0.634766,3.23633 -0.06486,0.35092 -0.121429,0.70479 -0.183593,1.05664 -0.118053,0.67065 -0.235645,1.34162 -0.34375,2.01562 -0.09447,0.58613 -0.180643,1.17508 -0.267578,1.76367 -0.06539,0.4451 -0.132284,0.88946 -0.19336,1.33594 -0.09547,0.69417 -0.184622,1.39044 -0.269531,2.08789 -0.0204,0.16831 -0.04467,0.33542 -0.06445,0.50391 l 0.0059,0 C 1.32905,125.68983 1,131.00139 1,136.39066 c 0,2.25683 0.05854,4.50052 0.167968,6.73047 l 12.017579,0 C 13.066197,140.89242 13,138.64951 13,136.39066 c 0,-5.39904 0.360048,-10.71161 1.03125,-15.92578 l 244.88281,0 c 0.6712,5.21417 1.03125,10.52674 1.03125,15.92578 0,2.25885 -0.0662,4.50176 -0.18555,6.73047 l 12.01758,0 c 0.10943,-2.22995 0.16797,-4.47364 0.16797,-6.73047 0,-5.38927 -0.32905,-10.70083 -0.94532,-15.92578 l 0.006,0 c -0.0198,-0.16849 -0.0441,-0.3356 -0.0645,-0.50391 -0.0849,-0.69745 -0.17406,-1.39372 -0.26953,-2.08789 -0.0611,-0.44648 -0.12797,-0.89084 -0.19336,-1.33594 -0.0869,-0.58859 -0.17311,-1.17754 -0.26758,-1.76367 -0.1081,-0.674 -0.2257,-1.34497 -0.34375,-2.01562 -0.0622,-0.35185 -0.11873,-0.70572 -0.18359,-1.05664 -0.19958,-1.08293 -0.40919,-2.16251 -0.63477,-3.23633 l -0.002,0 -12.26953,0 -240.609372,0 -12.269531,0 -0.002,0 z m 19.736328,21.78516 0,12 37.603514,0 0,10.87109 -59.205076,0 c 0.501266,4.05903 1.188062,8.05976 2.041015,12 l 57.164061,0 12,0 125.667968,0 12,0 57.96875,0 c 0.85295,-3.94024 1.53975,-7.94097 2.04102,-12 l -60.00977,0 0,-10.87109 38.11914,0 0,-12 -38.11914,0 -12,0 -125.667968,0 -12,0 -37.603514,0 z m 49.603514,12 125.667968,0 0,10.87109 -125.667968,0 0,-10.87109 z M 6.265581,173.86527 c 0.02906,0.10095 0.06251,0.19993 0.0918,0.30078 0.357904,1.23259 0.737399,2.45595 1.128906,3.67383 0.109798,0.34125 0.221555,0.68142 0.333984,1.02148 0.400858,1.21364 0.81399,2.42091 1.248047,3.61914 0.04068,0.11221 0.07818,0.22583 0.119141,0.33789 0.372962,1.02104 0.757402,2.03745 1.154297,3.04688 l 0.01758,0 c 16.603786,42.21018 53.798016,74.10254 99.181634,83.28125 l 0,0.0273 c 0.5306,0.10729 1.06483,0.20379 1.59766,0.30469 0.11582,0.0219 0.23172,0.0428 0.34765,0.0644 1.54574,0.28842 3.10039,0.55221 4.66406,0.78711 0.22612,0.0342 0.45321,0.0647 0.67969,0.0977 1.56294,0.22672 3.13134,0.4357 4.71094,0.60937 l 0,-12.07226 0,-58.16797 0,-6 -67.597658,0 -14.255851,0 -0.0059,0 c 0.39971,0.66013 0.821655,1.30579 1.234375,1.95703 0.25905,0.40898 0.511321,0.82307 0.775391,1.22852 0.35462,0.54403 0.722268,1.07771 1.085938,1.61523 0.381669,0.56471 0.760823,1.1301 1.152343,1.6875 0.31861,0.45313 0.645663,0.89943 0.970703,1.34766 0.45299,0.62521 0.90952,1.24785 1.375,1.86328 0.325611,0.43029 0.656691,0.85577 0.988281,1.28125 0.26387,0.3386 0.51941,0.68407 0.7871,1.01953 l 0.0234,0 c 10.63344,13.32695 24.19605,24.21633 39.72852,31.65039 l 0,0.008 c 0.0937,0.0449 0.1893,0.0863 0.2832,0.13086 0.80752,0.38371 1.61961,0.75808 2.4375,1.12305 0.0149,0.007 0.03,0.0125 0.0449,0.0195 0.3154,0.14048 0.63426,0.27446 0.95118,0.41211 0.55727,0.24226 1.11584,0.48331 1.67773,0.7168 0.39903,0.16565 0.79986,0.32708 1.20117,0.48828 0.55064,0.22139 1.10332,0.43747 1.6582,0.65039 0.34614,0.13271 0.69131,0.26707 1.03907,0.39648 0.8973,0.33414 1.79914,0.66086 2.70703,0.97266 l 0,-12.74023 0,-13.72657 -12,0 0,8.10742 c -8.85138,-4.86648 -16.8883,-11.02217 -23.86914,-18.20898 l 45.607418,0 0,50.10156 C 70.753272,248.28855 38.875795,221.48211 23.304548,185.86538 l 107.308582,0 0,85.86328 c 1.94371,0.083 3.89548,0.13477 5.85938,0.13477 2.05853,0 4.10434,-0.0534 6.14062,-0.14454 l 0,-85.85351 107.02735,0 c -15.57129,35.6166 -47.44883,62.42319 -86.23633,71.0332 l 0,-50.10156 45.60742,0 c -6.98084,7.18681 -15.01776,13.3425 -23.86914,18.20898 l 0,-8.10742 -12,0 0,13.72657 0,12.74023 c 0.90789,-0.3118 1.80973,-0.63852 2.70703,-0.97266 0.34776,-0.12941 0.69293,-0.26377 1.03907,-0.39648 0.55488,-0.21292 1.10756,-0.429 1.6582,-0.65039 0.40131,-0.1612 0.80214,-0.32263 1.20117,-0.48828 0.56189,-0.23349 1.12046,-0.47454 1.67773,-0.7168 0.31692,-0.13765 0.63578,-0.27163 0.95118,-0.41211 0.0149,-0.007 0.03,-0.0129 0.0449,-0.0195 0.81789,-0.36497 1.62998,-0.73934 2.4375,-1.12305 0.0939,-0.0446 0.18948,-0.086 0.2832,-0.13086 l 0,-0.008 c 15.53247,-7.43406 29.09508,-18.32345 39.72852,-31.65039 l 0.0234,0 c 0.26769,-0.33547 0.52323,-0.68092 0.7871,-1.01953 0.33159,-0.42548 0.66267,-0.85096 0.98829,-1.28125 0.46548,-0.61543 0.92201,-1.23807 1.375,-1.86328 0.32504,-0.44823 0.65209,-0.89453 0.9707,-1.34766 0.39152,-0.5574 0.77067,-1.12279 1.15234,-1.6875 0.36367,-0.53752 0.73132,-1.0712 1.08594,-1.61523 0.26407,-0.40545 0.51634,-0.81954 0.77539,-1.22852 0.41272,-0.65124 0.83467,-1.2969 1.23438,-1.95703 l -0.006,0 -14.25586,0 -67.59766,0 0,6 0,58.16797 0,12.07226 c 1.5796,-0.17367 3.148,-0.38265 4.71094,-0.60937 0.22648,-0.033 0.45357,-0.0635 0.67969,-0.0977 1.56367,-0.2349 3.11832,-0.49869 4.66406,-0.78711 0.11593,-0.0217 0.23183,-0.0426 0.34765,-0.0644 0.53283,-0.1009 1.06706,-0.1974 1.59766,-0.30469 l 0,-0.0273 c 45.38362,-9.17871 82.57785,-41.07107 99.18164,-83.28125 l 0.0176,0 c 0.39689,-1.00943 0.78133,-2.02584 1.1543,-3.04688 0.041,-0.11206 0.0785,-0.22568 0.11914,-0.33789 0.43405,-1.19823 0.84718,-2.4055 1.24804,-3.61914 0.11243,-0.34006 0.22419,-0.68023 0.33399,-1.02148 0.39151,-1.21788 0.771,-2.44124 1.1289,-3.67383 0.0293,-0.10085 0.0627,-0.19983 0.0918,-0.30078 l -0.002,0 -12.51367,0 -111.55079,0 -12,0 -111.832019,0 -12.513672,0 -0.002,0 z"
     id="rect4356-9"
     inkscape:connector-curvature="0" />
</svg>
