<?xml version="1.0" encoding="utf-8"?>
<!-- Generator: Adobe Illustrator 14.0.0, SVG Export Plug-In . SVG Version: 6.00 Build 43363)  -->
<!DOCTYPE svg PUBLIC "-//W3C//DTD SVG 1.1//EN" "http://www.w3.org/Graphics/SVG/1.1/DTD/svg11.dtd">
<svg version="1.1" id="Layer_3" xmlns="http://www.w3.org/2000/svg" xmlns:xlink="http://www.w3.org/1999/xlink" x="0px" y="0px"
	 width="477.02px" height="478.096px" viewBox="0 0 477.02 478.096" enable-background="new 0 0 477.02 478.096"
	 xml:space="preserve">
<path fill="#CC0303" d="M342.106,382.191c-0.025,0-0.049,0.004-0.074,0.004l-5.091-0.768l-36.91-54.157l-10.742,7.32l37.112,54.453
	l-1.525,9.456l0.278-0.197c-0.013,0.261-0.041,0.517-0.042,0.778c-0.027,9.357,7.533,16.966,16.892,16.994
	c9.357,0.028,16.966-7.533,16.993-16.891C359.026,389.829,351.462,382.22,342.106,382.191z"/>
<path fill="#CC0303" d="M290.02,385.005c-0.021-0.009-0.046-0.014-0.067-0.021l-4.482-2.535l-11.87-49.986l-12.647,3.004
	l11.951,50.332l-4.801,8.29l0.331-0.085c-0.104,0.238-0.223,0.469-0.316,0.713c-3.367,8.73,0.979,18.536,9.71,21.904
	c8.729,3.367,18.536-0.979,21.904-9.71C303.097,398.18,298.75,388.371,290.02,385.005z"/>
<path fill="#CC0303" d="M354.643,326.46c-0.023,0.012-0.044,0.021-0.064,0.03l-5.003,1.225l-42.892-28.278l-7.157,10.854
	l43.19,28.476l2.182,9.329l0.184-0.289c0.088,0.246,0.157,0.493,0.259,0.735c3.526,8.665,13.412,12.831,22.079,9.305
	c8.665-3.528,12.832-13.413,9.304-22.08C373.194,327.098,363.308,322.931,354.643,326.46z"/>
<path fill="#CC0303" d="M78.288,208.809c0.021-0.015,0.037-0.03,0.059-0.044l4.628-2.255l61.114,23.672l4.696-12.123l-61.45-23.802
	l-4.107-8.652l-0.117,0.321c-0.137-0.223-0.259-0.449-0.406-0.666c-5.284-7.724-15.827-9.701-23.551-4.417
	c-7.722,5.282-9.7,15.825-4.417,23.549C60.021,212.115,70.564,214.094,78.288,208.809z"/>
<path fill="#CC0303" d="M119.59,176.952c0.022-0.005,0.045-0.015,0.069-0.021l5.13-0.454l38.125,34.438l8.714-9.646l-38.391-34.675
	l-0.746-9.552l-0.226,0.258c-0.049-0.256-0.082-0.512-0.143-0.768c-2.179-9.1-11.32-14.711-20.42-12.533
	c-9.1,2.179-14.712,11.319-12.535,20.421C101.348,173.518,110.491,179.13,119.59,176.952z"/>
<path fill="#CC0303" d="M99.569,261.821c0.014-0.022,0.023-0.042,0.036-0.061l3.426-3.847l51.364-1.034l-0.261-12.999l-51.721,1.043
	l-7.088-6.445l0.013,0.342c-0.211-0.154-0.41-0.318-0.63-0.46c-7.82-5.137-18.324-2.961-23.461,4.858
	c-5.137,7.82-2.961,18.325,4.858,23.463C83.929,271.816,94.434,269.643,99.569,261.821z"/>
<path fill="#CC0303" d="M228.143,79.963c0.021,0.016,0.042,0.025,0.063,0.041l3.65,3.629l-2.253,65.5l12.993,0.447l2.265-65.858
	l6.821-6.725l-0.342-0.005c0.165-0.203,0.338-0.393,0.494-0.604c5.557-7.53,3.957-18.138-3.573-23.692
	c-7.53-5.556-18.137-3.956-23.692,3.573C219.013,63.8,220.614,74.408,228.143,79.963z"/>
<path fill="#CC0303" d="M270.665,109.594c0.016,0.019,0.034,0.034,0.049,0.053l2.648,4.416l-14.323,49.339l12.484,3.624
	l14.423-49.68l8.266-4.846l-0.33-0.089c0.208-0.156,0.424-0.297,0.627-0.464c7.234-5.935,8.29-16.608,2.355-23.844
	c-5.935-7.234-16.61-8.289-23.846-2.355C265.786,91.684,264.731,102.361,270.665,109.594z"/>
<path fill="#CC0303" d="M185.49,115.757c0.024,0.007,0.048,0.012,0.068,0.018l4.661,2.19l15.601,48.949l12.388-3.947l-15.709-49.288
	l4.164-8.629l-0.324,0.109c0.087-0.246,0.188-0.482,0.262-0.735c2.7-8.957-2.373-18.408-11.331-21.109
	c-8.958-2.7-18.411,2.372-21.11,11.332C171.458,103.605,176.531,113.059,185.49,115.757z"/>
<path fill="#CC0303" d="M150.852,395.515c-0.008-0.023-0.018-0.045-0.025-0.071l-0.808-5.083l40.475-51.549l-10.226-8.028
	l-40.695,51.831l-9.474,1.402l0.272,0.206c-0.253,0.066-0.504,0.115-0.755,0.193c-8.93,2.804-13.897,12.311-11.098,21.238
	s12.309,13.896,21.236,11.096C148.684,413.951,153.652,404.442,150.852,395.515z"/>
<path fill="#CC0303" d="M132.432,346.714c0.001-0.023-0.001-0.048,0.001-0.071l1.063-5.039l44.063-26.419l-6.686-11.149
	l-44.368,26.602l-9.354-2.071l0.182,0.291c-0.258-0.029-0.514-0.071-0.775-0.088c-9.34-0.571-17.374,6.533-17.947,15.875
	c-0.571,9.339,6.536,17.375,15.876,17.946C123.824,363.16,131.861,356.053,132.432,346.714z"/>
<path fill="#CC0303" d="M207.767,390.626c-0.018-0.019-0.034-0.035-0.049-0.053l-2.679-4.398l13.998-49.431l-12.51-3.544
	l-14.094,49.774l-8.232,4.898l0.331,0.088c-0.208,0.157-0.425,0.299-0.624,0.469c-7.195,5.979-8.18,16.662-2.198,23.858
	c5.981,7.193,16.664,8.179,23.858,2.195C212.764,408.503,213.749,397.819,207.767,390.626z"/>
<path fill="#CC0303" d="M390.142,193.297c-0.007,0.025-0.008,0.05-0.014,0.074l-1.927,4.774l-61.228,23.376l4.637,12.146
	l61.563-23.505l8.847,3.672l-0.129-0.315c0.251,0.071,0.494,0.159,0.749,0.221c9.097,2.192,18.248-3.403,20.44-12.5
	c2.193-9.098-3.401-18.249-12.499-20.442C401.487,178.605,392.334,184.202,390.142,193.297z"/>
<path fill="#CC0303" d="M380.574,244.191c-0.015,0.02-0.021,0.042-0.036,0.063l-3.361,3.9l-51.341,1.882l0.478,12.992l51.696-1.896
	l7.191,6.328l-0.018-0.341c0.212,0.148,0.414,0.31,0.636,0.45c7.905,5.007,18.372,2.658,23.379-5.246s2.659-18.372-5.245-23.38
	C396.048,233.938,385.579,236.287,380.574,244.191z"/>
<path fill="#CC0303" d="M348.554,161.195c0.001,0.025,0.004,0.048,0.006,0.07l-0.575,5.043l-39.303,28.183l7.244,10.745
	l39.574-28.379l8.993,1.627l-0.194-0.279c0.245,0.017,0.488,0.048,0.737,0.05c8.852,0.143,15.825-7.265,15.572-16.546
	c-0.249-9.278-7.628-16.918-16.479-17.061C355.276,144.508,348.301,151.915,348.554,161.195z"/>
<path fill="#CC0303" d="M97.167,307.806c-27.697-1.055-53.106-13.024-71.546-33.708l0,0C7.666,253.963-1.373,228.042,0.169,201.107
	s13.479-51.655,33.616-69.61l5.13,5.753l-5.13-5.754c19.516-17.4,44.664-26.229,70.794-24.868
	c26.833,1.401,51.806,13.605,70.316,34.365l-6.021,5.37l6.022-5.369l0.239,0.269c7.52,8.435,15.296,17.157,19.684,28.145
	l-14.858,5.934c-3.344-8.373-9.864-15.688-16.769-23.432l-0.238-0.268c-31.723-35.573-83.784-39.179-118.521-8.202l0,0
	c-16.945,15.111-26.993,35.917-28.29,58.583c-1.298,22.667,6.31,44.481,21.42,61.428l-5.871,5.235l5.871-5.235
	c15.52,17.405,36.902,27.48,60.212,28.367L97.167,307.806L97.167,307.806z"/>
<path fill="#CC0303" d="M375.832,305.367c-20.672,0-40.813-6.336-57.981-18.438l9.219-13.077
	c37.785,26.637,89.134,18.525,116.904-18.463l6.245,4.688l-6.245-4.688c13.633-18.156,19.379-40.533,16.181-63.012
	c-3.199-22.478-14.959-42.364-33.115-55.998l0,0c-37.218-27.944-88.791-19.978-117.41,18.139l-0.218,0.288
	c-6.228,8.296-12.108,16.132-14.736,24.756l-15.305-4.664c3.447-11.315,10.463-20.661,17.246-29.698l0.217-0.289l6.384,4.791
	l-6.383-4.792c16.7-22.241,40.559-36.502,67.179-40.154c25.93-3.559,51.726,3.13,72.635,18.829l-4.642,6.183l4.642-6.183
	c21.573,16.199,35.547,39.83,39.348,66.538c3.802,26.709-3.025,53.3-19.226,74.873c-15.875,21.145-39.001,35.042-65.118,39.135
	C386.37,304.958,381.082,305.367,375.832,305.367L375.832,305.367z"/>
<path fill="#CC0303" d="M239.654,353.918c-40.778,0-77.668-24.239-94.095-61.062l-0.306,0.01l-2.561-7.139
	c-0.005-0.016-0.01-0.027-0.015-0.042l0,0c-3.998-11.148-6.024-22.847-6.024-34.768c0-56.794,46.206-103,103-103s103,46.206,103,103
	c0,26.895-10.303,52.339-29.011,71.652c-18.663,19.265-43.681,30.374-70.445,31.281C242.021,353.892,240.84,353.918,239.654,353.918
	L239.654,353.918z M242.484,332.863l0.355,10.418l-0.354-10.418c44.394-1.505,79.167-37.499,79.167-81.945c0-45.215-36.784-82-82-82
	c-45.215,0-82,36.785-82,82c0,9.499,1.612,18.812,4.792,27.68l0,0c11.65,32.489,42.679,54.319,77.208,54.319
	C240.602,332.918,241.544,332.896,242.484,332.863L242.484,332.863z"/>
<path fill="#CC0303" d="M155.401,478.095c-56.242,0-102-45.757-102-102c0-26.703,10.249-51.95,28.859-71.093
	c18.571-19.102,43.442-30.06,70.032-30.856l0.54,17.992c-45.663,1.368-81.432,38.248-81.432,83.957c0,46.316,37.683,84,84,84
	c45.981,0,82-36.897,82-84v-0.34c0-10.291,0-20.012-3.019-28.326l16.92-6.144c4.1,11.292,4.099,23.075,4.099,34.471v0.339
	c0,28.082-10.621,54.063-29.906,73.156C206.706,467.852,181.813,478.095,155.401,478.095L155.401,478.095z"/>
<path fill="#CC0303" d="M141.813,130.028c-10.367-39.928,4.029-85.799,34.23-109.072l4.883,6.337l-4.883-6.337
	c44.112-33.992,107.659-25.759,141.65,18.357l0,0c18.036,23.403,25.063,55.038,18.796,84.62l-15.651-3.316
	c5.229-24.681-0.832-52.092-15.817-71.537l6.205-4.781l-6.205,4.781C276.415,11.954,222.937,5.023,185.81,33.63
	c-24.938,19.218-37.193,58.931-28.51,92.377L141.813,130.028L141.813,130.028z"/>
<path fill="#CC0303" d="M325.696,478.095c-44.29,0-81.276-26.784-94.229-68.236l17.181-5.369
	c10.556,33.779,40.799,55.605,77.05,55.605c46.317,0,84-37.684,84-84c0-27.771-14.317-55.863-36.477-71.573l10.41-14.685
	c26.77,18.979,44.065,52.836,44.065,86.258C427.696,432.339,381.939,478.095,325.696,478.095L325.696,478.095z"/>
</svg>
