<?xml version="1.0" encoding="utf-8"?>
<!-- Generator: Adobe Illustrator 16.0.2, SVG Export Plug-In . SVG Version: 6.00 Build 0)  -->
<!DOCTYPE svg PUBLIC "-//W3C//DTD SVG 1.1//EN" "http://www.w3.org/Graphics/SVG/1.1/DTD/svg11.dtd">
<svg version="1.1" id="Layer_3_xA0_Image_1_" xmlns="http://www.w3.org/2000/svg" xmlns:xlink="http://www.w3.org/1999/xlink"
	 x="0px" y="0px" width="500px" height="500px" viewBox="0 0 500 500" enable-background="new 0 0 500 500" xml:space="preserve">
<g>
	<linearGradient id="SVGID_1_" gradientUnits="userSpaceOnUse" x1="166.625" y1="183.4692" x2="483.8984" y2="452.5495">
		<stop  offset="0" style="stop-color:#CA0703"/>
		<stop  offset="1" style="stop-color:#FF5500"/>
	</linearGradient>
	<path fill-rule="evenodd" clip-rule="evenodd" fill="url(#SVGID_1_)" d="M263.915,36.755c2.832,0.505,5.646,1.192,8.499,1.488
		c21.357,2.221,41.647,8.219,61.273,16.796c72.602,31.742,120.91,103.552,126.297,180.783
		c8.025,115.004-75.571,215.414-190.354,228.28c-83.071,9.31-165.144-31.454-207.845-103.028
		c-10.716-17.963-18.737-37.031-23.691-57.252c-2.665-10.875-3.662-22.156-5.447-33.248c-0.1-0.615-0.513-1.183-0.78-1.771
		c0-11.805,0-23.614,0-35.418c0.509-3.071,0.984-6.147,1.53-9.213c1.54-8.718,2.612-17.557,4.773-26.12
		c4.613-18.275,11.557-35.663,20.838-52.144c8.717-15.48,19.039-29.773,31.27-42.572c6.992-7.315,14.693-14.022,22.54-20.431
		c13.896-11.349,29.224-20.44,45.655-27.729c19.681-8.73,40.084-14.669,61.527-16.934c2.854-0.303,5.662-0.982,8.494-1.485
		C240.304,36.755,252.107,36.755,263.915,36.755z M46.467,250.628c-0.039,14.986,3.72,38.292,9.624,56.87
		c17.122,53.891,50.066,94.58,100.919,120.19c15.486,7.802,31.594,14.081,48.591,17.44c12.412,2.454,25.052,4.027,37.668,5.055
		c7.051,0.575,14.305-0.425,21.388-1.327c8.792-1.124,17.654-2.285,26.215-4.485c18.271-4.704,35.844-11.38,52.268-20.841
		c19.786-11.4,38.032-24.632,52.755-42.412c9.806-11.849,18.311-24.511,25.499-38.046c8.584-16.169,14.867-33.254,18.94-51.099
		c2.884-12.625,5.089-25.403,5.068-38.396c-0.009-7.018-0.52-14.081-1.441-21.04c-1.179-8.901-2.462-17.852-4.653-26.542
		c-4.83-19.169-12.203-37.413-22.119-54.544c-10.125-17.486-21.896-33.738-37.175-47.175
		c-15.853-13.942-33.342-25.441-52.688-33.886c-33.338-14.561-67.874-22.881-104.457-16.86
		C163.036,63.379,113.87,90.7,80.355,142.675C59.103,175.628,48.046,211.877,46.467,250.628z"/>
	<linearGradient id="SVGID_2_" gradientUnits="userSpaceOnUse" x1="166.1299" y1="184.0488" x2="483.4054" y2="453.1308">
		<stop  offset="0" style="stop-color:#CA0703"/>
		<stop  offset="1" style="stop-color:#FF5500"/>
	</linearGradient>
	<path fill-rule="evenodd" clip-rule="evenodd" fill="url(#SVGID_2_)" d="M371.482,129.518
		c-10.387,15.743-27.739,19.084-43.396,26.335c18.335,10.43,38.252,12.648,58.627,13.434c-4.362,8.963-11.967,13.478-21.341,14.672
		c-7.248,0.924-14.651,0.656-21.99,0.886c-2.023,0.064-4.054,0.009-6.321,0.009c0,27.302,0,54.338,0,81.817
		c12.081,0,24.164,0,36.431,0c0,7.748,0,15.057,0,22.813c-5.747,0-11.571,0-17.707,0c0,33.153,0,65.866,0,98.887
		c-18.551,0-36.784,0-55.466,0c0-32.4,0-64.959,0-97.754c-34.465,0-68.486,0-102.948,0c0,32.595,0,65.155,0,97.896
		c-20.126,0-39.81,0-59.806,0c0-32.901,0-65.617,0-98.76c-6.119,0-11.942,0-17.943,0c0-7.834,0-15.231,0-22.935
		c12.622,0,25.099,0,37.851,0c0-27.33,0-54.364,0-81.947c-2.026,0-4.194-0.312-6.236,0.056c-8.76,1.58-17.269-0.139-25.858-1.45
		c-7.469-1.142-13.174-5.189-18.328-10.271c-1.009-0.995-1.5-2.509-2.344-3.989c21.667-0.526,42.663-3.053,61.958-13.254
		c-7.208-3.077-14.174-6.61-21.51-9.031c-7.507-2.476-13.566-6.921-19.413-11.848c-1.666-1.403-2.83-3.394-4.641-5.633
		c4.322,0.245,7.934,0.539,11.552,0.626c4.124,0.1,8.263,0.168,12.381-0.024c7.381-0.343,13.998-2.891,20.199-6.938
		c8.082-5.276,14.348-12.428,19.426-20.291c2.024-3.135,3.041-2.906,5.816-2.488c6.678,1.009,13.429,2.101,20.153,2.103
		c4.73,0.003,9.473-1.667,14.187-2.691c8.813-1.912,16.297-6.668,24.053-10.937c1.218-0.673,4.035,1.421,6.054,2.362
		c5.563,2.588,10.928,5.718,16.687,7.733c5.284,1.851,10.958,3.351,16.502,3.503c6.078,0.168,12.222-1.258,18.293-2.256
		c2.356-0.385,3.749-0.909,4.666,2.315c0.737,2.598,3.188,4.725,4.956,7.001c6.062,7.807,12.972,14.628,22.32,18.431
		c1.823,0.742,3.82,1.115,5.773,1.468c8.357,1.515,16.723,1.58,25.094,0.047C369.87,129.294,370.585,129.468,371.482,129.518z
		 M281.37,229.035c1.182-17.123-15.062-31.143-29.474-32.08c-20.597-1.341-33.768,16.469-34.581,30.105
		c-1.153,19.391,16.261,34.36,32.434,34.205C266.079,261.108,282.729,245.803,281.37,229.035z M218.725,204.826
		c-6.854-5.33-13.851-10.772-21.104-16.414c0,12.842,0,24.906,0,36.843c4.691,0,7.963,0,12.425,0
		C211.174,216.283,213.684,210.888,218.725,204.826z M280.481,203.744c5.808,7.333,7.378,14.298,8.372,21.558
		c3.208,0,7.115,0,11.141,0c0-12.349,0-24.456,0-37.486C292.821,193.672,286.196,199.078,280.481,203.744z M216.308,250.909
		c-3.14-6.047-5.194-11.218-6.248-18.087c-3.738,0-8.121,0-12.462,0c0,11.343,0,22.42,0,34.033
		C204.25,261.185,210.475,255.881,216.308,250.909z M299.924,267.332c0-12.054,0-23.273,0-34.586c-4.159,0-8.076,0-11.297,0
		c-0.645,6.757-2.619,11.33-6.819,18.552C287.367,256.216,293.406,261.561,299.924,267.332z M245.793,183.691
		c-14.119,0-27.829,0-42.152,0c6.935,5.553,13.354,10.694,19.673,15.754c3.633-2.141,6.942-4.573,10.626-6.129
		c3.715-1.571,7.652-2.162,11.995-2.825C245.935,188.688,245.793,185.995,245.793,183.691z M253.85,190.76
		c7.51,0.438,14.743,4.653,20.614,8.632c6.528-5.224,12.64-10.109,18.745-14.998c-0.211-0.233-0.43-0.465-0.645-0.7
		c-12.896,0-25.8,0-38.715,0C253.85,186.118,253.85,188.251,253.85,190.76z M204.167,270.856c14.467,0,27.995,0,41.575,0
		c0-1.248,0-2.271,0-3.222c-10.409-1.337-18.222-4.291-24.511-11.336C215.448,261.231,210.356,265.577,204.167,270.856z
		 M293.465,270.92c-5.6-4.977-10.697-9.003-15.33-13.516c-1.244-1.211-1.01-1.164-2.645,0.151
		c-6.157,5.276-13.217,8.518-21.188,9.85c-0.179,0.029,0.092,0.3-0.238,0.647c0.101,0.853-0.188,1.868-0.068,2.868
		C267,270.92,279.714,270.92,293.465,270.92z"/>
</g>
</svg>
