<svg id="svg" version="1.1" xmlns="http://www.w3.org/2000/svg" xmlns:xlink="http://www.w3.org/1999/xlink" width="400" height="400" viewBox="0, 0, 400,400"><g id="svgg"><path id="path0" d="M188.600 0.446 C 131.088 4.090,80.234 30.371,43.948 75.200 C 34.226 87.211,22.889 105.607,17.828 117.583 C 12.489 130.218,9.831 137.614,7.257 147.000 C -24.954 264.445,54.603 383.540,175.200 398.407 C 257.539 408.557,334.585 368.900,375.963 295.069 C 398.891 254.159,405.777 201.452,394.445 153.600 C 372.256 59.899,284.205 -5.613,188.600 0.446 M224.000 7.347 C 231.899 8.403,238.850 9.653,245.400 11.196 C 250.991 12.513,250.638 12.239,249.035 14.014 C 244.663 18.853,244.972 24.588,249.710 26.561 C 251.882 27.465,253.845 26.956,254.239 25.387 C 254.855 22.933,252.033 21.815,250.415 23.872 C 249.351 25.225,248.450 24.548,248.131 22.155 C 247.556 17.841,253.783 16.071,256.589 19.751 C 258.474 22.221,257.616 26.969,254.867 29.283 C 252.509 31.266,250.509 31.125,247.847 28.787 L 246.404 27.521 246.631 28.660 C 247.984 35.450,234.961 35.461,228.342 28.676 L 226.000 26.275 226.000 27.750 C 226.000 31.237,224.019 33.347,220.054 34.085 C 216.640 34.720,216.182 34.443,217.249 32.395 C 219.412 28.245,215.954 24.039,210.765 24.510 L 208.489 24.716 208.251 23.227 C 207.779 20.276,204.691 17.200,202.200 17.200 C 199.472 17.200,196.000 20.864,196.000 23.742 C 196.000 24.696,195.934 24.718,193.679 24.514 C 188.409 24.036,184.642 28.738,187.200 32.600 C 188.383 34.386,188.235 34.528,185.418 34.302 C 181.031 33.950,178.400 31.623,178.400 28.095 L 178.400 26.309 176.100 28.676 C 169.672 35.290,156.931 35.783,157.677 29.388 C 157.876 27.684,157.897 27.684,155.892 29.400 C 151.211 33.406,144.389 26.807,147.202 20.995 C 149.387 16.482,156.109 17.180,156.109 21.920 C 156.109 24.665,154.901 25.545,153.529 23.800 C 152.291 22.226,150.000 22.960,150.000 24.930 C 150.000 28.103,155.325 27.823,157.478 24.537 C 159.440 21.543,157.522 15.343,153.953 13.144 C 153.111 12.625,152.417 12.100,152.411 11.979 C 152.363 10.988,175.355 7.092,186.200 6.252 C 193.625 5.678,216.463 6.339,224.000 7.347 M136.800 16.662 C 136.800 16.806,136.376 17.481,135.857 18.162 C 128.629 27.646,130.680 46.414,140.538 61.000 C 147.096 70.704,159.381 79.893,168.200 81.690 C 168.680 81.788,167.421 82.368,165.048 83.142 C 139.628 91.429,117.476 107.580,102.423 128.800 C 101.253 130.450,100.184 131.926,100.048 132.080 C 99.911 132.234,99.800 129.624,99.800 126.280 L 99.800 120.200 98.041 114.833 C 92.961 99.333,83.642 88.130,70.108 81.252 C 64.000 78.148,54.502 77.134,49.700 79.075 C 47.062 80.140,46.998 80.325,50.866 75.703 C 64.949 58.873,84.226 42.445,100.800 33.152 C 102.450 32.227,104.250 31.160,104.800 30.782 C 107.895 28.653,122.865 21.596,130.400 18.714 C 131.830 18.168,133.720 17.441,134.600 17.099 C 136.471 16.373,136.800 16.307,136.800 16.662 M272.659 19.931 C 279.842 22.895,282.097 23.920,287.541 26.698 C 310.357 38.339,331.205 54.647,347.125 73.308 C 351.638 78.598,351.722 78.193,346.098 78.233 C 325.339 78.380,300.970 106.800,303.375 128.057 C 303.718 131.088,303.901 131.213,299.336 125.317 C 287.471 109.993,270.520 96.376,254.002 88.898 C 252.351 88.151,250.370 87.250,249.600 86.897 C 248.830 86.544,245.282 85.245,241.716 84.012 L 235.231 81.769 237.945 81.070 C 248.990 78.225,263.319 65.000,268.209 53.138 C 273.534 40.220,274.351 29.563,270.619 21.705 C 269.043 18.386,269.002 18.422,272.659 19.931 M222.880 53.240 C 227.526 54.204,232.657 58.249,235.050 62.833 C 238.181 68.833,235.089 76.800,229.630 76.800 C 227.226 76.800,225.436 75.129,227.331 74.653 C 229.860 74.018,229.382 70.299,226.743 70.079 C 223.576 69.814,222.059 74.224,223.824 78.563 C 224.108 79.262,224.001 79.303,222.567 79.045 C 219.445 78.484,210.537 77.609,207.900 77.605 C 206.415 77.602,205.200 77.503,205.200 77.384 C 205.200 76.536,206.938 74.000,207.519 74.000 C 208.689 74.000,209.853 72.926,211.126 70.669 C 212.112 68.922,212.742 68.326,214.532 67.451 C 218.635 65.443,219.993 63.275,219.998 58.726 C 219.999 57.475,220.185 55.965,220.411 55.371 C 220.637 54.776,220.756 54.222,220.674 54.140 C 220.512 53.979,215.560 57.575,214.102 58.913 C 212.766 60.137,212.622 59.525,213.730 57.340 C 215.618 53.617,218.492 52.329,222.880 53.240 M187.615 54.100 C 188.972 54.784,189.673 55.510,190.540 57.127 C 191.791 59.462,191.693 60.191,190.298 58.913 C 188.840 57.575,183.888 53.979,183.726 54.140 C 183.644 54.222,183.773 54.804,184.012 55.432 C 184.251 56.061,184.502 57.864,184.570 59.437 C 184.764 63.972,186.063 65.624,191.600 68.374 C 191.930 68.538,192.847 69.736,193.637 71.036 C 194.719 72.817,195.410 73.510,196.437 73.847 C 197.187 74.093,198.004 74.693,198.254 75.181 C 198.503 75.668,198.908 76.268,199.154 76.514 C 200.007 77.367,199.570 77.477,194.300 77.736 C 191.385 77.880,187.216 78.268,185.035 78.598 C 182.854 78.929,180.928 79.200,180.755 79.200 C 180.582 79.200,180.702 78.576,181.020 77.813 C 182.808 73.534,179.214 68.053,176.331 70.662 C 174.977 71.888,175.749 74.800,177.429 74.800 C 178.561 74.800,177.969 76.054,176.559 76.643 C 173.719 77.829,168.840 74.553,168.176 71.015 C 166.313 61.083,179.210 49.861,187.615 54.100 M206.097 115.900 L 206.200 145.000 245.300 145.200 C 276.001 145.357,284.400 145.295,284.400 144.910 C 284.400 142.389,271.745 127.242,264.627 121.243 C 254.382 112.609,235.563 102.966,226.544 101.730 L 224.788 101.490 224.894 113.845 L 225.000 126.200 229.700 126.313 L 234.400 126.425 234.400 120.960 L 234.400 115.495 235.755 115.715 C 242.577 116.822,261.401 129.597,264.362 135.128 L 264.828 136.000 240.611 136.000 L 216.394 136.000 216.497 111.900 L 216.600 87.800 218.400 87.932 C 221.619 88.169,232.478 90.696,237.600 92.400 C 266.820 102.125,291.450 123.818,304.476 151.300 L 305.566 153.600 202.206 153.600 L 98.845 153.600 99.683 151.700 C 109.970 128.376,133.125 106.216,158.400 95.506 C 168.171 91.365,186.768 86.689,187.694 88.139 C 187.856 88.393,187.991 99.265,187.994 112.300 L 188.000 136.000 163.800 136.000 C 150.490 136.000,139.600 135.919,139.600 135.821 C 139.600 132.142,161.642 116.852,168.564 115.728 L 170.000 115.495 170.000 120.960 L 170.000 126.425 174.700 126.313 L 179.400 126.200 179.506 113.848 L 179.612 101.495 177.668 101.753 C 170.221 102.741,153.130 111.003,143.334 118.350 C 135.012 124.591,120.000 141.662,120.000 144.885 C 120.000 145.302,127.394 145.380,159.000 145.296 L 198.000 145.192 198.000 116.263 C 198.000 100.352,198.120 87.213,198.267 87.067 C 198.413 86.920,200.212 86.800,202.264 86.800 L 205.995 86.800 206.097 115.900 M52.316 91.163 C 57.649 93.906,58.352 99.547,53.664 101.976 C 52.374 102.645,52.295 102.766,53.000 103.000 C 56.061 104.014,56.576 104.900,56.288 108.655 C 55.931 113.301,51.875 118.513,47.006 120.583 L 44.445 121.671 46.476 122.736 C 49.258 124.193,50.114 125.796,49.874 129.100 C 49.659 132.049,48.513 134.321,47.916 132.981 C 45.854 128.362,38.362 130.618,37.628 136.079 L 37.400 137.774 35.498 137.657 C 27.399 137.157,24.868 145.712,32.021 149.411 L 33.123 149.981 32.362 151.475 C 29.651 156.791,33.707 162.194,38.900 160.185 C 39.902 159.797,39.792 160.597,38.455 163.400 C 36.720 167.037,34.110 168.510,30.949 167.637 C 29.008 167.101,29.021 166.946,30.720 170.367 C 33.527 176.022,32.679 183.516,28.853 186.876 C 27.471 188.089,27.167 188.123,24.516 187.367 L 23.631 187.115 24.416 188.738 C 27.576 195.280,17.010 199.781,12.908 193.641 C 10.138 189.494,14.822 184.172,18.698 187.063 C 20.222 188.199,20.222 188.897,18.700 189.600 C 17.172 190.305,16.799 191.694,17.830 192.833 C 19.800 195.010,22.703 191.543,21.630 188.292 C 19.918 183.102,12.138 182.181,7.574 186.629 L 6.148 188.018 6.303 185.509 C 7.444 167.083,13.654 141.341,20.998 124.600 C 25.029 115.410,29.241 107.137,33.254 100.524 C 38.769 91.437,39.200 90.893,39.200 93.013 C 39.200 96.966,43.877 101.600,47.867 101.600 C 51.150 101.600,54.440 97.952,53.187 95.701 C 51.724 93.071,48.412 94.938,49.757 97.634 C 50.842 99.810,47.972 100.570,45.783 98.687 C 41.524 95.023,47.173 88.518,52.316 91.163 M356.435 91.312 C 360.308 93.922,359.225 99.600,354.854 99.600 C 352.989 99.600,352.455 99.044,353.361 98.043 C 354.598 96.676,353.748 94.400,352.000 94.400 C 350.034 94.400,349.322 97.430,350.835 99.354 C 353.691 102.985,359.196 102.067,362.476 97.413 C 363.174 96.422,363.802 95.669,363.872 95.739 C 364.731 96.598,371.275 108.322,374.176 114.200 C 384.075 134.254,389.949 154.041,392.847 177.085 C 393.816 184.794,393.792 185.145,392.359 184.378 C 389.444 182.818,384.332 184.064,382.501 186.781 C 380.607 189.592,381.969 194.096,384.520 193.456 C 386.805 192.882,386.741 189.808,384.435 189.347 C 382.070 188.874,384.551 186.237,387.288 186.315 C 392.104 186.451,392.284 194.680,387.501 196.060 C 381.584 197.768,376.628 193.662,378.808 188.857 C 379.482 187.372,379.505 187.151,378.962 187.359 C 372.130 189.981,368.122 177.391,373.175 169.179 L 374.378 167.224 373.089 167.512 C 368.739 168.483,364.850 165.885,364.145 161.537 L 363.909 160.087 365.580 160.533 C 370.161 161.756,373.804 155.419,370.881 151.314 C 370.053 150.151,370.039 150.040,370.693 149.819 C 371.737 149.465,373.326 147.961,374.534 146.183 C 377.516 141.795,373.848 137.182,367.764 137.665 L 366.070 137.800 365.818 136.200 C 364.984 130.920,359.274 128.587,356.105 132.232 L 354.810 133.722 354.205 132.274 C 352.491 128.170,353.831 123.953,357.351 122.377 L 358.936 121.667 357.419 121.034 C 356.585 120.685,355.760 120.400,355.587 120.400 C 355.414 120.400,354.362 119.681,353.251 118.802 C 346.855 113.747,344.637 105.273,349.228 103.436 C 351.139 102.671,351.156 102.559,349.467 101.854 C 344.773 99.893,345.608 94.094,350.994 91.244 C 353.053 90.154,354.748 90.175,356.435 91.312 M86.812 125.240 C 91.815 126.313,95.269 132.755,92.564 135.969 C 91.231 137.554,90.400 137.569,90.400 136.009 C 90.400 133.771,87.036 132.864,85.989 134.820 C 84.236 138.096,90.368 142.344,94.026 140.386 C 95.203 139.756,95.019 140.395,92.841 144.522 C 91.217 147.599,88.410 153.966,86.733 158.375 L 86.363 159.350 85.646 158.175 C 85.252 157.529,84.630 156.753,84.265 156.451 C 83.865 156.121,83.600 155.315,83.600 154.429 C 83.600 153.112,82.371 150.780,81.279 150.025 C 80.372 149.398,79.600 147.647,79.596 146.211 C 79.587 142.660,77.222 139.477,73.800 138.414 C 72.920 138.140,71.508 137.472,70.663 136.928 C 68.590 135.595,68.578 135.685,70.213 140.381 C 71.953 145.381,71.884 145.727,69.609 143.409 C 62.394 136.058,75.029 122.713,86.812 125.240 M323.016 125.413 C 333.708 128.160,339.337 137.678,333.669 143.427 C 331.531 145.595,331.237 145.341,332.427 142.354 C 334.469 137.228,334.764 135.185,333.265 136.541 C 332.859 136.909,331.390 137.655,330.001 138.200 C 325.551 139.944,324.294 141.533,323.761 146.087 C 323.535 148.012,323.217 148.696,321.747 150.419 C 320.389 152.009,319.996 152.792,319.984 153.933 C 319.972 154.958,319.618 155.809,318.805 156.759 L 317.643 158.118 317.038 156.759 C 316.705 156.012,315.870 154.050,315.182 152.400 C 314.494 150.750,312.962 147.465,311.778 145.100 L 309.625 140.800 311.432 140.800 C 315.883 140.800,319.577 136.114,316.642 134.191 C 314.882 133.038,312.800 134.221,312.800 136.374 C 312.800 137.500,311.938 137.412,310.770 136.167 C 309.426 134.736,309.475 131.966,310.887 129.558 C 313.308 125.426,317.497 123.994,323.016 125.413 M202.879 163.599 C 327.532 163.594,322.408 163.526,323.605 165.208 C 324.225 166.078,324.991 166.447,327.228 166.952 C 329.686 167.507,330.301 167.836,331.840 169.420 C 334.841 172.508,337.045 173.002,341.536 171.595 C 342.930 171.158,344.516 170.800,345.059 170.800 C 346.624 170.800,345.635 169.978,338.949 165.724 C 337.990 165.113,340.161 165.024,342.539 165.576 C 352.169 167.811,347.856 187.461,337.046 190.604 C 331.982 192.076,326.059 187.810,327.599 183.800 C 327.999 182.759,328.122 182.684,328.530 183.235 C 329.860 185.030,332.470 184.957,333.159 183.106 C 334.502 179.497,327.979 178.151,324.500 181.320 C 324.005 181.771,323.600 182.038,323.600 181.914 C 323.600 181.667,322.135 174.349,321.795 172.899 L 321.584 171.999 202.092 172.099 L 82.600 172.200 81.629 177.600 C 81.095 180.570,80.618 183.057,80.569 183.127 C 80.520 183.197,79.770 182.494,78.904 181.565 C 75.722 178.153,69.212 179.205,70.159 182.978 C 70.552 184.545,72.592 185.104,74.032 184.040 C 75.516 182.942,76.000 183.226,76.000 185.193 C 76.000 189.437,69.568 192.262,64.774 190.125 C 54.996 185.765,52.096 167.944,60.783 165.605 C 65.043 164.457,65.085 165.219,60.912 167.981 L 57.013 170.562 59.406 171.062 C 60.723 171.337,62.731 171.783,63.869 172.054 C 66.723 172.732,68.512 172.124,71.496 169.462 C 73.522 167.654,74.266 167.252,76.348 166.842 C 78.305 166.457,78.985 166.118,79.679 165.179 C 80.158 164.531,80.832 163.990,81.175 163.977 C 81.519 163.965,82.430 163.728,83.200 163.452 C 83.970 163.175,84.799 163.096,85.043 163.275 C 85.286 163.455,138.313 163.601,202.879 163.599 M314.177 182.900 C 314.914 187.385,315.245 190.985,315.469 196.913 L 315.723 203.625 320.161 203.513 L 324.600 203.400 324.800 198.600 C 324.983 194.219,325.049 193.887,325.561 194.800 C 329.067 201.053,339.419 208.728,349.517 212.561 C 363.661 217.930,381.905 216.448,391.417 209.157 L 394.126 207.081 393.847 212.359 C 393.231 224.033,390.063 242.657,386.934 253.000 C 380.647 273.785,372.832 290.797,361.996 307.286 C 360.201 310.017,359.619 310.173,359.606 307.924 C 359.556 299.130,345.721 284.713,332.404 279.577 C 321.933 275.539,307.661 274.495,299.819 277.194 C 296.831 278.222,296.809 278.174,299.000 275.353 C 304.006 268.906,309.966 259.197,313.091 252.400 C 314.051 250.310,315.004 248.240,315.208 247.800 C 317.242 243.404,319.632 235.987,319.081 235.778 C 317.112 235.030,85.008 235.846,85.137 236.600 C 86.412 244.027,95.822 262.543,103.668 273.063 C 105.171 275.077,106.400 276.808,106.400 276.909 C 106.400 277.010,105.185 276.742,103.700 276.313 C 99.756 275.175,91.213 274.929,84.800 275.771 C 60.036 279.019,39.205 300.555,45.516 316.385 L 46.387 318.569 45.439 317.585 C 35.543 307.317,20.577 277.630,13.398 254.028 C 11.310 247.168,8.523 233.851,7.572 226.200 C 7.326 224.220,6.963 221.430,6.764 220.000 C 6.565 218.570,6.291 213.980,6.154 209.800 L 5.905 202.200 7.176 204.079 C 20.553 223.853,66.596 216.890,78.558 193.283 C 79.138 192.138,79.655 191.200,79.707 191.199 C 79.758 191.199,79.742 193.989,79.672 197.399 L 79.544 203.600 84.172 203.600 L 88.800 203.600 88.800 199.456 C 88.800 195.505,89.783 183.778,90.238 182.300 C 90.443 181.636,96.124 181.600,202.209 181.600 L 313.964 181.600 314.177 182.900 M102.887 198.700 L 103.000 203.400 122.700 203.504 L 142.400 203.608 142.400 208.804 L 142.400 214.000 111.400 214.000 L 80.400 214.000 80.434 215.300 C 80.452 216.015,80.767 218.040,81.134 219.800 L 81.800 223.000 202.191 223.000 L 322.581 223.000 323.055 220.865 C 323.316 219.690,323.653 217.666,323.804 216.367 L 324.078 214.005 293.539 213.903 L 263.000 213.800 262.888 208.700 L 262.776 203.600 283.588 203.600 L 304.400 203.600 304.400 198.800 L 304.400 194.000 203.587 194.000 L 102.775 194.000 102.887 198.700 M252.400 208.800 L 252.400 214.000 202.800 214.000 L 153.200 214.000 153.200 208.800 L 153.200 203.600 202.800 203.600 L 252.400 203.600 252.400 208.800 M304.726 248.300 C 292.493 275.282,266.887 298.020,237.938 307.607 C 231.501 309.738,220.213 312.385,217.500 312.398 C 217.335 312.399,217.200 301.357,217.200 287.860 L 217.200 263.321 225.100 263.064 C 236.558 262.690,265.111 262.733,265.353 263.124 C 266.797 265.461,247.540 279.586,238.514 282.809 C 234.802 284.135,234.800 284.133,234.800 278.000 L 234.800 272.775 230.100 272.887 L 225.400 273.000 225.400 285.200 C 225.400 299.435,224.881 298.292,230.588 296.637 C 252.026 290.422,272.939 274.423,284.360 255.500 L 285.265 254.000 246.035 254.000 L 206.805 254.000 206.703 283.700 L 206.600 313.400 202.800 313.400 L 199.000 313.400 198.897 283.700 L 198.795 254.000 159.597 254.000 C 138.039 254.000,120.400 254.146,120.400 254.325 C 120.400 255.312,127.366 264.675,132.179 270.157 C 136.046 274.562,144.251 281.541,148.800 284.297 C 160.765 291.542,174.548 297.600,179.070 297.600 L 180.000 297.600 180.000 285.187 L 180.000 272.775 175.300 272.887 L 170.600 273.000 170.488 278.300 C 170.358 284.471,170.613 284.238,165.991 282.431 C 160.213 280.172,155.229 277.191,149.171 272.371 C 145.190 269.203,139.864 263.743,140.210 263.184 C 140.482 262.744,172.189 262.653,182.100 263.064 L 188.400 263.325 188.400 287.863 L 188.400 312.400 187.500 312.398 C 184.178 312.393,173.373 309.933,166.354 307.585 C 137.415 297.903,111.970 275.380,99.831 248.700 L 98.420 245.600 202.185 245.600 L 305.950 245.600 304.726 248.300 M110.586 285.641 C 112.189 287.049,112.583 288.878,111.206 288.518 C 108.973 287.933,107.212 289.727,107.996 291.789 C 109.051 294.564,113.936 292.857,115.549 289.150 L 116.200 287.653 120.000 291.080 C 122.090 292.965,125.211 295.583,126.935 296.898 C 130.640 299.724,130.550 300.184,126.281 300.225 C 124.109 300.246,123.007 300.468,121.804 301.128 C 120.373 301.912,119.833 301.977,116.604 301.752 C 112.369 301.457,110.686 301.968,109.172 304.011 C 108.638 304.733,107.317 306.223,106.237 307.323 L 104.275 309.323 109.137 309.099 C 114.622 308.847,114.811 308.944,111.957 310.547 C 103.548 315.270,94.042 300.609,98.734 290.153 C 101.010 285.082,107.245 282.708,110.586 285.641 M300.600 285.666 C 306.651 287.243,308.684 298.472,304.332 306.269 C 301.403 311.515,296.359 313.421,292.071 310.900 C 289.786 309.557,290.184 309.436,296.104 309.673 L 300.007 309.829 298.237 308.132 C 297.263 307.199,296.164 305.924,295.795 305.300 C 294.339 302.834,292.719 302.201,287.826 302.186 C 284.063 302.175,283.113 302.036,281.484 301.261 C 279.860 300.488,279.367 300.415,278.249 300.784 C 277.172 301.139,276.630 301.085,275.291 300.485 L 273.653 299.752 276.526 297.576 C 278.980 295.718,283.509 291.869,287.198 288.506 L 288.195 287.597 288.437 288.501 C 289.428 292.206,293.241 294.851,295.478 293.385 C 297.593 292.000,296.099 288.440,293.611 288.938 C 292.188 289.222,291.967 288.396,293.051 286.848 C 294.423 284.890,296.423 284.577,300.600 285.666 M147.515 309.800 C 152.099 312.065,152.006 311.966,150.406 312.877 C 147.602 314.472,146.470 319.641,148.616 321.048 C 150.747 322.444,153.208 319.834,151.903 317.561 C 151.008 316.001,152.471 315.502,154.492 316.678 C 158.503 319.012,158.484 325.236,154.455 329.177 C 145.234 338.198,127.018 332.722,131.075 322.149 C 131.388 321.334,132.000 321.484,132.000 322.375 C 132.000 323.294,133.974 329.651,134.410 330.136 C 134.576 330.321,135.009 329.577,135.372 328.483 C 135.736 327.389,136.379 326.181,136.802 325.798 C 139.102 323.717,139.249 319.704,137.168 315.803 C 136.077 313.760,136.002 313.364,136.248 310.965 C 136.483 308.673,136.410 308.210,135.658 307.192 C 134.777 306.001,134.640 305.237,135.040 303.746 C 135.257 302.939,135.498 303.028,139.369 305.346 C 141.623 306.696,145.289 308.700,147.515 309.800 M269.496 304.853 C 269.616 306.132,269.455 306.703,268.770 307.432 C 267.980 308.273,267.912 308.665,268.107 311.284 C 268.310 314.015,268.244 314.339,267.068 316.400 C 265.415 319.296,265.254 323.263,266.715 325.069 C 267.218 325.691,268.132 327.251,268.745 328.536 L 269.861 330.873 270.681 328.731 C 271.131 327.553,271.731 325.557,272.014 324.295 C 272.789 320.831,273.613 321.525,273.711 325.724 C 273.970 336.778,250.472 336.680,247.157 325.613 C 246.581 323.693,247.097 320.228,248.210 318.528 C 249.482 316.587,253.367 315.677,252.585 317.503 C 251.553 319.915,252.355 321.733,254.449 321.733 C 257.983 321.733,257.576 315.636,253.886 313.295 L 252.127 312.180 256.801 309.850 C 259.372 308.568,263.168 306.485,265.238 305.221 C 269.485 302.626,269.290 302.642,269.496 304.853 M65.326 310.039 C 66.408 310.532,67.600 312.720,67.600 314.214 C 67.600 315.480,67.653 315.467,69.320 313.800 C 73.628 309.492,83.600 318.301,83.600 326.415 C 83.600 328.739,83.716 328.799,85.073 327.186 C 87.258 324.590,90.096 324.129,93.489 325.819 C 96.354 327.247,96.798 327.869,95.343 328.420 C 90.396 330.295,91.025 338.137,96.228 339.443 C 97.381 339.732,97.350 339.544,96.559 341.437 C 93.445 348.890,100.352 353.546,106.838 348.366 L 107.875 347.537 109.069 348.731 C 112.780 352.441,119.193 350.523,119.199 345.700 C 119.200 344.048,119.707 344.064,121.805 345.783 C 124.767 348.209,125.563 351.336,124.000 354.400 C 123.560 355.262,123.200 356.039,123.200 356.125 C 123.200 356.212,124.405 356.012,125.878 355.682 C 134.333 353.785,144.715 360.210,141.634 365.432 C 141.175 366.210,140.800 366.880,140.799 366.923 C 140.799 366.965,141.795 366.938,143.012 366.862 C 149.052 366.486,150.573 375.467,145.042 378.840 C 140.636 381.526,135.210 375.929,138.769 372.369 C 140.088 371.050,141.693 370.782,141.579 371.900 C 141.335 374.295,142.784 375.427,144.584 374.248 C 147.039 372.639,144.734 369.600,141.058 369.600 C 136.046 369.600,132.748 376.071,135.005 381.474 C 135.779 383.327,135.745 383.345,133.166 382.454 C 105.398 372.869,75.461 352.435,54.852 329.000 C 49.358 322.753,49.481 322.988,52.443 324.390 C 57.433 326.750,63.194 324.828,65.283 320.105 C 67.039 316.135,63.651 310.964,60.602 312.962 C 58.468 314.360,60.304 317.519,62.635 316.457 C 64.011 315.830,64.000 315.822,64.000 317.431 C 64.000 322.017,57.375 322.399,55.666 317.911 C 53.793 312.989,60.250 307.727,65.326 310.039 M344.656 310.827 C 346.823 311.876,348.686 313.984,349.020 315.765 C 350.090 321.471,342.022 324.456,340.440 318.939 C 339.962 317.274,340.487 316.421,341.575 317.095 C 343.460 318.263,345.459 316.065,344.224 314.180 C 342.572 311.660,338.388 314.753,338.407 318.480 C 338.422 321.481,342.171 325.298,345.650 325.854 C 346.503 325.991,347.200 326.253,347.200 326.438 C 347.200 328.017,328.901 345.900,321.200 351.846 C 308.325 361.787,299.518 367.416,287.000 373.704 C 281.605 376.414,280.234 377.049,275.200 379.170 C 273.550 379.865,271.639 380.681,270.953 380.985 L 269.706 381.537 269.726 378.446 C 269.749 374.824,268.711 372.445,266.441 370.915 C 262.722 368.411,256.737 371.458,259.462 374.469 C 260.798 375.945,263.091 374.634,262.705 372.614 C 262.279 370.388,265.604 371.789,266.389 374.167 C 268.187 379.615,259.948 382.152,257.031 377.048 C 254.125 371.962,256.339 366.866,261.262 367.312 C 263.772 367.540,264.055 367.335,262.800 366.200 C 258.013 361.868,269.933 354.177,278.398 356.137 C 281.278 356.803,281.628 356.736,280.688 355.697 C 278.338 353.100,279.283 348.698,282.751 346.088 C 284.654 344.655,284.898 344.679,285.093 346.315 C 285.709 351.484,291.982 353.045,295.469 348.898 L 296.339 347.863 297.771 349.121 C 303.579 354.221,310.003 350.118,307.843 342.689 C 307.044 339.939,307.041 340.000,307.969 340.000 C 312.523 340.000,313.930 331.518,309.731 329.380 C 308.889 328.951,308.123 328.553,308.029 328.496 C 307.796 328.354,309.140 327.326,310.600 326.528 C 313.842 324.758,316.713 325.121,318.936 327.582 L 320.358 329.155 320.583 327.278 C 321.759 317.463,332.490 308.877,335.766 315.129 C 336.293 316.135,336.309 316.118,336.966 313.859 C 338.036 310.176,340.943 309.030,344.656 310.827 M241.949 316.675 C 241.647 317.047,240.975 317.812,240.455 318.375 C 224.583 335.594,228.929 375.658,247.834 386.393 L 250.200 387.736 247.400 388.465 C 221.051 395.322,189.384 396.026,161.247 390.378 C 153.221 388.768,151.174 388.185,152.200 387.805 C 162.615 383.939,168.792 375.317,172.621 359.303 C 175.749 346.217,171.506 326.241,163.869 318.106 C 162.351 316.489,162.685 316.101,164.891 316.917 C 185.293 324.463,219.931 324.346,240.200 316.663 C 242.308 315.864,242.607 315.866,241.949 316.675 " stroke="none" fill="#720707" fill-rule="evenodd"></path></g></svg>