<?xml version="1.0" encoding="UTF-8" standalone="no"?>
<!-- Created with Inkscape (http://www.inkscape.org/) -->

<svg
   xmlns:dc="http://purl.org/dc/elements/1.1/"
   xmlns:cc="http://creativecommons.org/ns#"
   xmlns:rdf="http://www.w3.org/1999/02/22-rdf-syntax-ns#"
   xmlns:svg="http://www.w3.org/2000/svg"
   xmlns="http://www.w3.org/2000/svg"
   version="1.1"
   width="278"
   height="300"
   id="svg2">
  <defs
     id="defs7" />
  <metadata
     id="metadata7">
    <rdf:RDF>
      <cc:Work
         rdf:about="">
        <dc:format>image/svg+xml</dc:format>
        <dc:type
           rdf:resource="http://purl.org/dc/dcmitype/StillImage" />
        <dc:title></dc:title>
      </cc:Work>
    </rdf:RDF>
  </metadata>
  <path
     d="m 138.9985325840902,5 -45.60198098208636,45.664578073345211 27.69138824564234,27.63074731348527 -9.7197633452209,9.71976334522094 -0.24451988773,-0.24451988772998 c -0.00459619143,-0.0368188266148 0.00457956407,-0.0856210838875 0,-0.12225994386498 -0.6768310492365,-5.41484400980238 -2.6187101896327,-13.56302913260527 -7.0300445801914,-14.05989354447259 -0.7467050523542,-4.65389811918675 -7.73758732732682,-6.70317039427397 -12.71503416195786,-5.5629252538116 l -7.64075745178573,-7.7033545430446 -45.66457807334516,45.66457807334511 27.63074731348523,27.6913882456424 -27.63074731348525,27.6307473134853 29.46562455101081,29.5869064153249 c -0.7263805592861,1.8102491944335 -1.45489333199322,3.6282839020922 -2.26171115354697,5.4404696940365 -6.3680803403e-4,0.020369484727 -6.3680803403e-4,0.040760487205 0,0.061129971933 -0.0109668147726,0.024602613024 -0.0501441824166,0.036529315068 -0.0611299719325,0.061129971933 -0.0645356449288,0.1125358769697 -0.1063661511625,0.2380254395118 -0.12225994386499,0.3667798315949 -4.74603321288334,10.4668205062135 -12.65615377299239,17.5512463094361 -20.66095243363051,24.1468279531088 -5.48507012155842,4.5185319093395 -10.9987001660037,8.7686787899065 -15.52701287085235,13.8153736567426 -2.74996846536621,3.5253899333355 -5.92403222401124,6.5044246295272 -6.35751708097892,10.3920952285233 1.99684721115794,0.3010137625911 3.57801061317493,1.9005650601654 4.34032581516186,3.1787585404894 -2.71045405150904,-0.1476195904612 -5.15545731289844,1.1858040859442 -6.11299719324897,2.9342386527595 -1.63266907116839,2.9811864712038 -0.11708394688151,5.4093667643172 0.91694957898735,8.3136761828186 0.46359014554498,1.3020977445486 0.42411485486984,2.3548243267946 -0.42790980352744,2.9342386527595 C 14.7627702182979,266.9615891296924 9.442213077204204,270.5830264749283 7.44927818424995,275.3777680494474 4.665663782332075,282.075265582325 4.759559419220379,288.7127090307772 4.759559419220379,295 11.5928143937667,288.5184624319645 21.3812389234622,284.9543405484126 28.2941095734534,283.5685974406694 c 3.88610567171469,-0.7788447463974 6.70258354654344,-3.1333756493267 6.96881680030381,-6.6630691326863 0.24896036889114,-3.3002360207137 -0.0807952393833,-5.0682126169564 0.24451988772997,-5.868477305519 0.60349464450856,-1.4846856351143 2.42348551126916,-2.6460964170585 3.60676615197197,-3.2397907044668 4.23919238959675,-2.127714255071 9.28960395872639,-1.1640320351407 13.08181399355277,-2.8119787088946 3.53164964246133,-1.5347437465304 4.67091670337275,-6.1980901141789 3.17875854048946,-9.9030554530633 0.28687073228479,-1.3592762750953 2.22004496467784,-6.6898685123815 4.82936559062177,-6.4185492449563 0.70662335235754,0.00295556079 1.99078311794223,0.3480593889903 3.72883047992677,1.7116392141097 1.26119445772908,0.9894448353015 1.12596517901891,1.0347886032822 1.34485938251476,0.4279098035274 l 14.24318565231498,-39.4909399479391 0,-0.061129971933 c 0.79148153419534,-2.0506415864585 1.50287791476137,-4.1122376638874 2.20067898956962,-6.1740293572264 l 1.95615910183966,1.9561591018397 27.75398533690125,-27.7539853369012 9.6585355653333,9.719763345221 -27.69138824564247,27.6913882456423 45.60198098208638,45.664578073345 45.7252190055022,-45.6645780733451 -24.08423086185,-24.0842308618499 c 4.2718602465975,-1.4707186591272 8.348104583011,-3.8528509669834 12.103734442633,-7.2745644679215 l 21.6977167576056,21.7016290758092 1.8348772375256,-1.8387895557292 c 0.7497536928623,2.1422617425204 1.5426917744071,4.2887465559342 2.2006789895697,6.1130950012045 l 14.2431856523149,39.4909399479393 c 0.2188942034959,0.6068787997547 0.083672749422,0.5615350317741 1.3448593825147,-0.4279098035276 1.7380669235756,-1.3635798251193 3.0222658123424,-1.7086854138659 3.7288304799269,-1.7116392141097 2.6091250100337,-0.271143213106 4.5423970503819,5.0594099009983 4.8293655906218,6.4185492449564 -1.4921386012924,3.7049653388842 -0.3528519787899,8.3682530217598 3.1787585404894,9.9030554530632 3.7922100348264,1.6479466737538 8.842621603956,0.6842840154147 13.0818139935528,2.8119787088946 1.1831045863837,0.5938312185452 3.0030954531443,1.7552028773076 3.606766151972,3.2397907044668 0.325309258636,0.8003233733356 -0.00444791457,2.5682412848055 0.2445198877299,5.868477305519 0.2662919385334,3.5298890992696 3.0827111285892,5.8843221942439 6.9688168003038,6.6630691326862 6.9132618818116,1.3855866150149 16.7018820274174,4.9496693753849 23.5345501542331,11.4314025593305 0,-6.2878778169534 0.093948453184,-12.9253212654056 -2.6897187650295,-19.6222319505537 -1.9929348929543,-4.7947415745194 -7.313492034048,-8.416178919755 -13.8153736567427,-12.8372941058229 -0.8520246583973,-0.5793556411919 -0.8914999490723,-1.632140908211 -0.4279098035276,-2.9342386527595 1.0340257012327,-2.9043094185014 2.5496577733381,-5.332489711615 0.9169495789875,-8.3136761828186 -0.9575203187595,-1.7484345668153 -3.4025431417398,-3.0819286649483 -6.1129971932489,-2.9342386527595 0.7621587092589,-1.2781934803241 2.343478604004,-2.8777056547163 4.3403258151619,-3.1787585404894 -0.4335631033319,-3.8876705989963 -3.6075486156129,-6.8667052951879 -6.357517080979,-10.3920952285233 -4.5283127048487,-5.0466948668361 -10.0419427492941,-9.2968417474033 -15.5270128708523,-13.8153736567427 -8.005776740189,-6.5949947959422 -15.9158973002981,-13.6796162150749 -20.6609524336305,-24.1468279531089 -0.015892814623,-0.1287504797647 -0.057724298936,-0.2542419984662 -0.122259943865,-0.3667798315949 -0.010985789516,-0.024600656865 -0.050163744008,-0.036527358909 -0.061129971933,-0.061129971933 6.368080339e-4,-0.020369484727 6.368080339e-4,-0.040760487205 0,-0.061129971933 -0.7991888010566,-1.7950107150301 -1.5416489881599,-3.5864220973129 -2.261711153547,-5.3794375300592 l 29.5771256198156,-29.6377665519727 -27.6796512910312,-27.6307473134853 27.6796512910312,-27.6913882456423 -45.6547972778359,-45.66457807334531 -7.8852773395158,7.94591827167267 c -3.1908867269208,-0.71315692375768 -6.6759797827585,0.51871470903482 -7.6411486836061,3.23979070446684 -5.9932802562163,0.52442669361221 -7.9603938490263,5.73487163886335 -8.1914162389535,10.94236278387072 -0.025353778119,0.57127670410128 -0.045958001939,1.14059724910071 -0.061129971933,1.71163921410975 l -3.9123182036794,3.91231820367932 -9.6575574857824,-9.71819841793946 27.6913882456423,-27.69334440474386 -45.7252190055022,-45.662621914243352 z m 0.060640932157,2.750750929007041 42.9142183761586,42.91226221705682 -54.0408513474226,54.04085134742265 -3.3000404048035,-3.4232784282194 50.6156167601013,-50.6175729192032 -36.1889433840338,-36.18894338403386 -36.2495843161908,36.18894338403391 22.924228514459,22.984869446616 -3.3019965639053,3.30199656390539 -26.28686601052152,-26.28686601052138 z m 0,8.130188459065948 34.8431059219682,34.78246498981123 -50.0033389612256,50.00529512032738 -7.0910767441688,-7.2123586084829 42.7303394205857,-42.79293651184453 -20.4790296371595,-20.4770734780577 -20.4790296371594,20.4770734780577 15.0389511749433,15.09959210710039 -7.1536738354276,7.15367383542768 -22.2493536243244,-22.19066885126918 z m 0,15.71030497869469 19.0725512429368,19.07255124293684 -42.0574206895528,42.05742068955282 -3.3626374960624,-3.30004040480351 38.7573802847493,-38.75738028474926 -12.4098733420709,-12.407917182969 -12.4094821102504,12.47051427422786 11.0033949478481,11.00339494784817 -3.3010184843545,3.30101848435439 -14.3660324439105,-14.36798860301231 19.0725512429368,-19.07255124293683 z m 0,9.41401567760341 9.6585355653334,9.65853556533343 -9.6595136448843,9.6595136448843 -9.6595136448843,-9.59691655362542 9.6595136448843,-9.72015457704139 z M 83.67639702496251,63.1333318043815 94.98534402451798,74.44227880393694 c 0.33986308235363,1.91367132614772 0.26515736625437,4.22569489179406 -0.0611299719325,6.6020369687089 l -11.1868826716007,-11.2479148355781 -36.24958431619083,36.18894338403386 22.92422851445902,22.984869446616 -3.30101848435442,3.3010184843545 L 40.8221349252753,105.9882785597543 83.67571236927685,63.1366572748546 z m 110.76750914167118,0 42.8516212848997,42.85162128489971 -41.1419382298918,41.1438943889937 c 0.8695322823587,-2.9704275961435 1.5713826065078,-5.9187505944362 2.017191265817,-8.6804560144135 l 32.4605041359274,-32.4605041359274 -36.2495843161909,-36.18894338403385 -8.0691562950886,8.00812413111123 c -0.3403716837201,-1.35170593937124 -0.6083654806721,-2.72297346976087 -0.7981129135506,-4.15879425051112 -0.082168463073,-0.6224693877964 -0.027797020837,-1.19511540326897 0.122259943865,-1.71163921410972 l 8.8027159582785,-8.80271595827849 z M 94.37267499382187,68.88248340468823 c 3.31216859123492,-0.2337414510788 7.57542173778433,2.22297920333062 8.13018845906602,4.70691003084662 0.8797629944614,3.93833511973378 1.4391658128145,10.81266943541874 0.6724296912574,16.26057253404221 -1.7859732599796,17.62499350757544 -3.92014284008673,40.70180243197794 3.4858755194783,55.07761567139764 8.4877743428823,15.8311956111884 24.0685815890352,30.2852552146817 39.7335036765673,31.6037064493217 20.7352864795003,1.7468500779428 33.820034711706,-16.4395610918606 36.2495843161908,-33.9276234623072 2.672113333113,-20.4790296371595 2.2104597850788,-39.8019692451317 -1.2832403708068,-58.19573327973015 -0.757033572412,-3.98860840865102 -2.6271216737707,-8.02612079484814 -0.854841527504,-12.34727625081193 0.8560543461471,-2.08819984121385 2.304159806057,-2.48412644342621 4.1568380914093,-2.32293893343461 -1.0000472176335,1.24110470375319 -1.2262965793522,2.8352570022064 -1.0392095228523,4.21787025538669 1.4326322414143,10.58868921825814 6.8592718906008,18.50956865342725 10.5753873363656,28.11978708894521 l 0.061129971933,0 c 2.7679651291032,9.3641336205065 1.8857373741734,17.8949434636293 2.6271216737707,27.2023484701825 0.6024970033666,7.5488179739992 -3.8301595214021,27.3803589484498 -12.8363160262719,35.271504765271 -1.0384661823936,0.7079535405468 -2.0541626728418,1.1989494751085 -3.4843105921968,1.1003394947848 -1.2731857130234,-0.087784595854 -1.4441931417062,0.03044761642 -2.1396468255922,1.0392095228523 -2.5557218665535,3.7077039616269 -2.843277254524,7.947287583044 -3.2397907044669,11.981474498768 -0.1149439088242,1.1689615560773 -0.5087382976154,1.8204994681271 -1.1614694667174,2.5674588211646 -7.9723264195476,9.1231348191598 -18.2227957290976,12.1178187881661 -28.1804280211021,11.0033949478481 -9.528450985061,-1.0661067105027 -18.6382839223284,-6.2186297847484 -25.6139472794886,-13.4485938251477 -1.3125827573344,-1.3595305757786 -1.5610149632681,-2.5077959685585 -1.7116392141097,-4.1548819323075 -0.3090731380907,-3.3626374960623 -0.7218227085789,-6.7135380375137 -0.7942005953469,-10.0879124881872 -0.058684773055,-2.7288419470663 -1.1815200975112,-3.196363972406 -3.3626374960624,-3.2393994726464 -3.9467466038717,-0.0764897332 -7.8676719075991,0.800636358792 -10.5753873363656,2.6286866010521 -2.5191416913492,1.7005673535933 -2.5872160280932,1.7573937755017 -3.7900582598144,-0.4279098035274 C 97.1729167481053,158.378914088865 94.52192993329222,151.5491802007021 93.94564546189027,145.2943614725697 91.92258571876764,123.3325632362157 91.89519949134189,106.065546844277 95.59615470406745,86.12054864191978 96.50672720438279,81.21332791904484 97.58106934470418,75.23119776970891 96.26858439532487,71.26586765436974 95.8953296771028,70.13822017852328 94.350511711198,69.48938176603402 93.028793690858,69.18744860866509 c 0.42137623212726,-0.15064968090995 0.8716840573708,-0.27225822379404 1.34485938251477,-0.30564985966241 z M 83.6748320976811,71.20542233812284 94.73925920950661,82.26984944994835 c -0.21599908802513,1.26305280887584 -0.47069100308467,2.52383647319351 -0.79468963512237,3.79005825981439 -0.66558313440093,2.60090914180597 -1.25640186792958,5.2520915725293 -1.7116392141097,7.94689635122361 l -8.4955989792897,-8.49559897928967 -20.47902963715943,20.47902963715951 15.03895117494334,15.0976359479985 -7.2143147675847,7.2143147675847 -22.25130978342619,-22.2513097834262 34.84506208106994,-34.84506208107004 z m 110.70686820951408,0 34.8431059219682,34.78246498981116 -30.86819062703,30.8721029452336 c 0.4052574811281,-2.9729706029759 0.5878844948759,-5.6742307067063 0.4890397754599,-7.7023764634937 -0.1140616810691,-2.3401531335308 -0.049563203163,-4.6619183715043 0,-7.0300445801914 l 16.0160526463123,-16.1383125901772 -20.4790296371595,-20.47902963715954 -3.7284392481065,3.72843924810643 c -1.5571417682464,-3.35226985282264 -3.0390887806181,-6.71392926933412 -4.0345781475442,-10.26983528465826 l 7.7636042433813,-7.76360424338128 z m -16.7496123095021,2.07841904570465 c 0.2048489811446,-0.0269069684458 0.4595017730221,-0.0174997993251 0.6724296912572,0 -1.5384800104147,3.64745426129026 0.2239802171607,7.70198523167329 1.1003394947849,11.24791483557807 4.1096946570549,16.62930852473903 5.0594099009981,36.94988927464954 1.5282492983122,54.40469694036483 -2.5858467167217,12.7819348032408 -8.0104715220334,21.7681384852718 -16.6883845296145,26.9578285824524 -8.7223178191929,5.2159026291453 -19.9860775434958,5.6800991840119 -32.7050240236574,-0.7946896351223 -11.5728328623937,-5.8917555988309 -23.2391701298553,-19.7024344737291 -26.1029870549485,-34.2327842821942 -1.1864887416299,-6.0191015563607 -1.9078810952063,-9.0401936732418 -2.2617111535473,-15.2212652032348 -0.389177853311,-6.7968704152521 0.1197756218056,-17.83821484967589 1.1614694667176,-25.30878645960162 0.7617870390294,-5.46257429188726 0.705077986667,-10.40657080587681 0.061129971932,-14.67119326379749 3.2450723340419,1.95522014547079 4.577607914215,7.62862926535429 5.3184053660817,12.1649622225205 2.6631150012446,16.31065020704932 0.6992290709526,22.33151230660161 2.4451988772996,37.59542177825662 2.4097923975563,21.0658773677113 11.2827344675908,39.700248971836 36.9225030472237,37.4115428226836 7.3962375640558,-0.6601841352799 15.1899666576054,-4.6867615920976 20.4183887050024,-11.859214554903 7.8780395508389,-10.8093439649456 4.4283529747448,-23.4445668355484 4.2178702553867,-34.8431059219681 -0.2040860790949,-11.0626665686339 -2.0160175703559,-22.46257496642485 -1.4671193263797,-33.43858368684723 0.1901171469487,-3.80218644624578 2.3067028128893,-9.01046005489387 5.3794375300591,-9.41401567760336 z m -21.9441928044374,6.48271126349665 15.09920087528,15.09920087527995 c 0.1193804776671,2.35991034045935 0.2650204351172,4.73449187418258 0.4279098035274,7.0910767441689 l -18.8906284464656,-18.89062844646571 3.3626374960624,-3.30004040480351 z m -4.0336000679934,3.97295913583633 19.6828728827107,19.74351381486782 c 0.2830366604452,4.0609862954191 0.5490547367044,8.1118005635087 0.6724296912574,12.1649622225205 0.028374087772,0.9321684967997 0.089042406157,1.9195398034532 0.122259943865,2.8732064887821 l -27.6913882456423,-27.6307473134853 7.2143147675847,-7.15171767632579 z m -67.91588785677153,3.17875854048945 8.37431711497561,8.37431711497563 c -0.30445660261033,1.93835805401292 -0.58362006803385,3.90155932861921 -0.79468963512238,5.86847730551904 l -7.64075745178573,-7.64075745178576 -12.40987334207081,12.47051427422787 11.06403588000515,11.0640358800052 -3.30101848435446,3.3010184843544 -14.42667337606751,-14.3656412120901 19.13358340691411,-19.07255124293682 z m 110.64427111825533,0 19.133583406914,19.13358340691417 -14.61016109982,14.6101610998201 c 0.041691618938,-2.1441459915265 -0.015913941141,-4.3565619357071 -0.1222599438649,-6.5410048047315 l 8.0691562950886,-8.0691562950886 -12.5389798427923,-12.53115520638492 -1.1619585064927,1.16000234739087 c -0.7065059828116,-1.51529952505807 -1.3838065102324,-2.98490317349709 -2.0784190457047,-4.46239014311661 l 3.3010184843545,-3.30101848435447 z m -23.8397109741201,0.060640932157 c -9.638191511e-4,1.67087285842736 0.062730110078,3.34366275277455 0.1222599438651,5.01265769846414 l -2.5674588211646,-2.56745882116455 z m -58.9899338750769,4.03555622709527 26.1010308958467,26.10103089584669 -3.3626374960625,3.3626374960624 -21.9441928044373,-21.94614896353921 c -0.2582130014429,-2.73666658347373 -0.5222944801912,-5.20533936999537 -0.7942005953469,-7.51751942836988 z m 32.2159842481974,0.61129971932489 28.3643069766753,28.24302511236111 c 0.078052704323,2.2934009309969 0.1770578287848,4.5764342187539 0.1833899157973,6.9075890204162 l -5.6259135768908,-5.623957417789 -26.2242689192625,-26.22426891926273 3.3000404048035,-3.30199656390533 z m -4.7084749581281,4.64587786686919 9.7201545770414,9.72015457704131 -9.7201545770413,9.7181984179395 -9.7201545770412,-9.6575574857825 z m -55.68989347027373,0.30564985966248 c 0.79817159832362,5.77340797316964 1.47836724121531,11.57165916693253 1.95615910183966,17.48317197269203 l -1.65050924217722,1.6505092421772 -2.93423865275949,-2.9952708167369 c -0.20539670569315,-4.160750409613 -0.49295209366362,-8.3527993648554 -0.85484152750391,-12.5917961385419 l 3.48431059219678,-3.54553837208452 z m 111.37978694054713,0.12225994386493 3.4843105921969,3.48431059219691 c -0.1785855890434,2.1112825186155 -0.3511305587802,4.2096543871589 -0.4890397754599,6.2964849170015 -0.4102652484288,-1.6982395242621 -0.9550164351091,-3.3908061871289 -1.7116392141098,-5.1349176423291 -0.00708638196,-0.01832608093 0.00709538029,-0.04281836658 0,-0.061129971933 -0.4416811636043,-1.139893031824 -0.9242069292553,-2.216915110115 -1.4059893544474,-3.30101848435459 0.050866005125,-0.42636443783688 0.069480815138,-0.85754102706447 0.122259943865,-1.28372941058227 z m -109.23974888313455,1.40452223512089 4.6458778668692,4.64783402597111 c 0.0767577269971,2.0966113253517 0.11970715623707,4.1963525052664 0.18338991579748,6.2964849170015 l -3.2393994726465,3.2374433135446 c -0.42254992758842,-4.7884818653933 -0.96520802402972,-9.5094762417732 -1.58937927024472,-14.18215348833765 z m 26.95782858245275,1.89502912990719 21.1499922090905,21.14999220909053 -7.151717676326,7.1536738354276 -13.1414768461587,-13.2040739374177 c -0.010268661589,-0.3928163092404 -0.053037341728,-0.7638996908594 -0.061129971933,-1.1614694667173 -0.09887993028,-4.8577298975985 -0.4120257916205,-9.5951560104338 -0.7946896351223,-13.93763360060773 z m -34.47730416992448,1.95615910183973 c 0.23872965678855,2.9183937640346 0.44706060113444,5.8039240551583 0.61129971932489,8.6804560144135 l -4.58484570289181,-4.6458778668692 3.97335036765675,-4.0345781475443 z m 122.07606490940648,0.061129971933 4.0345781475442,4.0345781475443 -4.5848457028918,4.5848457028918 c 0.1630028256381,-2.855014209135 0.3137483583441,-5.7233303001625 0.5501697473924,-8.6192282345259 z m -49.8820570969115,5.3794375300591 3.2961280865999,3.3019965639053 -33.8043854388913,33.8043854388913 c -0.8274553000782,-1.4925493947037 -1.5081986675184,-2.9987919031202 -2.1400380574126,-4.5226398434533 l 32.6443830915005,-32.5837421593438 z m 4.0296877497897,4.0355562270952 7.0910767441687,7.0910767441688 -35.0269848775409,35.0895819687999 c -0.079069907055,-0.08679086703 -0.1664143671117,-0.1558080724615 -0.24451988773,-0.2445198877299 -2.3532593995131,-2.672113333113 -4.2370406145847,-5.3696567345499 -5.807836373362,-8.0691562950887 z m -63.63581174194636,0.1833899157974 c -0.0816676863427,2.2738393399785 -0.12494379415273,4.5257696980163 -0.122259943865,6.7855246924615 l -0.12225994386495,0.122259943865 -42.8516212848997,42.7909803527427 36.18894338403379,36.310225248348 22.98486944661623,-22.9848694466162 3.362246264242,3.3010184843544 L 83.73214755936497,204.226784270053 40.8179291832064,161.3125658938944 90.57870441580378,111.6143877525559 z m 22.74034955888626,4.8903977545992 12.4705142742279,12.4705142742279 -3.3626374960626,3.3606813369606 -8.6188370027056,-8.6794779348626 c -0.2184247253114,-2.2930096991765 -0.4051009884,-4.6926300694032 -0.4890397754599,-7.1521089081462 z m 48.7200985904188,2.7503596971866 3.3010184843543,3.3010184843544 -34.721824057654,34.7218240576541 c -1.2922973874484,-0.8022795324375 -2.5201197709001,-1.7915874366019 -3.6677983159494,-2.9342386527595 l 35.0876258096981,-35.0895819687999 z m -71.58368617272094,0.4890397754599 c 0.0367405802508,4.7159083627151 0.20138657953436,9.3813478206027 0.48903977545986,13.8766014366302 l -27.69138824564203,27.6913882456423 20.47902963715944,20.4790296371595 15.03797309539242,-15.0379730953924 7.21333668803365,7.1521089081462 L 83.6718978590283,196.217682059391 48.82683577795835,161.3726199783209 90.45585762420826,119.743598132071 z m 12.28702655047533,2.6897187650296 c 0.097622119977,9.7111562451728 4.9396929639657,22.6171115354702 12.592774218093,31.9714643604675 8.4306544971086,10.3046549166709 22.1808880557599,17.9047242591384 34.7824649898111,17.2998798648496 19.0013470516299,-0.9121374275968 31.2633347656015,-16.8264893622045 32.5817860002415,-37.7167036425706 -0.2073528647949,21.009148753758 -14.2564875342074,43.5225838568307 -36.3082690892461,41.2612639351041 -22.5701637170259,-2.3141362174764 -44.5769536127222,-28.976584775551 -43.6458218802466,-52.816295749671 z m 63.9429287209352,1.4671193263797 5.5629252538117,5.5629252538116 c -4.343455669e-4,0.020152351067 4.470801627e-4,0.040979577024 0,0.061129971933 -0.06978206364,3.1451126039379 -0.2773833606409,6.2215640234011 -0.7946896351223,9.1694957898734 l -4.7691158902852,4.7671597311833 -9.7201545770412,-9.7807955091981 9.7201545770412,-9.7807955091983 z m -52.571775861941,2.8129567884454 6.9678387207525,6.9678387207529 -4.2781199557233,4.2800761148252 c -1.2972855931577,-3.6087223110738 -2.1615558075328,-7.3052761658202 -2.6897187650292,-11.2479148355781 z m -23.04551037877347,8.2526440188412 c 0.14083563069603,2.0602267660576 0.31983201315077,4.07252763412 0.4890397754599,6.0519650292716 l -20.23450974942928,20.2931945224846 12.40987334207084,12.4705142742279 11.06403588000515,-11.0640358800052 3.30004040480351,3.3606813369606 L 83.79357095516259,180.3847259050108 64.59973784791185,161.312174662074 91.0685266549043,134.9646677193956 z m 64.49260942855197,0.060640932157 12.8363160262719,12.8363160262719 c -0.4627489971312,0.8434566815312 -0.9545665185157,1.6740418361724 -1.5282492983122,2.4451988772996 -0.3996433045058,0.5372199741382 -0.8106910165754,1.0348472880552 -1.2225994386499,1.5282492983122 l -13.3879528929906,-13.3859967338887 3.3010184843543,-3.4232784282196 z m 55.4453735825435,0 26.2868660105215,26.2868660105215 -42.9142183761586,42.9142183761586 -20.2951506815866,-20.2345097494296 c 0.6945538506993,-0.69649044821 1.4122295019821,-1.4286612384375 2.0784190457047,-2.2006789895696 0.4596973889324,-0.532720808204 0.6184592616377,-1.0900305363181 0.7335596631897,-1.7116392141097 l 17.5443997525797,17.5443997525796 36.1889433840339,-36.3102252483479 -22.9848694466161,-22.924228514459 3.362246264242,-3.362246264242 z m -59.4770174914347,4.0336000679934 13.5096259891251,13.5096259891252 c -2.4833439797855,2.8070883111399 -5.1726715129947,4.8643808385447 -8.0691562950887,6.2352571371139 l -12.5311552063848,-12.5311552063849 7.0910767441688,-7.2143147675848 z m 55.3827764912846,0 22.3119507155832,22.3119507155833 -34.7824649898111,34.8431059219682 -17.360912028827,-17.3609120288271 c 0.4164271495996,-3.8595019079296 0.3703204795693,-8.2626204302606 2.1396468255922,-11.2479148355781 0.1203468202634,-0.2030688763619 0.2559829800668,-0.3728439248106 0.366779831595,-0.4890397754599 l 14.7200972413435,14.7337903550564 20.5396705693165,-20.5396705693166 -15.0992008752799,-15.0379730953924 7.152108908146,-7.2133366880338 z m -36.2495843161909,3.1787585404895 c -0.3663885997745,1.3201335314675 -0.8098889913436,2.5721536030089 -1.3448593825147,3.7900582598143 l -1.2225994386498,-1.2225994386498 z m -78.92515128192495,1.3438813029639 c 0.0554082065596,0.6060180897499 0.12669846886702,1.23777923328 0.18338991579745,1.8338991579747 0.14308325750403,1.504560211589 0.44031185223308,3.0064209236175 0.79468963512238,4.5236179230042 l -3.66779831594931,-3.6677983159494 z m 51.96145422216707,3.3019965639053 12.3492324099138,12.347276250812 c -1.6842529866839,0.7061734357641 -3.4487084965433,1.1247914835578 -5.2581556657449,1.4064783942226 l -10.3911171489722,-10.3911171489723 z m 55.3827764912846,0.061129971933 14.4266733760675,14.3656412120901 -19.1948111868017,19.1948111868017 -13.754145876855,-13.8153736567427 c 0.1460683562934,-0.017961452873 0.2445198877299,-0.032912376888 0.4279098035274,-0.061129971933 1.4088649083269,-0.2167619900747 3.100707792326,0.2309441435632 4.1568380914093,-0.4890397754599 0.2837213161308,-0.2107761432232 0.5201622667702,-0.5008940996171 0.7946896351223,-0.7335596631899 l 8.3782294331792,8.4330018880308 12.5389798427922,-12.5311552063849 -11.0718605164125,-11.0640358800052 3.3010184843544,-3.3010184843544 z m -110.70686820951409,0.061129971933 4.82936559062176,4.8293655906218 c 1.06469827594934,3.7873196370717 2.56119911203868,7.4226457119306 4.09580592743194,10.6366151162532 l -12.22599438649786,-12.1649622225205 3.30101848435443,-3.3010184843543 z m -4.7069100308466,4.6458778668692 0.36677983159494,0.3667798315951 c -0.57916002528167,3.5025028718438 -1.30209774454855,7.074449391803 -2.2006789895696,10.7588750601181 -0.41470572959001,1.700391299274 -0.84899261178944,3.3211669231033 -1.28372941058231,4.9514299185765 l -3.12398608563795,-3.0535643579717 c 0.5712180193282,-2.7484035380846 1.09615331430689,-5.4934816056964 1.52824929831223,-8.2526440188412 l 4.70691003084663,-4.7681378107343 z m 55.38277649128469,0 9.230723569761,9.2307235697611 c -4.7131697399725,0.3060410914829 -10.628986095756,-0.00133343541 -15.8937927024473,-2.6286866010521 l 6.6587655826622,-6.600080809607 z m 55.5060145147005,0.122259943865 4.5848457028918,4.5848457028919 c 0.436966820169,2.7988724429122 0.9481503166617,5.5869860107642 1.5282492983122,8.3747083467961 l -3.117726376512,3.1177263765122 c -0.4440481161176,-1.6686037138693 -0.8587538457076,-3.3352512686368 -1.2832403708069,-5.0742767101721 -0.8470168910965,-3.4702262466636 -1.5179794630275,-6.8387322200315 -2.0774409661537,-10.1465972612424 0.1154133870086,-0.2914677061741 0.2543006832392,-0.5633738213298 0.3658017520441,-0.8567976866058 z m -108.81135003983158,1.9561591018397 3.606766151972,3.606766151972 c -0.26603763785022,2.9968357440184 -0.55359302582059,5.9975838062405 -0.92135093696648,8.9865949138513 l -4.64587786686921,4.6439217077673 -1.58840119069382,-1.5884011906937 c 0.5403498287012,-2.0085841657689 1.07451819464058,-4.0019102905436 1.58937927024472,-6.1129971932489 0.79375067875353,-3.2546575136409 1.42181468158117,-6.4212878676988 1.95615910183969,-9.5362756214683 z m 107.03906989356499,2.1396468255921 c 0.4427179279283,2.4275934453832 0.9150716662495,4.8825731181918 1.5282492983122,7.3966287958763 0.5245049399762,2.1506013165625 1.0385444287576,4.1889191006795 1.5893792702447,6.2352571371139 l -1.5942696679993,1.5884011906937 -4.6458778668692,-4.6458778668692 c -0.1834309951386,-1.5047167043171 -0.3378286768877,-3.0138543282043 -0.4890397754599,-4.5236179230041 1.3456809693375,-1.7855429049773 2.5533744756313,-3.8550027419955 3.6067661519719,-6.0519650292716 z m 8.7416837943009,2.8732064887821 2.5674588211646,2.5674588211646 -1.7727691860423,1.7727691860422 c -0.282919290899,-1.4468339564936 -0.5528692469529,-2.8913987684292 -0.7946896351224,-4.3403258151618 z m -124.94966263000853,0.061129971933 c -0.24060756952629,1.4045222351209 -0.46556586623782,2.8129567884454 -0.73747198139354,4.2174790235664 l -1.77276918604223,-1.7116392141098 2.50623104127699,-2.506231041277 z m 14.61016109982009,0.366779831595 2.20067898956961,2.2006789895696 -2.75622817449207,2.7484035380847 c 0.19827628656246,-1.6492181771701 0.38571545170079,-3.3000404048035 0.55016974739243,-4.9514299185765 z m 22.86358758230206,3.0564985966245 c 2.2795122013738,0.0043696682 2.0064323907569,2.2255222101629 2.1396468255921,4.4623901431166 l 0.4279098035275,7.0300445801914 -9.7807955091984,-9.7197633452209 c 2.2834245195775,-1.2817732514805 4.0199069542806,-1.7788919640311 7.2133366880339,-1.7727691860423 z m 73.410738773839,1.7722801462667 c 0.00861981508,0.080576149564 -0.00860866498,0.1639574312798 0,0.24451988773 l -0.122259943865,-0.122259943865 c 0.039688512017,-0.041136069753 0.082792477826,-0.080677869837 0.122259943865,-0.122259943865 z m -81.4857635462331,0.5501697473924 10.7588750601181,10.6978428961408 0,0.2445198877298 c 0.1312758811654,2.2065474668753 0.1020078286837,2.6230137396569 1.4059893544473,4.095805927432 1.9442852160915,2.1955929759049 4.1018700206476,4.1609460255232 6.4185492449563,5.9295094694964 l -2.0793971252556,2.1400380574125 -20.6003115014736,-20.6022676605753 c 1.0422415694602,-0.4297094699011 2.2241528987918,-1.4139509219917 3.6067661519721,-2.261711153547 0.1761090916204,-0.1079975878535 0.3218664186167,-0.1442021805103 0.4890397754599,-0.2445198877299 z m 20.2345097494295,22.0674308278533 c 1.3246522589928,0.9222312085623 2.6883494536583,1.8573143824237 4.0958059274319,2.6286866010522 l -27.5075092900695,27.4468683579123 36.1889433840339,36.249584316191 36.308269089246,-36.2476281570892 -22.4351887389991,-22.4391010572028 c 1.8953029921815,-0.1800448837333 3.8235085804558,-0.4702802096733 5.6849895817665,-0.9780795509198 L 181.9602856264236,216.6971029283722 139.046067250265,259.6152336227345 96.13184887410625,216.6971029283722 126.209751223993,186.615288260282 z m 4.9514299185764,3.1177263765121 c 3.3487487664395,1.7403947529067 6.8905704362304,2.9991831349405 10.5143551723884,3.7900582598143 l -23.1061513109302,23.1061513109301 20.5396705693165,20.4790296371595 20.3557916137436,-20.4223010232061 -15.0389511749434,-15.042863493147 7.2143147675847,-7.2143147675847 22.2493536243244,22.2571782607317 -34.8431059219681,34.8978783768196 -34.8431059219682,-34.8978783768196 26.9578285824524,-26.963697059758 z m -62.10805148340939,2.6290778328725 2.75035969718655,2.7503596971865 c -9.94609095330372,25.7939139168578 -22.36085469312913,43.7573229490515 -36.12830245187677,60.3964122692997 13.18725096914192,-17.77874761298 26.23404971477175,-36.2202419296632 31.23790469727754,-58.074451415416 0.0110002650933,-0.024530235137 0.0501422262575,-0.036593868318 0.0611299719325,-0.061129971933 0.008763005929,-0.038428745556 -0.008713123871,-0.083811636718 0,-0.122259943865 0.0263788054883,-0.059007539307 0.0348215881718,-0.124353034104 0.0611299719325,-0.1833899157976 0.7003049584586,-1.5688395996753 1.36931137128775,-3.1396353584526 2.01875619309851,-4.7065187990263 z m 139.92601671369328,0.121281864314 c 0.6339129185421,1.5250998821583 1.2756504734917,3.0576722920856 1.9561591018396,4.5848457028918 0.026308383761,0.059036881694 0.034751166444,0.1243823764905 0.061129971933,0.1833899157975 0.00871312387,0.038448307147 -0.00876300593,0.083831198309 0,0.122259943865 0.010988332523,0.024536103614 0.050130489303,0.036599736795 0.061129971932,0.061129971933 5.002876902955,21.8542094857527 18.0500668804053,40.2949213387952 31.2379046972778,58.074451415416 -13.7447563131663,-16.6107250132715 -26.1284171232725,-34.5477258975904 -36.0676615197199,-60.2731742458838 l 2.7581843335939,-2.7523158562884 z m -66.1416515514029,1.2837294105823 c 0.9310143629296,0.1738653771306 1.8740395427444,0.3229423061227 2.8119787088944,0.4279098035274 1.0407353269518,0.1164755814009 2.0733330320399,0.2192854353163 3.1177263765121,0.24451988773 l -22.1280717600103,22.1906688512691 12.4094821102506,12.4705142742279 12.4094821102503,-12.4094821102505 -11.0644271118254,-11.0644271118255 3.3010184843544,-3.362246264242 14.4266733760675,14.4266733760675 -19.0725512429367,19.0725512429368 -19.0725512429368,-19.1335834069142 22.8635875823021,-22.863587582302 z m -69.50428904746515,2.8732064887821 6.84655685643881,6.9075890204162 c -0.78633683575751,2.3507163926808 -1.60408958669055,4.6949774603254 -2.50623104127696,7.0300445801914 L 64.46945765172941,249.21638964531 c -2.19344120089276,-1.5820436736127 -4.88844159549731,-3.4715955580348 -6.96881680030379,-4.0958059274318 -3.254853129551,-0.7020850632413 -5.80822760518235,0.8671066450724 -7.45785657576372,3.1787585404895 -1.23881599760405,1.7360520797007 -0.68868537339371,2.9489098460233 0.48903977545988,4.3403258151617 0.92870609518939,1.0971509554489 2.23569423749258,1.8850918416697 2.87320648878211,3.1787585404896 1.50669242500998,3.058259139816 0.71558256104398,6.3324782444754 -2.01719126581707,7.3355966318988 -4.44008992935567,1.6296174629695 -9.34222463856586,1.9266797841747 -13.20407393741773,3.5455383720843 -2.13984244150244,0.8970358793306 -3.73880689134622,1.9188942709497 -4.58484570289187,3.7900582598143 -0.67368163308256,1.4902215653727 0.66358785211707,2.546527918775 0.36677983159494,5.6849895817664 -0.32953456229591,3.484506208107 -3.33075210270241,4.8632071430837 -6.11299719324897,5.5016974739241 -8.09771621797548,1.8581555308375 -14.1242511789231,2.7990680588224 -20.844831389203431,7.8856685713361 0.111596920600851,-5.2947358409495 0.643185112684887,-9.7164378747478 2.445198877299581,-13.5096259891252 2.036557240925251,-4.2869226716815 5.645866399729631,-8.0329673517047 12.042506662745321,-12.2259943864979 1.9408814992543,-1.2722467566544 2.65626844438807,-2.7554457108513 2.07841904570463,-4.7069100308466 -0.7864346437126,-2.6558772125677 -1.92368686074911,-5.0326105213029 -1.1614694667173,-7.3966287958761 0.35848571700315,-1.1119199566677 1.3937829216518,-1.8237858154182 2.68971876502954,-2.0784190457047 2.24997419893598,-0.4420723954247 4.41915902696599,-0.069654913298 6.23525713711394,-0.5501697473924 3.54866822664734,-0.938956368883 4.19028841205084,-6.1061506363925 0.91694957898736,-5.990737249384 -2.73353672891077,0.096346704243 -5.01383139392526,0.2263862928559 -7.45785657576375,0.9780795509199 4.48840705917114,-10.0145565218682 14.12875034485742,-16.0671083988703 20.9074284804624,-21.6390319845504 6.17207319812453,-5.0844487375017 12.38013972372288,-10.5331342997659 17.17742430507449,-17.727691860422 -8.17087656838428,32.1396940432256 -33.63224343792943,51.9164625628246 -46.27685587222098,75.1947558747168 9.03158657319374,-13.0867043913075 15.21109317590521,-16.6273523656372 22.6797086267291,-26.5842021940011 14.3855940349289,-19.1899207890471 27.47816690354175,-40.9032868194674 34.04890532662118,-56.6738414984988 z m 131.36195216583917,0.1232380234159 c 6.5875613913553,15.7541229425759 19.6398373824702,37.4037181862762 33.9882643944643,56.5447349977774 7.4684198349135,9.9633051534 13.6477308217149,13.4992583458854 22.6797086267288,26.5920268304085 -12.6434387388304,-23.2802494709941 -38.1059793038367,-43.0472371950838 -46.2748997131191,-75.1908435565131 4.7974801972618,7.1945575606561 11.0055467228601,12.6432431229203 17.1774243050744,17.727691860422 6.7777000560541,5.572901665231 16.4180433417404,11.625453542233 20.9074284804624,21.6390319845504 -2.4440251818385,-0.751693258064 -4.724319846853,-0.8817387151542 -7.4578565757637,-0.9780795509199 -3.2734366410185,-0.1153762199856 -2.6318164556151,5.051780880501 0.9169495789873,5.990737249384 1.8160589869659,0.4805109217759 3.985282938178,0.1080953958086 6.235257137114,0.5501697473924 1.2959358433776,0.2546332302865 2.3311548016623,0.966499089037 2.6897187650295,2.0784190457047 0.7622173940318,2.3642138904834 -0.3750348230047,4.7409471992186 -1.1614694667173,7.3966287958762 -0.5778885218655,1.9515816895411 0.1375375464502,3.4348197669202 2.0784190457046,4.7069100308464 6.3966402630157,4.1930270347934 10.0061450377302,7.9390717148164 12.0425066627453,12.225994386498 1.8020137646147,3.7933837302874 2.3336978084948,8.2148901481757 2.4451988772997,13.509625989125 -6.7211670580109,-5.0866005125137 -12.7477020189586,-6.0277086564087 -20.8448313892035,-7.8856685713361 -2.7822450905466,-0.6384316460674 -5.783384384589,-2.0171912658171 -6.112997193249,-5.5016974739241 -0.2968080205221,-3.1386572789018 1.0404614646775,-4.1947875779849 0.3667798315951,-5.6849895817665 -0.8459018804085,-1.8711639888646 -2.4448076454792,-2.8929636957107 -4.5848457028919,-3.7900582598143 -3.8618492988519,-1.6188585879094 -8.7639840080621,-1.9159209091148 -13.2040739374178,-3.5455383720843 -2.7329498811802,-1.0030401410593 -3.5240206219642,-4.2773374920826 -2.0171912658171,-7.3355966318989 0.6373361969705,-1.2936666988195 1.9444025856377,-2.0815489002676 2.8732064887821,-3.1787585404897 1.1777251488536,-1.3913181611833 1.727855773064,-2.6042346122791 0.48903977546,-4.3403258151618 -1.6495507242174,-2.311593210644 -4.2030034462128,-3.8808240421397 -7.4578565757638,-3.1787585404894 -2.0803752048065,0.624171246215 -4.7753755994111,2.5136644458639 -6.9688168003039,4.0958059274318 L 200.296147351607,210.5811714964704 c -0.895255774548,-2.3168748402189 -1.7252932046406,-4.6364883031803 -2.506231041277,-6.9688168003038 l 6.9075890204163,-6.8465568564389 z m -65.6486994577391,10.2698352846583 9.6595136448842,9.6634259630879 -9.6595136448842,9.663425963088 -9.6595136448843,-9.7221107361432 z M 30.72414821771382,244.6937498018546 c 1.29847885021017,-0.122066284114 2.29164038780517,-0.070861863464 2.20067898956962,0.4279098035274 -0.43334792583053,2.3755596132741 -2.79632943607981,2.7554457108514 -4.70691003084661,2.9952708167369 0.0313728796753,-0.8491686661085 -1.03447561782587,-2.2208274283185 -1.40598935444727,-2.8119787088946 1.02858757892934,-0.17164513655 2.61381979187817,-0.4892353913701 3.91231820367934,-0.6112997193249 z m 214.94276211014246,0 c 1.2167505229353,-0.1754166112984 3.9588747903031,0.3538300583408 5.5016974739241,0.6112997193249 -0.3715137366214,0.5910534726209 -1.4373661464408,1.9628100427859 -1.4059893544473,2.8119787088944 -1.9106588411309,-0.2400011602047 -4.2736207897891,-0.6198676961909 -4.7069100308466,-2.9952708167369 -0.045494392231,-0.2493907238935 0.2057096911496,-0.3694402079734 0.6112997193249,-0.4279098035274 z m -188.95323228310064,2.0784190457046 c 1.08666594266296,0.04192635803 2.09269900714807,0.3063540769392 2.93423865275951,0.7946896351223 -3.26815501144354,0.07775341198 -5.00581114160773,3.4839193603765 -5.92950946949642,5.6239574177891 -0.83072208577823,-1.0732858144064 -1.12426332060031,-1.3871711038876 -1.77276918604219,-1.9561591018397 -0.96293887947158,-0.8448846776756 -0.67906107061264,-1.7913722591007 -0.30564985966245,-2.261711153547 1.28558776172903,-1.6196214899592 3.26267776595838,-2.2705138695052 5.07388547835172,-2.2006789895696 z m 164.56188444226194,0 c 1.8111099044382,-0.069875959277 3.7882977166226,0.5810574996105 5.0738854783517,2.2006789895697 0.3734112109502,0.4704367024014 0.6572890198091,1.4169242838264 -0.3056498596625,2.261711153547 -0.6485058654419,0.568987997952 -0.9420471002639,0.8828732874333 -1.7727691860422,1.9561591018397 -0.9238939437988,-2.1400380574126 -2.6613544580528,-5.5462979014461 -5.9295094694964,-5.623957417789 0.8414613992474,-0.4883355581832 1.8475727100966,-0.75276914557 2.9342386527595,-0.7946896351225 z"
     id="path1253"
     style="color:#000000;stroke-width:1px" />
</svg>
