<?xml version="1.0" standalone="no"?>
<!DOCTYPE svg PUBLIC "-//W3C//DTD SVG 20010904//EN"
 "http://www.w3.org/TR/2001/REC-SVG-20010904/DTD/svg10.dtd">
<svg version="1.0" xmlns="http://www.w3.org/2000/svg"
 width="500.000000pt" height="477.000000pt" viewBox="0 0 500.000000 477.000000"
 preserveAspectRatio="xMidYMid meet">
<metadata>
Created by potrace 1.16, written by Peter Selinger 2001-2019
</metadata>
<g transform="translate(0.000000,477.000000) scale(0.100000,-0.100000)"
fill="#000000" stroke="none">
<path d="M2393 4716 c-43 -35 -63 -43 -128 -51 -100 -11 -131 -23 -164 -60
-26 -30 -31 -44 -31 -89 0 -29 7 -73 16 -97 9 -24 22 -65 28 -91 6 -25 16 -46
21 -45 15 3 6 53 -21 125 -28 74 -30 121 -9 162 21 40 61 59 150 70 87 11 98
16 144 64 40 41 36 47 -6 12z"/>
<path d="M2604 4710 c39 -47 62 -58 153 -71 83 -11 127 -29 142 -57 24 -45 22
-87 -9 -182 -17 -52 -30 -103 -28 -115 4 -17 -1 -20 -34 -22 -31 -2 -38 1 -38
16 0 20 -30 51 -50 51 -9 0 -8 -6 5 -20 19 -21 14 -50 -8 -50 -8 0 -22 9 -32
20 -10 11 -29 20 -43 20 -24 0 -24 0 7 -29 17 -16 31 -34 31 -40 0 -15 -63
-14 -78 1 -15 15 -16 3 -2 -22 6 -11 28 -25 51 -31 43 -14 36 -29 -15 -29 -23
0 -26 -3 -17 -14 6 -7 25 -16 41 -20 17 -3 30 -10 30 -16 0 -13 -45 -24 -67
-16 -15 5 -15 4 1 -9 25 -19 67 -19 92 0 24 18 48 19 63 1 10 -11 7 -19 -10
-35 l-23 -21 26 0 c17 0 34 11 52 34 14 19 26 37 26 39 0 2 -17 7 -38 11 -40
6 -92 39 -92 58 0 6 8 0 18 -12 10 -12 40 -28 67 -35 42 -11 50 -16 48 -34 -3
-25 19 -28 38 -5 10 12 10 20 1 35 -7 11 -9 31 -6 45 5 18 0 32 -16 49 -23 24
-23 24 -6 92 9 37 26 92 36 121 35 94 19 176 -43 216 -12 9 -66 22 -118 29
-84 11 -101 17 -140 47 l-44 35 29 -35z m236 -465 c0 -8 -9 -15 -21 -15 -24 0
-59 -17 -78 -39 -9 -11 -9 -8 2 9 8 15 29 29 51 34 20 5 36 13 36 18 0 4 2 8
5 8 3 0 5 -7 5 -15z"/>
<path d="M1363 4454 c-17 -35 -17 -37 7 -82 21 -40 31 -48 60 -52 30 -4 35 -9
38 -35 2 -21 13 -37 38 -54 25 -18 31 -26 22 -32 -10 -7 -10 -9 1 -9 8 0 12
-3 8 -6 -3 -3 -16 1 -29 10 -15 11 -17 16 -8 16 18 0 -26 37 -52 44 -28 7 -21
-12 10 -28 15 -8 22 -15 17 -16 -18 0 -55 31 -55 46 0 11 6 13 21 9 17 -6 20
-3 17 17 -4 32 -52 38 -68 8 -16 -30 -5 -55 43 -92 88 -69 73 -71 -44 -8 -107
58 -149 94 -149 127 0 26 3 28 30 11 26 -17 45 2 36 36 -7 29 -49 45 -75 29
-28 -18 -45 -57 -37 -89 11 -44 92 -115 197 -172 109 -60 113 -67 8 -17 -41
19 -85 36 -99 36 -17 1 -19 3 -7 6 25 7 11 23 -21 23 -18 0 -23 3 -14 8 10 7
8 13 -7 26 -18 16 -23 17 -82 2 -34 -9 -105 -36 -158 -61 -56 -26 -123 -49
-160 -55 -36 -5 -71 -15 -78 -22 -10 -11 4 -12 75 -7 71 6 103 14 177 47 111
49 190 68 225 53 21 -8 16 -10 -35 -11 -82 -1 -97 -11 -65 -46 45 -49 74 -73
115 -93 45 -22 195 -43 195 -28 0 6 34 8 84 5 46 -3 89 -2 95 3 8 6 8 5 1 -3
-32 -38 4 -99 80 -138 36 -18 60 -22 153 -22 71 0 113 4 115 11 6 17 -44 24
-119 18 -42 -4 -67 -2 -64 3 3 5 1 20 -5 32 l-11 23 18 -22 18 -22 52 28 c47
26 57 28 94 20 23 -6 48 -8 56 -5 7 3 -2 -25 -23 -64 -19 -38 -39 -82 -44 -97
-7 -25 -8 -22 -9 20 -1 40 -4 47 -21 47 -17 0 -20 -7 -20 -49 0 -27 5 -62 11
-78 l12 -28 7 25 8 25 1 -25 c2 -46 39 -108 82 -139 23 -17 48 -31 55 -31 7 0
33 -16 58 -35 25 -19 46 -31 46 -26 0 13 -51 54 -120 96 -70 43 -90 75 -90
145 0 42 10 68 56 158 68 129 88 182 71 182 -7 0 -22 -24 -34 -53 -13 -32 -27
-51 -35 -48 -72 21 -100 24 -138 11 -22 -7 -40 -16 -40 -20 0 -4 -13 -7 -30
-8 -41 -1 -53 -10 -47 -38 2 -14 -1 -24 -8 -24 -7 0 -10 11 -7 29 4 26 0 30
-42 44 -25 9 -46 12 -46 8 0 -11 23 -37 50 -55 13 -9 19 -16 13 -16 -24 0 -74
52 -71 74 3 18 12 22 70 27 56 5 80 13 150 54 58 34 98 50 131 53 43 4 77 21
45 23 -7 0 -3 4 8 9 16 6 20 15 17 33 -3 14 0 34 6 45 9 17 7 21 -15 26 -15 4
-27 6 -28 4 -1 -2 -7 -15 -14 -31 -6 -15 -28 -35 -47 -44 -34 -16 -36 -16 -63
3 -15 11 -40 44 -55 73 -18 32 -39 56 -55 63 l-27 10 25 10 c14 5 40 8 58 6
24 -3 31 -1 27 9 -2 8 0 11 5 8 6 -3 10 -15 10 -26 0 -16 -3 -18 -19 -9 -11 5
-32 10 -47 10 l-28 0 26 -27 c14 -16 29 -39 33 -52 l8 -25 14 27 c26 51 95 47
118 -6 l14 -32 1 54 c0 46 -2 52 -15 41 -12 -10 -15 -10 -15 3 0 8 -9 25 -20
38 l-19 24 -1 -29 0 -29 -20 26 c-19 24 -25 25 -73 20 -29 -3 -63 -14 -77 -23
-15 -10 -51 -19 -88 -22 -89 -6 -116 -30 -161 -138 -10 -24 -10 -24 -8 8 1 22
13 47 34 72 18 21 33 40 33 43 0 2 -18 16 -40 31 -21 14 -44 35 -50 46 -10 19
-9 20 15 14 24 -6 26 -4 23 17 -3 27 -32 37 -53 19 -27 -22 -17 -61 26 -107
22 -25 39 -47 36 -49 -2 -3 -36 19 -76 48 -72 53 -113 110 -93 130 6 6 12 6
16 -1 11 -16 43 -13 50 5 11 29 -12 54 -50 54 -30 0 -37 -5 -51 -36z m466
-220 c34 -28 56 -92 46 -131 -7 -28 -60 -63 -97 -63 -14 0 -55 13 -90 30 -34
16 -57 30 -50 30 7 0 35 -11 62 -25 27 -14 61 -25 76 -25 l27 0 -27 25 c-30
28 -33 51 -10 84 13 19 24 22 55 19 47 -4 49 4 10 43 -36 36 -54 38 -45 4 7
-29 5 -30 -32 -10 -36 19 -64 21 -46 3 7 -7 12 -23 12 -35 0 -20 -3 -22 -19
-13 -11 5 -27 10 -37 10 -16 0 -16 -1 -1 -18 26 -29 20 -42 -19 -42 -19 0 -33
-4 -30 -9 3 -5 -6 -12 -20 -15 -22 -6 -25 -11 -20 -32 6 -23 4 -25 -16 -19
-38 12 -57 26 -25 19 28 -6 28 -6 23 32 -3 24 -3 30 2 16 l7 -24 19 21 c12 13
31 21 53 21 37 0 43 14 13 32 -32 20 -23 31 20 25 45 -6 47 -2 23 32 l-16 24
34 -6 c19 -3 43 -9 54 -13 20 -7 20 -7 1 14 -19 22 -19 22 7 22 14 0 39 -12
56 -26z m-569 -114 c17 -6 10 -7 -25 -4 l-50 5 25 -21 c47 -39 105 -63 170
-71 l65 -7 -65 2 c-73 2 -120 21 -177 71 l-38 34 35 0 c19 -1 46 -5 60 -9z
m719 -10 c-15 -4 -65 -29 -112 -54 -81 -44 -90 -47 -149 -43 l-63 3 65 2 c57
2 76 8 155 52 50 27 99 49 110 49 15 -1 14 -3 -6 -9z m-582 -32 c91 -32 114
-48 71 -48 -12 0 -18 3 -14 7 3 4 -33 21 -81 39 -48 18 -83 33 -78 33 6 1 52
-14 102 -31z"/>
<path d="M1793 4144 c-8 -22 10 -49 32 -49 10 0 22 7 28 16 15 24 1 49 -28 49
-15 0 -28 -7 -32 -16z m46 -9 c3 -12 -13 -9 -17 4 -2 7 0 11 6 7 5 -3 10 -8
11 -11z"/>
<path d="M3550 4475 c-17 -21 -8 -50 18 -53 12 -2 22 1 22 7 0 6 5 11 10 11
21 0 9 -51 -21 -85 -17 -19 -26 -35 -19 -35 7 0 5 -6 -5 -16 -21 -21 -14 -40
14 -36 43 4 18 -31 -44 -62 -57 -30 -60 -33 -67 -76 -3 -25 -11 -56 -17 -70
l-11 -25 5 27 c4 23 1 29 -20 34 -14 3 -23 10 -20 14 3 5 -13 10 -36 12 l-41
3 22 28 c18 23 19 27 5 27 -9 0 -25 -5 -37 -11 -28 -15 -33 -5 -15 30 18 35 8
39 -37 16 -37 -20 -39 -19 -32 10 8 32 -5 32 -43 -1 -21 -17 -29 -20 -25 -10
8 21 55 46 85 46 22 0 22 0 3 -22 -19 -21 -19 -21 1 -14 11 4 36 10 55 13 34
6 35 6 18 -14 -29 -32 -22 -42 22 -36 43 6 52 -5 20 -25 -28 -17 -25 -32 8
-32 16 0 37 -7 48 -15 30 -22 34 -18 34 33 0 88 -69 152 -164 152 -27 0 -59 8
-80 21 -37 22 -96 23 -103 2 -3 -7 3 -9 16 -6 12 3 37 2 57 -2 l37 -6 -30 -19
c-17 -10 -44 -42 -59 -72 -48 -88 -111 -98 -155 -23 -17 29 -26 34 -43 29 -29
-9 -31 -11 -16 -29 7 -8 10 -25 6 -40 -5 -18 -2 -27 8 -31 8 -3 12 -12 9 -20
-4 -11 5 -14 35 -14 30 0 69 -15 146 -55 90 -47 112 -55 159 -55 40 0 56 -4
61 -16 3 -8 2 -13 -3 -10 -4 3 -27 -2 -50 -11 -32 -13 -41 -21 -41 -40 0 -21
2 -23 23 -12 12 6 32 21 45 33 16 14 21 16 17 5 -3 -9 -25 -27 -48 -40 -37
-21 -53 -24 -127 -21 -97 3 -147 -5 -132 -20 6 -6 57 -10 115 -10 119 -1 175
18 222 74 51 60 24 94 -80 100 -60 3 -80 9 -135 42 -36 22 -83 45 -105 52 -32
10 -35 13 -15 13 14 1 61 -20 105 -46 71 -41 89 -47 156 -52 42 -4 83 -12 92
-19 11 -9 27 -11 48 -7 39 9 226 -4 210 -14 -8 -5 7 -22 42 -49 30 -22 120
-104 201 -182 152 -145 202 -180 266 -179 34 0 32 1 -30 30 -54 25 -87 53
-205 173 -133 136 -212 206 -245 219 -9 3 -3 6 13 6 15 1 27 -3 27 -8 0 -5 30
-31 68 -59 37 -27 117 -89 177 -136 134 -106 246 -165 330 -173 68 -6 66 6 -5
26 -100 29 -175 78 -416 274 -80 65 -113 86 -128 82 -12 -3 -1 5 24 19 25 13
65 46 89 71 40 43 42 49 26 58 -11 6 -52 7 -100 4 -71 -5 -96 -13 -190 -56
-146 -69 -156 -65 -14 5 183 90 251 150 251 220 0 43 -26 74 -62 74 -32 0 -50
-17 -50 -47 0 -27 26 -41 43 -24 31 31 38 -13 7 -52 -23 -28 -219 -142 -229
-132 -9 10 39 46 52 38 5 -3 7 -1 4 4 -4 6 4 18 18 27 37 24 34 84 -5 99 -12
4 -12 6 2 6 22 1 58 65 58 105 0 19 -8 40 -18 49 -23 21 -65 22 -82 2z m-380
-298 c77 20 115 -65 51 -114 -31 -24 37 -14 89 12 27 14 55 25 62 25 7 0 -16
-14 -50 -30 -35 -17 -76 -30 -91 -30 -34 0 -95 39 -99 64 -5 23 9 95 15 80 2
-7 13 -10 23 -7z m640 -78 c-52 -46 -128 -79 -181 -79 -54 0 -109 10 -109 19
0 8 209 81 230 81 8 0 -33 -17 -92 -36 -59 -20 -105 -40 -102 -45 3 -5 31 -9
62 -9 61 0 113 20 170 63 l34 25 -29 5 c-22 3 -19 4 12 5 l40 1 -35 -30z"/>
<path d="M3153 4144 c-8 -22 10 -49 32 -49 10 0 22 7 28 16 15 24 1 49 -28 49
-15 0 -28 -7 -32 -16z m35 -6 c-3 -7 -8 -13 -13 -13 -5 0 -10 6 -12 13 -3 6 3
12 12 12 9 0 15 -6 13 -12z"/>
<path d="M3450 4405 c-16 -19 -3 -37 21 -30 29 9 24 -20 -6 -42 -14 -10 -36
-25 -47 -34 l-22 -16 27 -34 c15 -19 31 -39 37 -45 5 -7 6 -15 3 -18 -3 -3 19
8 50 25 31 17 59 34 62 40 8 12 -45 -8 -65 -25 -8 -7 -22 -16 -30 -20 -8 -4 2
7 22 24 21 18 36 36 33 41 -3 5 -1 18 5 29 15 28 6 25 -47 -15 -25 -19 -48
-33 -51 -30 -3 2 14 25 37 50 22 24 41 52 41 60 0 47 -44 72 -70 40z"/>
<path d="M3006 4316 c-13 -28 -20 -35 -27 -25 -13 22 -22 -16 -13 -59 5 -26 9
-31 12 -17 15 70 103 73 124 5 3 -11 8 -8 18 10 7 14 24 37 38 53 l26 27 -35
0 c-19 0 -41 -6 -48 -12 -11 -11 -13 -7 -8 20 8 38 -4 41 -31 7 -25 -32 -30
-31 -34 3 -3 27 -3 26 -22 -12z"/>
<path d="M2237 4312 c-10 -10 -17 -26 -17 -35 0 -10 -8 -17 -19 -17 -26 0 -36
-17 -14 -23 14 -3 14 -4 -2 -3 -13 1 -19 7 -19 19 3 27 -15 20 -27 -10 -6 -16
-17 -36 -26 -45 -10 -11 -13 -28 -10 -44 3 -15 0 -35 -6 -44 -14 -23 -2 -50
23 -50 15 0 19 6 17 22 -1 17 3 23 18 24 15 1 16 0 3 -3 -20 -5 -23 -18 -7
-28 5 -4 14 -18 19 -31 7 -18 17 -24 41 -24 l31 0 -22 18 c-44 36 8 72 54 37
25 -19 66 -19 91 -2 16 13 16 14 -11 10 -16 -2 -38 2 -49 10 -19 15 -18 16 17
22 21 4 42 13 49 21 9 11 6 14 -17 14 -46 0 -63 16 -26 24 28 7 49 23 67 54 6
11 3 12 -14 2 -12 -6 -36 -10 -53 -8 l-32 3 36 38 c30 31 32 37 16 37 -11 0
-31 -9 -45 -20 -14 -11 -32 -20 -39 -20 -19 0 -17 30 3 52 14 15 14 18 1 18
-8 0 -22 -8 -31 -18z m14 -92 c29 -16 25 -64 -7 -89 -15 -12 -34 -21 -43 -21
-9 0 -1 8 17 17 43 21 53 60 22 85 -25 20 -19 24 11 8z"/>
<path d="M1280 4265 c13 -15 87 -42 95 -34 2 3 2 15 -2 27 -5 19 -12 22 -55
22 -44 0 -49 -2 -38 -15z"/>
<path d="M3637 4273 c-4 -3 -7 -15 -7 -25 0 -17 5 -19 32 -12 30 6 78 31 78
40 0 7 -96 4 -103 -3z"/>
<path d="M1149 4265 c-3 -3 -33 -9 -65 -13 -56 -7 -58 -8 -35 -21 20 -11 37
-11 93 -1 43 7 68 16 65 23 -4 13 -49 22 -58 12z"/>
<path d="M3800 4258 c0 -9 19 -19 51 -26 63 -15 71 -15 106 0 l28 12 -45 6
c-25 4 -66 10 -92 14 -39 7 -48 5 -48 -6z"/>
<path d="M1944 4236 c-11 -28 1 -51 25 -51 32 0 49 28 32 49 -17 20 -50 21
-57 2z m45 -13 c0 -5 -3 -9 -9 -11 -5 -2 -10 4 -10 13 0 16 16 14 19 -2z"/>
<path d="M3004 4236 c-10 -26 1 -51 22 -54 27 -4 47 21 39 48 -7 24 -53 28
-61 6z m36 -11 c0 -8 -4 -15 -9 -15 -13 0 -22 16 -14 24 11 11 23 6 23 -9z"/>
<path d="M3756 4211 c-13 -15 -14 -20 -4 -24 7 -3 1 -6 -14 -6 -15 -1 -30 -5
-33 -11 -8 -13 4 -13 45 1 43 16 108 1 241 -55 86 -36 118 -45 181 -48 97 -4
88 15 -13 31 -39 7 -105 29 -161 55 -75 36 -193 76 -220 76 -3 0 -13 -9 -22
-19z"/>
<path d="M1390 4200 c19 -11 40 -19 45 -19 6 0 -6 8 -25 19 -19 11 -39 19 -45
19 -5 0 6 -8 25 -19z"/>
<path d="M3611 4209 c-13 -5 -21 -12 -18 -15 3 -3 18 1 34 10 31 17 21 20 -16
5z"/>
<path d="M987 4064 c-129 -82 -164 -98 -247 -109 -30 -4 -66 -14 -80 -22 -23
-13 -15 -14 79 -9 l103 5 158 79 157 79 -19 27 c-11 14 -23 26 -26 26 -4 0
-60 -34 -125 -76z"/>
<path d="M3871 4114 l-21 -26 154 -78 154 -79 106 -8 c87 -7 103 -6 93 4 -7 8
-51 21 -98 29 -94 18 -110 25 -226 100 -45 29 -96 60 -112 69 -28 14 -31 14
-50 -11z"/>
<path d="M1990 4061 c0 -11 5 -23 10 -26 6 -4 10 5 10 19 0 14 -4 26 -10 26
-5 0 -10 -9 -10 -19z"/>
<path d="M2990 4068 c0 -7 4 -19 9 -26 7 -11 10 -10 15 3 3 9 4 21 0 26 -8 13
-24 11 -24 -3z"/>
<path d="M1122 4060 c-13 -6 -74 -43 -135 -84 -149 -97 -161 -103 -272 -126
-90 -18 -145 -42 -145 -61 0 -5 12 -4 26 2 15 5 73 16 131 23 93 12 112 18
184 60 44 26 85 44 91 40 6 -4 8 -3 4 4 -3 6 33 35 89 69 52 32 93 63 92 68
-5 14 -37 16 -65 5z"/>
<path d="M3815 4059 c-4 -6 -5 -11 -4 -13 27 -19 277 -171 316 -191 37 -20 82
-31 158 -41 59 -8 115 -18 125 -24 27 -14 34 -12 20 6 -21 25 -44 33 -145 54
-110 23 -125 29 -264 122 -135 91 -190 114 -206 87z"/>
<path d="M2893 4028 c2 -13 8 -30 11 -39 6 -13 2 -16 -21 -12 -27 4 -27 4 -8
-12 11 -8 24 -14 30 -11 7 2 26 -22 43 -54 28 -49 30 -59 16 -64 -31 -12 -80
-6 -113 15 -36 22 -45 21 -35 -5 16 -41 126 -62 158 -30 15 14 18 13 32 -21
20 -48 20 -124 0 -163 -10 -19 -45 -49 -91 -77 -71 -45 -105 -77 -105 -99 0
-6 7 0 16 12 8 12 46 38 83 57 111 55 153 121 137 213 -8 42 -136 311 -150
311 -4 1 -6 -9 -3 -21z"/>
<path d="M1091 3965 c-57 -41 -107 -72 -112 -70 -4 3 -11 0 -15 -6 -5 -8 -3
-9 6 -4 9 6 11 4 6 -4 -5 -7 -14 -10 -22 -7 -7 3 -16 0 -20 -6 -5 -7 -2 -8 6
-3 9 6 11 4 6 -4 -5 -7 -14 -10 -22 -7 -7 3 -16 0 -20 -6 -5 -7 -2 -8 7 -4 8
4 3 -2 -11 -13 -51 -43 -183 -101 -254 -110 -48 -7 -76 -17 -92 -32 -30 -28
-31 -44 -1 -25 12 8 60 19 107 25 112 15 205 60 385 188 77 55 154 108 172
118 29 17 30 20 15 31 -9 8 -21 13 -27 13 -5 0 -57 -33 -114 -74z"/>
<path d="M3776 4027 c-16 -11 -9 -18 63 -66 45 -29 84 -58 88 -64 4 -6 -9 -1
-28 12 l-34 23 29 -26 c17 -13 33 -23 37 -20 4 2 56 -29 116 -69 124 -84 192
-113 301 -128 45 -6 89 -19 105 -30 15 -11 27 -15 27 -9 0 18 -46 59 -72 64
-12 2 -49 9 -81 15 -62 11 -148 47 -182 76 -11 9 5 3 36 -14 62 -34 78 -38 59
-17 -14 18 -100 52 -119 48 -7 -2 -10 1 -7 6 3 5 -2 9 -11 8 -10 0 -18 6 -18
14 0 8 -7 14 -15 13 -8 -1 -26 7 -40 18 l-25 21 30 -17 c26 -15 28 -15 14 -1
-8 9 -25 18 -37 21 -11 2 -62 33 -113 69 -50 36 -94 66 -98 66 -4 0 -15 -6
-25 -13z"/>
<path d="M1202 3966 c-33 -24 -63 -49 -66 -55 -4 -6 -12 -11 -17 -11 -6 0 -7
5 -3 12 4 6 -4 3 -18 -8 -14 -10 -24 -21 -22 -23 2 -2 12 2 21 10 15 11 14 9
-1 -9 -11 -12 -26 -20 -33 -18 -7 3 -15 0 -19 -6 -5 -7 -2 -8 7 -4 28 14 -67
-67 -121 -104 -70 -48 -143 -84 -200 -101 -64 -18 -71 -29 -19 -30 29 -2 35
-3 16 -6 -18 -3 -33 -15 -43 -35 l-16 -30 23 16 c28 19 49 21 49 4 0 -7 -16
-38 -35 -68 -19 -30 -35 -65 -35 -78 l0 -25 21 27 c28 36 39 33 38 -11 0 -21
-3 -32 -6 -25 -2 6 -13 12 -23 12 -10 0 -21 -6 -23 -12 -4 -10 -6 -10 -6 -1
-2 30 -125 -18 -160 -63 -39 -50 -20 -125 43 -163 35 -22 171 -61 212 -61 18
0 21 5 18 23 -4 20 -3 20 7 -3 l11 -25 14 33 c8 17 18 32 22 32 11 0 32 -22
32 -34 0 -5 -6 -1 -14 10 -17 22 -22 19 -31 -19 -6 -24 -4 -27 18 -27 14 0 28
6 30 13 3 6 6 -1 6 -16 1 -15 8 -42 18 -60 16 -31 16 -32 26 -9 6 12 18 22 27
22 16 0 40 -38 40 -64 0 -15 49 -36 83 -36 14 0 -7 28 -82 105 -101 105 -150
165 -177 218 -23 44 -10 31 24 -23 17 -27 35 -50 39 -50 16 0 32 16 42 40 7
19 10 20 10 7 1 -10 -10 -28 -24 -41 l-24 -23 39 -38 c35 -34 41 -37 57 -24
17 13 17 13 0 -7 -17 -21 -17 -22 18 -53 40 -35 59 -39 74 -13 6 9 11 13 11 8
0 -5 -8 -18 -17 -29 -17 -18 -16 -20 20 -54 31 -28 41 -32 53 -22 8 6 14 19
15 28 0 11 2 12 6 3 3 -7 -2 -21 -11 -31 -16 -17 -15 -21 9 -50 32 -37 48 -39
69 -9 9 12 16 18 16 13 0 -5 -9 -19 -20 -31 -20 -21 -20 -22 -4 -58 18 -37 39
-45 64 -23 13 10 13 10 2 -3 -18 -21 -15 -26 19 -41 28 -11 33 -10 45 6 8 10
14 15 14 10 0 -5 -6 -16 -14 -24 -13 -14 -11 -20 10 -44 16 -19 26 -24 28 -15
13 40 15 38 9 -9 -3 -29 -3 -53 1 -53 15 0 36 72 36 123 0 105 -41 178 -200
357 -170 193 -229 295 -230 398 0 39 -4 52 -15 52 -11 0 -15 -13 -16 -52 -1
-29 -3 -45 -6 -36 -3 14 -8 15 -28 6 -16 -7 -28 -7 -41 1 -17 11 -17 11 3 6
37 -10 60 10 66 57 2 24 8 51 12 62 8 17 7 17 -25 1 -21 -11 -29 -20 -21 -24
21 -13 -103 0 -131 14 -32 15 -38 6 -38 -60 0 -34 5 -47 22 -59 12 -9 17 -16
11 -16 -7 0 -15 6 -19 12 -6 9 -11 5 -16 -12 -4 -14 -5 18 -3 70 6 121 6 120
21 120 28 0 184 89 262 150 46 36 127 98 179 137 77 59 92 74 77 79 -11 4 -22
9 -25 10 -4 2 -34 -16 -67 -40z m-312 -456 c-8 -5 -22 -9 -30 -9 -10 0 -8 3 5
9 27 12 43 12 25 0z m-50 -55 c-7 -8 -17 -15 -23 -15 -6 0 -2 7 9 15 25 19 30
19 14 0z m215 -195 c24 -36 86 -112 136 -170 51 -58 112 -131 135 -162 46 -62
79 -138 71 -160 -3 -7 -6 -4 -6 9 -1 16 -6 20 -20 16 -11 -3 -28 0 -38 6 -14
9 -12 9 15 5 40 -8 41 2 6 66 -25 45 -28 48 -59 43 -18 -3 -35 -1 -38 4 -3 5
7 8 24 5 38 -6 37 8 -3 55 -18 21 -34 40 -35 42 -2 3 -9 -1 -15 -7 -7 -7 -23
-11 -38 -11 -23 1 -23 2 5 8 38 8 38 19 -3 65 -26 30 -36 35 -47 26 -8 -6 -24
-10 -37 -7 -21 4 -20 4 4 6 41 2 42 17 7 61 -30 37 -33 38 -46 22 -13 -15 -13
-15 -4 4 8 16 5 28 -15 57 -14 21 -29 37 -34 37 -6 0 -10 6 -10 14 0 7 -7 30
-16 51 -14 35 -16 36 -33 21 -19 -17 -56 -21 -65 -7 -3 4 6 6 19 3 32 -6 55
13 55 47 1 19 6 11 20 -29 11 -30 40 -84 65 -120z m-145 156 c0 -2 -8 -10 -17
-17 -16 -13 -17 -12 -4 4 13 16 21 21 21 13z m-143 -28 c-3 -8 -6 -5 -6 6 -1
11 2 17 5 13 3 -3 4 -12 1 -19z m-53 -68 c-4 -27 -3 -57 1 -67 6 -16 8 -15 21
10 8 15 21 27 29 27 12 0 15 -15 14 -72 -1 -40 -3 -66 -5 -58 -3 10 -31 23
-73 33 -78 20 -91 30 -91 69 0 30 25 51 73 62 18 4 27 13 27 26 0 11 2 20 5
20 3 0 3 -22 -1 -50z m109 -10 c12 0 29 6 37 13 12 10 12 9 1 -5 -21 -28 -65
-23 -79 7 -7 14 -12 31 -12 38 1 7 7 -3 15 -20 10 -24 21 -33 38 -33z m107
-25 c-7 -8 -24 -14 -39 -14 l-26 2 25 4 c14 3 29 9 35 14 15 15 19 10 5 -6z
m75 -25 c-3 -5 -18 -9 -33 -9 l-27 1 30 8 c17 4 31 8 33 9 2 0 0 -3 -3 -9z
m-19 -78 c-17 -16 -18 -16 -5 5 7 12 15 20 18 17 3 -2 -3 -12 -13 -22z m61
-18 c-3 -3 -12 -4 -19 -1 -8 3 -5 6 6 6 11 1 17 -2 13 -5z m13 -69 c-7 -8 -24
-14 -39 -14 l-26 2 28 4 c16 3 31 11 34 19 3 8 8 13 11 10 3 -3 -1 -12 -8 -21z
m84 -76 c-9 -10 -24 -19 -33 -19 -10 0 -7 5 9 13 16 8 27 23 29 42 4 27 5 27
9 7 2 -13 -4 -32 -14 -43z m93 -61 c-3 -7 -5 -2 -5 12 0 14 2 19 5 13 2 -7 2
-19 0 -25z m59 -116 c-17 -16 -18 -16 -5 5 7 12 15 20 18 17 3 -2 -3 -12 -13
-22z"/>
<path d="M1836 3991 c-4 -6 -3 -18 2 -27 8 -15 10 -14 16 2 8 20 -8 42 -18 25z"/>
<path d="M3150 3979 c0 -12 5 -19 12 -17 18 6 20 25 3 31 -10 5 -15 0 -15 -14z"/>
<path d="M1275 3949 c-27 -22 -67 -57 -88 -77 -21 -20 -41 -37 -45 -37 -4 0
-6 -3 -5 -7 1 -3 -39 -49 -90 -102 -72 -74 -106 -101 -157 -125 -62 -29 -63
-30 -30 -30 63 -1 114 34 259 173 78 74 168 156 202 182 42 34 56 50 47 56
-24 14 -42 8 -93 -33z"/>
<path d="M1485 3976 l-30 -13 40 -11 c22 -7 56 -13 75 -13 33 -2 34 -2 5 -6
-49 -7 -125 -34 -125 -45 0 -7 29 -9 84 -6 l84 4 -48 -22 c-26 -12 -51 -28
-55 -35 -12 -19 94 -5 140 18 l37 19 -33 17 c-19 9 -30 17 -26 17 4 0 2 10 -5
23 -7 12 -11 29 -10 38 5 29 -79 39 -133 15z"/>
<path d="M3407 3983 c-10 -3 -17 -12 -15 -22 2 -10 -3 -26 -11 -35 -11 -13
-11 -20 -2 -29 15 -15 171 -23 171 -9 0 14 -73 42 -113 43 -24 1 -18 4 21 10
30 5 61 13 70 18 35 20 -64 39 -121 24z"/>
<path d="M3549 3977 c7 -7 7 -15 1 -22 -8 -9 -1 -16 21 -25 45 -19 119 -80
160 -131 19 -24 28 -40 22 -36 -17 11 -16 7 6 -46 21 -48 36 -64 46 -47 4 6
-5 26 -20 45 -47 63 -19 37 39 -35 51 -63 139 -130 171 -130 5 0 -18 28 -51
63 -65 67 -134 151 -134 163 0 4 17 -10 38 -32 20 -21 37 -43 37 -49 0 -5 7
-10 15 -10 8 0 14 -8 12 -17 -1 -9 3 -20 9 -24 9 -5 10 -2 6 10 -12 30 12 7
38 -39 14 -24 32 -46 40 -49 20 -7 19 3 -4 40 -19 32 -176 179 -191 179 -4 0
-36 31 -70 68 -70 76 -131 121 -173 129 -20 4 -25 2 -18 -5z"/>
<path d="M1360 3946 c-25 -18 -69 -59 -99 -92 -30 -32 -57 -59 -61 -59 -15 0
-200 -184 -210 -209 -15 -41 14 -20 51 35 16 24 29 38 29 31 0 -7 5 -10 10 -7
6 4 9 14 8 23 -2 9 4 17 12 17 8 0 15 5 16 10 0 11 74 90 74 80 0 -11 -70 -96
-134 -164 -48 -49 -56 -61 -36 -56 23 7 23 7 6 -10 -14 -14 -16 -28 -11 -74 3
-35 12 -61 22 -68 9 -7 12 -13 5 -13 -9 0 -9 -6 0 -25 6 -14 18 -25 27 -25 13
0 14 -2 2 -9 -11 -7 -9 -14 10 -34 13 -13 25 -31 27 -38 6 -23 24 -40 38 -35
8 3 11 0 7 -10 -7 -18 15 -46 30 -37 5 3 7 2 4 -4 -3 -5 18 -36 47 -68 41 -44
58 -57 72 -52 18 7 18 6 1 -7 -17 -13 -17 -15 6 -32 13 -11 25 -23 27 -29 4
-12 30 -51 50 -74 8 -10 16 -24 18 -32 2 -8 9 -18 16 -24 7 -5 11 -16 8 -24
-3 -8 3 -20 14 -28 10 -7 12 -13 6 -13 -22 0 -13 -38 11 -43 l22 -4 -22 -2
c-22 -1 -28 -22 -26 -88 1 -7 -3 -13 -7 -13 -13 0 -29 -61 -29 -105 1 -22 -4
-53 -10 -68 -12 -31 -9 -30 41 6 15 11 25 24 22 29 -3 4 2 8 10 8 15 0 42 38
38 53 -1 4 2 7 8 7 5 0 16 14 25 30 15 29 15 30 -7 31 -21 1 -21 2 -3 6 11 3
24 9 29 13 13 13 21 180 8 180 -6 0 -9 6 -6 14 3 7 -2 30 -10 51 -20 46 -20
51 -2 36 21 -18 28 42 15 134 -6 43 -8 93 -5 110 4 21 -1 46 -17 80 l-24 49
-18 -27 c-21 -33 -33 -85 -36 -159 -2 -47 2 -62 23 -90 26 -34 57 -89 43 -76
-5 4 -15 2 -24 -5 -14 -11 -14 -10 -2 5 11 15 11 22 -4 44 l-17 26 -26 -24
-27 -23 24 27 c20 23 22 30 11 43 -7 9 -19 14 -25 11 -8 -3 -11 2 -8 13 2 10
-3 23 -11 31 -14 11 -20 10 -39 -6 l-22 -19 19 23 c18 21 18 24 3 39 -14 14
-18 14 -34 2 -16 -13 -17 -12 -4 4 12 15 9 22 -25 57 l-38 39 -26 -22 -25 -22
23 26 c21 25 22 26 4 42 -17 15 -19 15 -37 -1 -19 -17 -19 -16 -2 5 12 14 15
23 8 28 -6 3 -11 12 -11 18 1 7 13 -3 29 -20 26 -31 31 -33 95 -33 108 0 166
37 166 105 0 43 -40 81 -68 66 -28 -15 -32 -14 -25 6 6 14 1 15 -37 9 -83 -13
-92 -41 -19 -53 62 -10 86 -36 54 -59 -15 -11 -43 -14 -117 -12 l-97 3 -27 48
c-16 26 -31 47 -35 47 -4 0 -6 8 -5 17 0 10 -9 20 -24 24 -18 5 -20 7 -6 8 14
1 17 6 12 26 -8 32 6 59 56 112 56 57 40 78 -17 22 -24 -24 -41 -47 -38 -53 3
-5 1 -6 -6 -2 -6 4 -19 2 -27 -5 -8 -6 -17 -10 -20 -7 -3 3 11 15 30 26 19 11
77 74 130 140 98 123 145 167 209 198 26 12 34 21 27 29 -5 7 -7 15 -3 18 3 4
-5 7 -18 7 -13 0 -44 -15 -69 -34z m-297 -483 c-7 -2 -19 -2 -25 0 -7 3 -2 5
12 5 14 0 19 -2 13 -5z m484 -769 c-3 -3 -12 -4 -19 -1 -8 3 -5 6 6 6 11 1 17
-2 13 -5z"/>
<path d="M2105 3969 c-11 -17 -2 -18 25 -4 24 14 24 14 3 15 -12 0 -25 -5 -28
-11z"/>
<path d="M2993 3959 c-23 -7 -31 -14 -26 -25 5 -13 15 -14 52 -9 25 4 52 12
59 17 9 8 12 6 12 -4 0 -9 21 -24 48 -35 48 -20 49 -20 61 -1 14 23 11 28 -20
32 -13 2 -41 11 -61 20 -41 18 -76 19 -125 5z"/>
<path d="M1415 3911 c-59 -34 -104 -80 -134 -136 -14 -25 -19 -31 -15 -15 6
24 6 24 -10 5 -18 -23 -21 -49 -5 -40 23 15 -33 -74 -81 -128 -51 -57 -52 -59
-44 -99 7 -33 16 -45 44 -59 60 -30 87 -33 92 -11 7 24 -27 36 -69 26 -24 -6
-26 -5 -16 8 11 12 9 18 -6 32 -11 10 -25 15 -30 11 -6 -3 -11 -2 -11 3 0 5
26 32 58 59 42 37 70 73 102 134 49 91 134 190 190 220 32 17 33 18 10 18 -14
1 -47 -12 -75 -28z"/>
<path d="M3527 3916 c75 -43 173 -160 157 -188 -4 -7 -3 -10 1 -6 5 5 22 -16
38 -45 27 -47 167 -196 167 -177 0 25 -25 67 -69 113 -27 29 -67 90 -91 136
-23 46 -56 97 -73 113 -40 37 -119 78 -149 78 -19 0 -15 -5 19 -24z"/>
<path d="M1922 3911 c2 -14 9 -26 16 -29 17 -5 15 10 -3 34 -15 18 -15 18 -13
-5z"/>
<path d="M2500 3911 c0 -12 -11 -39 -25 -59 -40 -59 -34 -93 25 -142 38 -32
50 -49 50 -69 0 -35 -28 -61 -66 -61 -41 0 -58 14 -60 50 -2 40 12 48 20 10 4
-23 11 -30 29 -30 13 0 29 6 37 13 12 10 12 9 1 -5 -7 -9 -25 -19 -39 -21 -16
-3 -11 -4 12 -3 46 1 62 21 51 62 -4 16 -10 23 -12 16 -3 -9 -12 -7 -30 8 -79
62 -146 -48 -74 -121 34 -34 92 -39 141 -14 37 19 50 43 50 91 0 32 -8 45 -55
91 -58 57 -63 72 -40 113 19 33 19 64 0 80 -13 10 -15 9 -15 -9z"/>
<path d="M3060 3900 c-9 -16 -8 -20 5 -20 8 0 15 9 15 20 0 11 -2 20 -5 20 -2
0 -9 -9 -15 -20z"/>
<path d="M3212 3907 c-17 -20 -12 -40 6 -28 8 5 12 16 10 26 -3 17 -4 17 -16
2z"/>
<path d="M2150 3885 c0 -24 2 -26 18 -15 9 7 4 0 -12 -14 -24 -23 -36 -27 -77
-25 -52 3 -73 -6 -49 -21 10 -6 11 -10 3 -10 -25 0 11 -51 50 -71 l39 -20 -7
23 c-10 30 -34 58 -54 59 -9 1 8 5 37 9 83 12 116 55 72 95 -20 18 -20 17 -20
-10z"/>
<path d="M2840 3895 c-9 -11 -10 -19 -3 -26 8 -8 13 -5 18 11 4 12 5 24 2 26
-2 2 -10 -3 -17 -11z"/>
<path d="M3331 3876 c-17 -21 34 -46 108 -53 l56 -6 -19 21 c-17 19 -94 52
-122 52 -6 0 -17 -6 -23 -14z"/>
<path d="M1412 3855 c-15 -12 -40 -50 -56 -83 -16 -34 -33 -59 -38 -56 -4 3
-5 -2 -2 -10 7 -19 -50 -162 -82 -203 -33 -43 -14 -42 29 0 19 20 52 78 81
143 48 107 95 182 128 203 13 8 12 3 -5 -23 -12 -19 -26 -31 -31 -28 -5 3 -6
-2 -3 -12 4 -9 -8 -66 -27 -126 -25 -85 -41 -119 -72 -155 -49 -59 -74 -96
-74 -113 0 -18 124 107 143 144 19 37 98 272 94 283 -1 5 9 18 23 30 25 22 25
23 2 18 -13 -3 -36 -2 -52 3 -25 7 -35 4 -58 -15z"/>
<path d="M3530 3870 c-14 -4 -36 -6 -50 -3 l-25 4 25 -22 c14 -12 24 -25 23
-29 -4 -13 85 -271 102 -296 8 -13 42 -50 75 -83 75 -75 83 -51 11 36 -62 75
-65 81 -107 221 -20 65 -45 128 -57 141 -22 23 -22 24 -1 13 35 -18 73 -77
125 -194 31 -71 64 -127 87 -150 36 -38 70 -54 40 -20 -23 25 -53 88 -97 202
-56 144 -98 195 -151 180z"/>
<path d="M2070 3855 c0 -8 7 -15 15 -15 9 0 12 6 9 15 -4 8 -10 15 -15 15 -5
0 -9 -7 -9 -15z"/>
<path d="M2910 3855 c-10 -12 -10 -15 4 -15 9 0 16 7 16 15 0 8 -2 15 -4 15
-2 0 -9 -7 -16 -15z"/>
<path d="M3945 3860 c3 -5 8 -10 11 -10 2 0 4 5 4 10 0 6 -5 10 -11 10 -5 0
-7 -4 -4 -10z"/>
<path d="M1650 3829 c-58 -32 -64 -34 -55 -19 3 6 -1 7 -10 3 -11 -4 -13 -8
-6 -13 8 -4 5 -15 -9 -32 -27 -34 -25 -40 8 -32 64 16 152 73 152 100 0 24
-28 22 -80 -7z"/>
<path d="M3286 3847 c-17 -12 -15 -16 25 -50 37 -32 135 -74 146 -63 2 2 -8
18 -22 35 -25 29 -25 31 -7 31 24 0 32 -34 36 -145 2 -93 30 -162 78 -197 17
-12 29 -17 26 -12 -44 91 -51 115 -60 202 -18 177 -12 163 -66 161 -35 -1 -59
5 -93 25 -39 22 -48 24 -63 13z"/>
<path d="M940 3793 c-47 -31 -88 -62 -92 -69 -5 -7 -16 -10 -26 -7 -10 2 -26
-5 -36 -16 -27 -30 -14 -35 20 -9 16 13 31 22 34 21 9 -3 67 28 88 47 12 11
26 20 32 20 6 0 8 5 5 10 -3 6 0 10 7 10 16 1 64 37 58 44 -3 3 -44 -20 -90
-51z"/>
<path d="M3990 3825 c13 -14 31 -25 39 -25 11 1 6 9 -14 25 -39 32 -55 32 -25
0z"/>
<path d="M3238 3833 c-24 -6 -23 -20 6 -57 26 -34 106 -84 106 -66 0 39 -83
129 -112 123z"/>
<path d="M1708 3793 c-36 -37 -66 -93 -49 -93 25 0 131 98 131 121 0 23 -49 6
-82 -28z"/>
<path d="M1850 3804 c-12 -30 -12 -90 -1 -119 7 -18 10 -17 25 13 9 18 20 55
23 83 5 45 4 49 -16 49 -14 0 -25 -9 -31 -26z"/>
<path d="M3033 3816 c-3 -5 -1 -6 4 -3 7 4 13 -21 18 -70 l7 -78 19 35 c10 19
19 49 20 65 1 26 2 24 10 -13 9 -45 32 -86 42 -75 11 10 8 112 -3 134 -13 24
-37 25 -43 2 -4 -17 -5 -17 -6 0 -1 13 -8 17 -32 15 -17 -1 -33 -7 -36 -12z"/>
<path d="M798 3795 c-26 -14 -50 -30 -53 -35 -4 -6 20 3 54 20 56 28 73 41 54
40 -5 -1 -29 -12 -55 -25z"/>
<path d="M1095 3810 c-3 -5 -1 -10 4 -10 6 0 11 5 11 10 0 6 -2 10 -4 10 -3 0
-8 -4 -11 -10z"/>
<path d="M1773 3778 c-27 -39 -53 -97 -53 -120 0 -13 68 41 89 71 10 14 22 41
26 59 10 49 -24 43 -62 -10z"/>
<path d="M3166 3793 c4 -16 10 -35 15 -43 12 -25 88 -94 95 -88 22 23 -60 158
-96 158 -17 0 -19 -4 -14 -27z"/>
<path d="M3890 3810 c0 -6 7 -10 15 -10 8 0 15 2 15 4 0 2 -7 6 -15 10 -8 3
-15 1 -15 -4z"/>
<path d="M1506 3768 c-2 -24 -9 -81 -14 -128 -8 -75 -16 -102 -60 -194 -3 -5
9 1 27 13 52 38 74 93 78 198 1 50 7 103 13 118 13 35 13 35 -14 35 -22 0 -25
-5 -30 -42z"/>
<path d="M2943 3793 c-27 -5 -39 -20 -49 -58 l-7 -29 29 18 c44 28 84 80 57
75 -5 -1 -18 -4 -30 -6z"/>
<path d="M4046 3791 c-7 -11 92 -76 102 -67 4 4 -4 16 -17 26 -46 34 -80 50
-85 41z"/>
<path d="M1052 3774 c-12 -8 -20 -20 -17 -25 10 -15 22 -10 39 16 19 29 11 32
-22 9z"/>
<path d="M1996 3764 c-5 -18 0 -34 16 -57 22 -31 23 -31 26 -9 4 26 -16 92
-28 92 -4 0 -11 -11 -14 -26z"/>
<path d="M2975 3758 c-8 -21 -15 -47 -15 -59 l0 -22 25 23 c26 24 32 54 15 80
-7 12 -12 7 -25 -22z"/>
<path d="M3570 3785 c0 -15 18 -40 24 -34 3 3 -1 14 -9 25 -8 10 -14 15 -15 9z"/>
<path d="M3920 3783 c0 -9 113 -123 122 -123 5 0 8 11 8 25 0 21 -5 25 -27 25
-20 0 -24 3 -14 9 11 7 9 11 -10 21 -12 7 -32 21 -43 31 -20 19 -36 25 -36 12z"/>
<path d="M1417 3773 c-4 -3 -7 -11 -7 -17 0 -6 5 -5 12 2 6 6 9 14 7 17 -3 3
-9 2 -12 -2z"/>
<path d="M997 3736 c-18 -14 -18 -14 0 -19 10 -3 4 -5 -14 -6 -26 -1 -33 -5
-33 -20 0 -11 4 -23 10 -26 14 -9 85 59 76 73 -9 15 -17 15 -39 -2z"/>
<path d="M1206 3701 c-17 -18 -15 -41 3 -41 7 0 31 43 31 55 0 11 -18 3 -34
-14z"/>
<path d="M4180 3711 c0 -11 40 -41 54 -41 5 0 -1 11 -14 25 -24 26 -40 32 -40
16z"/>
<path d="M4060 3685 c0 -7 -2 -20 -5 -27 -3 -9 5 -20 19 -28 21 -10 28 -11 41
0 22 18 19 26 -20 49 -27 15 -35 17 -35 6z"/>
<path d="M900 3673 c-14 -9 -27 -18 -29 -19 -7 -6 21 -34 33 -34 26 0 49 26
42 48 -9 26 -14 27 -46 5z"/>
<path d="M3805 3660 c-4 -7 9 -29 33 -53 50 -52 65 -82 58 -112 -4 -17 -1 -25
11 -28 14 -4 12 -5 -4 -6 -20 -1 -29 -13 -20 -24 1 -2 -6 -12 -16 -22 -10 -10
-16 -26 -14 -36 3 -10 0 -16 -7 -14 -6 2 -25 -16 -42 -39 -30 -41 -31 -45 -15
-62 15 -18 15 -18 -5 -1 -19 16 -21 16 -37 0 -16 -16 -15 -19 6 -43 l22 -25
-26 23 -26 22 -18 -20 c-18 -19 -18 -21 1 -42 l19 -23 -23 19 c-21 18 -24 19
-39 3 -16 -15 -15 -18 3 -39 l19 -23 -23 19 -23 20 -39 -39 c-38 -37 -39 -39
-22 -59 16 -19 16 -20 0 -7 -21 16 -28 12 -63 -39 -28 -40 -28 -40 -9 -63 l19
-22 -22 19 -23 19 -16 -39 c-9 -21 -22 -63 -29 -92 -11 -46 -11 -54 4 -63 14
-9 13 -10 -3 -5 -17 6 -18 2 -12 -44 9 -66 15 -80 35 -80 13 0 13 -2 2 -9 -11
-7 -11 -13 -1 -32 7 -13 16 -26 19 -29 3 -3 11 -14 17 -25 6 -11 22 -26 35
-32 13 -7 20 -13 15 -13 -5 0 -1 -9 10 -21 22 -24 60 -48 50 -30 -4 6 -3 11 2
11 5 0 15 -12 22 -27 12 -26 13 -27 21 -8 7 19 8 19 8 1 1 -15 4 -16 16 -6 13
11 14 10 10 -3 -5 -11 2 -17 24 -22 17 -3 35 -4 40 -1 5 4 11 1 13 -5 3 -9 12
-9 32 -3 l28 10 -47 37 c-26 20 -52 34 -56 31 -5 -3 -6 2 -3 10 4 9 -5 20 -25
30 -39 21 -38 21 -39 -15 -1 -43 -12 -50 -12 -8 0 117 96 221 200 217 25 0 28
-2 10 -4 -60 -10 -100 -26 -119 -51 -12 -14 -21 -30 -21 -34 0 -17 59 -9 69 9
6 9 11 12 11 7 0 -20 -24 -35 -57 -35 -31 0 -33 -2 -27 -27 12 -59 27 -81 85
-132 46 -41 64 -51 82 -46 17 5 19 4 7 -4 -8 -6 -52 -11 -97 -11 -78 0 -87 -2
-170 -45 -87 -45 -148 -61 -121 -31 9 10 15 11 20 2 4 -6 8 15 8 46 0 31 -4
59 -10 63 -5 3 -7 12 -4 20 3 8 -4 20 -15 27 -12 7 -21 18 -21 25 0 7 -9 13
-20 13 -25 0 -25 -8 -2 -34 22 -24 52 -98 52 -124 -1 -9 -10 12 -22 46 -13 40
-30 70 -45 79 -13 8 -23 22 -23 29 0 17 -28 18 -67 3 -22 -8 -24 -12 -13 -19
12 -8 12 -10 -3 -10 -24 0 -77 -38 -77 -55 0 -19 37 -25 51 -9 10 12 14 11 26
-6 8 -11 20 -20 28 -20 8 0 12 -6 9 -14 -3 -8 5 -23 17 -35 12 -11 19 -24 16
-28 -4 -3 -7 -2 -7 4 0 6 -7 13 -15 17 -13 4 -15 -8 -15 -74 0 -64 3 -80 15
-80 12 0 15 13 15 55 0 59 7 66 35 35 16 -17 16 -24 5 -44 -7 -14 -10 -32 -6
-41 5 -15 -1 -16 -46 -13 -29 2 -60 8 -69 12 -13 6 -16 2 -12 -18 4 -20 1 -26
-12 -26 -15 0 -15 -2 -4 -16 7 -9 21 -13 33 -10 12 3 51 0 88 -6 77 -12 98 -4
98 42 0 42 18 53 163 101 43 14 88 19 165 19 134 1 191 12 214 40 24 30 23 52
-7 84 -14 15 -24 35 -24 44 1 15 2 15 6 -1 3 -13 11 -15 31 -11 63 16 72 23
73 56 2 31 2 31 6 6 2 -16 8 -28 13 -28 24 0 40 15 41 39 2 23 2 24 6 4 2 -13
8 -23 12 -23 14 0 39 25 44 45 4 19 5 19 6 -2 1 -21 2 -21 54 -7 28 7 62 14
74 14 12 0 27 8 32 18 10 16 10 16 11 -2 0 -14 6 -17 25 -14 14 3 25 1 25 -3
0 -5 9 -9 19 -9 12 0 21 -9 25 -25 4 -14 11 -25 16 -25 5 0 3 -12 -5 -27 -8
-15 -12 -30 -9 -35 3 -4 -2 -8 -10 -8 -8 0 -21 -8 -28 -17 -7 -10 -35 -28 -62
-41 l-49 -23 25 -26 25 -25 40 20 c21 11 56 35 76 54 34 29 39 40 44 93 6 58
6 60 -13 45 -17 -14 -18 -14 -6 2 19 24 6 54 -35 79 -29 18 -37 19 -44 8 -7
-11 -9 -11 -9 3 0 13 -10 17 -55 17 -35 0 -55 -5 -55 -12 0 -9 -2 -9 -8 -1 -4
6 -14 14 -22 17 -8 3 20 6 62 6 42 1 90 -4 105 -11 93 -39 128 -145 75 -226
-8 -13 -33 -36 -56 -51 -52 -35 -214 -106 -222 -98 -4 4 2 9 12 13 10 3 28 10
39 14 11 5 31 12 43 15 l24 7 -26 27 c-14 15 -26 32 -26 38 0 18 -109 53 -165
53 -46 0 -58 -4 -84 -31 -35 -35 -40 -73 -15 -120 19 -38 96 -88 149 -96 29
-5 34 -8 20 -13 -18 -6 -18 -7 3 -28 12 -12 19 -22 15 -22 -5 0 -20 14 -34 32
-25 30 -28 31 -58 18 -39 -16 -51 -53 -25 -81 16 -18 17 -19 0 -13 -9 4 -20
19 -23 35 -3 16 -9 29 -12 29 -16 0 -101 -60 -101 -71 0 -7 -3 -9 -7 -5 -8 8
-93 -73 -93 -89 0 -14 72 -6 82 9 6 8 8 8 8 -1 0 -8 18 -12 56 -12 30 1 58 -2
61 -5 4 -3 -37 -6 -89 -6 -156 0 -281 -53 -332 -140 l-18 -32 46 27 c64 37
107 30 245 -40 87 -45 117 -56 148 -53 l38 3 -45 21 c-25 11 -74 39 -108 62
-35 23 -73 44 -84 48 -16 5 -18 8 -7 15 16 10 159 12 159 3 0 -3 -12 -20 -26
-36 l-25 -31 28 -18 c29 -19 45 -17 25 3 -19 19 -14 37 13 50 19 9 29 8 50 -6
14 -9 25 -23 25 -31 0 -22 17 -18 34 7 12 17 13 24 3 30 -30 19 20 5 131 -35
156 -58 212 -71 302 -70 88 0 168 27 220 74 21 18 27 28 17 25 -52 -17 -171
-28 -242 -23 -63 4 -111 16 -225 57 -80 29 -174 61 -210 71 -36 9 -55 18 -43
18 22 1 44 21 24 21 -6 0 -11 5 -11 10 0 6 7 6 18 -1 24 -15 111 26 93 44 -13
13 -15 53 -3 61 5 3 6 -8 4 -24 -6 -42 14 -45 89 -16 35 13 85 32 111 41 27
10 45 22 41 28 -3 6 -1 7 5 3 7 -4 33 6 59 21 l48 28 -30 7 c-17 4 6 6 55 4
97 -3 158 -27 178 -70 9 -21 8 -29 -8 -48 -16 -20 -29 -23 -109 -26 -54 -3
-129 3 -185 12 -93 16 -96 16 -153 -6 -47 -18 -53 -23 -33 -26 14 -2 95 -17
180 -34 182 -36 297 -41 349 -14 59 31 81 63 81 117 0 40 -5 52 -32 80 -34 34
-99 68 -133 70 -11 0 -14 3 -7 6 6 2 12 13 12 23 0 25 26 50 52 50 11 0 32
-13 48 -30 15 -16 30 -26 34 -23 13 14 5 60 -19 98 -30 49 -31 71 -4 85 16 9
26 8 45 -5 20 -13 24 -13 24 -1 0 34 -24 71 -77 121 -50 46 -55 55 -44 69 15
18 44 21 72 6 15 -8 19 -7 19 4 0 26 -58 76 -122 105 -72 33 -104 62 -94 87 5
14 15 16 52 10 52 -7 55 5 10 38 -24 18 -40 21 -116 19 -67 -2 -91 1 -100 12
-19 23 5 45 47 45 30 0 34 2 23 15 -14 16 -96 21 -119 6 -21 -14 -52 -89 -38
-95 8 -3 7 -5 -2 -5 -8 -1 -33 -19 -57 -41 -24 -22 -50 -40 -59 -40 -8 0 -15
-8 -15 -18 0 -11 -10 -27 -22 -38 -23 -19 -23 -19 -5 2 29 35 22 45 -25 38
-54 -9 -57 -11 -29 -30 18 -13 22 -23 18 -44 -6 -27 -6 -27 41 -23 26 3 53 13
61 22 13 15 13 14 7 -2 -5 -16 0 -18 41 -15 39 2 50 7 60 28 7 14 13 19 13 11
0 -8 -7 -22 -16 -32 -14 -15 -11 -19 30 -42 49 -27 60 -23 69 23 l4 25 2 -26
c0 -15 -6 -32 -14 -39 -12 -10 -12 -17 -3 -34 8 -14 -1 -10 -29 15 -22 20 -57
42 -78 49 -56 18 -189 7 -333 -29 -68 -17 -129 -31 -135 -30 -20 1 36 21 71
26 47 5 82 21 82 35 0 10 2 10 9 0 6 -10 17 -11 54 -1 47 11 63 31 51 62 -7
19 -37 32 -42 18 -2 -6 -12 -21 -23 -33 -19 -23 -19 -23 -2 10 15 27 16 34 4
41 -9 6 4 11 40 16 115 15 208 80 234 164 l7 24 -32 -24 c-44 -33 -81 -57 -59
-37 14 11 14 15 2 27 -12 11 -12 15 1 30 49 54 -26 29 -91 -29 -58 -53 -87
-65 -104 -44 -9 11 -8 18 1 29 20 24 -26 19 -61 -6 -35 -24 -36 -35 -7 -45 35
-11 123 -14 107 -3 -11 7 -9 9 6 8 11 0 29 -4 39 -8 18 -7 18 -8 -5 -14 -42
-12 -105 -8 -150 9 -24 9 -84 19 -134 23 l-90 6 43 23 c29 16 74 26 135 33
143 15 197 28 269 66 93 48 148 100 182 169 31 63 45 161 28 204 -8 23 -10 21
-21 -29 -25 -118 -119 -230 -229 -272 -50 -19 -327 -73 -343 -66 -3 1 2 21 12
45 19 45 47 56 56 22 3 -11 9 -20 13 -20 10 0 28 42 36 87 9 49 21 73 38 73
16 0 26 -21 26 -53 1 -22 1 -22 15 -3 10 14 15 45 15 97 0 90 12 106 47 63
l23 -29 0 55 c0 30 -5 75 -11 99 -13 57 3 78 32 42 11 -13 22 -21 26 -17 7 7
-20 64 -58 123 -19 30 -19 34 -5 39 10 4 25 -1 36 -11 23 -21 25 -16 8 20 -6
14 -19 25 -29 25 -9 0 -24 3 -33 6 -14 5 -15 -1 -11 -42 6 -55 0 -49 -10 9 -5
31 -12 40 -42 52 -33 14 -38 14 -55 -2 -23 -21 -13 -31 43 -41 39 -7 42 -9 24
-19 -22 -12 -143 -24 -124 -12 8 4 1 13 -20 23 -32 17 -45 5 -13 -13 9 -6 12
-11 7 -11 -6 0 -12 -14 -13 -31 -4 -53 43 -87 78 -56 12 10 12 9 1 -5 -15 -20
-46 -24 -56 -8 -12 20 -23 9 -28 -27 -6 -49 7 -73 41 -74 25 -2 25 -2 4 -6
-13 -3 -31 2 -41 11 -17 15 -19 14 -36 -29 -20 -53 -10 -74 34 -76 24 -2 25
-2 3 -6 -14 -3 -32 3 -43 13 -10 9 -21 15 -22 13 -52 -67 -55 -92 -15 -109 13
-5 17 -9 9 -9 -8 -1 -23 7 -34 17 -19 16 -20 16 -53 -22 -37 -43 -36 -55 4
-57 24 -2 25 -2 4 -6 -13 -3 -29 0 -36 6 -10 9 -21 3 -45 -25 -36 -40 -36 -55
0 -65 l24 -7 -25 -1 c-15 -1 -31 4 -36 9 -8 8 -22 -3 -49 -36 -31 -37 -35 -48
-24 -55 11 -8 9 -9 -6 -7 -14 2 -26 -10 -47 -47 -15 -27 -28 -53 -28 -57 0
-13 45 -9 60 5 12 10 12 9 1 -5 -7 -10 -26 -18 -42 -18 -28 0 -29 -2 -28 -47
0 -27 4 -57 8 -67 7 -17 9 -17 29 8 20 26 20 29 5 52 -9 14 -13 27 -10 30 3 3
8 -4 12 -15 8 -25 32 -27 63 -5 23 16 23 17 5 38 -18 21 -18 21 3 4 30 -26 40
-23 61 19 l19 36 -23 23 c-13 13 -23 29 -23 36 1 7 8 1 16 -14 19 -36 33 -35
68 1 27 28 27 31 12 52 -9 13 -16 30 -16 39 1 8 7 0 15 -17 8 -18 18 -33 22
-33 5 0 26 17 46 38 36 37 37 38 17 55 -11 9 -20 27 -19 39 1 23 1 23 8 -1 3
-13 14 -29 24 -35 15 -9 28 0 85 60 76 79 90 97 128 154 35 52 42 51 12 -2
-13 -23 -99 -121 -191 -217 -170 -177 -209 -227 -188 -241 7 -4 -5 -12 -27
-18 -45 -14 -116 -72 -138 -113 -8 -16 -19 -55 -23 -87 l-9 -57 -1 51 c0 27
-8 59 -16 70 -8 10 -17 40 -21 66 -5 37 -11 48 -28 51 -20 4 -20 4 2 6 13 0
22 8 23 19 1 9 5 -11 10 -45 4 -34 14 -74 22 -89 14 -26 15 -26 21 -7 4 11 2
32 -4 47 -17 45 -11 108 15 164 28 61 78 127 203 270 154 175 202 264 202 374
0 55 -2 60 -20 55 -11 -3 -20 -2 -20 2 0 12 -71 42 -82 35 -6 -4 -8 -2 -5 3 8
13 -29 47 -42 38 -6 -3 -9 0 -6 8 8 18 -30 53 -40 37z m325 -150 c7 0 22 8 32
17 18 16 18 16 12 0 -11 -30 -53 -33 -77 -6 -20 22 -21 22 -1 6 11 -9 27 -17
34 -17z m108 -70 c1 -22 -7 -64 -18 -93 -19 -50 -22 -53 -50 -49 -42 6 -46 19
-6 14 32 -4 34 -2 50 44 22 64 21 95 -1 87 -14 -5 -13 -3 3 14 10 12 19 22 20
22 0 1 1 -17 2 -39z m-275 23 c-7 -2 -19 -2 -25 0 -7 3 -2 5 12 5 14 0 19 -2
13 -5z m211 -22 c-2 -3 -12 3 -22 13 -16 17 -16 18 5 5 12 -7 20 -15 17 -18z
m-21 -41 c21 11 21 10 3 -4 -11 -9 -23 -16 -26 -16 -3 0 -15 7 -26 16 -18 14
-18 15 4 4 16 -8 28 -8 45 0z m-199 -65 c-4 -8 -11 -12 -16 -9 -6 4 -5 10 3
15 19 12 19 11 13 -6z m144 -56 c24 -2 25 -2 4 -6 -24 -5 -52 12 -52 31 0 6 5
3 11 -6 5 -10 22 -19 37 -19z m-178 -3 c0 -11 -19 -15 -25 -6 -3 5 1 10 9 10
9 0 16 -2 16 -4z m-43 -53 c-14 -14 -19 -15 -29 -4 -11 10 -10 11 3 6 10 -4
20 -2 24 4 3 6 9 11 13 11 3 0 -1 -8 -11 -17z m213 -18 c14 -19 14 -19 -2 -6
-10 7 -18 18 -18 24 0 6 1 8 3 6 1 -2 9 -13 17 -24z m-230 -8 c0 -2 -14 -16
-32 -33 -18 -16 -27 -22 -20 -13 6 9 8 20 4 24 -4 5 -2 5 4 2 7 -4 17 0 24 8
12 14 20 19 20 12z m182 -27 c6 0 9 -3 6 -6 -9 -8 -48 14 -48 27 0 6 7 3 16
-5 8 -9 20 -16 26 -16z m-252 -46 c0 -3 -30 -39 -66 -80 -77 -89 -140 -183
-149 -224 -4 -17 -13 -30 -22 -30 -12 0 -12 2 1 16 19 19 20 31 4 37 -8 3 -7
6 4 6 9 1 20 11 24 24 4 12 22 40 40 63 19 23 34 45 34 50 0 5 9 15 21 22 12
8 18 19 15 28 -3 8 0 14 8 14 23 0 37 25 23 39 -9 10 -8 11 6 5 25 -9 51 14
36 33 -10 11 -9 12 5 7 9 -3 16 -8 16 -10z m181 -42 c-13 -2 -27 0 -32 5 -6 6
3 7 23 4 28 -4 29 -6 9 -9z m-86 -75 c19 -4 19 -5 -1 -6 -12 0 -28 7 -35 17
-12 15 -12 16 1 6 8 -7 24 -14 35 -17z m-101 -80 c7 -6 6 -7 -4 -4 -8 2 -16
12 -17 23 -2 13 -1 15 4 4 3 -8 11 -19 17 -23z m156 0 c-26 -13 -56 -42 -74
-69 -17 -25 -37 -54 -44 -64 -7 -11 -5 -3 4 16 28 59 84 128 107 133 47 9 49
6 7 -16z m-253 -59 c-3 -8 -6 -5 -6 6 -1 11 2 17 5 13 3 -3 4 -12 1 -19z m28
-36 c-3 -3 -11 0 -18 7 -9 10 -8 11 6 5 10 -3 15 -9 12 -12z m664 -17 c-15 -8
-36 -11 -50 -7 -21 6 -19 7 16 13 61 9 62 9 34 -6z m168 -11 c-3 -3 -12 -4
-19 -1 -8 3 -5 6 6 6 11 1 17 -2 13 -5z m105 -46 c60 -37 124 -108 149 -161
20 -46 24 -72 10 -62 -5 3 -12 1 -16 -5 -8 -13 -62 -13 -70 0 -3 6 1 7 10 4 8
-3 26 -3 40 0 64 16 -7 137 -129 218 l-41 28 -20 -23 c-11 -12 -17 -18 -12
-13 11 15 8 44 -5 50 -7 3 -2 3 12 0 14 -3 46 -19 72 -36z m-163 -22 c-3 -3
-11 5 -18 17 -13 21 -12 21 5 5 10 -10 16 -20 13 -22z m-390 8 c29 -8 51 -17
48 -20 -2 -2 -15 0 -29 5 -17 7 -42 3 -93 -14 -38 -13 -71 -29 -73 -35 -3 -8
-8 -7 -18 1 -27 22 -27 0 -1 -27 15 -14 29 -35 32 -46 4 -10 12 -17 18 -15 19
6 20 43 2 61 -9 9 -12 16 -5 16 6 0 16 -12 22 -26 10 -21 9 -31 -4 -55 -13
-22 -14 -31 -5 -41 7 -7 13 -24 15 -38 4 -38 -13 -12 -33 49 -10 29 -30 67
-45 85 -27 30 -29 30 -48 13 -11 -11 -29 -17 -39 -14 -15 4 -15 5 3 6 20 1 57
31 39 31 -13 0 28 41 60 61 37 23 85 24 154 3z m521 -51 c0 -17 -36 -53 -52
-53 -7 0 -4 6 7 12 29 16 36 30 30 58 -4 19 -3 21 5 10 5 -8 10 -21 10 -27z
m-425 20 c-11 -3 -23 -10 -27 -17 -5 -7 -8 -5 -8 7 0 12 7 17 28 16 21 -1 22
-2 7 -6z m276 -26 l-24 -22 19 27 c10 14 21 24 23 22 3 -3 -6 -15 -18 -27z
m-411 10 c0 -7 -7 -22 -15 -33 -13 -17 -13 -16 -3 14 13 34 18 40 18 19z m360
-8 c7 -11 9 -23 6 -27 -3 -3 -6 0 -6 6 0 6 -7 18 -16 26 -8 9 -11 16 -5 16 6
0 15 -9 21 -21z m98 -4 c-3 -3 -9 2 -12 12 -6 14 -5 15 5 6 7 -7 10 -15 7 -18z
m-389 -34 c0 -14 -1 -14 -6 -1 -3 8 -13 24 -22 35 -16 20 -16 20 7 1 12 -11
22 -26 21 -35z m571 4 c-7 -9 -27 -14 -49 -13 l-36 1 38 4 c21 3 41 11 44 19
3 8 8 13 11 10 3 -3 -1 -12 -8 -21z m-511 -29 c-3 -3 -11 5 -18 17 -13 21 -12
21 5 5 10 -10 16 -20 13 -22z m521 -56 c-8 -15 -20 -20 -48 -19 -34 2 -34 2
-7 6 41 6 55 20 56 57 2 29 2 29 6 4 2 -15 -1 -36 -7 -48z m-590 56 c0 -2 -8
-10 -17 -17 -16 -13 -17 -12 -4 4 13 16 21 21 21 13z m-250 -21 c0 -19 -35
-55 -52 -54 -7 0 -3 5 10 11 12 6 25 22 28 35 7 26 14 30 14 8z m198 -10 c-3
-3 -9 2 -12 12 -6 14 -5 15 5 6 7 -7 10 -15 7 -18z m-521 -21 c-3 -3 -12 -4
-19 -1 -8 3 -5 6 6 6 11 1 17 -2 13 -5z m737 -13 c-17 -4 -36 -11 -42 -15 -6
-3 -13 -2 -16 3 -7 10 21 18 64 19 21 0 20 -1 -6 -7z m-354 -16 c-7 -8 -17
-15 -23 -15 -6 0 -2 7 9 15 25 19 30 19 14 0z m268 -2 c-10 -2 -18 -8 -18 -13
0 -4 -10 -5 -22 -2 -23 6 -23 6 2 13 14 4 32 7 40 7 10 0 9 -2 -2 -5z m-68
-17 c0 -11 -19 -15 -25 -6 -3 5 1 10 9 10 9 0 16 -2 16 -4z m561 -25 c-7 -11
-23 -24 -36 -27 -14 -3 -25 -13 -25 -22 0 -24 -6 -11 -13 28 -5 27 -4 31 4 18
14 -25 35 -22 56 6 21 28 29 27 14 -3z m-865 -9 c-17 -16 -18 -16 -5 5 7 12
15 20 18 17 3 -2 -3 -12 -13 -22z m252 21 c-10 -2 -18 -8 -18 -13 0 -4 -10 -5
-22 -2 -23 6 -23 6 2 13 14 4 32 7 40 7 10 0 9 -2 -2 -5z m742 -174 c-9 -21
-9 -20 -4 10 4 24 3 31 -5 26 -20 -12 -60 4 -72 28 l-12 22 26 -23 c44 -41 61
-27 67 53 l5 70 3 -81 c1 -44 -2 -91 -8 -105z m-914 126 c-10 -15 -25 -24 -39
-24 -21 2 -21 2 2 6 15 3 28 16 35 34 6 17 12 25 14 19 2 -6 -3 -22 -12 -35z
m-299 13 c-3 -8 -6 -5 -6 6 -1 11 2 17 5 13 3 -3 4 -12 1 -19z m1173 -23 c-7
-8 -18 -15 -24 -15 -6 0 -3 5 7 11 9 5 17 18 18 27 0 11 2 12 6 4 3 -7 -1 -19
-7 -27z m-770 10 c0 -8 -11 -22 -24 -31 -20 -12 -29 -13 -43 -4 -17 11 -17 11
0 6 23 -7 57 10 57 29 0 8 2 15 5 15 3 0 5 -7 5 -15z m-611 -47 c16 -18 28
-35 25 -37 -2 -2 -13 8 -25 22 -11 15 -27 27 -35 27 -8 0 -14 5 -14 10 0 19
20 10 49 -22z m1331 22 c8 -5 11 -10 5 -10 -5 0 -17 5 -25 10 -8 5 -10 10 -5
10 6 0 17 -5 25 -10z m-44 -42 c27 12 28 11 9 -3 -12 -9 -29 -14 -42 -10 -14
3 -23 1 -23 -6 0 -7 -3 -10 -6 -6 -3 3 -3 15 1 27 6 20 8 20 20 4 11 -16 17
-17 41 -6z m-722 -39 c-9 -10 -27 -19 -38 -18 -18 1 -18 2 4 8 14 4 29 17 35
29 5 12 11 18 13 12 2 -6 -4 -20 -14 -31z m651 -22 c-7 -27 8 -43 45 -50 l25
-4 -27 -2 c-15 0 -34 6 -43 15 -15 15 -18 15 -41 -6 -13 -13 -24 -34 -24 -46
0 -19 8 -25 40 -34 59 -16 39 -30 -38 -28 l-67 1 65 6 c58 5 61 7 32 13 -22 5
-36 15 -39 28 -7 25 -10 25 -52 -1 -24 -14 -32 -25 -28 -39 5 -19 0 -20 -91
-19 -92 1 -146 8 -141 19 6 15 -15 51 -29 48 -25 -5 -25 -24 0 -36 13 -6 18
-11 12 -11 -23 -2 -64 41 -64 65 0 34 41 49 102 37 25 -5 56 -5 69 -1 12 5 24
7 26 4 2 -2 -25 -14 -61 -26 l-66 -22 15 -28 c12 -23 24 -30 61 -36 56 -8 96
3 189 54 45 25 81 53 100 80 35 48 37 49 30 19z m116 -17 c14 0 31 6 39 13 12
10 12 9 1 -5 -19 -25 -64 -23 -87 5 -19 22 -19 22 2 5 11 -10 32 -18 45 -18z
m74 -32 c-4 -13 -18 -40 -31 -60 -21 -33 -22 -38 -7 -38 9 0 14 -3 10 -6 -3
-4 -35 -3 -70 0 -56 6 -66 11 -76 32 -16 36 -13 44 5 11 13 -25 21 -28 49 -25
19 2 31 0 29 -4 -3 -4 2 -8 10 -8 19 0 33 23 18 28 -18 6 -42 32 -42 45 0 6 7
1 16 -11 23 -34 48 -28 69 18 20 44 30 53 20 18z m-237 -184 c-4 -3 -31 -5
-62 -5 -60 0 -81 -14 -44 -28 15 -7 17 -10 7 -10 -9 -1 -22 6 -29 14 -9 10
-34 16 -84 17 l-71 2 85 6 c123 9 204 11 198 4z m-156 -58 c2 -19 0 -32 -4
-30 -8 5 -12 64 -4 64 2 0 6 -15 8 -34z m-48 -24 c11 -6 15 -11 9 -11 -7 -1
-22 8 -33 19 -11 11 -20 26 -19 33 0 6 5 2 11 -9 5 -12 20 -27 32 -32z m-142
4 c-3 -28 0 -35 18 -41 12 -4 19 -9 17 -12 -3 -2 -15 0 -26 7 -20 10 -30 58
-14 73 9 10 9 10 5 -27z m-29 -51 c-3 -9 -8 -14 -10 -11 -3 3 -2 9 2 15 9 16
15 13 8 -4z m-51 -45 c13 -5 17 -9 9 -9 -20 -1 -51 29 -50 48 0 10 4 8 9 -7 5
-12 20 -27 32 -32z m-79 9 c18 -1 18 -2 4 -6 -20 -5 -47 13 -47 31 0 6 5 3 11
-6 5 -10 20 -19 32 -19z m117 -149 c17 -6 9 -7 -25 -3 -27 3 -52 7 -54 9 -8 7
54 2 79 -6z"/>
<path d="M4030 2740 c-8 -6 -32 -9 -53 -8 -24 1 -43 -4 -54 -15 -16 -16 -16
-17 3 -17 30 0 122 29 129 40 8 13 -6 13 -25 0z"/>
<path d="M4410 2190 c-12 -8 -9 -10 13 -10 15 0 27 5 27 10 0 13 -20 13 -40 0z"/>
<path d="M812 3634 c-60 -26 -11 -58 52 -34 28 10 28 11 11 30 -21 23 -20 23
-63 4z"/>
<path d="M2356 3581 c-21 -54 -20 -76 5 -127 56 -116 227 -116 280 0 23 50 24
85 3 134 l-15 37 -14 -32 c-29 -68 -133 -96 -190 -51 -15 12 -33 35 -40 51
l-12 29 -17 -41z"/>
<path d="M3827 3492 c-13 -15 -14 -21 -4 -31 10 -11 6 -12 -19 -7 -16 4 -40 3
-52 -1 -20 -8 -21 -11 -9 -28 13 -17 17 -17 48 -5 58 23 80 42 77 63 -4 28
-21 31 -41 9z"/>
<path d="M3593 3435 c5 -11 1 -12 -18 -5 -18 7 -30 4 -49 -11 -31 -25 -34 -61
-6 -106 24 -40 72 -55 159 -51 58 3 66 6 88 34 l24 32 -88 -5 c-69 -4 -92 -2
-108 10 -32 25 -8 50 54 60 56 9 62 23 20 44 -35 18 -83 17 -76 -2z"/>
<path d="M1611 3430 c-48 -11 -84 -51 -84 -92 0 -35 21 -98 37 -110 6 -3 11
-28 12 -53 3 -49 17 -75 40 -75 10 0 13 7 8 25 -3 14 -2 25 2 25 5 0 9 24 10
53 1 37 -1 45 -6 27 -10 -30 -11 -28 -14 30 -2 25 -5 50 -6 55 -6 21 13 45 36
45 22 0 29 -10 25 -34 -1 -4 4 -15 11 -24 7 -9 8 -13 3 -10 -6 4 -21 1 -34 -6
-38 -21 -6 -30 35 -11 27 13 34 21 29 36 -4 11 -2 19 4 19 17 0 13 30 -4 36
-8 4 -15 14 -15 24 0 18 -30 51 -46 49 -5 -1 -24 -5 -43 -9z"/>
<path d="M1705 3413 c3 -16 13 -36 22 -45 9 -10 12 -25 8 -38 -9 -28 31 -72
41 -45 4 9 4 19 0 22 -3 3 2 12 12 20 16 12 16 14 -5 32 -13 11 -23 26 -23 34
0 20 -27 47 -47 47 -12 0 -14 -6 -8 -27z"/>
<path d="M3257 3422 c-10 -10 -17 -24 -17 -31 0 -7 -10 -21 -22 -32 -22 -18
-22 -20 -6 -32 10 -8 15 -17 12 -20 -4 -3 -4 -14 0 -23 6 -15 8 -16 24 0 22
19 38 21 45 4 4 -10 8 -10 15 0 7 11 10 9 15 -7 3 -12 12 -21 20 -21 25 0 29
18 6 25 -12 4 -18 12 -15 21 3 7 1 16 -4 19 -17 10 2 35 26 35 23 0 49 -31 37
-44 -4 -3 -8 -28 -9 -54 -3 -60 -4 -62 -14 -32 -6 19 -7 14 -5 -20 2 -25 6
-53 10 -62 3 -9 2 -25 -4 -37 -7 -13 -11 -122 -11 -310 0 -252 2 -291 15 -291
13 0 15 39 15 290 0 225 -3 290 -12 291 -7 0 -3 4 10 9 12 5 24 15 26 22 25
84 26 81 21 -47 -3 -71 -1 -136 3 -143 6 -8 23 12 56 63 l48 75 -7 84 c-7 81
-34 154 -53 142 -4 -2 -6 10 -4 28 5 47 -38 94 -98 107 -41 9 -47 8 -62 -12
-10 -11 -18 -27 -18 -34 0 -7 -7 -15 -15 -19 -17 -6 -21 -36 -5 -36 6 0 10 -5
10 -11 0 -8 -5 -8 -15 1 -20 17 -19 23 10 66 14 20 22 40 19 45 -9 15 -30 10
-47 -9z m193 -197 c-7 -8 -18 -15 -24 -15 -6 0 -3 5 7 11 9 5 17 18 18 27 0
11 2 12 6 4 3 -7 -1 -19 -7 -27z"/>
<path d="M1771 3401 c6 -17 15 -31 19 -31 15 0 20 -31 8 -49 -9 -15 -7 -22 10
-39 21 -21 35 -16 37 13 1 6 5 19 10 29 5 13 4 23 -6 30 -8 6 -21 25 -29 41
-9 17 -25 31 -38 33 -20 3 -21 1 -11 -27z"/>
<path d="M3186 3408 c-13 -18 -16 -19 -16 -5 0 26 -12 21 -45 -18 l-30 -36
-587 1 c-398 0 -588 -3 -588 -10 0 -7 190 -9 590 -8 l590 3 0 -27 c0 -16 5
-28 10 -28 6 0 10 5 10 10 0 6 7 10 15 10 13 0 13 3 3 19 -10 17 -9 23 7 41
10 11 21 18 23 15 3 -3 -3 -11 -13 -19 -16 -12 -18 -18 -8 -37 6 -13 14 -32
17 -42 5 -16 7 -16 27 4 18 18 20 25 11 40 -10 15 -7 25 13 55 14 20 25 41 25
45 0 18 -39 8 -54 -13z"/>
<path d="M1830 3406 c0 -7 10 -26 22 -41 17 -22 19 -31 10 -46 -10 -15 -9 -19
3 -19 8 0 15 -4 15 -10 0 -25 18 -7 23 23 3 25 -2 40 -25 70 -31 38 -48 47
-48 23z"/>
<path d="M4285 3368 c8 -35 20 -48 45 -48 29 0 60 -30 60 -59 0 -38 -13 -48
-91 -68 -65 -16 -68 -18 -77 -55 -9 -36 -8 -38 12 -38 41 0 177 39 212 61 71
43 84 121 31 174 -39 39 -136 73 -149 53 -6 -10 -8 -10 -8 0 0 6 -9 12 -21 12
-18 0 -20 -4 -14 -32z"/>
<path d="M1621 3337 c-8 -10 -7 -19 4 -33 14 -18 14 -18 15 4 0 13 6 22 16 22
8 0 12 5 9 10 -9 14 -31 12 -44 -3z"/>
<path d="M3340 3340 c0 -5 5 -10 10 -10 6 0 10 -10 10 -22 1 -22 1 -22 15 -5
7 11 11 25 8 33 -6 16 -43 19 -43 4z"/>
<path d="M395 3288 c-13 -86 27 -191 97 -259 89 -86 181 -123 353 -143 175
-21 269 -66 137 -66 -43 0 -96 -8 -138 -21 -112 -35 -226 -9 -318 72 -43 37
-49 39 -122 46 -38 3 -53 1 -63 -11 -12 -14 -9 -16 22 -16 43 0 66 -22 46 -46
-11 -13 -26 -15 -79 -10 -70 6 -130 -5 -155 -30 -26 -26 -17 -34 30 -27 36 4
46 2 51 -11 9 -23 -12 -43 -80 -78 -84 -42 -114 -65 -132 -100 -15 -29 -15
-31 2 -23 40 17 70 17 84 0 13 -15 8 -23 -43 -70 -53 -50 -77 -87 -77 -121 0
-12 4 -12 24 1 19 13 29 14 45 5 27 -14 26 -36 -4 -85 -38 -61 -29 -138 9 -80
32 48 106 37 106 -17 0 -20 4 -21 37 -12 l23 6 -21 29 c-62 87 -79 244 -39
351 25 67 101 156 164 192 22 13 67 32 98 42 34 10 55 22 52 28 -4 6 6 -4 21
-22 40 -48 101 -80 184 -93 51 -9 68 -15 55 -20 -10 -3 -23 -3 -29 1 -5 4 -29
10 -52 14 -48 7 -55 -3 -25 -38 17 -21 17 -21 -5 -2 -13 11 -23 27 -23 38 0
10 -7 18 -15 18 -9 0 -36 19 -60 41 l-45 42 -45 -13 c-53 -15 -60 -41 -17 -64
15 -8 21 -15 14 -16 -8 0 -26 13 -41 29 l-28 30 -40 -27 c-84 -57 -153 -142
-153 -190 0 -23 37 -39 65 -28 9 3 13 2 10 -4 -9 -14 -58 -13 -73 2 -17 17
-24 -8 -20 -83 3 -74 22 -87 65 -47 l26 23 -12 -22 c-12 -25 -52 -40 -72 -27
-15 9 -6 -32 23 -98 23 -54 47 -62 72 -26 9 12 16 17 16 11 0 -13 -24 -39 -42
-46 -29 -10 9 -26 50 -20 33 4 46 12 57 32 17 31 20 22 4 -13 -10 -21 -21 -26
-68 -31 -135 -15 -209 -46 -248 -104 -29 -43 -29 -79 -1 -121 57 -83 156 -93
418 -42 85 17 166 32 180 34 19 3 10 9 -40 26 -63 21 -68 21 -143 7 -94 -18
-246 -20 -282 -3 -14 6 -28 23 -32 36 -5 20 1 31 26 54 17 15 37 28 44 28 8 0
7 -4 -3 -10 -12 -7 -12 -12 -3 -21 15 -15 20 -11 25 16 4 28 23 34 108 33 52
0 64 -3 40 -7 l-35 -6 48 -28 c46 -27 49 -28 68 -11 27 24 24 34 -13 34 -17 0
-29 3 -26 6 3 3 68 2 144 -2 77 -5 131 -10 122 -12 -11 -2 -18 -13 -18 -27 0
-28 -24 -55 -48 -55 -12 0 -9 4 8 13 16 8 26 23 28 40 3 25 1 27 -32 27 -22 0
-36 -5 -36 -12 0 -9 -3 -9 -9 1 -8 12 -12 12 -26 -2 -9 -10 -24 -17 -33 -16
-12 0 -10 3 6 10 27 10 20 29 -11 29 -14 0 -28 -11 -39 -30 l-17 -30 36 -15
c51 -21 70 -19 87 13 8 15 15 22 16 17 0 -6 -7 -21 -16 -33 -12 -18 -13 -23
-2 -27 88 -32 101 -35 115 -24 11 9 12 9 7 -4 -4 -11 6 -22 36 -37 52 -27 74
-20 68 20 -2 16 -1 27 4 24 11 -7 10 -52 -2 -59 -19 -12 -10 -25 18 -26 16 0
-2 -8 -43 -19 -38 -10 -119 -37 -180 -60 -191 -72 -291 -85 -437 -56 -38 7
-68 10 -68 7 0 -3 17 -18 38 -32 61 -43 128 -62 222 -62 76 0 99 5 220 47 163
58 265 86 299 85 14 -1 -2 -6 -36 -13 -35 -7 -65 -15 -68 -18 -3 -3 4 -16 15
-29 16 -18 23 -21 27 -10 9 21 41 51 56 51 7 0 22 -6 33 -14 16 -13 17 -18 7
-35 -16 -25 -16 -34 -3 -26 6 3 10 3 10 0 0 -3 -21 -16 -47 -28 l-48 -22 35
-3 c26 -3 61 10 145 52 62 32 130 59 157 62 44 6 46 5 41 -15 -4 -16 -1 -21
13 -22 11 0 14 -3 7 -6 -7 -2 -13 -17 -13 -32 0 -16 -5 -43 -11 -61 -9 -26 -9
-34 2 -41 11 -7 11 -9 -2 -9 -9 0 -21 -11 -27 -25 -16 -34 -16 -35 11 -36 15
-1 17 -3 5 -6 -12 -3 -16 -15 -16 -46 1 -23 -3 -53 -7 -67 -8 -24 -7 -24 17 5
13 17 28 37 31 45 4 8 14 25 23 38 15 21 15 22 -2 23 -17 0 -17 1 2 9 21 8 39
54 49 130 3 25 8 52 11 61 8 27 -74 109 -141 140 -33 16 -67 29 -77 29 -10 0
-15 6 -12 18 3 11 -11 33 -41 62 -39 38 -45 41 -45 23 0 -26 -25 -53 -48 -53
-12 0 -9 4 8 13 15 8 26 23 28 39 3 22 -5 31 -55 61 -41 25 -60 32 -65 24 -6
-9 -8 -9 -8 0 0 20 -47 45 -69 38 -11 -3 -23 -14 -26 -25 -3 -10 -13 -21 -22
-25 -15 -5 -15 -4 0 13 21 23 21 29 0 35 -11 3 -6 5 11 6 42 1 106 35 145 75
26 27 34 43 35 76 1 35 -4 46 -32 71 -27 25 -41 29 -88 29 -52 0 -154 -33
-154 -49 0 -16 62 -29 93 -20 47 13 72 11 97 -9 31 -25 20 -53 -33 -82 -36
-21 -59 -25 -158 -28 l-117 -4 5 24 c4 19 -2 27 -32 41 -43 21 -45 21 -45 3 0
-8 -4 -17 -8 -20 -5 -3 -7 7 -4 22 2 19 -4 34 -22 51 -23 22 -26 22 -41 7 -9
-9 -28 -15 -43 -15 l-27 2 25 4 c38 7 52 23 45 51 -5 19 1 15 27 -19 25 -33
56 -56 128 -92 86 -44 100 -48 145 -43 93 10 138 23 132 39 -2 7 -13 12 -25
11 -12 0 -19 3 -16 7 4 7 -65 32 -91 34 -5 0 -12 2 -15 5 -3 3 -22 13 -44 23
-37 17 -39 17 -60 0 -20 -17 -20 -17 -7 0 15 19 8 33 -19 39 -8 2 -21 11 -28
21 -7 9 -20 17 -28 17 -8 0 -12 5 -9 10 4 6 0 21 -8 33 -12 20 -12 24 4 41 10
10 16 22 14 26 -2 4 1 7 8 8 47 6 83 16 89 26 5 8 8 7 8 -1 0 -7 9 -13 20 -13
14 0 20 7 21 23 1 20 2 20 6 2 9 -36 48 -48 56 -17 4 13 5 11 6 -5 0 -13 8
-24 16 -24 8 -1 21 -2 28 -3 6 -1 18 -7 25 -13 7 -7 22 -13 32 -13 10 0 22 -4
25 -10 10 -16 33 -12 38 8 4 13 5 12 6 -5 1 -23 61 -53 61 -31 0 7 6 3 14 -8
18 -23 25 -17 36 32 11 46 5 57 -26 51 -13 -2 -25 -1 -26 3 -6 14 -48 22 -48
9 0 -9 -4 -8 -12 2 -19 22 -149 54 -158 39 -5 -8 -9 -6 -14 5 -5 15 -19 16
-100 13 -52 -1 -89 0 -83 4 30 19 167 7 303 -26 179 -44 179 -44 180 -26 0 8
4 23 8 32 5 10 1 26 -8 40 -9 12 -16 27 -16 33 1 5 8 -3 16 -19 l16 -28 19 31
c33 54 26 77 -28 95 -59 20 -56 21 -51 -13 2 -17 1 -28 -4 -25 -4 3 -8 18 -8
34 0 15 -7 30 -15 34 -19 7 -91 -19 -88 -32 1 -6 -7 -6 -21 1 -23 11 -22 12
22 25 145 42 192 40 240 -7 21 -22 35 -28 55 -24 15 3 42 2 61 -1 57 -11 146
-94 146 -136 0 -12 -2 -12 -9 -1 -7 10 -12 8 -25 -10 -23 -34 -20 -44 9 -25
13 9 27 16 30 16 3 0 5 -25 5 -57 0 -64 -8 -68 -11 -6 -3 40 -3 40 -31 31 -38
-13 -43 -25 -22 -51 18 -22 18 -22 -1 -5 -18 17 -20 16 -54 -8 l-36 -26 38 35
c39 38 57 73 57 112 0 19 -6 24 -31 27 -19 2 -36 11 -43 23 -10 18 -10 18 3 3
13 -18 71 -26 71 -10 0 19 -35 55 -66 68 -37 16 -100 19 -108 5 -10 -16 23
-33 51 -27 21 5 24 4 13 -4 -21 -14 -46 -12 -64 5 -8 8 -22 12 -30 9 -12 -5
-15 -2 -10 10 4 9 1 16 -6 16 -7 0 -10 -8 -7 -20 3 -12 -5 -39 -19 -63 -35
-62 -51 -141 -33 -164 13 -16 12 -17 -2 -5 -14 11 -17 8 -23 -19 -3 -18 -15
-38 -26 -46 -28 -20 -26 -64 4 -92 22 -21 37 -23 188 -30 143 -7 171 -11 229
-34 36 -15 70 -27 76 -27 19 0 41 -35 45 -70 3 -39 -12 -36 151 -29 58 2 81
14 57 29 -7 5 -10 17 -7 30 4 17 2 20 -11 14 -9 -4 -41 -10 -70 -12 -51 -4
-54 -3 -48 16 4 12 1 30 -6 41 -11 17 -9 24 12 46 14 15 24 35 22 45 -2 9 4
20 13 23 8 4 15 16 15 27 0 11 6 20 14 20 8 0 21 9 29 20 12 17 16 18 26 6 12
-15 51 -10 51 6 0 16 -52 58 -71 58 -11 0 -27 -7 -36 -15 -68 -59 -90 -83
-108 -119 -16 -32 -26 -42 -49 -44 l-29 -4 5 77 c3 42 10 81 17 88 13 13 14
27 1 27 -27 0 -53 -110 -37 -158 8 -21 4 -20 -59 15 -60 33 -78 37 -163 43
-53 4 -89 8 -80 8 9 1 24 12 33 25 9 12 13 15 10 5 -4 -10 1 -18 14 -22 24 -8
111 10 131 27 8 7 17 10 20 7 14 -12 41 68 41 124 0 108 -58 184 -169 221 -36
12 -51 23 -63 48 -45 94 -106 129 -263 152 -199 29 -287 61 -364 130 -46 41
-98 135 -107 193 -8 54 -21 54 -29 0z m133 -538 c-7 -10 -14 -17 -17 -15 -4 4
18 35 25 35 2 0 -1 -9 -8 -20z m-134 -44 c-6 -23 16 -56 38 -56 6 0 9 -3 6 -6
-9 -9 -45 13 -52 32 -4 9 -4 25 -1 35 9 27 16 23 9 -5z m141 -16 l20 -25 -22
19 c-13 11 -23 24 -23 29 0 6 1 8 3 6 1 -2 11 -15 22 -29z m-42 5 c-3 -9 -8
-14 -10 -11 -3 3 -2 9 2 15 9 16 15 13 8 -4z m100 -9 c-10 -13 -19 -23 -21
-21 -7 6 19 45 29 45 5 0 2 -11 -8 -24z m305 3 c-20 -11 -23 -40 -7 -72 10
-21 10 -21 -5 -3 -27 33 -15 87 19 86 5 0 2 -5 -7 -11z m-550 -41 l37 -1 -33
-4 c-34 -4 -62 10 -62 31 0 6 5 3 11 -6 6 -12 24 -19 47 -20z m427 2 l20 -25
-22 19 c-13 11 -23 24 -23 29 0 6 1 8 3 6 1 -2 11 -15 22 -29z m-230 -30 c38
0 43 3 38 18 -5 16 -5 16 8 0 9 -10 34 -18 69 -21 45 -4 163 -30 243 -53 11
-4 17 0 17 12 0 20 28 54 44 54 6 0 0 -7 -12 -16 -30 -21 -26 -56 8 -65 14 -4
20 -7 13 -8 -6 -1 -67 13 -135 30 -143 35 -277 47 -332 29 -69 -23 -124 -86
-127 -147 -2 -24 -2 -24 -6 -5 -2 12 -11 22 -19 22 -17 0 -54 35 -54 51 0 7 9
0 21 -15 28 -36 45 -33 69 13 17 34 18 41 5 51 -8 7 -14 24 -14 39 l2 26 4
-27 c7 -44 23 -49 71 -21 39 23 42 27 27 43 -8 9 -15 23 -15 31 1 8 8 2 16
-13 13 -24 21 -28 59 -28z m475 46 c0 -2 -8 -10 -17 -17 -16 -13 -17 -12 -4 4
13 16 21 21 21 13z m-323 -28 c-3 -8 -6 -5 -6 6 -1 11 2 17 5 13 3 -3 4 -12 1
-19z m143 18 c0 -2 -7 -7 -16 -10 -8 -3 -12 -2 -9 4 6 10 25 14 25 6z m-537
-84 c7 -6 26 -12 42 -15 27 -4 27 -4 -7 -6 -42 -1 -59 18 -56 66 1 27 1 27 5
-4 2 -17 10 -36 16 -41z m504 36 c-3 -8 -6 -5 -6 6 -1 11 2 17 5 13 3 -3 4
-12 1 -19z m354 -38 c7 0 9 -3 6 -6 -10 -10 -37 16 -36 35 0 11 3 9 9 -6 5
-13 15 -23 21 -23z m-97 -6 c3 -8 2 -12 -4 -9 -6 3 -10 10 -10 16 0 14 7 11
14 -7z m-597 -21 c-4 -3 -1 -13 6 -22 11 -14 10 -14 -5 -2 -16 12 -16 31 -1
31 4 0 3 -3 0 -7z m668 -3 c-3 -5 -12 -10 -18 -10 -7 0 -6 4 3 10 19 12 23 12
15 0z m-38 -6 c-3 -3 -12 -4 -19 -1 -8 3 -5 6 6 6 11 1 17 -2 13 -5z m113 -57
c13 -5 13 -6 -1 -6 -9 -1 -24 9 -35 22 -19 22 -19 22 1 6 11 -9 27 -19 35 -22z
m-969 -27 c7 0 9 -3 6 -6 -10 -10 -37 16 -36 35 0 11 3 9 9 -6 5 -13 15 -23
21 -23z m183 24 c3 -8 2 -12 -4 -9 -6 3 -10 10 -10 16 0 14 7 11 14 -7z m711
-27 c19 -4 19 -5 -1 -6 -12 0 -28 7 -35 17 -12 15 -12 16 1 6 8 -7 24 -14 35
-17z m-845 -7 c-8 -5 -19 -10 -25 -10 -5 0 -3 5 5 10 8 5 20 10 25 10 6 0 3
-5 -5 -10z m117 -12 c-3 -8 -6 -5 -6 6 -1 11 2 17 5 13 3 -3 4 -12 1 -19z
m668 12 c-3 -5 -12 -10 -18 -10 -7 0 -6 4 3 10 19 12 23 12 15 0z m34 -40 c11
-24 11 -24 -3 -6 -9 11 -16 24 -16 30 0 12 5 7 19 -24z m-730 -7 c0 -16 -3
-22 -6 -16 -3 8 -14 11 -26 8 -12 -4 -31 1 -42 10 -19 14 -18 15 8 3 23 -10
30 -9 45 5 21 22 22 22 21 -10z m694 -46 c22 -4 22 -4 0 -6 -23 -1 -53 23 -53
42 0 6 7 2 15 -10 8 -12 25 -24 38 -26z m-758 -17 c-22 -25 -68 -26 -86 -2
-11 14 -11 15 1 5 19 -18 65 -16 80 2 7 8 15 15 18 15 3 0 -3 -9 -13 -20z
m190 0 c-3 -5 -12 -10 -18 -10 -7 0 -6 4 3 10 19 12 23 12 15 0z m-25 -25 c19
-14 39 -24 46 -21 6 2 11 -2 11 -10 0 -10 -10 -8 -39 8 -35 20 -68 48 -56 48
2 0 19 -11 38 -25z m176 -64 c-17 -18 -16 -20 4 -26 12 -4 20 -9 17 -11 -2 -2
-27 5 -56 17 -28 12 -50 24 -48 26 3 2 16 -2 31 -8 23 -11 29 -10 44 4 23 23
29 21 8 -2z m55 -24 c-6 -8 -8 -17 -4 -20 3 -4 1 -7 -5 -7 -15 0 -15 13 0 28
16 16 23 15 9 -1z m-288 -14 c-7 -2 -19 -2 -25 0 -7 3 -2 5 12 5 14 0 19 -2
13 -5z m72 -17 c11 -2 -13 -4 -52 -5 -40 0 -73 2 -73 7 0 6 79 5 125 -2z m223
-171 c-3 -3 -9 2 -12 12 -6 14 -5 15 5 6 7 -7 10 -15 7 -18z m132 0 c-7 -8
-16 -15 -21 -15 -5 0 -1 8 9 18 20 22 31 19 12 -3z m50 -45 c0 -27 -33 -60
-47 -47 -2 3 5 8 17 12 18 6 21 13 18 40 -2 19 0 31 4 29 4 -3 8 -18 8 -34z
m-120 15 c-7 -8 -20 -15 -29 -15 -11 0 -8 5 9 14 33 19 35 19 20 1z m209 -84
c34 0 65 -2 69 -5 3 -3 -39 -5 -94 -5 -54 1 -89 4 -76 6 12 2 22 10 22 16 0 9
2 9 8 0 5 -7 32 -12 71 -12z m85 -100 c19 -7 19 -8 -2 -13 -12 -4 -20 -2 -16
3 3 5 -8 9 -25 9 -16 0 -33 -4 -36 -10 -3 -5 -12 -10 -18 -10 -7 0 -6 4 3 10
12 8 9 10 -13 10 -27 0 -27 0 -11 -25 17 -26 29 -31 38 -16 5 8 46 23 46 16 0
-2 -15 -12 -33 -23 l-34 -20 -26 34 c-15 18 -27 35 -27 38 0 9 132 6 154 -3z
m203 -67 l28 -26 -35 23 c-46 29 -45 29 -32 29 6 0 24 -12 39 -26z"/>
<path d="M2195 3308 c-3 -7 -4 -483 -3 -1058 l3 -1045 35 -6 c19 -3 45 -9 58
-13 l22 -7 0 1070 0 1071 -55 0 c-35 0 -57 -5 -60 -12z"/>
<path d="M2440 2208 l0 -1113 30 -43 c28 -43 29 -43 41 -20 6 13 20 32 30 44
18 20 19 56 17 1130 l-3 1109 -57 3 -58 3 0 -1113z"/>
<path d="M2690 2250 l0 -1071 23 7 c12 4 38 10 57 13 l35 6 0 1055 0 1055 -57
3 -58 3 0 -1071z"/>
<path d="M1710 3275 c-23 -12 -23 -14 -7 -21 11 -4 24 -1 34 8 21 21 3 29 -27
13z"/>
<path d="M1856 3281 c-4 -7 -5 -15 -2 -18 9 -9 19 4 14 18 -4 11 -6 11 -12 0z"/>
<path d="M3130 3281 c0 -6 5 -13 10 -16 6 -3 10 1 10 9 0 9 -4 16 -10 16 -5 0
-10 -4 -10 -9z"/>
<path d="M3256 3283 c-3 -3 -1 -12 5 -20 13 -14 49 -18 49 -5 0 11 -46 32 -54
25z"/>
<path d="M1771 3266 c-17 -10 -20 -15 -10 -18 17 -6 49 9 49 22 0 13 -10 12
-39 -4z"/>
<path d="M3190 3270 c0 -13 32 -28 48 -23 10 4 8 9 -5 19 -21 16 -43 18 -43 4z"/>
<path d="M1635 3141 c-10 -18 17 -23 33 -7 15 15 15 16 -5 16 -12 0 -24 -4
-28 -9z"/>
<path d="M3329 3136 c16 -19 44 -21 39 -3 -3 6 -15 14 -28 15 -21 3 -22 2 -11
-12z"/>
<path d="M4142 3138 c-19 -19 -14 -48 8 -48 15 0 20 7 20 24 0 30 -12 40 -28
24z"/>
<path d="M1610 2800 c0 -159 4 -290 9 -290 16 0 21 75 21 328 0 217 -2 252
-15 252 -13 0 -15 -39 -15 -290z"/>
<path d="M1095 2930 c5 -8 20 -33 35 -55 15 -22 35 -52 44 -67 9 -16 23 -28
32 -28 23 0 -18 69 -74 122 -25 24 -41 36 -37 28z"/>
<path d="M560 2922 c0 -4 6 -14 12 -20 10 -10 10 -17 0 -32 -10 -17 -8 -21 18
-35 16 -8 46 -15 67 -16 31 0 34 -2 18 -9 -14 -6 -6 -7 25 -4 28 4 40 2 32 -3
-15 -11 58 -9 101 2 36 9 34 19 -7 44 -46 29 -64 27 -58 -4 4 -25 -3 -30 -38
-25 -8 1 -37 23 -65 50 -45 43 -105 73 -105 52z"/>
<path d="M935 2743 c13 -13 103 -43 129 -43 39 0 -11 34 -52 36 -20 1 -48 5
-62 9 -17 5 -22 4 -15 -2z"/>
<path d="M1300 2585 c0 -15 4 -24 10 -20 6 3 10 12 10 20 0 8 -4 17 -10 20 -6
4 -10 -5 -10 -20z"/>
<path d="M3676 2594 c-3 -9 -4 -20 0 -25 3 -5 0 -9 -5 -9 -18 0 -12 -24 9 -38
17 -10 20 -10 20 2 0 8 -4 17 -10 21 -6 4 -6 15 0 31 12 31 12 34 1 34 -5 0
-12 -7 -15 -16z"/>
<path d="M1576 2482 c-4 -11 -13 -23 -21 -26 -8 -3 -22 -24 -31 -46 -9 -22
-18 -39 -20 -37 -7 7 24 73 40 87 21 17 20 30 -2 30 -20 0 -66 -55 -57 -70 3
-5 1 -11 -5 -15 -5 -3 -10 -32 -9 -63 l1 -57 14 40 14 40 -5 -37 c-8 -49 9
-49 28 0 16 41 79 109 121 132 31 16 23 29 -26 37 -30 4 -37 2 -42 -15z"/>
<path d="M3500 2462 c0 -4 5 -13 11 -19 6 -6 14 -45 17 -85 5 -70 6 -72 18
-43 15 33 11 72 -12 123 -14 29 -34 44 -34 24z"/>
<path d="M1720 2348 c1 -31 1 -32 15 -13 17 21 15 37 -3 43 -8 2 -12 -8 -12
-30z"/>
<path d="M3250 2356 c0 -14 5 -28 10 -31 6 -4 10 7 10 24 0 17 -4 31 -10 31
-5 0 -10 -11 -10 -24z"/>
<path d="M1624 2312 c-6 -4 -12 -40 -13 -79 -2 -60 1 -73 13 -73 13 0 16 14
16 80 0 44 -1 80 -2 80 -2 0 -8 -4 -14 -8z"/>
<path d="M550 2190 c0 -5 15 -10 33 -9 27 0 29 2 12 9 -28 12 -45 12 -45 0z"/>
<path d="M876 2161 c-20 -21 -24 -30 -14 -35 7 -3 4 -4 -7 -1 -11 2 -25 1 -32
-3 -7 -4 19 -23 65 -47 52 -27 102 -65 155 -117 89 -87 119 -106 90 -57 -28
48 -132 143 -196 179 -31 17 -57 33 -57 35 0 2 7 6 16 9 8 3 12 2 9 -4 -3 -5
6 -15 20 -22 22 -10 28 -9 36 3 8 10 9 8 4 -8 -4 -13 -2 -23 4 -23 6 0 26 -14
45 -31 21 -18 40 -27 47 -23 7 4 9 3 6 -3 -8 -13 27 -46 37 -36 4 4 4 0 1 -8
-3 -9 3 -23 15 -34 20 -18 21 -18 43 3 21 21 21 24 6 50 -9 15 -21 26 -27 25
-7 -2 -12 3 -12 10 0 8 -9 22 -20 32 -11 10 -20 15 -20 10 0 -4 -10 4 -21 19
-12 15 -24 25 -27 22 -3 -3 -11 3 -19 14 -16 23 -39 26 -46 8 -3 -7 -6 -3 -6
8 -1 22 -25 39 -42 28 -5 -3 -9 2 -9 10 0 23 -13 20 -44 -13z"/>
<path d="M4077 2184 c-3 -3 -3 -13 0 -22 3 -13 2 -14 -4 -4 -10 14 -43 6 -43
-10 0 -5 -4 -7 -8 -4 -8 5 -110 -71 -147 -109 -55 -56 -147 -205 -128 -205 4
0 2 -5 -5 -12 -7 -7 -12 -17 -12 -22 0 -6 6 -4 13 5 7 8 27 24 45 34 17 11 32
23 32 28 0 4 4 6 9 3 5 -3 16 9 24 27 18 36 90 113 145 154 20 16 39 30 42 33
3 3 18 11 33 18 15 7 26 16 23 21 -4 5 2 7 13 4 30 -8 35 16 10 43 -23 25 -31
28 -42 18z"/>
<path d="M1722 2160 c-15 -25 -15 -30 2 -30 17 0 30 30 19 41 -5 5 -14 0 -21
-11z"/>
<path d="M3256 2172 c-9 -15 4 -42 20 -42 17 0 17 10 0 33 -8 10 -17 14 -20 9z"/>
<path d="M4080 2086 c-88 -52 -155 -108 -195 -165 -47 -68 -21 -58 62 26 80
79 173 140 195 127 6 -4 8 -3 5 3 -4 6 6 16 20 22 22 10 24 14 12 22 -20 12
-17 14 -99 -35z"/>
<path d="M310 2101 c0 -5 10 -34 21 -65 18 -45 26 -56 44 -56 13 0 25 7 29 15
4 12 17 14 62 9 42 -5 55 -4 50 4 -4 7 -13 12 -19 12 -7 0 -47 20 -89 45 -78
45 -98 53 -98 36z"/>
<path d="M4635 2088 c-16 -11 -58 -33 -92 -50 -35 -16 -63 -32 -63 -35 0 -3
24 -3 54 1 41 4 57 2 66 -9 10 -13 50 -22 50 -12 0 2 11 31 24 65 22 55 23 62
8 61 -9 0 -30 -10 -47 -21z"/>
<path d="M4750 2093 c1 -20 16 -31 30 -22 13 8 13 10 0 19 -18 12 -30 13 -30
3z"/>
<path d="M1617 2073 c-4 -3 -7 -100 -7 -215 0 -178 2 -208 15 -208 13 0 15 31
15 215 0 196 -4 228 -23 208z"/>
<path d="M3365 2047 c-4 -18 -5 -112 -3 -209 3 -155 5 -179 21 -190 9 -7 31
-46 47 -86 23 -56 28 -83 24 -112 -9 -54 11 -59 25 -5 14 55 14 122 1 130 -5
3 -10 17 -10 31 0 25 -4 28 -52 38 l-28 6 0 215 c0 130 -4 215 -10 215 -5 0
-12 -15 -15 -33z"/>
<path d="M1370 2045 c0 -8 -4 -23 -10 -33 -5 -9 -14 -39 -20 -67 l-9 -50 5 55
c3 30 10 60 15 66 7 8 6 14 -1 19 -15 9 -30 -3 -30 -25 0 -10 -5 -22 -10 -25
-6 -4 -8 -16 -5 -28 5 -17 4 -19 -4 -7 -6 8 -8 24 -5 35 5 16 4 18 -7 8 -18
-18 -15 -97 5 -128 20 -31 38 -29 47 6 l7 24 1 -23 c1 -15 5 -21 13 -16 7 4 8
3 4 -5 -4 -6 -23 -18 -42 -26 -34 -14 -43 -36 -25 -64 8 -12 15 -12 33 -4 19
8 28 7 46 -7 12 -10 22 -24 22 -32 0 -42 49 -49 94 -14 18 13 40 25 50 27 26
5 32 26 9 32 -17 4 -17 5 0 6 11 1 17 9 17 24 -1 21 -1 22 -15 3 -10 -13 -15
-15 -15 -6 0 9 -8 6 -23 -8 -27 -26 -57 -29 -57 -6 0 9 -9 18 -20 21 -16 4
-19 11 -14 27 4 11 11 27 16 34 7 8 7 17 -1 26 -9 11 -9 16 -1 21 7 4 10 18 7
31 -2 14 1 25 9 28 8 3 14 14 14 25 0 15 6 19 28 18 46 -3 33 26 -18 40 -66
17 -110 16 -110 -2z m63 -15 c-3 -10 -11 -25 -19 -31 -8 -6 -14 -20 -14 -30 0
-10 -4 -21 -10 -24 -5 -3 -11 -23 -11 -43 -2 -32 -3 -33 -6 -8 -5 29 8 69 40
124 22 37 27 40 20 12z m-103 -179 c-1 -13 -29 45 -29 59 0 8 6 0 14 -19 8
-18 15 -36 15 -40z"/>
<path d="M3530 2047 c-48 -13 -63 -42 -22 -42 24 -1 52 -41 52 -76 0 -10 5
-21 10 -24 8 -5 7 -11 -1 -21 -9 -11 -9 -18 -1 -26 17 -17 15 -55 -3 -62 -8
-3 -15 -14 -15 -25 0 -15 -5 -18 -22 -13 -13 3 -30 15 -40 26 l-17 21 -1 -22
c0 -14 -6 -23 -16 -23 -21 0 -12 -24 12 -29 10 -2 33 -14 51 -28 38 -29 77
-28 81 4 4 31 47 56 81 48 25 -5 29 -3 36 22 7 28 -13 53 -41 53 -23 0 -44 31
-44 64 0 33 -34 116 -48 116 -4 0 -8 10 -9 21 -2 21 -1 21 11 3 29 -42 56
-109 56 -140 0 -49 17 -50 23 -2 7 49 1 90 -19 136 -17 36 -35 39 -114 19z"/>
<path d="M3650 2032 c0 -4 5 -13 11 -19 6 -6 12 -46 13 -89 1 -47 5 -79 12
-81 19 -6 47 49 47 92 0 49 -11 74 -24 54 -6 -11 -9 -11 -13 1 -2 8 -7 23 -10
33 -5 17 -36 25 -36 9z m45 -153 c-8 -19 -13 -25 -9 -14 3 11 9 38 12 60 5 32
7 35 10 14 2 -15 -4 -42 -13 -60z"/>
<path d="M1520 1988 c0 -7 5 -20 10 -28 8 -12 10 -9 10 13 0 15 -4 27 -10 27
-5 0 -10 -6 -10 -12z"/>
<path d="M3467 1993 c-4 -3 -7 -15 -7 -27 0 -20 0 -20 15 0 8 10 15 22 15 27
0 9 -14 9 -23 0z"/>
<path d="M1170 1935 c-20 -22 -22 -28 -12 -50 7 -15 17 -23 22 -20 6 3 10 2
10 -4 0 -6 15 -18 33 -27 17 -10 37 -24 44 -33 7 -9 13 -11 13 -5 0 5 -5 15
-12 22 -7 7 -9 12 -4 12 7 0 -48 107 -63 123 -4 4 -18 -4 -31 -18z"/>
<path d="M630 1928 c0 -33 22 -88 36 -88 8 0 24 11 36 25 18 21 27 24 61 18
49 -8 44 8 -13 37 -44 23 -120 27 -120 8z"/>
<path d="M4245 1913 c-43 -22 -47 -27 -30 -33 11 -4 28 -4 37 1 23 12 24 12
54 -16 15 -14 32 -25 39 -25 10 0 35 68 35 94 0 17 -90 2 -135 -21z"/>
<path d="M4450 1899 c0 -32 3 -34 31 -19 27 15 24 37 -6 42 -22 5 -25 2 -25
-23z"/>
<path d="M500 1912 c0 -12 34 -42 47 -42 6 0 8 11 5 25 -3 18 -11 25 -28 25
-13 0 -24 -4 -24 -8z"/>
<path d="M3441 1798 c-1 -16 4 -28 9 -28 12 0 12 8 0 35 -8 18 -9 17 -9 -7z"/>
<path d="M3950 1795 c0 -4 75 -45 83 -45 3 0 12 11 21 25 16 25 16 25 -11 25
-22 0 -25 -2 -13 -10 9 -6 10 -10 3 -10 -6 0 -15 5 -18 10 -6 10 -65 15 -65 5z"/>
<path d="M1170 1743 c0 -14 -2 -15 -9 -4 -7 11 -15 11 -47 1 -21 -7 -52 -22
-69 -33 -16 -10 -22 -16 -12 -13 11 3 16 2 12 -4 -3 -6 -14 -10 -24 -10 -12 0
-20 -9 -24 -26 -6 -31 16 -43 47 -24 19 12 20 12 7 -4 -9 -10 -24 -16 -37 -13
-17 3 -25 -4 -38 -31 -21 -44 -10 -57 39 -48 l37 7 -21 20 c-11 11 -21 23 -21
26 0 3 8 -1 18 -10 22 -20 43 -22 61 -4 11 10 13 10 7 0 -5 -9 0 -13 13 -13
11 0 25 9 31 19 14 27 13 29 -13 24 -15 -3 -28 2 -37 14 -12 15 -12 16 0 6 35
-32 66 -9 79 58 7 36 9 38 10 14 0 -16 -8 -55 -19 -85 -18 -53 -18 -70 0 -70
8 0 31 63 44 120 8 37 -4 100 -20 100 -8 0 -14 -8 -14 -17z m-56 -74 c-17 -19
-49 -26 -58 -11 -2 4 8 8 22 7 19 0 30 7 37 23 5 12 11 18 13 12 2 -6 -4 -20
-14 -31z"/>
<path d="M3745 1733 c-39 -26 -49 -68 -17 -76 15 -4 15 -5 -2 -6 -14 -1 -17
-7 -13 -23 3 -13 8 -33 11 -46 11 -50 18 -62 34 -62 13 0 14 -2 3 -9 -10 -7
-11 -13 -2 -30 7 -11 16 -21 22 -21 6 0 8 -4 4 -9 -3 -5 6 -22 20 -38 22 -25
24 -26 26 -8 1 16 2 16 8 -5 5 -17 14 -25 29 -24 13 0 19 -3 14 -8 -10 -10
-24 -10 -232 0 -200 10 -215 15 -206 78 3 25 2 52 -3 62 -4 9 -16 35 -26 57
-31 71 -30 70 -71 67 -46 -4 -59 -14 -50 -37 4 -12 13 -15 31 -11 20 5 25 3
25 -13 0 -11 4 -22 10 -26 5 -3 9 -18 9 -33 0 -15 0 -35 0 -44 1 -36 -3 -56
-10 -52 -4 2 -10 -7 -13 -20 -3 -13 -9 -32 -12 -41 -6 -15 -4 -16 14 -6 12 7
23 22 23 34 1 19 2 19 6 3 5 -20 -39 -70 -53 -58 -4 4 -4 1 0 -5 11 -19 -13
-58 -27 -44 -6 6 -18 11 -26 11 -8 0 -25 12 -38 28 -22 27 -22 27 -23 4 0 -15
-7 -26 -20 -29 -16 -4 -18 -8 -9 -19 6 -8 18 -14 26 -14 8 0 34 -16 57 -35 61
-49 85 -45 100 17 4 19 19 34 45 48 37 18 41 18 71 3 19 -9 76 -19 139 -23 59
-5 125 -15 146 -24 45 -19 59 -20 49 -3 -6 10 -4 10 7 0 7 -7 21 -13 32 -13
10 0 15 -4 12 -10 -3 -5 3 -10 14 -10 11 0 23 -4 26 -10 9 -14 51 -12 64 3 6
8 10 31 9 53 -1 21 2 54 7 72 7 30 6 32 -18 32 -14 0 -28 4 -31 8 -3 5 8 6 24
4 21 -3 31 1 39 17 7 12 17 21 23 21 7 0 7 -5 -1 -14 -10 -12 -6 -21 18 -48
l31 -33 20 24 c11 13 20 20 20 15 0 -4 -8 -16 -17 -26 -16 -17 -15 -20 4 -46
12 -15 28 -26 37 -26 9 1 13 -2 10 -8 -3 -5 2 -20 11 -34 12 -19 23 -25 41
-21 13 2 21 0 18 -4 -3 -5 -12 -9 -20 -9 -13 0 -12 -5 3 -30 9 -16 20 -30 23
-30 3 0 6 -9 7 -21 1 -11 8 -28 15 -36 7 -9 11 -28 10 -43 -2 -16 2 -31 8 -35
9 -5 9 -10 1 -14 -6 -4 -11 -22 -13 -41 -1 -19 -8 -45 -16 -58 -8 -12 -12 -31
-9 -41 3 -13 0 -18 -8 -15 -14 6 -49 -42 -40 -56 3 -6 14 -10 23 -11 11 0 12
-2 4 -6 -7 -3 -19 1 -28 7 -12 10 -18 9 -34 -5 -11 -10 -20 -25 -21 -34 0 -10
-2 -11 -6 -4 -3 10 -12 9 -36 -4 -18 -9 -41 -18 -52 -20 -44 -7 -167 -3 -182
6 -11 6 13 7 68 4 111 -7 175 12 235 72 57 58 86 117 92 191 6 77 -14 141 -70
221 -50 71 -147 183 -159 183 -21 0 -3 -31 67 -115 156 -187 174 -297 70 -438
-20 -28 -93 -77 -112 -77 -5 1 4 8 19 16 15 8 25 19 22 24 -3 6 0 7 8 4 15 -5
72 56 96 104 11 21 10 22 -21 23 l-33 2 35 6 c30 5 35 10 38 38 2 23 -1 32
-15 36 -17 4 -17 5 0 6 18 1 21 12 11 48 -4 14 -11 20 -22 16 -14 -4 -15 -3
-3 5 12 9 13 15 3 36 -6 14 -16 26 -22 26 -6 0 -9 4 -6 9 10 16 -110 164 -125
155 -5 -3 -6 1 -3 9 5 13 -12 35 -20 26 -10 -12 -17 -51 -8 -45 6 4 8 -2 5
-14 -5 -19 9 -37 88 -121 15 -16 24 -30 22 -33 -6 -6 17 -49 31 -58 8 -6 8 -8
0 -8 -7 0 -11 -18 -11 -42 0 -55 -5 -88 -14 -88 -9 0 -24 -41 -21 -53 1 -5 -2
-6 -7 -3 -5 4 -19 -6 -30 -20 -12 -15 -21 -24 -21 -20 0 4 -12 0 -27 -7 -41
-21 -83 -29 -83 -17 0 5 12 10 28 11 25 0 26 1 7 12 -11 7 -49 40 -85 73 -56
53 -98 84 -113 84 -13 0 59 -120 88 -146 41 -37 43 -43 11 -37 -17 4 -25 0
-29 -14 -4 -15 -5 -14 -6 5 -1 15 -7 22 -20 22 -11 0 -40 9 -66 20 -26 11 -52
17 -57 13 -7 -3 -8 -1 -4 5 4 7 2 12 -5 12 -7 0 -10 3 -7 6 4 3 16 0 28 -6 41
-22 -115 164 -162 193 -77 48 -83 33 -22 -59 46 -69 60 -84 99 -98 25 -10 43
-22 39 -27 -3 -5 -13 -2 -21 7 -15 15 -18 15 -31 -2 -13 -18 -13 -18 -10 1 2
15 -2 20 -19 19 -12 0 -20 3 -17 8 3 4 -5 8 -18 8 -13 0 -30 5 -38 11 -11 7
-6 9 18 4 31 -6 33 -5 23 12 -5 11 -41 49 -79 85 -71 67 -158 118 -201 118
l-24 0 20 -22 c11 -13 41 -55 67 -95 40 -61 52 -72 78 -75 30 -3 30 -4 13 -18
-14 -11 -17 -12 -10 -1 6 11 1 13 -23 9 -27 -4 -31 -1 -36 23 -7 36 -95 103
-167 128 -61 21 -170 38 -154 24 64 -57 220 -163 242 -164 11 0 13 -3 6 -6 -7
-2 -13 -12 -13 -20 0 -10 6 -13 16 -9 9 3 18 6 20 6 2 0 4 7 4 15 0 8 4 15 9
15 5 0 8 -8 7 -17 -1 -18 1 -19 91 -25 29 -2 53 -6 53 -10 0 -10 68 -30 80
-23 5 3 10 2 10 -4 0 -12 66 -35 79 -27 5 3 12 -1 15 -10 3 -9 13 -14 20 -11
8 3 17 -1 20 -10 5 -12 2 -13 -11 -8 -10 5 -75 28 -145 52 -112 39 -138 44
-215 44 -164 1 -250 -53 -269 -169 -6 -42 12 -95 25 -73 5 7 12 3 21 -13 7
-14 29 -32 49 -40 20 -8 30 -15 22 -15 -11 -1 -13 -13 -8 -53 3 -33 2 -46 -3
-33 -5 11 -9 36 -9 56 -1 29 -6 38 -27 48 -15 6 -29 9 -33 6 -3 -4 -9 -32 -12
-63 -6 -54 -7 -53 -4 13 2 61 0 73 -20 97 l-24 28 -20 -33 c-62 -100 -48 -243
42 -428 31 -62 59 -126 62 -141 10 -41 22 -34 29 17 8 53 3 85 -36 233 -16 62
-27 121 -25 130 3 10 5 7 6 -9 2 -46 68 -161 143 -250 40 -47 85 -101 100
-120 25 -31 27 -32 28 -11 0 42 -37 128 -100 226 -61 97 -95 164 -87 172 2 3
10 -9 17 -26 14 -34 75 -81 167 -130 35 -18 84 -55 109 -82 25 -27 48 -47 50
-45 3 2 0 23 -5 47 -11 50 -46 89 -151 170 -83 63 -150 132 -150 154 0 8 -6
16 -12 19 -7 2 3 9 22 14 54 14 47 42 -17 72 -29 14 -54 30 -57 38 -9 23 14
58 47 73 47 22 207 19 275 -4 29 -10 58 -19 65 -20 7 -2 57 -24 112 -50 150
-72 223 -97 296 -103 60 -5 68 -4 72 13 4 17 5 17 6 2 0 -10 8 -18 16 -18 30
0 116 22 128 33 7 7 19 13 27 15 30 7 80 44 74 54 -4 6 -2 8 3 5 23 -14 133
139 118 163 -3 6 -1 10 4 10 6 0 11 8 12 18 0 11 2 12 6 4 9 -22 -56 -139
-103 -186 -25 -25 -79 -62 -121 -83 -76 -38 -78 -38 -192 -37 -125 0 -145 6
-306 78 l-80 36 45 -41 c48 -45 111 -78 147 -79 12 0 29 -7 38 -16 23 -24 1
-44 -49 -44 l-41 -1 24 -19 c31 -26 44 -25 100 7 54 30 84 26 79 -9 -2 -12
-17 -32 -35 -44 -37 -25 -33 -34 12 -34 26 0 42 11 83 55 54 58 71 65 92 40
11 -13 10 -21 -1 -43 -7 -15 -15 -30 -17 -34 -2 -5 5 -8 17 -8 32 0 68 41 86
98 18 58 46 82 72 61 10 -9 13 -22 9 -41 -5 -26 -4 -28 14 -18 32 17 49 51 64
129 7 40 20 77 27 82 24 16 54 6 57 -19 3 -23 4 -23 23 -6 22 20 23 43 7 130
-9 50 -9 66 2 79 18 22 46 19 64 -7 16 -22 16 -22 16 15 0 32 -8 47 -50 91
-27 29 -50 62 -50 74 0 26 35 52 61 45 13 -4 19 0 19 11 0 34 -21 56 -91 92
-56 30 -69 41 -67 58 3 18 10 21 46 21 23 0 42 3 42 8 0 17 -67 46 -119 53
-81 10 -101 19 -101 48 0 16 8 30 23 37 l22 12 -30 13 c-16 7 -23 13 -14 14 8
0 24 -6 34 -14 19 -14 19 -15 -5 -34 l-25 -20 70 -7 c38 -4 134 -5 214 -1 127
6 146 5 162 -10 25 -22 24 -65 -1 -96 -23 -30 -73 -52 -157 -68 l-61 -12 40
-40 c35 -35 43 -38 71 -32 105 22 200 81 233 145 8 16 14 50 14 78 0 39 -6 56
-26 80 -46 55 -110 61 -326 31 -113 -16 -198 -7 -296 33 -34 13 -62 21 -62 17
0 -5 24 -18 53 -29 28 -11 45 -20 37 -20 -8 0 -34 8 -57 19 -37 16 -43 23 -43
49 0 37 30 50 65 27 25 -17 30 -11 19 18 -4 10 -18 16 -35 16 -16 0 -46 7 -66
15 -45 19 -43 20 -43 -10 0 -48 42 -109 154 -225 124 -128 169 -188 203 -270
26 -65 29 -87 8 -87 -10 0 -12 4 -5 12 13 16 -18 108 -32 98 -7 -3 -8 -1 -4 6
4 6 -2 27 -14 47 -22 34 -23 35 -44 17 -11 -9 -15 -11 -8 -3 20 23 14 46 -18
73 -16 14 -30 30 -30 36 0 5 -13 19 -29 30 -24 18 -30 19 -35 6 -3 -8 -16 -14
-28 -14 -21 1 -21 2 -3 6 33 9 36 26 8 55 -20 21 -29 25 -40 16 -7 -6 -16 -8
-20 -4 -3 3 -1 6 5 6 20 0 13 28 -16 62 -15 18 -35 50 -44 70 -12 27 -22 35
-35 32 -10 -3 -27 2 -38 11 -19 16 -19 16 3 5 32 -16 52 -6 52 25 0 18 -5 25
-19 25 -11 0 -26 9 -34 20 -14 20 -75 50 -102 50 -12 0 -15 -12 -15 -54 0 -65
19 -91 59 -82 22 5 23 4 8 -4 -9 -6 -26 -8 -37 -5 -18 6 -19 4 -9 -19 10 -21
18 -25 50 -24 23 1 44 -5 54 -15 9 -10 28 -18 43 -18 24 -2 24 -2 5 -6 -27 -5
-28 -12 -9 -39 14 -18 15 -18 25 6 5 14 10 18 10 10 0 -16 -22 -50 -33 -50 -3
0 -6 6 -6 13 0 9 -9 12 -28 9 -19 -2 -33 2 -42 15 -12 15 -12 16 0 6 21 -19
64 -17 56 3 -3 9 -6 17 -6 20 0 8 -60 34 -78 34 -23 0 -73 -37 -71 -53 4 -34
-2 -71 -10 -59 -4 7 -6 25 -3 39 3 15 -1 29 -9 34 -11 7 -10 9 4 9 9 0 17 4
17 10 0 20 -23 58 -34 56 -6 -2 -8 -1 -3 1 4 3 7 14 8 26 0 14 6 6 17 -23 10
-25 24 -45 32 -45 17 0 17 4 -4 60 -8 22 -15 65 -16 96 0 53 -1 57 -25 57 -13
0 -40 -11 -60 -25z m53 -45 c-1 -51 -2 -51 -5 -10 -2 23 -9 42 -16 42 -7 0 -6
4 3 10 8 5 16 10 18 10 1 0 1 -24 0 -52z m96 -14 c3 -8 2 -12 -4 -9 -6 3 -10
10 -10 16 0 14 7 11 14 -7z m56 -14 c-8 -5 -22 -9 -30 -9 -10 0 -8 3 5 9 27
12 43 12 25 0z m-69 -227 c13 -16 12 -17 -3 -4 -10 7 -18 15 -18 17 0 8 8 3
21 -13z m59 2 c-7 -8 -17 -15 -23 -15 -6 0 -2 7 9 15 25 19 30 19 14 0z m-55
-115 c10 -11 16 -20 13 -20 -3 0 -13 9 -23 20 -10 11 -16 20 -13 20 3 0 13 -9
23 -20z m280 0 c-3 -5 -16 -10 -28 -9 -20 1 -20 2 3 9 14 4 26 8 28 9 2 1 0
-3 -3 -9z m-320 -23 c19 -4 19 -5 -1 -6 -12 0 -28 7 -35 17 -12 15 -12 16 1 6
8 -7 24 -14 35 -17z m380 13 c-3 -5 -16 -10 -28 -9 -20 1 -20 2 3 9 14 4 26 8
28 9 2 1 0 -3 -3 -9z m5 -55 c-7 -8 -22 -14 -34 -14 -19 2 -19 2 3 6 13 3 26
14 29 26 3 12 7 16 10 9 2 -7 -2 -19 -8 -27z m-315 -13 c-3 -3 -11 0 -18 7 -9
10 -8 11 6 5 10 -3 15 -9 12 -12z m370 -62 c-3 -5 -12 -10 -18 -10 -7 0 -6 4
3 10 19 12 23 12 15 0z m42 -26 c-3 -3 -12 -4 -19 -1 -8 3 -5 6 6 6 11 1 17
-2 13 -5z m-10 -60 c-3 -3 -12 -4 -19 -1 -8 3 -5 6 6 6 11 1 17 -2 13 -5z m28
-32 c-3 -3 -11 0 -18 7 -9 10 -8 11 6 5 10 -3 15 -9 12 -12z m59 -89 c-4 -37
-10 -58 -12 -45 -2 13 -11 22 -21 22 -10 0 -25 7 -32 17 -13 15 -12 15 7 3 35
-21 54 -7 54 41 0 23 3 40 6 36 4 -3 3 -37 -2 -74z m-44 42 c-7 -8 -20 -15
-29 -15 -11 0 -8 5 9 14 33 19 35 19 20 1z m-895 -95 c-3 -5 -12 -7 -20 -3
-21 7 -19 13 6 13 11 0 18 -4 14 -10z m875 -5 c0 -11 -31 -11 -39 -1 -9 10 -6
12 14 8 14 -2 25 -6 25 -7z m-45 -25 c-3 -5 -14 -10 -23 -9 -14 0 -13 2 3 9
27 11 27 11 20 0z m50 -28 c-3 -3 -11 0 -18 7 -9 10 -8 11 6 5 10 -3 15 -9 12
-12z m-996 4 c-7 -8 -108 -10 -115 -3 -4 4 21 7 56 7 35 0 61 -2 59 -4z m-165
-20 c-55 -18 -85 -39 -106 -79 -9 -17 -17 -27 -18 -22 -1 43 90 115 145 114
11 0 1 -6 -21 -13z m365 -38 c231 -89 275 -107 260 -108 -9 0 -32 7 -52 15
-19 8 -37 11 -41 8 -3 -4 -6 -1 -6 5 0 7 -5 12 -11 12 -6 0 -25 6 -42 14 -18
7 -52 23 -77 33 -45 20 -100 39 -136 48 -10 3 -35 9 -54 15 -34 9 -34 9 9 4
24 -2 92 -23 150 -46z m760 13 c-6 -2 -18 4 -27 13 -15 15 -15 15 10 4 15 -7
23 -15 17 -17z m-573 -45 c9 -3 20 -4 25 0 5 3 9 1 9 -5 0 -5 21 -17 48 -25
26 -9 34 -13 17 -11 -16 3 -56 15 -87 26 -46 17 -55 24 -45 34 10 11 13 11 15
0 2 -7 10 -16 18 -19z m569 -5 c-6 -5 -25 10 -25 20 0 5 6 4 14 -3 8 -7 12
-15 11 -17z m-288 -45 c3 -3 -28 -6 -71 -6 -42 0 -75 3 -73 8 6 9 135 7 144
-2z m-960 -43 c-3 -10 -5 -2 -5 17 0 19 2 27 5 18 2 -10 2 -26 0 -35z m1148 4
c16 -5 15 -5 -4 -4 -14 1 -26 9 -28 17 -3 10 -2 11 4 4 4 -7 17 -14 28 -17z
m-468 -19 c-3 -8 -6 -5 -6 6 -1 11 2 17 5 13 3 -3 4 -12 1 -19z m360 -10 c-3
-8 -6 -5 -6 6 -1 11 2 17 5 13 3 -3 4 -12 1 -19z"/>
<path d="M3967 1699 c7 -7 15 -10 18 -7 3 3 -2 9 -12 12 -14 6 -15 5 -6 -5z"/>
<path d="M935 1655 c-16 -8 -45 -14 -63 -15 -24 0 -35 -6 -41 -22 -12 -31 -9
-32 27 -11 25 14 32 15 46 4 9 -7 16 -24 16 -38 0 -19 -9 -28 -42 -43 -24 -11
-50 -19 -58 -19 -8 0 3 7 25 15 22 8 46 21 54 29 8 8 -13 3 -50 -12 -99 -40
-183 -49 -297 -33 -121 17 -227 23 -257 16 -39 -10 -84 -55 -95 -95 -28 -105
69 -210 232 -251 l46 -12 40 40 40 40 -61 12 c-84 16 -134 38 -157 68 -25 31
-26 74 -1 96 16 15 35 16 162 10 80 -4 176 -3 214 1 l70 7 -25 20 c-24 19 -24
20 -5 34 10 8 26 14 34 13 9 0 3 -5 -12 -11 l-28 -10 20 -19 c28 -26 27 -57
-1 -68 -13 -5 -48 -11 -79 -15 -52 -7 -119 -36 -119 -53 0 -5 19 -8 42 -8 36
0 43 -3 46 -21 2 -17 -11 -28 -67 -58 -69 -36 -91 -58 -91 -90 0 -11 9 -16 28
-16 66 0 68 -44 3 -113 -46 -50 -68 -97 -55 -118 3 -6 12 -2 21 10 17 25 45
27 63 6 9 -11 10 -29 1 -78 -15 -87 -14 -113 6 -133 17 -16 18 -16 23 7 6 25
35 36 58 21 7 -5 20 -46 29 -91 12 -59 23 -88 41 -106 32 -33 43 -32 36 3 -4
19 -1 32 9 41 26 21 55 -3 72 -63 20 -68 33 -84 73 -92 l33 -7 -17 36 c-14 30
-15 39 -4 52 7 8 19 15 26 15 14 0 20 -5 82 -74 26 -27 41 -36 66 -36 46 0 50
9 13 34 -21 15 -32 30 -32 46 0 33 27 37 64 11 45 -32 82 -36 111 -12 l25 20
-37 1 c-46 0 -68 8 -68 26 0 17 24 29 72 38 34 6 146 79 163 105 3 6 -20 -1
-52 -15 -112 -51 -168 -72 -208 -78 -28 -4 -22 -1 23 13 35 10 95 34 135 53
40 19 94 44 120 56 32 15 46 26 41 35 -5 9 -4 9 5 1 18 -17 114 14 106 34 -4
12 -3 12 9 3 10 -9 30 -10 63 -5 60 9 111 9 120 1 3 -4 14 -7 23 -7 28 0 69
-24 79 -47 13 -28 -4 -50 -60 -77 -53 -25 -62 -52 -24 -66 35 -13 94 2 123 33
31 33 38 79 18 131 -18 48 -48 72 -111 92 -22 7 -31 13 -20 13 12 1 41 -9 65
-21 60 -30 94 -93 86 -157 -5 -38 -4 -42 9 -31 32 27 10 125 -40 175 -19 19
-53 40 -75 46 -22 7 -40 16 -40 20 0 9 67 -17 87 -33 7 -6 14 -5 19 3 8 13
-24 42 -37 33 -5 -3 -9 -1 -9 5 0 9 -60 31 -87 31 -20 0 -15 -28 5 -33 9 -3
-23 -5 -73 -6 -109 -2 -147 -11 -351 -89 -87 -34 -172 -64 -189 -66 -16 -3 -9
1 18 10 31 10 47 21 47 32 0 13 2 14 8 4 9 -14 42 -6 42 10 0 5 4 7 9 4 12 -8
81 22 81 34 0 5 6 7 13 4 22 -8 67 14 67 33 0 14 2 15 9 4 6 -9 15 -11 27 -6
27 12 25 11 72 20 23 4 42 10 42 14 0 3 17 6 38 5 20 0 45 3 54 8 10 5 19 4
23 -2 9 -15 35 -12 35 4 0 8 -6 17 -12 19 -8 3 -6 6 5 6 17 1 207 132 228 158
9 10 7 13 -7 13 -36 0 -145 -30 -185 -51 -58 -29 -131 -98 -124 -118 4 -13 -2
-16 -30 -15 -40 1 -61 14 -23 14 28 0 53 24 93 90 15 25 39 57 53 73 l26 27
-25 0 c-61 -1 -187 -84 -262 -173 -38 -46 -40 -50 -17 -44 31 9 112 19 87 11
-10 -3 -14 -10 -10 -17 4 -8 1 -7 -9 1 -13 10 -18 10 -30 -1 -7 -7 -18 -12
-25 -10 -16 6 -90 -15 -105 -30 -7 -6 -19 -12 -25 -13 -30 -2 -34 -5 -27 -16
4 -6 3 -8 -4 -5 -5 4 -31 -2 -57 -13 -26 -11 -55 -20 -66 -20 -11 0 -19 -7
-19 -17 0 -14 -2 -15 -9 -5 -4 8 -17 13 -27 12 -36 -4 -37 0 -3 23 29 19 98
124 99 150 0 16 -57 -24 -105 -73 -27 -28 -63 -59 -80 -68 l-30 -16 26 -6 c21
-4 24 -9 18 -30 -6 -20 -7 -21 -8 -5 -1 18 -20 29 -81 46 -8 2 -23 14 -33 27
-16 19 -22 21 -36 10 -13 -10 -14 -10 -4 2 10 10 8 19 -8 42 -12 16 -23 52
-26 86 -3 31 -11 60 -17 64 -8 5 -7 8 1 8 7 0 19 13 28 29 14 27 13 30 -3 34
-14 4 -13 5 4 6 12 1 37 21 60 51 21 27 44 49 51 50 6 0 16 17 22 38 l10 37
-5 -38 c-3 -23 0 -44 7 -53 13 -16 55 -19 64 -4 3 6 15 10 26 10 11 0 17 5 14
10 -3 6 2 10 12 10 11 0 25 6 32 13 11 10 12 9 6 -2 -6 -11 -3 -13 11 -8 89
27 138 37 194 37 36 0 88 9 117 18 49 18 53 18 87 0 23 -12 38 -28 42 -46 15
-62 43 -67 101 -17 23 19 48 35 56 35 8 0 20 6 26 14 9 11 7 15 -10 19 -16 4
-20 11 -16 26 6 24 -10 18 -31 -11 -7 -10 -22 -18 -32 -18 -10 0 -22 -5 -26
-11 -5 -8 -10 -6 -16 5 -5 9 -6 21 -3 26 4 6 3 9 -2 8 -4 -1 -21 10 -37 25
l-30 28 17 47 c14 39 15 54 6 81 -9 24 -9 35 0 44 6 6 11 19 11 29 0 14 6 18
28 16 21 -2 27 1 27 17 0 23 -59 39 -87 24 -14 -8 -16 -6 -12 6 5 13 1 15 -22
10 -50 -11 -54 -14 -54 -34 0 -21 -29 -93 -30 -74 0 7 5 24 12 38 13 29 8 38
-16 29 -11 -4 -16 -14 -13 -25 3 -11 1 -22 -5 -25 -17 -11 17 -144 38 -144 2
0 2 24 0 53 l-5 52 9 -45 c15 -71 23 -80 30 -35 l7 40 2 -37 c2 -54 -17 -61
-209 -70 -209 -11 -222 -10 -232 0 -6 6 0 8 15 5 21 -4 25 0 30 34 11 61 9 72
-10 67 -10 -3 -27 2 -38 11 -19 14 -18 15 8 3 21 -9 30 -9 40 1 9 10 6 17 -16
37 -32 28 -56 30 -96 9 -36 -18 -53 -60 -49 -116 3 -38 6 -44 27 -47 15 -3 30
3 38 14 7 10 13 13 13 8 0 -18 -23 -34 -48 -34 -21 0 -23 -3 -17 -32 4 -20 3
-28 -2 -21 -7 10 -18 4 -43 -22 -33 -34 -33 -35 -14 -51 18 -14 18 -15 -4 -4
-19 9 -26 8 -42 -12 -18 -23 -18 -23 3 -35 12 -7 18 -12 12 -12 -5 -1 -16 3
-24 8 -17 11 -56 -32 -46 -49 3 -5 -1 -10 -10 -10 -10 0 -13 5 -9 13 14 23 68
92 116 146 45 52 59 81 39 81 -5 0 -33 -28 -63 -62 -125 -143 -168 -227 -168
-326 1 -97 61 -198 148 -250 43 -25 55 -27 155 -27 59 0 103 -1 97 -3 -5 -2
-10 -11 -11 -20 0 -11 -2 -12 -6 -4 -8 19 -61 15 -66 -5 -4 -17 -5 -17 -6 -1
-1 14 -10 18 -38 18 -54 0 -74 4 -109 23 -29 15 -32 15 -49 -1 -18 -16 -18
-16 -6 1 12 15 11 20 -4 38 -11 11 -25 17 -32 14 -8 -2 -11 0 -8 5 9 14 -26
62 -40 56 -8 -3 -11 2 -8 14 8 31 -15 61 -41 54 -13 -3 -26 -2 -29 3 -3 5 4 9
16 9 18 -1 23 5 25 37 2 23 -1 37 -9 37 -9 0 -9 3 1 14 6 8 10 25 9 38 -2 13
5 38 14 56 10 17 14 32 10 32 -5 0 -3 4 2 8 6 4 18 19 28 35 14 22 15 27 3 27
-8 0 -17 4 -20 9 -3 4 5 6 18 4 31 -6 69 42 45 58 -12 8 -12 10 1 8 29 -3 38
1 54 26 15 23 15 27 1 41 -8 8 -15 20 -15 26 0 6 9 0 20 -13 l20 -24 30 34
c28 33 29 36 13 53 -9 10 -13 21 -10 25 4 3 7 1 7 -5 0 -7 5 -12 10 -12 12 0
3 49 -11 65 -5 5 -9 16 -8 25 0 8 5 4 10 -10 l10 -25 14 25 c13 24 12 25 -18
33 -28 8 -35 5 -61 -24 -27 -31 -28 -33 -10 -46 10 -7 13 -13 8 -13 -6 0 -15
5 -22 12 -9 9 -25 -2 -68 -45 -60 -59 -67 -86 -24 -98 22 -6 23 -7 4 -8 -12
-1 -27 6 -34 14 -12 14 -16 13 -37 -6 -12 -13 -23 -31 -23 -41 0 -11 -4 -17
-9 -14 -13 8 -54 -61 -45 -75 4 -7 3 -9 -4 -5 -6 3 -14 -3 -17 -15 -4 -11 -9
-18 -12 -16 -7 7 35 86 70 132 17 22 79 90 138 150 107 110 149 172 149 220 0
28 -3 29 -45 10z m650 -91 c-17 -34 -20 -18 -4 23 6 15 13 23 15 17 3 -6 -2
-24 -11 -40z m-24 -61 c-12 -20 -14 -14 -5 12 4 9 9 14 11 11 3 -2 0 -13 -6
-23z m-491 -18 c-7 -8 -22 -14 -34 -14 -20 1 -20 2 -1 6 11 3 24 9 30 14 15
14 19 10 5 -6z m570 -21 c0 -8 -5 -12 -10 -9 -6 4 -8 11 -5 16 9 14 15 11 15
-7z m-556 -43 c-2 -3 -12 3 -22 13 -16 17 -16 18 5 5 12 -7 20 -15 17 -18z
m56 25 c0 -2 -8 -10 -17 -17 -16 -13 -17 -12 -4 4 13 16 21 21 21 13z m-269
-74 c-13 -2 -27 0 -32 5 -6 6 3 7 23 4 28 -4 29 -6 9 -9z m200 -49 c13 -16 12
-17 -3 -4 -10 7 -18 15 -18 17 0 8 8 3 21 -13z m54 -3 c-10 -11 -22 -20 -28
-20 -5 0 1 9 14 20 31 25 37 25 14 0z m79 -4 c-6 -17 -50 -33 -61 -22 -4 3 3
6 15 6 12 0 27 9 34 20 14 22 21 20 12 -4z m-338 -4 c-10 -2 -22 0 -28 6 -6 6
0 7 19 4 21 -5 23 -7 9 -10z m-64 -63 c18 -1 19 -2 5 -6 -22 -6 -47 14 -46 36
0 11 3 9 9 -6 6 -14 19 -23 32 -24z m303 1 c-3 -5 -12 -10 -18 -10 -7 0 -6 4
3 10 19 12 23 12 15 0z m-370 -78 c-3 -3 -11 0 -18 7 -9 10 -8 11 6 5 10 -3
15 -9 12 -12z m-38 -18 c-3 -3 -12 -4 -19 -1 -8 3 -5 6 6 6 11 1 17 -2 13 -5z
m-5 -55 c18 -1 19 -2 5 -6 -22 -6 -47 14 -46 36 0 11 3 9 9 -6 6 -14 19 -23
32 -24z m-68 -31 c7 -5 4 -8 -6 -8 -15 0 -18 -9 -18 -45 0 -52 18 -67 54 -45
19 12 20 12 7 -3 -7 -10 -22 -17 -34 -17 -17 0 -19 -5 -14 -37 4 -21 11 -39
17 -41 5 -2 8 -8 5 -13 -9 -13 31 -85 72 -130 30 -33 38 -37 52 -27 14 11 14
11 3 -3 -11 -15 -8 -20 23 -39 42 -26 46 -36 6 -16 -88 46 -173 177 -193 299
-10 61 -2 181 10 147 3 -8 10 -18 16 -22z m173 -50 c-3 -8 -6 -5 -6 6 -1 11 2
17 5 13 3 -3 4 -12 1 -19z m-120 -14 c-3 -3 -12 -4 -19 -1 -8 3 -5 6 6 6 11 1
17 -2 13 -5z m143 -20 c0 -2 -7 -4 -15 -4 -8 0 -15 4 -15 10 0 5 7 7 15 4 8
-4 15 -8 15 -10z m13 -75 l32 -1 -30 -7 c-33 -7 -45 2 -43 34 1 17 1 17 5 -2
3 -18 12 -23 36 -24z m-130 9 c-2 -5 -15 -8 -28 -8 -13 0 -26 3 -28 8 -3 4 10
7 28 7 18 0 31 -3 28 -7z m1060 -64 c-3 -9 -8 -12 -12 -5 -4 5 -29 11 -56 14
-48 3 -48 3 12 5 53 2 61 0 56 -14z m-846 -80 c8 3 11 2 8 -4 -3 -5 7 -16 22
-24 15 -8 24 -15 19 -16 -19 0 -92 49 -112 77 -39 54 -36 58 6 10 26 -29 49
-46 57 -43z m693 75 c-19 -5 -43 -11 -53 -14 -35 -8 -62 -17 -97 -32 -19 -8
-44 -19 -55 -23 -11 -4 -36 -15 -57 -24 -20 -9 -41 -16 -47 -16 -6 0 -11 -5
-11 -12 0 -6 -3 -9 -6 -5 -4 3 -22 0 -41 -8 -20 -8 -43 -15 -52 -14 -9 0 -2 5
14 11 17 6 80 31 140 56 139 57 243 91 275 91 20 -1 18 -3 -10 -10z m-849 -92
c-10 -9 -11 -8 -5 6 3 10 9 15 12 12 3 -3 0 -11 -7 -18z m363 -22 c4 -13 -7
-15 -71 -15 -42 0 -73 3 -69 7 4 4 34 6 66 5 34 -1 60 2 60 8 0 15 7 12 14 -5z
m204 -40 c-3 -3 -9 2 -12 12 -6 14 -5 15 5 6 7 -7 10 -15 7 -18z m-505 -6 c-6
-6 -19 -9 -29 -6 -16 4 -15 5 4 6 12 0 22 6 22 13 0 6 3 8 7 5 4 -4 2 -12 -4
-18z m77 -44 c-7 -8 -18 -15 -24 -15 -6 0 -3 5 7 11 9 5 17 18 18 27 0 11 2
12 6 4 3 -7 -1 -19 -7 -27z m1 -40 c24 -7 36 -14 27 -14 -29 -1 -98 30 -92 41
4 7 9 6 14 -2 4 -6 27 -17 51 -25z m157 -18 c26 -2 11 -4 -33 -4 -44 0 -68 2
-52 4 16 3 27 11 28 21 1 16 2 16 6 0 3 -12 18 -18 51 -21z"/>
<path d="M3487 1604 c-3 -4 -1 -16 5 -27 10 -20 6 -108 -8 -154 -4 -17 -1 -25
11 -30 21 -7 55 28 55 58 0 10 4 19 9 19 14 0 8 67 -7 82 -9 9 -12 6 -14 -17
0 -17 -1 -36 -1 -43 1 -7 -2 -11 -5 -8 -3 4 -7 28 -8 56 -3 62 -16 85 -37 64z
m23 -176 c-23 -35 -23 -31 -1 15 8 15 16 25 19 22 2 -2 -5 -19 -18 -37z"/>
<path d="M1706 1582 c-2 -4 4 -19 15 -32 l19 -25 0 26 c0 25 -24 47 -34 31z"/>
<path d="M3272 1578 c-14 -14 -16 -35 -3 -42 4 -3 13 6 19 19 12 27 2 41 -16
23z"/>
<path d="M1445 1547 c-14 -32 3 -110 30 -136 30 -31 43 -22 19 14 -9 14 -22
52 -29 83 -9 42 -14 52 -20 39z"/>
<path d="M1635 1399 c-5 -16 0 -28 20 -48 23 -22 27 -23 21 -6 -4 11 -10 32
-13 48 -7 32 -19 35 -28 6z"/>
<path d="M1807 1338 c-7 -25 0 -41 14 -33 12 8 12 42 0 49 -5 3 -11 -4 -14
-16z"/>
<path d="M3176 1351 c-9 -14 2 -51 15 -51 11 0 12 30 0 49 -6 9 -11 10 -15 2z"/>
<path d="M1752 1221 c-11 -6 -11 -10 0 -18 36 -29 99 -37 288 -38 164 -1 202
-5 240 -20 98 -40 142 -78 189 -164 l29 -54 22 42 c44 88 134 162 225 186 17
5 118 9 225 10 179 1 199 3 245 24 42 19 47 24 33 32 -12 7 -25 6 -40 -3 -16
-8 -94 -14 -238 -19 -188 -5 -222 -9 -272 -28 -72 -28 -136 -77 -168 -129 -14
-23 -28 -42 -32 -42 -4 0 -14 13 -22 29 -24 46 -112 118 -174 142 -50 19 -83
23 -272 28 -140 4 -223 11 -237 19 -25 14 -24 14 -41 3z"/>
<path d="M944 1149 c-15 -16 -26 -30 -23 -33 2 -2 27 -11 56 -20 28 -9 63 -28
78 -42 37 -35 20 -54 -49 -54 -62 0 -126 -17 -126 -33 1 -30 18 -36 111 -39
105 -3 139 9 161 57 31 68 -25 139 -141 180 -38 13 -40 12 -67 -16z"/>
<path d="M3981 1164 c-96 -34 -141 -81 -141 -145 0 -75 43 -97 177 -91 79 3
92 6 96 23 8 30 -18 41 -106 48 -72 5 -82 8 -82 25 0 25 41 54 105 75 l53 17
-29 32 -29 31 -44 -15z"/>
<path d="M1515 1069 c-16 -4 -47 -22 -67 -39 -43 -35 -163 -180 -149 -180 16
0 126 52 144 68 10 8 31 38 48 66 16 28 37 61 45 74 9 12 15 22 13 21 -2 0
-17 -5 -34 -10z"/>
<path d="M1329 992 c-24 -16 -57 -46 -74 -68 -16 -21 -48 -59 -70 -83 l-40
-44 35 8 c48 10 80 28 111 62 26 28 92 143 86 150 -2 1 -23 -10 -48 -25z"/>
<path d="M1889 1006 c-20 -7 -53 -23 -74 -36 -33 -20 -35 -24 -19 -33 10 -6
37 -11 61 -11 24 -1 38 -3 33 -4 -21 -7 13 -32 44 -33 27 0 29 -1 10 -9 -32
-12 -39 -30 -20 -48 21 -21 34 -6 17 21 -14 22 -13 22 7 4 11 -10 26 -31 32
-47 7 -16 21 -32 32 -36 39 -12 89 -68 143 -160 31 -52 58 -94 62 -94 3 0 3
33 0 74 -11 148 -77 237 -198 270 l-54 15 80 -5 c44 -3 88 -7 98 -9 29 -5 19
12 -25 45 -42 31 -46 32 -126 28 -94 -5 -89 3 20 32 l73 18 -37 16 c-45 19
-110 20 -159 2z"/>
<path d="M2950 1003 l-35 -15 55 -13 c30 -8 77 -23 105 -35 34 -15 60 -19 82
-15 21 4 33 2 33 -5 0 -6 -4 -9 -9 -6 -15 9 -41 -5 -41 -21 0 -11 6 -13 23 -8
12 4 34 9 50 12 31 6 37 33 6 33 -11 0 -18 4 -15 9 16 25 -106 81 -177 81 -23
-1 -58 -8 -77 -17z"/>
<path d="M3622 1014 c2 -5 16 -34 30 -64 38 -82 124 -149 190 -150 18 0 -148
180 -184 200 -22 13 -39 19 -36 14z"/>
<path d="M2895 922 c-16 -11 -36 -26 -44 -35 -12 -16 -8 -17 55 -17 l69 -1
-40 -20 c-93 -46 -143 -130 -152 -255 -3 -41 -3 -74 0 -74 4 0 31 42 62 94 54
92 104 148 143 160 11 4 25 20 32 36 6 16 21 37 32 46 18 17 18 19 1 25 -16 7
-15 8 4 8 28 1 53 11 53 21 0 32 -168 41 -215 12z m128 -49 c-7 -2 -21 -2 -30
0 -10 3 -4 5 12 5 17 0 24 -2 18 -5z"/>
<path d="M3075 869 c-23 -21 -33 -35 -26 -42 11 -11 81 41 81 61 0 20 -17 14
-55 -19z"/>
<path d="M1950 808 c0 -19 18 -43 25 -36 9 9 -4 48 -16 48 -5 0 -9 -6 -9 -12z"/>
<path d="M3021 789 c-6 -18 -11 -44 -11 -58 1 -23 2 -24 11 -8 6 10 9 23 6 30
-2 6 2 18 10 25 15 15 18 42 4 42 -5 0 -14 -14 -20 -31z"/>
<path d="M1997 728 c-4 -32 -1 -48 14 -69 32 -45 48 -104 55 -202 4 -51 13
-108 22 -127 l15 -35 14 65 c18 89 20 226 4 275 -17 52 -55 101 -90 120 l-28
14 -6 -41z"/>
<path d="M2961 748 c-49 -33 -68 -64 -87 -138 -14 -56 -15 -77 -5 -155 7 -49
16 -106 20 -125 l8 -35 15 35 c9 19 18 76 21 125 6 95 23 158 57 204 15 23 18
37 12 70 l-7 42 -34 -23z"/>
<path d="M1970 748 c0 -7 5 -20 10 -28 8 -12 10 -9 10 13 0 15 -4 27 -10 27
-5 0 -10 -6 -10 -12z"/>
<path d="M1737 705 c32 -39 42 -45 63 -40 14 4 26 8 28 10 2 2 -13 20 -34 39
-25 24 -48 36 -67 36 l-28 0 38 -45z"/>
<path d="M3203 715 c-40 -38 -40 -40 -3 -50 21 -5 31 1 63 40 l38 45 -30 0
c-22 0 -42 -11 -68 -35z"/>
<path d="M1552 723 c-19 -7 -4 -23 23 -23 13 0 42 -16 65 -35 47 -39 85 -53
108 -38 20 12 27 33 13 33 -6 0 -34 16 -62 35 -50 34 -106 45 -147 28z"/>
<path d="M3301 695 c-28 -19 -55 -35 -61 -35 -14 0 -13 -13 2 -28 21 -21 55
-13 109 28 30 22 63 40 76 40 27 0 39 16 17 24 -41 16 -93 5 -143 -29z"/>
<path d="M1967 654 c-10 -13 -22 -22 -26 -20 -5 3 -6 -7 -4 -22 3 -18 2 -23
-5 -14 -7 10 -14 11 -35 1 -22 -10 -27 -19 -28 -48 0 -20 -4 -45 -9 -56 -5
-13 -6 0 -3 33 4 33 2 52 -5 52 -22 0 -42 -13 -42 -26 0 -23 -69 -92 -170
-169 -101 -78 -124 -107 -135 -170 l-7 -40 50 51 c27 27 79 65 114 84 93 49
154 96 168 130 7 17 14 29 16 27 8 -8 -30 -84 -89 -176 -63 -99 -96 -175 -97
-225 0 -26 3 -24 44 30 24 33 69 88 100 124 61 70 125 186 127 229 1 16 3 20
6 9 2 -10 -8 -61 -22 -115 -34 -122 -46 -205 -38 -260 5 -39 23 -52 23 -17 0
9 27 73 61 142 58 120 88 222 89 303 0 36 -27 120 -48 146 l-17 22 -18 -25z
m-20 -151 c-2 -16 -4 -3 -4 27 0 30 2 43 4 28 2 -16 2 -40 0 -55z"/>
<path d="M1420 628 l-35 -22 60 -7 c33 -4 93 -19 132 -33 40 -14 87 -26 105
-27 l33 -1 -32 -14 c-17 -7 -83 -17 -145 -20 -120 -7 -148 -16 -188 -59 l-25
-27 35 8 c19 5 84 7 144 6 143 -4 196 9 252 63 26 24 44 51 44 63 0 22 -24 30
-35 12 -3 -5 -16 -15 -28 -21 -21 -11 -21 -11 2 14 30 33 19 51 -25 43 -23 -5
-56 1 -107 19 -91 31 -141 32 -187 3z"/>
<path d="M3400 628 c-25 -11 -68 -21 -97 -22 -28 0 -55 -4 -59 -9 -4 -4 3 -18
16 -32 31 -33 70 -32 163 1 39 14 99 29 132 33 l60 7 -35 22 c-45 28 -118 28
-180 0z"/>
<path d="M3200 560 c0 -11 16 -38 36 -60 51 -56 110 -72 256 -69 62 2 129 -1
148 -5 l35 -8 -25 27 c-40 43 -68 52 -186 59 -123 7 -163 17 -211 52 -39 29
-53 30 -53 4z"/>
<path d="M2459 423 c-19 -9 -51 -15 -73 -14 -68 3 -101 -52 -51 -85 16 -11 36
-14 57 -10 22 3 39 0 53 -11 17 -14 18 -15 2 -9 -10 3 -28 1 -40 -6 -12 -6
-52 -12 -88 -12 -72 -1 -109 -21 -109 -58 0 -53 53 -84 126 -74 38 5 51 2 86
-21 52 -35 102 -36 148 -3 28 20 47 25 102 25 60 0 71 3 94 27 55 54 -2 115
-100 105 -34 -3 -58 0 -72 10 -16 10 -28 11 -48 3 -15 -5 -39 -10 -54 -9 -19
1 -14 4 17 10 24 4 49 13 56 19 7 5 26 7 43 4 22 -4 40 -1 57 10 52 34 15 93
-54 83 -21 -2 -43 -1 -48 4 -21 21 -70 27 -104 12z"/>
</g>
</svg>
