<?xml version="1.0" standalone="no"?>
<!DOCTYPE svg PUBLIC "-//W3C//DTD SVG 20010904//EN"
 "http://www.w3.org/TR/2001/REC-SVG-20010904/DTD/svg10.dtd">
<svg version="1.0" xmlns="http://www.w3.org/2000/svg"
 width="4633.000000pt" height="225.000000pt" viewBox="0 0 4633.000000 225.000000"
 preserveAspectRatio="xMidYMid meet">
<metadata>
Created by potrace 1.16, written by Peter Selinger 2001-2019
</metadata>
<g transform="translate(0.000000,225.000000) scale(0.100000,-0.100000)"
fill="#000000" stroke="none">
<path d="M2079 2223 c-21 -56 -39 -138 -39 -180 0 -23 -18 -114 -41 -200 -22
-87 -47 -207 -55 -268 -9 -60 -40 -211 -69 -335 -30 -124 -68 -304 -85 -400
-29 -163 -35 -190 -43 -179 -2 2 -32 38 -67 79 -35 41 -71 83 -80 93 -8 10
-23 28 -32 39 -10 12 -18 24 -18 28 0 4 -18 20 -41 34 -29 20 -48 26 -66 21
l-24 -6 7 73 c5 40 8 82 7 93 -1 33 -28 93 -52 119 l-22 23 23 34 c13 19 33
45 45 59 13 14 35 40 50 58 16 18 40 45 54 60 49 51 62 98 35 121 -11 9 -20 9
-34 2 -25 -13 -34 -4 -21 21 8 15 2 29 -38 75 -89 105 -89 104 -118 97 -26 -6
-27 -5 -21 19 7 31 -22 67 -54 67 -15 0 -20 7 -20 25 0 18 -20 45 -67 93 -55
55 -69 76 -78 117 -11 46 -14 50 -41 50 -24 0 -30 -5 -34 -28 l-5 -28 -18 21
c-19 22 -26 22 -147 -4 -54 -12 -55 -13 -58 -49 -2 -21 4 -52 13 -69 8 -18 18
-50 22 -72 3 -22 12 -51 20 -65 7 -14 13 -38 13 -52 0 -15 7 -40 15 -55 8 -16
15 -43 15 -60 0 -17 3 -34 7 -38 8 -8 25 -68 44 -156 5 -24 14 -49 19 -54 6
-6 10 -24 10 -41 0 -17 6 -37 13 -43 8 -9 12 -58 13 -165 1 -84 4 -166 8 -184
7 -30 5 -33 -33 -52 -76 -39 -269 -21 -329 31 -9 9 -27 19 -39 22 -14 5 -25
18 -29 34 -3 15 -9 34 -15 42 -5 8 -14 25 -19 38 -40 92 -129 135 -213 103
-43 -17 -56 -94 -30 -184 2 -10 27 -36 55 -57 54 -43 93 -50 154 -28 30 10 38
9 84 -16 28 -15 73 -43 101 -61 27 -18 68 -35 89 -39 22 -3 40 -10 40 -15 0
-20 -30 -29 -110 -35 -220 -14 -224 -15 -269 -55 -43 -36 -60 -78 -61 -144 0
-36 51 -84 100 -94 19 -3 52 -14 73 -23 48 -22 70 -17 103 23 23 27 25 36 20
86 -4 31 -7 72 -9 91 l-2 35 65 3 c36 2 69 7 75 13 14 14 45 11 45 -5 0 -8
-29 -50 -65 -95 -74 -91 -81 -120 -38 -155 45 -36 67 -45 108 -46 63 -1 69 -9
61 -79 -4 -33 -12 -75 -18 -92 -11 -33 -19 -34 -100 -14 -23 6 -29 3 -36 -16
-20 -54 4 -73 105 -84 80 -9 96 7 112 111 29 190 69 263 99 181 7 -18 27 -51
45 -73 60 -70 69 -104 27 -104 -10 0 -21 -4 -24 -8 -6 -11 31 -72 44 -72 15 0
87 40 101 56 19 23 45 16 78 -21 17 -19 41 -36 53 -38 19 -2 23 2 21 26 -1 21
5 31 27 42 18 9 33 28 41 52 6 21 20 44 31 51 10 7 18 21 18 31 0 10 14 32 30
49 17 18 30 38 30 45 0 20 -50 64 -95 83 -22 9 -53 27 -68 40 -16 13 -35 24
-42 24 -7 0 -26 11 -42 24 -16 14 -48 32 -71 41 -23 10 -42 20 -42 24 0 4 -13
15 -30 24 -37 22 -38 33 -2 40 15 3 57 24 94 46 37 23 74 41 83 41 24 0 37
-49 32 -123 -3 -53 -1 -70 10 -74 24 -9 63 36 63 74 0 51 28 42 95 -32 67 -73
106 -95 132 -74 15 13 16 11 9 -26 -4 -22 -9 -64 -13 -92 -6 -51 -5 -53 22
-63 22 -8 32 -8 41 2 7 7 38 121 69 253 46 198 106 436 131 518 7 23 24 22
129 -12 217 -71 376 -113 450 -121 44 -4 93 -13 109 -19 16 -6 45 -11 65 -11
56 2 188 -12 202 -21 13 -8 -7 -30 -111 -121 -38 -35 -42 -41 -36 -72 10 -51
35 -96 62 -108 27 -13 32 -38 7 -38 -9 0 -35 -20 -59 -45 -42 -45 -64 -104
-64 -173 0 -15 -5 -43 -10 -62 -6 -19 -12 -81 -15 -136 -4 -90 -3 -105 14
-125 18 -23 26 -24 128 -24 133 0 189 13 215 48 21 29 38 28 38 -2 0 -35 25
-42 173 -47 162 -5 168 -3 186 61 13 50 -12 210 -48 299 -73 180 -95 216 -137
216 -29 0 -30 9 -3 62 15 29 19 50 14 75 -8 44 -51 104 -94 133 -56 37 -30 44
176 46 104 2 248 5 321 8 84 4 132 2 132 -4 0 -6 -5 -10 -11 -10 -12 0 -50
-30 -126 -97 -38 -34 -43 -43 -43 -81 0 -36 6 -48 35 -78 19 -19 35 -39 35
-44 0 -5 -16 -22 -36 -37 -42 -33 -74 -90 -74 -131 0 -17 -6 -52 -14 -78 -20
-66 -38 -268 -27 -297 18 -46 33 -50 166 -45 97 5 133 10 162 26 36 18 38 21
35 63 -2 24 -12 59 -23 77 -10 18 -19 37 -19 41 0 5 36 9 80 10 48 1 80 -3 80
-9 0 -5 -6 -10 -12 -10 -27 -1 -70 -48 -79 -86 -7 -31 -5 -46 8 -71 15 -29 23
-33 58 -34 22 0 83 -3 135 -5 52 -3 104 -3 117 1 88 22 62 247 -55 485 -34 68
-40 75 -69 78 -37 4 -41 17 -19 60 7 15 14 49 14 75 1 47 -1 51 -71 123 -40
41 -72 79 -72 86 0 15 41 24 144 32 120 10 742 115 779 131 44 20 42 49 -5 74
-17 8 -29 9 -43 1 -10 -6 -47 -13 -81 -17 l-62 -6 7 29 c16 63 4 463 -23 746
-9 97 -15 118 -31 118 -17 0 -41 -32 -36 -49 3 -9 6 -65 7 -125 2 -94 0 -110
-15 -122 -34 -24 -60 -3 -69 56 -10 71 -39 110 -81 110 -34 0 -66 -25 -66 -52
0 -8 11 -37 25 -64 25 -47 25 -53 19 -179 -9 -193 -5 -456 7 -472 9 -9 16 -10
32 -2 16 9 23 8 34 -7 10 -14 11 -20 1 -25 -17 -10 -306 -44 -313 -37 -3 3 1
20 8 38 10 23 12 44 6 69 -13 55 -12 59 31 86 48 30 52 60 15 95 -14 13 -25
28 -25 32 0 5 -10 24 -23 41 -13 18 -32 50 -42 72 -27 55 -55 85 -79 85 -68
-1 -93 -38 -82 -121 9 -63 -10 -99 -52 -99 -79 1 -112 107 -117 379 -3 160 -5
176 -24 195 -47 47 -50 18 -35 -434 4 -146 7 -281 6 -300 -3 -64 14 -95 68
-124 84 -46 80 -51 -40 -60 -47 -4 -116 -9 -155 -12 -149 -13 -489 -11 -522 2
-19 8 -35 9 -38 4 -8 -13 -273 3 -332 19 -20 6 -48 8 -63 5 -15 -3 -61 4 -102
15 -41 12 -95 21 -120 21 -48 0 -444 119 -486 146 -36 23 -24 46 26 49 33 3
48 -1 63 -16 10 -10 27 -19 37 -19 9 0 31 -9 47 -20 41 -27 53 -25 73 10 21
36 28 37 36 5 5 -19 13 -25 35 -25 20 0 43 -14 84 -55 57 -56 79 -65 106 -42
19 16 118 57 138 57 8 0 34 -11 58 -25 37 -22 46 -24 69 -14 33 15 43 63 24
115 -12 33 -11 38 6 48 64 38 78 64 57 104 -5 9 -19 40 -32 67 -86 195 -85
194 -148 202 -37 5 -40 3 -56 -28 -16 -29 -16 -41 -6 -97 14 -73 6 -92 -38
-92 -37 0 -130 46 -138 67 -3 10 -12 25 -19 33 -16 19 4 173 35 269 22 67 27
146 11 171 -25 40 -78 -60 -79 -150 -1 -25 -13 -86 -27 -135 -14 -49 -29 -125
-34 -169 -8 -83 -41 -189 -66 -216 -12 -12 -14 -10 -14 16 0 17 7 54 15 82 9
31 13 66 10 86 -4 18 0 62 8 97 9 35 18 91 21 124 2 33 21 109 41 170 37 112
39 147 8 160 -49 19 -270 85 -285 85 -11 0 -23 -12 -29 -27z m-1059 -313 c0
-5 -6 -10 -14 -10 -8 0 -18 5 -21 10 -3 6 3 10 14 10 12 0 21 -4 21 -10z
m3671 -218 c6 -14 9 -53 8 -86 -1 -34 0 -67 2 -75 2 -7 -2 -16 -8 -18 -7 -3
-13 3 -13 12 0 10 -13 33 -30 52 -25 28 -30 42 -30 87 0 29 2 55 5 58 14 13
57 -7 66 -30z m-3376 -143 c4 -6 5 -12 2 -15 -7 -7 -37 7 -37 17 0 13 27 11
35 -2z m63 -51 c-3 -7 -11 -13 -18 -13 -7 0 -15 6 -17 13 -3 7 4 12 17 12 13
0 20 -5 18 -12z m1107 -36 c27 -43 96 -70 137 -54 20 7 38 8 55 1 34 -13 25
-31 -17 -34 -19 -1 -54 -12 -77 -23 -55 -28 -63 -28 -123 9 -46 28 -50 34 -50
69 0 39 23 74 44 67 6 -2 20 -18 31 -35z m2184 -3 c13 7 25 10 28 7 7 -7 7
-205 1 -212 -3 -2 -13 14 -23 37 -10 22 -26 44 -36 49 -22 12 -40 105 -30 149
1 2 9 -7 19 -19 16 -20 21 -21 41 -11z m-2463 -57 c-15 -15 -16 -14 -16 9 0
14 6 31 13 38 10 10 13 8 15 -10 2 -12 -3 -29 -12 -37z m1732 -32 c15 -16 38
-32 52 -34 14 -3 26 -5 28 -5 7 -2 -31 -63 -43 -67 -7 -3 -27 2 -44 11 -29 14
-31 19 -31 70 0 30 2 55 5 55 3 0 18 -13 33 -30z m247 -160 c18 -19 25 -34 19
-39 -5 -5 -58 -12 -117 -14 -117 -6 -132 2 -67 35 18 9 40 24 49 33 27 26 83
19 116 -15z m-3716 -74 c34 -34 42 -49 39 -72 -2 -24 -8 -30 -32 -32 -50 -6
-71 5 -94 52 -18 35 -20 49 -12 70 15 40 48 34 99 -18z m3446 -97 c4 -6 5 -12
2 -15 -7 -7 -37 7 -37 17 0 13 27 11 35 -2z m80 2 c3 -5 1 -12 -5 -16 -14 -9
-52 4 -45 16 8 12 42 12 50 0z m-2765 -161 c0 -5 -7 -10 -16 -10 -8 0 -12 5
-9 10 3 6 10 10 16 10 5 0 9 -4 9 -10z m-648 -172 c19 -16 48 -90 48 -122 0
-47 -23 -51 -100 -15 -76 35 -84 49 -54 95 16 24 58 53 80 54 5 0 17 -6 26
-12z m2668 -15 c0 -10 -7 -27 -15 -37 -22 -29 -43 -6 -27 29 13 28 42 34 42 8z
m860 12 c0 -16 -26 -55 -37 -55 -16 0 -17 32 -1 48 12 12 38 17 38 7z m90
-135 c0 -5 -4 -10 -10 -10 -5 0 -10 5 -10 10 0 6 5 10 10 10 6 0 10 -4 10 -10z
m-3030 -75 c0 -8 -4 -15 -10 -15 -5 0 -10 7 -10 15 0 8 5 15 10 15 6 0 10 -7
10 -15z m28 -54 c3 -8 -1 -12 -9 -9 -7 2 -15 10 -17 17 -3 8 1 12 9 9 7 -2 15
-10 17 -17z m27 -40 c3 -5 1 -12 -5 -16 -5 -3 -10 1 -10 9 0 18 6 21 15 7z
m2088 -8 c10 -16 -13 -53 -32 -53 -31 0 -35 19 -9 40 25 21 34 24 41 13z m857
-23 c0 -24 -17 -33 -57 -28 l-28 3 35 22 c44 27 50 28 50 3z m-956 -31 c-3 -6
-12 -8 -20 -5 -7 3 -17 -1 -21 -8 -5 -7 -18 -18 -30 -25 -12 -6 -25 -20 -28
-31 -8 -26 -23 -25 -34 3 -5 12 -18 31 -30 41 -11 11 -21 23 -21 28 0 5 36 8
80 7 44 -1 83 1 87 4 9 10 24 -3 17 -14z m46 -69 c0 -5 -2 -10 -4 -10 -3 0 -8
5 -11 10 -3 6 -1 10 4 10 6 0 11 -4 11 -10z M5314 2238 c-6 -7 -16 -40 -23
-73 -7 -33 -17 -69 -22 -80 -5 -11 -9 -31 -8 -45 0 -14 1 -74 0 -135 0 -60 1
-121 3 -135 13 -88 31 -164 53 -222 18 -50 22 -72 14 -86 -11 -21 3 -94 26
-127 7 -11 13 -27 13 -36 0 -9 9 -28 21 -43 23 -30 23 -47 -6 -196 -8 -47 -17
-96 -19 -110 -6 -37 -42 -249 -67 -385 -38 -211 -37 -225 21 -225 15 0 33 -7
40 -15 17 -20 47 -19 58 2 5 10 29 156 53 325 24 170 47 308 51 308 18 0 98
-93 98 -113 0 -12 17 -38 38 -58 58 -56 131 -145 142 -173 5 -15 21 -31 35
-36 16 -6 25 -17 25 -32 1 -32 23 -58 49 -58 16 0 21 -6 21 -25 0 -26 39 -75
60 -75 6 0 13 7 16 15 9 22 26 19 20 -3 -4 -11 3 -33 17 -53 19 -28 29 -34 57
-34 33 0 35 -2 35 -32 0 -33 37 -83 62 -83 7 0 14 12 15 28 1 15 2 36 3 47 1
23 20 27 21 5 2 -56 17 -130 28 -139 16 -14 84 -18 95 -6 5 6 11 26 13 45 4
49 27 48 63 -3 33 -45 67 -57 105 -37 27 15 26 26 -15 93 -19 32 -35 63 -35
68 0 15 181 0 198 -16 7 -6 15 -40 17 -73 2 -34 6 -66 10 -72 10 -16 91 -12
105 5 9 11 11 36 7 80 -6 79 3 87 94 83 93 -4 95 -13 38 -130 -19 -37 -11 -48
34 -48 43 0 77 21 77 47 0 6 6 24 14 40 7 15 20 42 28 58 9 21 21 30 37 30 20
0 26 -8 37 -50 7 -27 13 -64 14 -82 0 -28 5 -34 31 -41 17 -4 52 -5 78 -2 43
5 46 7 49 38 3 26 8 32 26 32 12 0 35 14 51 30 29 30 29 31 14 73 -17 47 -14
130 5 124 6 -2 11 -21 11 -43 0 -74 24 -83 72 -27 l32 38 1 -44 c0 -55 34
-116 72 -132 17 -7 47 -9 76 -5 26 4 61 8 77 10 52 7 123 44 141 73 10 15 20
30 21 33 2 2 14 -8 26 -24 21 -26 26 -27 69 -21 83 13 84 13 70 161 -19 191
-25 239 -54 424 -5 36 -11 81 -13 101 -1 20 -7 52 -11 70 -10 39 -14 82 -17
159 -1 42 3 63 18 84 87 125 93 141 113 303 19 151 22 431 7 543 l-7 52 -47
-6 c-48 -6 -135 -14 -208 -18 -28 -2 -50 -11 -64 -25 -22 -22 -22 -23 -5 -65
16 -42 16 -43 -6 -63 -38 -33 -65 -88 -72 -147 -7 -53 -5 -59 32 -119 46 -77
86 -99 179 -104 36 -1 68 -6 72 -11 4 -5 6 -28 4 -51 -4 -36 -13 -49 -61 -91
-63 -54 -136 -95 -255 -141 -95 -38 -107 -38 -107 -6 0 28 -42 55 -85 55 -20
0 -29 8 -41 36 -20 48 -7 85 48 134 l43 38 -2 91 c-2 71 0 91 11 91 7 0 19 -7
26 -15 29 -35 66 2 57 59 -3 17 2 53 10 79 18 56 10 86 -31 112 -24 16 -28 15
-90 -15 -59 -28 -67 -35 -78 -73 -11 -38 -14 -127 -6 -217 4 -41 -22 -53 -54
-23 -33 29 -168 97 -268 133 -100 36 -294 38 -307 2 -10 -25 35 -54 81 -51 95
5 113 1 134 -33 15 -27 18 -48 15 -108 -5 -121 -9 -116 104 -125 54 -5 121 -9
148 -9 66 -1 75 -9 75 -63 0 -38 -6 -52 -36 -85 -32 -36 -34 -43 -29 -82 6
-38 4 -44 -19 -59 -14 -9 -36 -17 -50 -17 -14 0 -37 -5 -53 -11 -15 -6 -44
-13 -63 -15 -19 -1 -64 -8 -100 -13 -73 -12 -438 -12 -601 0 -97 7 -289 36
-297 44 -2 2 3 14 12 27 21 29 21 31 -10 67 -14 17 -24 39 -22 48 3 16 17 18
119 18 104 1 118 3 148 24 l34 24 141 -21 c77 -12 164 -24 191 -27 28 -3 69
-8 92 -11 86 -12 99 9 109 176 7 102 6 108 -13 114 -18 6 -94 3 -258 -10 -160
-13 -227 -16 -251 -10 -23 6 -25 9 -19 50 8 50 4 54 -65 74 -60 18 -252 24
-278 9 -78 -46 -82 -48 -102 -37 -18 9 -19 18 -13 89 5 72 4 79 -17 99 -30 28
-143 41 -179 21 -35 -20 -35 -31 -1 -74 16 -21 30 -41 30 -46 0 -5 -14 -24
-31 -43 -26 -30 -29 -40 -23 -71 9 -48 28 -65 73 -65 40 0 73 -23 189 -134 44
-43 52 -56 52 -87 0 -46 -11 -55 -80 -64 -74 -9 -104 -29 -95 -62 5 -23 4 -25
-17 -20 -104 25 -176 54 -228 90 -60 43 -190 178 -190 198 0 18 31 49 49 49 7
0 28 7 47 16 25 12 41 31 64 80 43 93 41 129 -19 251 -14 31 -14 33 7 56 12
13 22 31 22 40 0 9 5 28 12 42 10 22 9 29 -10 48 -20 19 -25 20 -54 9 -50 -19
-53 -19 -50 7 4 36 -25 61 -70 61 -28 0 -45 6 -56 20 -22 26 -74 37 -88 18z
m2736 -108 c0 -11 -7 -20 -15 -20 -15 0 -21 21 -8 33 12 13 23 7 23 -13z
m-2630 2 c0 -13 -12 -22 -22 -16 -10 6 -1 24 13 24 5 0 9 -4 9 -8z m2560 -292
c0 -33 -19 -40 -40 -15 -16 20 -5 45 20 45 16 0 20 -7 20 -30z m-2505 -21 c10
-14 -24 -49 -41 -42 -17 6 -18 25 -2 41 15 15 35 15 43 1z m2455 -519 c0 -5
-9 -14 -20 -20 -11 -6 -27 -26 -34 -45 -8 -19 -27 -40 -42 -47 -23 -11 -28
-10 -45 11 -24 30 -15 42 60 81 59 31 81 36 81 20z m-2334 -37 c-7 -7 -26 7
-26 19 0 6 6 6 15 -2 9 -7 13 -15 11 -17z m161 -73 c21 -11 43 -20 50 -20 7 0
27 -6 45 -14 18 -8 53 -20 78 -26 25 -7 56 -16 70 -21 14 -4 72 -10 130 -14
58 -3 177 -12 264 -20 87 -8 222 -17 300 -20 78 -3 177 -7 221 -9 44 -2 127 2
185 9 94 11 106 10 118 -4 23 -28 10 -55 -31 -64 -51 -12 -74 -54 -58 -107 6
-21 11 -47 11 -58 0 -27 -97 -112 -128 -112 -13 0 -42 15 -65 34 -60 48 -87
60 -100 47 -9 -9 -8 -17 2 -34 8 -12 19 -30 24 -39 8 -12 6 -31 -8 -72 -22
-64 -45 -75 -116 -56 -38 10 -45 9 -71 -10 -23 -17 -38 -20 -64 -15 -19 3 -34
9 -34 13 0 10 67 74 100 96 13 9 35 16 48 16 13 0 36 7 52 15 39 20 38 50 -3
98 -27 32 -41 40 -78 44 -53 6 -89 -9 -133 -56 -17 -17 -35 -31 -40 -31 -6 0
-33 25 -59 55 -27 30 -55 55 -63 55 -8 0 -28 -15 -44 -32 -29 -32 -30 -33 -36
-10 -8 28 -45 38 -90 24 -18 -5 -35 -8 -38 -5 -3 3 -2 27 1 55 6 46 4 51 -28
84 -33 34 -62 43 -74 24 -3 -5 -19 -10 -35 -10 -40 0 -45 -14 -21 -54 19 -30
29 -96 15 -96 -3 0 -17 9 -31 20 -16 12 -34 18 -48 14 -17 -4 -31 5 -63 41
-23 26 -54 70 -70 98 -16 29 -55 80 -86 115 -31 34 -56 65 -56 67 0 10 21 4
57 -15z m1893 -88 c0 -13 -12 -22 -22 -16 -10 6 -1 24 13 24 5 0 9 -4 9 -8z
m-110 -72 c0 -5 -4 -10 -10 -10 -5 0 -10 5 -10 10 0 6 5 10 10 10 6 0 10 -4
10 -10z m-240 -61 c0 -5 -4 -9 -10 -9 -5 0 -10 7 -10 16 0 8 5 12 10 9 6 -3
10 -10 10 -16z m190 -9 c0 -5 -4 -10 -10 -10 -5 0 -10 5 -10 10 0 6 5 10 10
10 6 0 10 -4 10 -10z m165 0 c-3 -5 -11 -10 -16 -10 -6 0 -7 5 -4 10 3 6 11
10 16 10 6 0 7 -4 4 -10z m-65 -89 c0 -9 -24 -21 -42 -21 -6 0 -6 6 2 15 14
16 40 20 40 6z m314 -38 c3 -27 10 -77 16 -113 6 -36 12 -86 15 -111 2 -25 9
-57 14 -72 13 -33 3 -39 -40 -27 -57 17 -85 12 -104 -16 -12 -18 -15 -36 -11
-59 6 -28 2 -36 -20 -54 -15 -12 -31 -21 -36 -21 -21 0 -118 95 -118 114 0 12
19 50 41 85 l42 63 -17 34 c-21 46 -20 64 3 37 26 -31 49 -29 63 5 7 15 23 40
35 55 13 16 23 37 23 47 0 28 11 50 25 50 7 0 18 7 25 15 23 27 37 16 44 -32z
m-154 -19 c0 -8 -4 -12 -10 -9 -5 3 -10 13 -10 21 0 8 5 12 10 9 6 -3 10 -13
10 -21z m-230 -29 c0 -17 -22 -29 -41 -23 -8 3 -6 9 5 21 22 21 36 22 36 2z
m-830 -29 c0 -15 -37 -32 -47 -22 -9 8 17 36 33 36 8 0 14 -6 14 -14z m-386
-81 c-4 -8 -10 -12 -15 -9 -11 6 -2 24 11 24 5 0 7 -7 4 -15z m-20 -102 c-2
-44 -4 -48 -29 -51 -28 -4 -65 21 -65 45 0 7 8 13 18 13 10 0 29 11 42 25 12
13 26 23 29 20 4 -2 6 -25 5 -52z m1336 17 c9 -16 8 -20 -5 -20 -8 0 -15 9
-15 20 0 11 2 20 5 20 2 0 9 -9 15 -20z m-280 -25 c-7 -8 -20 -15 -29 -15 -12
1 -11 5 8 21 26 22 41 18 21 -6z m-361 -14 c50 -14 71 -15 93 -7 33 12 48 1
26 -20 -10 -10 -33 -16 -60 -16 -140 1 -155 5 -143 41 8 25 4 25 84 2z m-209
-31 c0 -5 -4 -10 -10 -10 -5 0 -10 5 -10 10 0 6 5 10 10 10 6 0 10 -4 10 -10z
m780 -31 c7 -11 9 -23 6 -26 -8 -9 -36 17 -36 33 0 21 18 17 30 -7z m417 -67
c15 -53 0 -64 -27 -20 -21 35 -24 50 -13 62 14 13 28 -1 40 -42z m-1827 -67
c0 -8 -4 -15 -9 -15 -13 0 -22 16 -14 24 11 11 23 6 23 -9z m1223 -59 c6 -16
-2 -28 -14 -20 -12 7 -11 34 0 34 5 0 11 -6 14 -14z M17474 2213 c-3 -21 -13
-69 -20 -108 -18 -90 -54 -273 -59 -305 -3 -14 -12 -59 -20 -100 -9 -41 -22
-109 -30 -150 -8 -41 -24 -120 -36 -175 -24 -115 -43 -210 -69 -345 -40 -214
-63 -316 -75 -328 -10 -11 -21 -3 -58 45 -25 32 -83 95 -130 140 -69 67 -90
83 -115 83 -39 0 -47 13 -27 43 27 42 -3 204 -46 243 -10 9 -19 23 -19 31 0 7
50 69 110 138 61 68 110 130 110 138 0 7 -6 22 -14 32 -12 17 -17 18 -41 7
-38 -17 -56 0 -31 27 11 12 16 27 12 37 -6 16 -18 16 -60 -2 -15 -6 -18 -4
-14 7 3 8 9 21 13 30 9 22 -73 101 -97 93 -15 -4 -17 -1 -12 26 8 37 -17 70
-53 70 -15 0 -27 8 -32 23 -16 42 -60 98 -98 126 -35 25 -38 32 -40 81 -1 29
-5 55 -8 58 -3 3 -22 0 -42 -6 -21 -6 -81 -19 -133 -28 -52 -9 -105 -18 -117
-20 -30 -6 -29 -14 8 -126 16 -51 35 -115 41 -143 5 -27 21 -83 35 -124 13
-41 30 -100 38 -130 7 -31 28 -103 46 -161 31 -100 32 -112 30 -244 -2 -99 1
-146 10 -163 12 -22 11 -27 -11 -43 -31 -24 -92 -34 -194 -33 -77 1 -80 2
-149 50 -39 26 -74 55 -78 63 -4 8 -19 40 -33 70 -19 41 -37 63 -73 87 -27 18
-60 33 -74 33 -31 0 -101 -27 -111 -44 -4 -6 -5 -42 -3 -79 4 -77 12 -90 84
-138 43 -29 50 -30 114 -25 70 6 107 -5 178 -55 38 -26 134 -60 152 -54 18 8
29 -6 18 -24 -11 -18 -75 -30 -155 -31 -38 0 -98 -5 -133 -11 -74 -13 -115
-48 -145 -124 -31 -80 -2 -133 86 -155 22 -6 55 -17 71 -24 48 -21 91 -10 116
31 22 35 22 64 3 168 l-6 31 89 16 c48 9 91 13 96 9 4 -4 -24 -52 -63 -107
-38 -54 -70 -104 -70 -110 0 -6 24 -30 52 -53 43 -34 58 -42 83 -38 40 6 89
-19 80 -41 -3 -9 -11 -37 -17 -62 -20 -84 -25 -93 -56 -85 -15 4 -43 8 -62 8
-31 2 -35 -1 -38 -24 -6 -53 61 -93 152 -90 50 1 57 8 68 68 13 72 24 122 38
178 27 109 40 119 69 53 10 -24 37 -61 60 -83 23 -21 41 -45 41 -53 0 -8 -11
-27 -25 -43 -26 -32 -24 -53 6 -70 15 -8 32 -2 80 26 33 19 63 35 68 35 4 0
25 -18 46 -40 42 -43 62 -50 72 -23 3 10 15 28 26 40 17 19 18 27 9 47 -10 22
-8 25 11 28 15 2 23 11 25 28 2 13 13 30 23 38 10 7 19 24 19 38 0 17 5 24 20
24 23 0 53 41 45 62 -8 20 -53 52 -92 66 -18 6 -54 27 -79 46 -26 20 -54 36
-64 36 -9 0 -42 18 -73 40 -31 23 -74 48 -94 57 -31 14 -34 17 -18 21 11 2 31
13 44 23 13 11 31 19 40 19 10 0 30 14 46 30 32 33 65 38 89 14 12 -11 16 -36
16 -90 0 -57 3 -74 14 -74 34 0 46 13 52 61 4 27 12 49 18 49 6 0 47 -36 91
-80 72 -72 83 -80 109 -74 l28 6 -7 -43 c-3 -24 -11 -56 -16 -71 -7 -18 -7
-32 0 -46 12 -23 69 -49 81 -36 7 8 24 75 50 199 4 22 15 72 24 110 8 39 22
104 31 145 9 41 21 93 26 115 9 38 33 147 46 208 7 36 19 42 48 23 13 -9 33
-16 43 -16 10 0 27 -7 38 -15 10 -8 27 -15 37 -15 10 0 48 -9 85 -20 101 -31
124 -37 292 -69 159 -31 184 -35 328 -47 110 -9 114 -20 30 -95 -36 -32 -71
-72 -78 -88 -12 -29 -10 -34 34 -93 52 -70 57 -88 23 -88 -65 0 -120 -162
-133 -397 -6 -95 -4 -116 10 -138 l17 -25 124 5 c129 5 163 14 199 54 25 27
30 26 44 -4 17 -37 44 -43 192 -46 128 -3 133 -2 151 20 29 36 24 146 -14 294
-19 71 -116 251 -139 255 -9 2 -32 -11 -52 -28 -35 -31 -56 -33 -56 -5 0 8 13
21 30 30 41 21 60 53 67 113 5 44 2 55 -25 93 -16 24 -39 53 -51 63 -11 11
-21 27 -21 38 0 16 10 18 113 19 195 1 397 8 425 13 15 3 38 0 51 -8 l23 -13
-28 -27 c-16 -15 -50 -40 -75 -57 -40 -25 -47 -35 -52 -71 -7 -51 8 -83 58
-121 42 -33 41 -51 -1 -52 -22 0 -33 -7 -44 -30 -9 -16 -23 -41 -32 -55 -20
-30 -44 -158 -57 -300 -11 -132 0 -169 51 -171 93 -5 118 -4 178 4 36 4 72 8
80 9 26 1 50 30 50 60 0 39 22 32 36 -11 6 -19 19 -38 30 -44 10 -6 78 -12
149 -15 123 -3 132 -2 159 19 28 22 28 23 22 103 -10 144 -22 190 -84 320 -58
121 -62 126 -91 126 -37 0 -40 18 -14 91 l18 50 -29 55 c-24 45 -42 64 -93 97
-45 29 -60 44 -53 51 6 6 61 17 123 24 62 7 144 17 182 23 39 6 84 11 100 10
17 0 52 7 78 16 26 8 54 12 62 9 8 -3 36 1 62 9 27 8 64 15 84 15 20 0 58 7
85 16 27 8 82 19 122 23 86 10 100 19 86 58 -11 32 -15 32 -152 20 l-83 -8 14
23 c19 30 15 265 -8 603 -4 50 -8 121 -10 159 -2 53 -7 73 -24 89 -40 40 -44
15 -38 -193 2 -73 1 -75 -25 -84 -42 -15 -68 14 -68 75 0 39 -4 51 -26 68 -29
23 -55 26 -85 11 -24 -13 -24 -46 -1 -98 16 -36 18 -69 15 -340 -3 -324 -2
-331 49 -319 31 8 53 -6 44 -28 -5 -14 -14 -16 -41 -12 -21 3 -50 0 -70 -9
-19 -8 -51 -14 -72 -14 -21 0 -55 -5 -77 -11 -56 -16 -63 -3 -58 101 4 82 5
86 33 102 42 24 46 45 16 76 -14 15 -49 68 -77 117 -72 126 -101 147 -150 107
-26 -21 -43 -103 -28 -141 7 -19 5 -29 -11 -45 -18 -18 -23 -18 -61 -6 -77 26
-95 97 -103 423 -2 71 -8 132 -14 138 -6 6 -21 9 -34 7 -23 -3 -24 -7 -22 -68
1 -36 5 -135 8 -220 3 -85 8 -234 11 -330 6 -187 12 -210 62 -236 12 -6 30
-19 41 -28 18 -16 23 -15 105 29 95 51 111 52 159 10 22 -20 26 -29 18 -39
-10 -12 -108 -25 -236 -31 -22 -1 -56 -5 -75 -9 -56 -10 -157 -15 -452 -22
-255 -6 -278 -5 -278 10 0 11 39 35 126 76 70 33 133 60 141 60 7 0 29 -25 49
-56 23 -35 41 -54 51 -52 9 2 30 26 46 53 22 38 30 65 33 113 2 34 6 67 9 73
4 5 24 18 46 29 38 20 39 22 39 71 0 29 -8 65 -19 87 -11 21 -22 54 -26 74 -8
42 -83 177 -107 192 -13 8 -28 5 -63 -12 -37 -18 -49 -31 -68 -74 -38 -86 -40
-105 -15 -122 21 -15 21 -16 2 -37 -33 -37 -71 -51 -120 -43 -36 5 -52 15 -85
53 -74 83 -73 79 -70 226 2 130 2 134 -20 146 -19 10 -25 9 -40 -10 -14 -17
-17 -43 -18 -137 -1 -64 -3 -120 -5 -123 -2 -3 -7 -62 -10 -131 -3 -69 -11
-171 -18 -227 -11 -95 -10 -104 7 -123 10 -11 25 -20 33 -20 16 0 82 -63 82
-79 0 -28 -465 9 -623 50 -40 11 -47 36 -8 32 12 -2 38 8 59 21 55 36 111 42
145 16 15 -12 42 -24 61 -27 28 -4 36 -1 46 17 12 23 9 98 -5 132 -5 13 3 22
34 38 24 12 41 27 41 38 0 33 -29 112 -54 149 -14 21 -26 46 -26 56 0 50 -61
117 -106 117 -38 0 -49 -12 -64 -71 -10 -39 -9 -52 5 -79 15 -30 15 -33 -1
-51 -12 -13 -30 -19 -59 -19 -36 0 -47 6 -93 51 -29 28 -54 61 -57 72 -3 12 4
63 15 112 31 140 53 282 47 299 -8 21 -44 20 -55 -1 -6 -10 -15 -52 -22 -93
-6 -41 -16 -89 -21 -106 -5 -18 -18 -78 -29 -135 -55 -304 -70 -371 -88 -377
-9 -3 -11 11 -7 55 6 68 23 211 35 302 5 35 7 68 4 73 -3 4 3 32 14 61 11 28
22 70 26 92 3 22 14 71 23 109 l17 68 -23 19 c-13 11 -34 19 -47 19 -13 0 -32
4 -42 9 -33 17 -107 34 -169 38 l-62 5 -7 -39z m-1039 -393 c3 -5 -1 -10 -9
-10 -9 0 -16 5 -16 10 0 6 4 10 9 10 6 0 13 -4 16 -10z m3677 -105 c11 -40 17
-175 8 -175 -22 0 -80 116 -80 159 0 57 57 69 72 16z m-3381 -157 c51 -36 62
-49 50 -61 -12 -12 -39 4 -86 52 -48 50 -28 55 36 9z m1177 -89 c45 -49 48
-51 89 -45 23 3 45 2 48 -3 8 -14 -76 -71 -105 -71 -37 0 -120 79 -120 113 0
72 26 73 88 6z m-278 31 c0 -5 -2 -10 -4 -10 -3 0 -8 5 -11 10 -3 6 -1 10 4
10 6 0 11 -4 11 -10z m2483 -14 c9 -10 14 -36 13 -83 -1 -57 -4 -68 -19 -71
-34 -7 -87 66 -87 119 0 41 62 65 93 35z m-1492 -51 c23 -30 48 -55 55 -55 7
0 28 9 46 20 36 22 68 26 68 9 0 -35 -125 -149 -164 -149 -12 1 -37 14 -56 31
-32 27 -35 34 -35 87 0 71 11 112 30 112 8 0 33 -25 56 -55z m109 45 c0 -5 -4
-10 -10 -10 -5 0 -10 5 -10 10 0 6 5 10 10 10 6 0 10 -4 10 -10z m-622 -68 c3
-9 -3 -13 -19 -10 -12 1 -24 9 -27 16 -3 9 3 13 19 10 12 -1 24 -9 27 -16z
m-616 -15 c26 -7 50 -16 54 -20 4 -4 22 -7 39 -7 19 0 39 -8 50 -20 24 -27 39
-25 53 5 14 30 28 32 42 5 7 -14 21 -20 44 -20 29 0 41 -8 79 -52 53 -61 46
-75 -27 -53 -25 8 -77 22 -114 31 -37 9 -71 20 -76 25 -6 5 -18 9 -28 9 -11 0
-36 9 -58 20 -22 11 -47 20 -57 20 -24 1 -63 34 -63 54 0 19 1 19 62 3z m1897
-23 c37 -31 39 -56 6 -78 -23 -15 -26 -15 -45 4 -25 25 -43 68 -36 87 8 21 42
15 75 -13z m735 -80 c18 -7 12 -24 -10 -24 -8 0 -14 7 -14 15 0 17 2 18 24 9z
m-4240 -153 c29 -30 37 -45 34 -67 -3 -27 -6 -29 -50 -32 -46 -3 -48 -2 -68
37 -11 22 -20 54 -20 71 0 27 3 30 33 30 25 0 42 -9 71 -39z m3484 -73 c-3 -7
-15 -15 -28 -16 -21 -3 -22 -2 -11 12 16 19 44 21 39 4z m-93 -8 c-3 -5 -10
-10 -16 -10 -5 0 -9 5 -9 10 0 6 7 10 16 10 8 0 12 -4 9 -10z m-2585 -151 c0
-5 -7 -9 -15 -9 -15 0 -20 12 -9 23 8 8 24 -1 24 -14z m-61 -6 c0 -5 -3 -9 -9
-11 -5 -2 -10 4 -10 13 0 16 16 14 19 -2z m-264 -82 c3 -5 1 -12 -5 -16 -5 -3
-10 1 -10 9 0 18 6 21 15 7z m-363 -108 c19 -22 40 -106 32 -127 -9 -24 -79
-21 -120 5 -59 36 -54 97 9 124 43 19 61 18 79 -2z m3524 -12 c-9 -10 -16 -27
-16 -39 0 -31 -18 -27 -26 5 -5 20 -2 31 16 45 27 22 48 13 26 -11z m-2967
-148 c0 -5 -3 -9 -9 -11 -5 -2 -10 4 -10 13 0 16 16 14 19 -2z m45 -76 c6 -9
7 -19 3 -23 -9 -9 -37 15 -37 33 0 18 20 12 34 -10z m2122 -90 c-4 -18 -13
-23 -41 -24 -45 -1 -44 10 2 42 39 26 49 21 39 -18z m874 2 c0 -5 -9 -13 -21
-20 -29 -15 -43 1 -23 29 13 18 19 21 30 11 8 -6 14 -15 14 -20z m-105 -9 c3
-5 -13 -21 -35 -35 -22 -14 -49 -34 -60 -45 -19 -19 -20 -18 -54 17 -20 19
-36 38 -36 43 0 10 87 21 115 14 13 -3 32 -1 42 5 22 13 21 13 28 1z m-890
-12 c3 -3 -12 -21 -35 -40 -28 -25 -40 -43 -40 -61 0 -41 -18 -32 -30 14 -7
27 -18 43 -31 46 -33 9 -23 41 14 45 44 6 115 3 122 -4z m-1793 -30 c-7 -7
-12 -8 -12 -2 0 14 12 26 19 19 2 -3 -1 -11 -7 -17z m2898 -18 c0 -5 -2 -10
-4 -10 -3 0 -8 5 -11 10 -3 6 -1 10 4 10 6 0 11 -4 11 -10z M20716 2238 c-44
-146 -53 -362 -22 -488 9 -36 16 -78 16 -95 0 -16 10 -46 22 -65 17 -27 21
-47 19 -92 -2 -49 3 -70 39 -148 23 -51 42 -101 42 -113 0 -12 -7 -62 -16
-112 -26 -139 -44 -239 -65 -370 -19 -113 -47 -278 -51 -300 -6 -26 1 -55 16
-70 15 -15 18 -15 34 0 17 16 20 15 35 -14 17 -34 36 -39 55 -16 12 14 38 181
77 493 17 134 28 158 53 111 8 -14 19 -19 38 -17 25 3 27 0 27 -31 1 -27 10
-42 47 -76 26 -23 55 -61 64 -84 9 -22 22 -41 29 -41 7 0 22 -17 32 -37 13
-28 25 -39 46 -41 16 -2 27 -9 27 -18 0 -24 38 -92 61 -108 12 -8 27 -25 33
-38 6 -13 22 -24 34 -26 13 -2 33 -19 46 -40 13 -20 35 -47 48 -58 12 -12 43
-40 67 -63 24 -23 47 -41 51 -41 10 0 20 26 20 51 0 41 19 16 30 -38 18 -97
24 -105 67 -97 42 7 63 27 63 60 0 12 7 28 16 35 14 11 18 10 30 -6 8 -10 14
-25 14 -32 0 -25 39 -53 74 -53 52 0 60 19 31 71 -44 78 -48 87 -41 104 4 12
12 14 28 8 13 -4 55 -6 94 -5 84 4 84 4 93 -103 l6 -70 41 -3 c62 -5 75 13 67
93 -6 62 -5 65 19 74 35 13 163 18 162 6 -1 -18 -17 -69 -29 -95 -7 -14 -15
-37 -19 -52 -6 -27 -5 -28 37 -28 30 0 49 6 59 17 14 18 42 79 53 120 7 24 50
42 65 27 5 -5 16 -38 24 -73 8 -35 19 -67 23 -71 4 -5 31 -11 59 -15 61 -8 84
8 84 60 0 19 5 37 10 40 6 3 10 -1 10 -10 0 -30 31 -29 56 1 30 37 31 90 3
144 -16 30 -19 44 -11 52 8 8 15 3 24 -18 17 -41 48 -84 59 -84 5 0 14 11 19
25 15 39 34 30 54 -27 26 -76 59 -108 112 -108 24 0 55 5 71 11 15 6 51 15 80
19 67 11 109 42 118 87 7 37 25 36 25 -1 0 -43 23 -50 87 -28 l58 20 -2 69
c-2 104 -19 255 -32 286 -6 16 -11 57 -11 91 0 35 -7 83 -15 106 -8 23 -15 68
-15 100 0 32 -7 77 -15 100 -17 47 -21 205 -6 215 24 14 74 105 103 184 30 85
30 88 31 296 1 116 -3 257 -8 315 l-10 105 -28 3 c-35 4 -57 -13 -57 -45 0
-27 -28 -43 -41 -22 -5 8 -9 24 -9 37 0 18 -6 22 -31 22 -33 0 -127 -27 -147
-43 -8 -6 -12 -30 -10 -66 2 -49 -1 -59 -25 -83 -15 -15 -27 -33 -27 -41 0 -8
-7 -20 -15 -27 -20 -17 -21 -123 -1 -140 8 -6 20 -26 25 -43 8 -22 28 -44 64
-67 46 -31 60 -35 117 -35 l65 -1 3 -50 c3 -49 2 -51 -46 -93 -50 -43 -312
-181 -343 -181 -10 0 -21 10 -25 23 -11 36 -35 57 -68 57 -42 0 -52 9 -60 53
-11 59 0 94 34 105 16 6 34 20 40 31 14 27 17 94 6 148 -6 35 -5 44 8 49 8 3
23 -1 31 -10 34 -33 61 -4 51 55 -5 32 -2 46 14 66 28 36 26 81 -7 115 -30 31
-54 36 -72 14 -7 -8 -25 -18 -41 -21 -15 -3 -40 -21 -55 -38 -26 -31 -27 -34
-23 -156 3 -137 -2 -148 -48 -112 -15 12 -31 21 -37 21 -6 0 -18 6 -26 14 -15
13 -57 35 -131 69 -70 33 -157 55 -234 61 -65 5 -86 3 -122 -13 -74 -33 -53
-55 63 -64 78 -6 128 -26 137 -55 4 -10 -1 -34 -11 -52 -15 -31 -15 -36 0 -61
8 -15 13 -37 10 -48 -10 -38 34 -53 184 -60 l138 -6 3 -53 c3 -50 1 -55 -32
-86 -33 -30 -36 -37 -36 -89 0 -69 -3 -71 -137 -87 -49 -6 -113 -17 -143 -24
-67 -16 -495 -13 -700 4 -155 13 -187 27 -182 77 2 19 -4 35 -17 48 -12 10
-21 31 -21 48 l0 29 108 -7 c108 -7 108 -7 141 21 22 18 44 27 65 27 47 -1
172 -20 185 -27 14 -9 116 -17 231 -19 l85 -2 8 45 c4 25 10 82 13 127 8 102
-1 118 -60 109 -62 -10 -457 -25 -473 -19 -10 4 -12 16 -7 49 l6 44 -43 18
c-46 20 -145 35 -214 33 -55 -2 -112 -17 -162 -43 -54 -28 -73 -16 -56 35 13
36 4 117 -16 141 -30 36 -158 47 -195 16 -14 -10 -12 -16 9 -44 25 -33 34 -89
15 -101 -18 -11 -42 -74 -35 -94 8 -26 65 -61 100 -61 20 0 44 -15 84 -52 31
-29 76 -70 99 -91 43 -39 50 -63 31 -99 -14 -26 -68 -48 -118 -48 -40 0 -51
-11 -51 -51 0 -23 -3 -23 -55 -5 -177 63 -310 148 -347 224 -10 19 -25 43 -33
52 -25 27 -18 36 46 55 56 17 65 24 96 72 45 71 58 140 36 196 -9 23 -22 51
-30 62 -17 25 -17 55 0 80 22 33 41 105 31 114 -5 5 -24 13 -42 19 -28 10 -34
9 -45 -8 -13 -23 -37 -27 -37 -7 0 7 5 18 12 25 20 20 -23 54 -79 63 -76 12
-153 11 -157 -3z m134 -38 c0 -5 -4 -10 -10 -10 -5 0 -10 5 -10 10 0 6 5 10
10 10 6 0 10 -4 10 -10z m2554 -306 c22 -8 20 -21 -5 -35 -25 -13 -45 1 -36
25 7 17 16 19 41 10z m-2506 -58 c2 -10 -1 -23 -7 -29 -15 -15 -46 16 -37 38
8 21 40 15 44 -9z m1239 -262 c-3 -3 -12 -4 -19 -1 -8 3 -5 6 6 6 11 1 17 -2
13 -5z m183 -94 c0 -5 -9 -10 -21 -10 -11 0 -17 5 -14 10 3 6 13 10 21 10 8 0
14 -4 14 -10z m1010 -182 c-1 -17 -41 -63 -63 -71 -9 -3 -24 -4 -32 -1 -18 7
-20 48 -2 62 26 21 97 28 97 10z m-2210 -58 c0 -5 -2 -10 -4 -10 -3 0 -8 5
-11 10 -3 6 -1 10 4 10 6 0 11 -4 11 -10z m56 -18 c5 -5 36 -17 69 -27 33 -10
64 -21 70 -26 5 -5 19 -9 32 -9 12 0 32 -4 45 -10 22 -9 158 -26 283 -35 33
-3 92 -7 130 -10 39 -2 133 -9 210 -15 206 -15 510 -16 570 -1 45 11 51 10 60
-5 6 -9 18 -24 28 -33 26 -24 21 -28 -35 -33 -79 -8 -108 -55 -73 -122 8 -15
15 -32 15 -36 0 -5 -23 -34 -51 -64 -64 -70 -87 -72 -158 -16 -53 42 -70 47
-99 29 -27 -17 -72 5 -72 35 0 28 -16 36 -70 36 -56 0 -113 -24 -153 -64 -20
-20 -39 -36 -42 -36 -2 0 -12 17 -20 37 -20 48 -70 92 -96 86 -12 -3 -26 -16
-31 -29 -13 -28 -21 -30 -39 -8 -10 12 -25 15 -61 12 -56 -6 -69 4 -61 45 4
21 -1 43 -18 74 -27 49 -55 61 -99 43 -16 -6 -33 -9 -38 -6 -5 3 -15 -1 -22
-9 -10 -12 -6 -23 19 -62 29 -44 41 -93 23 -93 -5 0 -18 11 -30 25 -12 14 -33
25 -46 25 -41 0 -72 20 -89 56 -9 19 -21 34 -27 34 -5 0 -19 18 -30 40 -12 23
-27 43 -35 46 -8 3 -17 15 -21 26 -3 12 -22 36 -40 55 -19 18 -34 38 -34 43 0
12 23 13 36 2z m1904 -92 c0 -5 -5 -10 -11 -10 -5 0 -7 5 -4 10 3 6 8 10 11
10 2 0 4 -4 4 -10z m-1516 -195 c3 -8 1 -15 -4 -15 -6 0 -10 7 -10 15 0 8 2
15 4 15 2 0 6 -7 10 -15z m1767 -66 c4 -24 12 -60 18 -79 6 -19 11 -58 11 -86
0 -28 7 -71 15 -94 19 -54 21 -184 3 -178 -8 3 -14 27 -16 60 l-3 55 -41 6
c-22 3 -47 3 -55 0 -17 -7 -33 -44 -33 -79 0 -36 -28 -74 -56 -74 -12 0 -40
16 -61 35 -21 19 -46 38 -55 41 -21 6 -22 17 -7 46 8 16 7 27 -7 53 -9 18 -14
40 -11 49 9 23 27 10 27 -19 0 -38 18 -39 40 -3 17 28 19 43 14 92 -5 43 -4
57 5 52 6 -4 11 -13 11 -19 0 -7 4 -18 9 -26 16 -25 41 6 41 50 0 38 12 53 40
54 8 0 19 10 26 22 6 13 18 31 26 40 8 10 18 26 21 36 11 31 32 13 38 -34z
m-361 -16 c-1 -10 -36 -53 -44 -53 -11 0 -6 36 6 48 13 13 38 16 38 5z m-882
-80 c-2 -10 -13 -19 -26 -21 -24 -4 -29 7 -10 26 18 18 40 15 36 -5z m217 -19
c27 -35 27 -35 7 -57 -11 -12 -26 -35 -33 -52 -11 -24 -21 -31 -51 -33 -22 -2
-47 3 -61 13 -23 15 -26 14 -56 -10 -35 -30 -74 -30 -79 -1 -6 28 71 94 117
102 61 10 70 14 91 45 12 16 25 29 29 29 5 0 21 -16 36 -36z m-575 -54 c0 -5
-4 -10 -10 -10 -5 0 -10 5 -10 10 0 6 5 10 10 10 6 0 10 -4 10 -10z m770 -40
c0 -5 -10 -10 -22 -10 -19 0 -20 2 -8 10 19 13 30 13 30 0z m957 -22 c-3 -8
-6 -5 -6 6 -1 11 2 17 5 13 3 -3 4 -12 1 -19z m-1749 -29 c-4 -57 -28 -72 -63
-39 -31 29 -31 36 0 44 14 4 28 13 31 21 4 8 13 15 21 15 10 0 13 -10 11 -41z
m650 -8 c9 -5 30 -13 46 -17 47 -14 42 -31 -11 -37 -55 -6 -79 8 -68 42 7 24
9 24 33 12z m172 -24 c0 -19 -21 -37 -42 -37 -22 0 -23 8 -1 32 19 21 43 24
43 5z m90 -27 c0 -5 -4 -10 -10 -10 -5 0 -10 5 -10 10 0 6 5 10 10 10 6 0 10
-4 10 -10z m373 -80 l7 -35 -20 24 c-20 23 -27 71 -13 85 8 7 15 -13 26 -74z
m-1529 54 c7 -19 -2 -37 -15 -29 -12 8 -12 45 0 45 5 0 12 -7 15 -16z m2026
-80 c0 -8 -5 -12 -10 -9 -6 4 -8 11 -5 16 9 14 15 11 15 -7z m-1926 -30 c3 -9
6 -30 6 -47 -1 -30 -1 -31 -15 -13 -16 22 -20 76 -6 76 5 0 12 -7 15 -16z
M26605 2237 c-41 -16 -123 -74 -133 -95 -5 -9 -15 -46 -21 -81 -14 -69 -2
-149 25 -172 22 -18 17 -54 -17 -120 -17 -34 -50 -121 -74 -193 -24 -73 -57
-162 -74 -198 -16 -36 -34 -97 -40 -135 -6 -38 -18 -86 -26 -106 -8 -20 -15
-53 -15 -74 0 -21 -5 -54 -11 -73 -19 -62 -30 -344 -14 -370 4 -6 20 -8 41 -4
23 4 42 1 59 -10 30 -20 48 -13 62 24 18 47 35 38 27 -15 -8 -54 9 -66 59 -43
34 15 62 11 120 -18 16 -8 36 -14 44 -14 12 0 14 -7 9 -32 -4 -18 -10 -51 -14
-73 -8 -44 -6 -44 -122 -31 -25 3 -76 8 -113 11 l-68 6 -19 -43 c-11 -24 -20
-58 -20 -75 0 -28 5 -35 38 -48 20 -9 48 -14 61 -12 14 3 35 1 47 -4 13 -4 65
-11 116 -14 51 -3 111 -8 133 -9 22 -2 110 -6 195 -10 85 -4 162 -9 172 -12
21 -6 48 32 48 68 0 16 -12 41 -28 59 -27 30 -33 32 -113 36 -46 2 -90 5 -97
8 -10 4 -13 25 -11 80 3 81 20 98 29 29 4 -33 9 -39 30 -42 14 -1 42 -8 64
-14 34 -11 40 -10 52 7 8 10 14 37 14 60 0 23 5 46 12 53 15 15 214 17 223 2
4 -6 -3 -37 -14 -70 -12 -33 -21 -67 -21 -75 0 -24 -7 -19 -63 41 -43 47 -57
55 -75 50 -12 -4 -22 -15 -22 -25 0 -31 36 -121 58 -144 12 -13 22 -28 22 -34
0 -14 61 -68 117 -103 51 -33 95 -30 122 9 10 14 42 66 70 116 42 73 51 98 51
137 0 37 -4 50 -19 58 -32 17 -40 12 -71 -44 -58 -103 -79 -99 -85 17 -4 75
-4 76 23 81 15 3 62 7 104 8 63 1 81 -2 98 -17 11 -10 20 -24 20 -32 0 -26 30
-72 50 -78 26 -8 50 10 51 39 l0 21 9 -22 c11 -26 39 -36 70 -25 12 5 50 5 83
0 50 -7 63 -5 79 8 10 10 18 25 18 35 0 23 16 33 26 17 4 -6 9 -38 12 -70 4
-70 0 -73 -128 -87 -304 -34 -320 -39 -320 -92 0 -39 25 -86 49 -94 11 -3 35
-3 53 0 18 3 116 14 218 25 102 11 219 24 260 30 41 5 93 12 115 14 258 32
344 48 357 67 16 24 1 122 -21 140 -18 15 -32 14 -183 -12 -90 -15 -166 -25
-169 -21 -4 4 -9 26 -13 49 -6 39 -4 43 17 48 13 4 39 5 58 4 68 -5 89 0 89
20 0 26 18 37 26 16 5 -13 15 -15 48 -10 64 11 89 30 81 66 -5 22 -3 29 9 29
8 0 18 -9 21 -21 10 -31 49 -21 53 13 3 29 -37 296 -63 413 -9 39 -23 106 -31
150 -27 136 -40 189 -51 215 -6 14 -17 45 -24 70 -7 25 -21 56 -31 69 -10 13
-18 33 -18 45 0 12 -18 39 -40 61 -22 21 -40 45 -40 52 0 8 15 23 34 34 19 11
39 33 45 50 6 16 19 42 30 57 13 19 21 53 26 108 7 75 6 81 -17 109 -14 17
-32 44 -41 61 -9 17 -40 47 -69 67 -51 35 -56 37 -120 32 -37 -2 -77 -9 -87
-15 -11 -6 -47 -42 -79 -80 -53 -62 -60 -77 -65 -125 -6 -61 6 -117 34 -157
22 -31 24 -51 6 -67 -10 -8 -33 2 -98 45 -101 67 -191 114 -219 114 -11 0 -37
7 -58 16 -47 20 -109 26 -247 26 -151 -1 -325 -40 -442 -99 -44 -21 -55 -24
-68 -13 -11 9 -12 16 -4 26 20 24 39 118 33 159 -13 82 -58 140 -134 174 -60
26 -108 32 -145 18z m96 -222 c7 -36 -14 -65 -46 -65 -25 0 -35 17 -35 59 0
36 8 43 45 39 24 -2 31 -8 36 -33z m1527 -33 c15 -19 15 -37 2 -63 -14 -24
-31 -24 -64 2 -27 22 -34 57 -14 77 14 14 59 5 76 -16z m-798 -92 c0 -5 -7
-10 -15 -10 -8 0 -15 5 -15 10 0 6 7 10 15 10 8 0 15 -4 15 -10z m124 -104
c26 -9 55 -16 66 -16 23 0 38 -51 35 -116 -2 -55 -10 -65 -41 -54 -14 6 -27
10 -30 10 -14 0 -25 -68 -28 -191 -3 -76 -7 -143 -10 -148 -4 -5 -40 14 -82
42 l-76 52 -29 -35 c-18 -22 -29 -46 -29 -65 0 -26 -8 -36 -42 -59 -22 -15
-47 -25 -55 -22 -28 11 -44 76 -46 181 -2 84 -6 107 -21 123 -15 18 -18 41
-20 152 -3 118 -1 132 15 141 53 28 315 31 393 5z m96 -231 c0 -8 -4 -15 -10
-15 -5 0 -10 7 -10 15 0 8 5 15 10 15 6 0 10 -7 10 -15z m0 -65 c0 -5 -5 -10
-11 -10 -5 0 -7 5 -4 10 3 6 8 10 11 10 2 0 4 -4 4 -10z m-949 -133 c-13 -13
-26 -3 -16 12 3 6 11 8 17 5 6 -4 6 -10 -1 -17z m1424 13 c3 -5 1 -10 -4 -10
-6 0 -11 5 -11 10 0 6 2 10 4 10 3 0 8 -4 11 -10z m205 -195 c-7 -9 -15 -13
-17 -11 -7 7 7 26 19 26 6 0 6 -6 -2 -15z m-1490 -65 c0 -5 -4 -10 -10 -10 -5
0 -10 5 -10 10 0 6 5 10 10 10 6 0 10 -4 10 -10z m743 -10 c14 -11 35 -20 46
-20 21 0 21 -4 21 -204 0 -151 -3 -206 -12 -214 -7 -6 -31 -12 -53 -14 -35 -3
-40 0 -43 19 -2 12 -20 36 -41 53 -39 30 -39 30 -46 124 -5 68 -3 105 6 130
11 31 11 41 -4 71 -13 27 -15 41 -7 56 15 27 97 27 133 -1z m-301 -9 c4 -4 4
-20 0 -36 -5 -17 -4 -48 1 -70 20 -93 20 -102 -8 -154 -16 -28 -39 -58 -51
-66 -18 -11 -24 -25 -24 -50 0 -18 5 -37 10 -40 6 -3 10 -11 10 -17 0 -7 -43
-8 -132 -4 -184 9 -235 16 -249 32 -17 21 -3 29 27 16 18 -9 31 -9 45 -2 11 6
24 8 30 4 16 -9 162 -5 172 5 7 7 15 143 16 308 1 57 3 64 28 76 25 14 109 12
125 -2z m-582 -259 c0 -15 -28 -47 -35 -40 -11 11 5 48 21 48 8 0 14 -4 14 -8z
m685 -31 c-7 -23 -25 -29 -25 -8 0 14 21 39 28 33 2 -3 1 -14 -3 -25z m-630
-83 c26 -12 32 -23 16 -33 -5 -3 -22 6 -38 20 -30 26 -20 32 22 13z m635 -29
c0 -4 9 -9 20 -12 11 -3 20 -11 20 -19 0 -10 -13 -13 -47 -12 -27 1 -51 2 -55
3 -15 2 -8 28 14 56 20 26 22 27 35 9 7 -10 13 -21 13 -25z m-105 -22 c13 -10
15 -16 6 -21 -12 -8 -41 10 -41 25 0 13 13 11 35 -4z m-545 -262 c0 -8 -4 -15
-10 -15 -5 0 -10 7 -10 15 0 8 5 15 10 15 6 0 10 -7 10 -15z M32960 2231 c0
-24 -17 -102 -32 -146 -5 -16 -12 -43 -14 -60 -3 -32 -16 -98 -34 -180 -6 -27
-15 -70 -20 -95 -5 -25 -14 -67 -20 -95 -6 -27 -15 -68 -19 -90 -5 -22 -17
-78 -26 -125 -31 -156 -35 -175 -45 -220 -5 -25 -17 -81 -26 -125 -22 -109
-31 -152 -44 -205 -6 -25 -17 -78 -24 -117 -12 -73 -25 -100 -33 -75 -5 13
-119 152 -173 209 -16 18 -30 37 -30 42 0 22 -62 43 -106 36 -46 -7 -55 0 -27
20 9 7 22 30 28 52 14 47 1 110 -42 206 l-27 59 21 17 c25 20 179 204 194 232
12 24 -9 64 -40 74 -10 3 -24 19 -31 35 -7 17 -16 30 -20 30 -14 0 -145 135
-157 163 -7 15 -18 27 -25 28 -7 1 -22 2 -33 3 -16 1 -19 7 -17 34 3 27 -1 35
-26 49 -17 10 -38 30 -47 45 -9 15 -24 28 -34 28 -30 0 -45 25 -33 57 12 35
-2 69 -32 77 -24 6 -81 -5 -114 -23 -13 -7 -54 -13 -92 -14 -89 -3 -96 -10
-70 -72 11 -26 25 -75 29 -109 5 -33 21 -88 35 -122 14 -33 28 -85 32 -115 4
-30 20 -87 35 -127 16 -39 34 -105 40 -145 6 -39 16 -81 22 -92 6 -11 12 -85
14 -165 2 -80 4 -158 6 -175 2 -26 -2 -31 -38 -43 -63 -22 -212 -19 -260 5
-89 43 -135 77 -135 100 0 31 -52 112 -93 146 -38 31 -53 37 -92 37 -90 0
-119 -39 -106 -146 5 -42 13 -70 21 -72 8 -3 24 -15 36 -27 34 -34 75 -44 156
-38 71 4 74 4 128 -32 80 -54 125 -75 160 -75 39 0 41 -26 3 -42 -16 -6 -73
-12 -128 -14 -117 -5 -203 -31 -239 -75 -13 -15 -29 -51 -36 -79 -11 -44 -10
-54 5 -76 23 -36 133 -84 197 -87 48 -2 53 0 75 32 13 19 21 41 19 50 -3 9 -6
48 -8 86 l-3 70 60 6 c33 3 73 11 88 17 16 7 38 12 50 12 21 0 20 -2 -8 -30
-16 -16 -43 -48 -60 -70 -16 -23 -43 -55 -58 -71 -31 -34 -30 -55 7 -100 31
-39 83 -59 134 -52 l42 6 0 -38 c0 -37 -24 -134 -42 -168 -9 -17 -10 -17 -35
3 -32 25 -65 26 -85 3 -33 -38 13 -83 97 -97 53 -9 89 5 102 41 21 57 32 99
43 158 14 78 34 152 43 161 3 4 22 -27 40 -68 19 -41 42 -78 50 -81 9 -3 24
-21 33 -38 16 -32 16 -33 -10 -56 -20 -16 -25 -29 -21 -43 14 -43 100 -32 132
17 21 32 40 29 79 -12 49 -53 76 -48 108 20 14 30 30 55 35 55 5 0 13 10 16
23 4 12 17 32 28 45 16 17 18 25 9 34 -21 21 -14 39 11 33 18 -5 28 0 41 20
10 15 15 32 13 38 -3 7 -67 48 -143 91 -179 102 -284 169 -281 179 4 14 206
100 221 94 11 -4 14 -25 14 -87 0 -45 4 -86 10 -92 27 -27 62 22 62 88 0 19 3
34 7 34 4 0 44 -39 89 -86 73 -76 86 -86 109 -80 35 9 40 -10 21 -86 -15 -61
-15 -63 6 -85 23 -25 62 -30 75 -10 4 6 13 41 20 77 12 63 24 114 44 195 11
42 23 96 38 168 32 150 44 207 53 242 5 22 12 56 16 75 9 42 29 48 80 25 63
-28 75 -32 147 -54 111 -33 184 -51 208 -51 13 0 27 -4 33 -9 5 -5 29 -12 54
-15 25 -3 74 -10 110 -16 136 -22 217 -32 282 -34 38 -2 70 -5 73 -7 5 -6 -39
-53 -109 -116 -39 -35 -46 -47 -46 -78 0 -43 12 -69 52 -110 27 -28 28 -31 11
-40 -46 -26 -88 -82 -104 -140 -36 -132 -60 -344 -45 -393 11 -35 90 -47 215
-32 58 7 113 16 122 21 39 20 29 126 -15 161 l-21 17 28 10 c16 6 58 11 95 11
37 1 85 7 107 15 53 19 57 19 53 -7 -3 -21 -10 -24 -71 -28 -64 -5 -70 -7
-102 -45 -19 -22 -34 -48 -35 -58 0 -26 27 -75 49 -87 21 -11 269 -14 296 -4
43 17 55 95 30 199 -8 33 -14 71 -15 85 0 14 -8 41 -19 60 -10 19 -22 50 -25
67 -4 18 -12 36 -18 39 -5 3 -18 26 -29 50 -10 24 -29 49 -41 55 -33 14 -78
-4 -78 -32 0 -12 -5 -19 -12 -17 -25 9 -19 39 13 69 36 34 59 86 59 135 0 25
-12 44 -60 92 -80 80 -80 95 3 87 34 -4 67 -8 73 -10 6 -2 113 1 238 7 266 12
276 10 206 -53 -25 -22 -57 -47 -72 -56 -32 -20 -46 -72 -30 -106 5 -12 28
-43 51 -69 l42 -47 -40 -11 c-32 -8 -46 -20 -66 -54 -14 -23 -25 -53 -25 -65
0 -12 -5 -32 -12 -44 -6 -12 -15 -58 -19 -102 -4 -44 -12 -109 -19 -144 -23
-131 6 -156 173 -149 66 2 111 8 119 16 6 6 19 12 27 12 8 0 25 10 38 22 l23
22 30 -29 c30 -28 32 -29 173 -33 136 -4 143 -3 166 19 21 20 23 27 17 83 -17
160 -29 212 -62 278 -8 14 -14 33 -14 41 0 8 -6 20 -14 26 -8 7 -17 24 -21 38
-10 42 -55 93 -81 93 -26 0 -34 27 -10 36 8 3 17 28 21 60 5 44 3 61 -11 82
-23 36 -134 141 -157 148 -40 13 0 24 87 24 54 0 114 6 142 15 27 8 77 15 111
15 34 0 74 5 90 11 15 7 60 15 98 20 143 17 203 26 215 34 12 7 94 22 183 32
53 6 66 21 49 58 -16 34 -53 40 -111 19 -41 -14 -55 -15 -76 -6 -19 9 -24 17
-21 34 13 62 15 199 5 348 -6 91 -13 206 -14 255 -2 50 -7 124 -12 165 -8 71
-9 75 -33 75 -24 0 -25 -3 -30 -70 -3 -38 -1 -97 4 -129 9 -55 8 -61 -13 -77
-12 -10 -28 -16 -36 -13 -13 5 -18 17 -46 102 -9 28 -25 50 -45 62 -29 19 -30
19 -62 0 -36 -22 -42 -52 -17 -87 8 -11 21 -46 29 -76 12 -48 13 -81 0 -247
-10 -144 -11 -212 -3 -269 6 -41 13 -79 15 -83 3 -5 18 -8 34 -8 29 0 48 -15
35 -28 -9 -9 -145 -24 -235 -26 l-74 -1 -1 89 c0 70 3 90 15 94 27 9 50 35 50
55 0 20 -61 120 -80 132 -6 3 -10 14 -10 24 0 9 -22 42 -49 72 -45 51 -50 53
-77 44 -37 -13 -56 -63 -48 -130 5 -47 3 -52 -25 -73 -38 -28 -42 -28 -73 6
-59 62 -66 90 -73 312 -4 113 -9 212 -11 221 -7 26 -50 41 -65 23 -13 -16 -7
-240 15 -607 l12 -198 32 -29 c17 -16 41 -31 52 -35 37 -12 19 -39 -35 -52
-85 -21 -454 -36 -580 -24 -60 6 -146 11 -190 10 -74 -2 -180 7 -365 30 -150
19 -175 23 -195 31 -11 5 -38 11 -60 14 -158 19 -465 123 -473 159 -5 23 27
29 61 12 16 -8 40 -15 51 -15 12 0 43 -11 70 -25 63 -31 76 -25 73 32 -3 59
17 67 29 11 8 -38 13 -44 47 -53 21 -6 48 -22 60 -36 51 -58 60 -62 124 -49
32 7 76 21 99 32 l41 20 41 -26 c83 -52 118 -30 109 68 l-6 64 35 24 c37 25
53 60 36 81 -5 6 -15 32 -22 57 -7 24 -21 55 -31 69 -11 13 -24 44 -30 67 -14
53 -65 97 -107 92 -47 -5 -81 -114 -52 -168 8 -15 6 -24 -10 -40 -11 -11 -28
-20 -39 -20 -26 0 -81 20 -81 30 0 5 -8 11 -17 14 -10 3 -28 25 -40 48 -23 45
-22 51 6 196 6 26 14 70 20 97 5 28 14 64 19 80 11 41 1 89 -21 93 -20 4 -44
-44 -58 -122 -9 -48 -14 -70 -39 -196 -5 -27 -14 -72 -20 -100 -5 -27 -14 -72
-18 -99 -5 -27 -14 -56 -21 -64 -8 -10 -10 -28 -6 -50 7 -36 -8 -58 -26 -40
-13 13 -13 58 1 153 5 41 12 109 14 151 3 42 12 94 22 115 17 39 31 96 41 169
3 22 12 49 20 61 25 38 -6 84 -56 84 -10 0 -33 7 -51 17 -22 10 -69 18 -132
21 -95 5 -98 4 -98 -17z m-1057 -282 c-6 -6 -19 -9 -29 -6 -17 3 -16 5 6 14
28 12 39 8 23 -8z m5 -215 c-9 -9 -21 -13 -27 -9 -16 10 -3 25 22 25 20 0 20
-1 5 -16z m3680 4 c17 -17 15 -130 -2 -154 -14 -19 -15 -19 -22 1 -4 11 -16
31 -26 44 -44 58 1 158 50 109z m-3400 -152 c3 -12 -1 -17 -10 -14 -7 3 -15
13 -16 22 -3 12 1 17 10 14 7 -3 15 -13 16 -22z m72 -62 c0 -8 -6 -14 -14 -14
-16 0 -29 27 -20 41 8 13 34 -9 34 -27z m1124 -35 l46 -52 69 7 c48 5 71 4 76
-5 10 -15 -8 -25 -55 -33 -20 -3 -49 -15 -63 -26 -35 -28 -52 -25 -108 15 -52
39 -65 63 -50 92 5 10 12 26 15 36 8 27 21 21 70 -34z m2219 -6 c4 -3 7 -52 5
-109 -2 -92 -5 -104 -20 -104 -13 0 -18 8 -18 29 0 15 -8 39 -19 52 -43 56
-64 123 -44 143 7 7 80 -1 96 -11z m-774 -72 c6 -10 24 -24 41 -29 16 -6 30
-18 30 -27 0 -17 -39 -75 -51 -75 -15 0 -59 78 -59 106 0 46 21 60 39 25z
m246 -147 c31 -20 38 -40 19 -59 -12 -11 -38 -15 -107 -15 -103 0 -140 12 -94
29 16 6 30 11 32 11 2 0 21 11 41 25 42 29 75 32 109 9z m-3771 -58 c34 -14
86 -86 86 -119 0 -38 -95 -26 -125 16 -15 22 -20 73 -9 101 7 19 7 19 48 2z
m847 -276 c-23 -20 -61 -27 -61 -12 0 17 25 32 55 32 l30 -1 -24 -19z m-694
-185 c19 -13 53 -91 53 -121 0 -7 -6 -19 -14 -27 -13 -13 -23 -12 -76 5 -75
25 -89 45 -65 99 11 23 28 42 44 48 35 13 34 13 58 -4z m3553 -14 c0 -20 -13
-41 -25 -41 -15 0 -28 27 -19 41 7 12 44 12 44 0z m-2910 -294 c0 -10 -4 -15
-10 -12 -5 3 -10 18 -10 33 0 21 2 24 10 12 5 -8 10 -23 10 -33z m2970 -25 c0
-24 -19 -42 -36 -35 -17 6 -18 25 -2 41 18 18 38 15 38 -6z m-112 -28 c32 -9
27 -24 -9 -24 -23 0 -39 -9 -62 -35 -38 -43 -52 -44 -66 -5 -6 18 -21 34 -38
41 -22 8 -24 12 -13 19 17 11 152 13 188 4z M36206 2242 c-13 -21 -56 -257
-49 -276 4 -11 8 -55 9 -96 4 -131 22 -218 60 -292 13 -25 13 -35 3 -60 -14
-35 -5 -71 53 -197 l39 -84 -77 -413 c-84 -447 -83 -444 -23 -444 18 0 32 -7
39 -20 13 -24 33 -26 50 -5 7 8 21 72 31 143 10 70 30 182 44 249 14 67 25
135 25 150 0 36 10 73 20 73 18 0 86 -64 94 -88 5 -15 27 -48 50 -74 23 -25
63 -76 90 -112 27 -38 58 -69 72 -72 15 -4 25 -16 30 -37 8 -37 116 -165 150
-177 12 -5 24 -19 26 -32 3 -25 58 -52 65 -32 8 23 32 49 38 42 4 -4 3 -27 -4
-50 -11 -42 -11 -43 26 -75 20 -18 40 -33 44 -33 4 0 5 17 2 39 -3 23 -1 41 6
45 21 13 30 -3 19 -34 -6 -20 -7 -35 0 -43 5 -6 12 -24 16 -39 8 -34 35 -49
71 -40 30 8 37 18 51 66 11 35 31 45 41 19 3 -10 18 -33 31 -50 22 -29 30 -33
73 -33 48 0 62 12 40 36 -4 5 -25 39 -45 76 -33 62 -35 91 -5 72 7 -4 48 -8
92 -10 44 -1 83 -6 88 -11 4 -4 11 -41 16 -82 7 -69 10 -75 34 -82 15 -4 39
-1 57 7 32 13 32 14 32 83 l0 69 33 9 c27 8 73 9 135 4 18 -2 15 -37 -9 -82
-27 -53 -22 -81 16 -91 39 -10 55 6 90 92 16 39 34 75 40 80 19 16 45 1 50
-29 24 -122 30 -135 65 -144 50 -13 99 -1 112 29 6 13 19 24 28 24 10 0 30 16
45 36 28 37 28 37 16 112 -7 50 -8 79 -1 86 11 11 15 1 27 -63 5 -25 13 -46
19 -48 18 -6 57 68 56 105 -1 29 1 31 17 22 15 -8 18 -17 14 -49 -7 -50 21
-135 52 -159 31 -24 104 -21 215 9 64 17 85 28 105 52 l24 31 25 -23 c24 -22
27 -23 49 -8 14 9 34 13 46 10 38 -10 52 13 45 76 -8 86 -52 418 -79 596 -43
282 -45 247 21 349 61 93 65 106 89 286 16 111 16 528 1 563 -10 20 -54 23
-78 5 -9 -7 -18 -24 -20 -38 -2 -14 -11 -26 -20 -28 -14 -3 -18 3 -18 27 l0
31 -67 -1 c-62 -1 -70 -4 -100 -34 -28 -28 -31 -37 -26 -68 5 -31 -1 -46 -36
-100 -61 -93 -58 -146 14 -264 27 -45 73 -64 150 -65 76 0 90 -12 81 -64 -13
-66 -73 -117 -232 -195 -151 -74 -202 -86 -196 -43 4 28 -32 57 -71 57 -47 0
-57 13 -57 72 0 49 3 55 36 80 20 15 45 47 56 71 18 41 18 47 3 96 -18 62 -10
77 34 58 48 -20 61 -8 61 52 0 36 7 64 21 87 l21 34 -29 41 c-25 35 -34 41
-64 40 -19 -1 -53 -14 -77 -30 -37 -24 -45 -36 -62 -94 -16 -54 -18 -76 -10
-122 5 -32 14 -66 19 -77 14 -24 0 -35 -32 -25 -12 4 -65 30 -117 59 -52 29
-142 70 -200 90 -100 36 -109 37 -199 32 -110 -7 -129 -18 -88 -53 24 -21 38
-24 100 -24 40 0 78 -4 86 -9 24 -15 38 -72 27 -109 -9 -30 -7 -36 15 -53 18
-14 20 -19 8 -19 -27 0 -32 -31 -9 -54 15 -16 40 -22 108 -29 48 -5 111 -8
141 -7 60 1 71 -7 71 -58 0 -37 -12 -63 -48 -107 -20 -25 -23 -36 -19 -75 l6
-46 -42 -12 c-24 -7 -78 -19 -122 -27 -44 -8 -98 -18 -120 -23 -39 -8 -392 -6
-545 2 -125 7 -263 24 -302 36 -34 10 -38 14 -38 45 0 19 -9 49 -20 67 -38 63
-33 67 83 63 94 -3 106 -2 147 21 40 23 52 25 115 19 39 -4 92 -13 119 -21 27
-7 59 -11 71 -8 12 3 41 0 64 -6 23 -6 78 -13 122 -15 l79 -4 0 27 c0 15 4 42
9 60 5 18 11 66 12 108 4 95 -8 108 -91 99 -30 -3 -98 -8 -150 -10 -52 -3
-132 -10 -178 -15 -106 -12 -134 -3 -132 43 4 67 1 69 -132 96 -81 16 -101 17
-153 6 -33 -7 -75 -20 -92 -29 -66 -34 -101 -13 -84 51 18 63 14 87 -22 121
-28 27 -40 32 -84 32 -62 0 -113 -10 -113 -21 0 -5 11 -27 25 -48 l25 -38 -25
-68 c-15 -38 -24 -79 -21 -91 6 -22 37 -38 93 -48 22 -4 52 -25 93 -66 33 -33
64 -60 69 -60 4 0 20 -17 35 -39 21 -30 25 -43 17 -62 -13 -35 -28 -44 -94
-58 -62 -14 -78 -31 -58 -62 21 -35 -48 -23 -148 26 -51 25 -99 45 -106 45
-41 0 -226 205 -209 231 3 5 14 9 25 9 54 0 141 74 164 140 21 59 19 91 -10
156 -31 70 -31 73 1 153 29 72 26 90 -20 102 -21 6 -32 3 -47 -12 -10 -10 -19
-23 -19 -29 0 -5 -6 -10 -14 -10 -12 0 -13 11 -9 53 5 52 5 54 -26 66 -26 11
-34 11 -56 -3 -31 -21 -35 -20 -35 4 0 17 -7 20 -49 20 -28 0 -52 -3 -55 -8z
m2691 -385 c-8 -21 -47 -10 -47 13 0 10 6 20 13 23 17 7 41 -19 34 -36z
m-2519 -24 c-4 -35 -33 -43 -41 -12 -8 29 -1 39 24 39 16 0 20 -6 17 -27z
m1442 -263 c0 -5 -2 -10 -4 -10 -3 0 -8 5 -11 10 -3 6 -1 10 4 10 6 0 11 -4
11 -10z m-80 -90 c0 -5 -7 -10 -15 -10 -8 0 -15 5 -15 10 0 6 7 10 15 10 8 0
15 -4 15 -10z m1060 -189 c0 -24 -70 -115 -80 -104 -5 4 -11 24 -15 44 -6 35
-5 38 32 56 49 26 63 27 63 4z m-1840 -42 c27 -15 -22 -10 -55 6 l-30 15 35
-6 c19 -4 42 -10 50 -15z m-209 -55 c162 -55 253 -71 507 -90 34 -2 90 -6 125
-8 34 -3 100 -8 147 -11 139 -10 409 -11 503 -1 l87 8 11 -31 c6 -17 16 -31
22 -31 18 0 80 -40 74 -47 -4 -3 -25 4 -48 17 -93 48 -175 -20 -136 -113 14
-33 14 -37 -4 -53 -11 -10 -29 -32 -39 -50 -42 -67 -114 -66 -166 2 -29 38
-51 49 -70 34 -20 -17 2 -64 44 -97 l37 -28 -35 -5 c-30 -4 -36 -10 -46 -45
-11 -39 -12 -40 -55 -37 -24 1 -54 7 -67 14 -19 10 -26 8 -45 -10 -27 -26 -59
-28 -81 -6 -14 14 -13 18 17 48 45 45 82 66 115 66 34 0 72 33 72 63 0 12 -15
35 -35 53 -63 55 -167 52 -208 -6 -7 -11 -25 -24 -40 -29 -24 -9 -28 -7 -49
27 -12 20 -29 42 -38 49 -19 15 -67 17 -75 3 -4 -7 -38 -9 -88 -6 l-82 4 2 33
c4 49 -4 74 -33 108 -23 28 -32 31 -79 31 -46 0 -55 -3 -60 -21 -7 -22 10 -74
33 -102 22 -25 1 -47 -28 -29 -11 6 -33 12 -50 12 -25 0 -38 11 -89 78 -33 42
-85 109 -116 149 -30 39 -55 74 -55 77 0 13 50 5 121 -20z m-312 -160 l-13
-29 -3 26 c-2 14 2 38 8 55 l13 29 3 -26 c2 -14 -2 -38 -8 -55z m2021 11 c0
-9 -6 -12 -15 -9 -8 4 -15 10 -15 15 0 5 7 9 15 9 8 0 15 -7 15 -15z m-89 -33
c12 -11 18 -22 13 -25 -13 -7 -56 14 -62 31 -6 18 23 15 49 -6z m184 -48 c-23
-36 -30 -23 -9 18 10 18 19 27 22 20 2 -7 -4 -24 -13 -38z m-1945 -40 c0 -8
-5 -12 -10 -9 -6 4 -8 11 -5 16 9 14 15 11 15 -7z m2234 -279 c31 -191 39
-285 26 -285 -6 0 -10 8 -10 19 0 10 -7 32 -15 47 -8 16 -15 45 -15 65 0 33
-4 38 -37 52 -24 9 -44 12 -54 6 -22 -11 -43 -64 -36 -91 9 -31 -8 -54 -43
-62 -28 -5 -37 0 -80 43 -37 36 -50 56 -52 82 -3 29 0 34 20 37 25 4 52 52 52
91 0 11 11 27 23 36 30 19 47 56 40 84 -4 16 -1 21 15 21 26 0 52 36 52 73 0
15 4 26 9 23 17 -11 39 5 46 32 9 31 15 4 59 -273z m-394 201 c-13 -34 -33
-66 -42 -66 -17 0 -8 69 10 79 31 18 42 13 32 -13z m210 -12 c0 -8 -4 -12 -10
-9 -5 3 -10 10 -10 16 0 5 5 9 10 9 6 0 10 -7 10 -16z m-1082 -60 c-9 -9 -21
-13 -27 -9 -16 10 -3 25 22 25 20 0 20 -1 5 -16z m452 -84 c0 -5 -4 -10 -10
-10 -5 0 -10 5 -10 10 0 6 5 10 10 10 6 0 10 -4 10 -10z m280 -20 c-6 -11 -13
-20 -16 -20 -2 0 0 9 6 20 6 11 13 20 16 20 2 0 0 -9 -6 -20z m210 -20 c0 -5
-4 -10 -10 -10 -5 0 -10 5 -10 10 0 6 5 10 10 10 6 0 10 -4 10 -10z m-1678
-32 c-7 -7 -12 -8 -12 -2 0 14 12 26 19 19 2 -3 -1 -11 -7 -17z m348 -12 c0
-33 -31 -69 -53 -61 -26 11 -23 63 6 75 36 14 47 11 47 -14z m1340 -12 c0 -8
-4 -12 -10 -9 -5 3 -10 10 -10 16 0 5 5 9 10 9 6 0 10 -7 10 -16z m-667 -17
c18 -8 58 -12 90 -11 41 2 57 0 55 -8 -8 -24 -36 -33 -67 -21 -18 6 -33 7 -39
1 -13 -13 -112 2 -112 16 0 14 20 36 32 36 5 0 23 -6 41 -13z m367 -4 c0 -5
-4 -14 -9 -22 -11 -17 -32 -5 -24 14 5 15 33 21 33 8z m-555 -13 c3 -5 2 -10
-4 -10 -5 0 -13 5 -16 10 -3 6 -2 10 4 10 5 0 13 -4 16 -10z m415 -10 c0 -5
-5 -10 -11 -10 -5 0 -7 5 -4 10 3 6 8 10 11 10 2 0 4 -4 4 -10z m-1150 -22 c0
-19 -18 -43 -25 -36 -9 9 4 48 16 48 5 0 9 -6 9 -12z m1340 -277 c0 -6 -4 -13
-10 -16 -5 -3 -10 1 -10 9 0 9 5 16 10 16 6 0 10 -4 10 -9z M42110 2220 c-40
-11 -123 -56 -142 -76 -25 -28 -40 -71 -49 -139 -6 -51 -4 -65 16 -105 38 -76
39 -87 12 -143 -14 -29 -28 -59 -31 -67 -3 -8 -10 -22 -15 -30 -15 -24 -83
-192 -92 -225 -4 -16 -16 -55 -27 -85 -31 -83 -83 -312 -98 -425 -7 -55 -13
-148 -14 -207 0 -101 1 -108 22 -119 19 -10 24 -9 36 10 19 28 32 27 32 -3 0
-25 16 -36 56 -36 17 0 24 6 24 20 0 20 11 26 23 13 4 -3 2 -12 -5 -20 -24
-29 47 -54 89 -32 18 10 26 10 35 1 7 -7 23 -12 35 -12 13 0 36 -12 50 -26 23
-23 25 -31 20 -76 -4 -28 -9 -53 -13 -57 -8 -8 -123 -3 -200 9 -75 12 -107 3
-122 -37 -45 -118 -22 -131 261 -148 56 -3 116 -8 132 -10 17 -3 75 -7 130
-10 55 -3 132 -8 171 -11 67 -5 73 -4 88 17 20 29 20 52 1 89 -21 41 -40 49
-141 56 -49 3 -91 8 -93 10 -8 8 -10 104 -2 104 4 0 16 -9 26 -21 12 -13 29
-19 46 -17 16 1 36 -5 49 -17 31 -28 53 -10 63 51 12 71 21 77 129 78 51 1 98
0 104 -2 14 -4 -26 -164 -42 -169 -6 -2 -23 19 -38 47 -26 48 -55 70 -92 70
-36 0 -1 -131 52 -195 104 -127 162 -161 221 -130 55 30 153 213 153 287 0 50
-12 62 -45 45 -24 -13 -37 -29 -65 -85 -12 -24 -27 -41 -33 -39 -22 7 -37 52
-37 115 l0 62 43 1 c23 1 69 2 102 4 76 3 91 -5 106 -58 21 -72 57 -98 79 -56
8 14 15 17 23 11 7 -5 59 -9 117 -10 93 0 108 2 128 21 12 11 22 26 22 34 0 7
4 13 9 13 15 0 19 -112 6 -135 -12 -20 -87 -33 -285 -50 -72 -6 -124 -17 -137
-27 -22 -18 -16 -84 11 -115 l24 -27 163 18 c90 10 184 19 209 21 25 3 83 10
130 16 47 6 108 13 136 14 29 1 57 6 63 10 7 4 49 11 94 15 105 12 176 27 195
42 23 20 11 104 -20 135 -23 23 -28 24 -64 13 -21 -6 -70 -15 -109 -19 -38 -4
-91 -14 -117 -21 -26 -8 -49 -12 -51 -9 -3 2 -8 30 -12 62 l-7 58 69 -1 c67
-2 149 9 208 27 28 9 30 13 33 61 3 58 14 66 34 25 9 -20 21 -28 38 -28 34 0
36 31 11 131 -11 44 -23 111 -27 149 -3 39 -17 112 -30 164 -13 51 -24 113
-24 138 0 47 -73 286 -120 389 -15 33 -39 72 -53 87 -35 34 -34 52 2 73 16 9
45 45 66 80 32 56 37 73 41 144 l4 81 -43 47 c-24 26 -51 59 -60 74 -23 37
-73 57 -144 57 -50 0 -65 -5 -109 -35 -65 -44 -115 -120 -126 -191 -7 -47 -5
-62 18 -116 47 -113 43 -129 -25 -84 -176 116 -304 168 -461 185 -134 15 -270
1 -391 -39 -48 -16 -94 -29 -103 -29 -9 0 -39 -11 -66 -25 -47 -24 -90 -33
-90 -18 0 4 10 17 21 30 27 28 40 104 30 176 -9 64 -56 132 -107 153 -51 21
-107 31 -134 24z m59 -204 c19 -23 0 -80 -28 -84 -12 -2 -29 2 -36 8 -16 13
-17 58 -2 78 13 16 52 15 66 -2z m1512 -46 c23 -13 26 -62 5 -79 -22 -18 -70
-10 -74 12 -5 27 18 77 35 77 8 0 23 -5 34 -10z m-651 -210 c41 -12 79 -26 84
-30 12 -12 15 -142 3 -157 -5 -7 -20 -10 -36 -7 -51 10 -57 -19 -60 -283 -1
-24 -6 -43 -11 -43 -13 0 -64 34 -102 68 -44 40 -107 7 -109 -57 -1 -48 -53
-95 -94 -85 -38 9 -47 43 -47 164 -1 92 -3 110 -24 145 -18 32 -22 51 -19 95
2 30 4 78 4 106 1 78 21 96 112 103 128 11 220 5 299 -19z m90 -258 c0 -24 -1
-25 -16 -10 -10 9 -14 24 -10 33 9 23 26 9 26 -23z m200 -32 c0 -5 -4 -10 -10
-10 -5 0 -10 5 -10 10 0 6 5 10 10 10 6 0 10 -4 10 -10z m-200 -61 c0 -5 -4
-9 -10 -9 -5 0 -10 7 -10 16 0 8 5 12 10 9 6 -3 10 -10 10 -16z m-945 -68 c3
-5 1 -12 -5 -16 -5 -3 -10 1 -10 9 0 18 6 21 15 7z m943 -205 c3 -12 -1 -17
-10 -14 -7 3 -15 13 -16 22 -3 12 1 17 10 14 7 -3 15 -13 16 -22z m-1232 -41
c-21 -16 -32 -13 -21 4 3 6 14 11 23 11 15 -1 15 -2 -2 -15z m1198 -30 l33
-25 -2 -173 c-1 -94 2 -183 7 -196 12 -32 -1 -43 -54 -46 -24 -1 -50 -4 -58
-6 -11 -3 -14 4 -12 29 3 26 -1 34 -22 42 -42 16 -53 53 -50 165 1 55 4 111 5
125 1 14 -4 39 -12 57 -20 48 -3 62 72 58 44 -3 68 -11 93 -30z m-330 0 c2 -6
-1 -33 -7 -58 -9 -39 -8 -54 6 -81 24 -51 2 -125 -52 -175 -23 -21 -41 -45
-41 -54 0 -31 13 -47 36 -47 24 0 35 -19 12 -21 -39 -3 -202 1 -253 7 -131 14
-132 14 -120 33 4 7 46 10 116 7 69 -2 115 1 124 8 12 9 16 48 20 194 2 100 7
187 10 192 8 13 143 9 149 -5z m-659 -115 c-3 -5 -10 -10 -16 -10 -5 0 -9 5
-9 10 0 6 7 10 16 10 8 0 12 -4 9 -10z m375 -90 c0 -5 -7 -10 -15 -10 -8 0
-15 5 -15 10 0 6 7 10 15 10 8 0 15 -4 15 -10z m-312 -145 c10 -22 9 -25 -8
-25 -23 0 -32 13 -24 34 9 23 19 20 32 -9z m682 0 c0 -8 -4 -15 -10 -15 -5 0
-10 7 -10 15 0 8 5 15 10 15 6 0 10 -7 10 -15z m-640 -25 c0 -5 -2 -10 -4 -10
-3 0 -8 5 -11 10 -3 6 -1 10 4 10 6 0 11 -4 11 -10z m1520 1 c0 -6 -4 -13 -10
-16 -5 -3 -10 1 -10 9 0 9 5 16 10 16 6 0 10 -4 10 -9z m-1460 -11 c0 -5 -7
-10 -15 -10 -8 0 -15 5 -15 10 0 6 7 10 15 10 8 0 15 -4 15 -10z m60 -10 c0
-5 -6 -10 -14 -10 -8 0 -18 5 -21 10 -3 6 3 10 14 10 12 0 21 -4 21 -10z m532
-10 c12 -11 18 -23 14 -27 -10 -10 -116 -12 -116 -2 0 8 61 49 73 49 4 0 17
-9 29 -20z m-524 -167 c-5 -25 -28 -28 -28 -4 0 12 6 21 16 21 9 0 14 -7 12
-17z m-8 -233 c0 -5 -2 -10 -4 -10 -3 0 -8 5 -11 10 -3 6 -1 10 4 10 6 0 11
-4 11 -10z m126 -17 c-10 -10 -19 5 -10 18 6 11 8 11 12 0 2 -7 1 -15 -2 -18z
m1039 7 c3 -5 -1 -10 -9 -10 -9 0 -16 5 -16 10 0 6 4 10 9 10 6 0 13 -4 16
-10z m-115 -10 c0 -5 -4 -10 -10 -10 -5 0 -10 5 -10 10 0 6 5 10 10 10 6 0 10
-4 10 -10z M11190 2211 c-59 -12 -117 -49 -155 -97 -32 -43 -35 -53 -36 -118
-1 -39 -1 -76 0 -83 2 -16 28 -74 43 -94 8 -12 1 -35 -34 -110 -25 -52 -49
-105 -53 -119 -4 -14 -14 -34 -21 -45 -8 -11 -14 -29 -14 -40 0 -12 -7 -30
-15 -41 -8 -10 -15 -27 -15 -37 0 -11 -6 -33 -13 -50 -8 -18 -21 -57 -30 -87
-9 -30 -23 -78 -31 -107 -9 -28 -16 -63 -16 -77 0 -13 -5 -37 -12 -53 -18 -44
-30 -156 -31 -312 -2 -127 0 -145 15 -155 14 -8 23 -7 40 3 18 11 23 11 33 -2
18 -25 135 -62 156 -49 18 11 84 -1 104 -19 5 -5 21 -9 36 -9 39 0 43 -13 28
-81 -18 -81 -25 -85 -104 -65 -35 9 -96 16 -134 16 -63 0 -72 -3 -86 -23 -19
-30 -29 -107 -16 -127 11 -16 58 -22 306 -39 72 -5 159 -14 195 -19 90 -14
270 -15 287 -1 20 17 16 92 -7 121 -17 23 -29 26 -122 32 -56 4 -103 8 -104 9
-1 1 -3 40 -5 87 -4 73 -2 85 13 88 14 3 17 -6 20 -50 3 -51 4 -53 35 -56 17
-2 37 -10 43 -18 17 -19 47 -18 58 3 5 10 12 35 15 57 11 67 26 76 137 76 115
0 118 -3 89 -84 -10 -31 -19 -62 -19 -70 0 -19 -23 -33 -28 -18 -2 6 -19 31
-38 56 -25 33 -42 46 -60 46 -32 0 -38 -18 -24 -70 27 -100 174 -260 239 -260
41 0 88 48 129 130 6 14 16 32 21 40 42 70 51 153 19 174 -21 13 -54 -14 -74
-59 -7 -17 -22 -39 -34 -50 -18 -16 -23 -17 -30 -5 -6 8 -10 37 -10 63 0 27
-5 57 -10 67 -13 25 13 40 72 40 24 1 63 5 87 9 25 5 50 7 56 5 13 -5 45 -68
45 -88 0 -7 9 -21 19 -30 21 -19 54 -10 65 19 8 21 23 19 29 -5 6 -24 29 -26
47 -5 11 13 15 13 29 2 11 -9 36 -12 78 -9 61 4 63 5 71 35 4 17 13 32 20 35
13 4 20 -22 24 -88 4 -68 -7 -72 -301 -98 -86 -7 -96 -10 -118 -37 -20 -23
-24 -36 -19 -64 9 -56 23 -64 116 -62 46 1 88 5 94 8 11 7 140 22 231 27 28 2
66 6 85 11 19 4 55 9 80 11 25 2 74 7 110 13 175 26 218 32 255 36 56 6 89 45
80 94 -4 20 -16 47 -28 59 -24 26 -54 26 -192 2 -153 -28 -175 -24 -175 30 0
32 31 48 93 48 26 0 46 7 61 21 21 19 24 20 36 6 12 -14 15 -14 35 5 12 11 32
19 45 18 19 -2 28 5 43 37 19 38 20 39 30 17 9 -20 45 -31 58 -17 5 5 -4 80
-21 170 -5 28 -16 93 -24 145 -9 52 -20 118 -26 145 -5 28 -13 68 -16 90 -3
22 -12 58 -19 80 -7 22 -19 67 -25 100 -27 133 -81 263 -136 328 -31 37 -30
61 1 81 14 9 33 33 42 51 9 19 21 35 25 35 5 0 16 17 25 38 12 28 14 55 9 115
-6 74 -10 83 -49 131 -93 115 -180 143 -283 91 -31 -16 -63 -40 -72 -54 -8
-14 -26 -37 -39 -51 -16 -19 -26 -47 -33 -102 -10 -70 -9 -79 11 -119 12 -24
29 -52 37 -61 17 -20 10 -48 -12 -48 -9 0 -30 13 -48 29 -18 15 -43 31 -54 35
-12 4 -29 15 -39 26 -10 11 -25 20 -34 20 -9 0 -26 7 -38 15 -12 9 -69 31
-125 49 -144 47 -307 57 -423 27 -43 -12 -89 -21 -101 -21 -12 0 -41 -9 -65
-20 -24 -11 -54 -20 -65 -20 -12 0 -27 -6 -33 -14 -7 -8 -27 -18 -44 -21 -18
-4 -39 -14 -49 -22 -26 -23 -32 3 -10 40 25 44 34 114 21 184 -13 71 -58 123
-138 159 -29 13 -54 23 -55 23 0 -1 -17 -4 -36 -8z m46 -216 c14 -21 14 -30 4
-56 -16 -37 -44 -36 -67 3 -15 24 -15 28 0 52 22 33 42 33 63 1z m1529 -44
c25 -50 -8 -91 -56 -68 -33 17 -37 60 -7 81 32 23 45 20 63 -13z m-655 -109
c0 -13 -12 -22 -22 -16 -10 6 -1 24 13 24 5 0 9 -4 9 -8z m-22 -86 c17 -9 48
-20 69 -24 l38 -8 -3 -65 c-5 -94 -7 -99 -50 -96 -35 2 -36 1 -44 -43 -5 -25
-6 -89 -3 -142 9 -141 -11 -169 -76 -104 -47 47 -79 54 -113 24 -16 -14 -28
-36 -30 -56 -5 -45 -41 -82 -81 -82 -30 0 -34 4 -52 53 -12 31 -18 65 -16 85
8 54 -7 161 -25 179 -14 14 -17 38 -17 140 0 116 1 124 20 128 158 37 324 42
383 11z m112 -356 c0 -27 -4 -50 -10 -50 -11 0 -13 42 -4 78 10 35 14 26 14
-28z m-20 -270 c0 -19 -11 -26 -23 -14 -8 8 3 34 14 34 5 0 9 -9 9 -20z m-28
-71 c23 -15 39 -35 44 -53 3 -16 5 -102 3 -190 -4 -159 -4 -160 19 -172 23
-11 22 -11 -9 -18 -17 -3 -51 -6 -75 -6 -35 0 -46 4 -55 23 -6 12 -24 36 -40
52 -27 29 -29 35 -31 140 -1 61 2 123 6 138 7 22 4 33 -14 52 -21 23 -22 26
-7 48 14 21 20 23 69 17 30 -4 69 -17 90 -31z m-320 2 c4 -4 3 -22 -2 -41 -14
-50 -12 -86 6 -101 29 -24 -8 -134 -61 -180 -37 -33 -46 -74 -23 -97 7 -7 36
-12 66 -12 51 0 54 1 68 35 7 19 14 52 14 74 0 42 14 62 24 35 3 -9 6 -44 6
-79 0 -50 4 -66 18 -75 28 -18 -376 -8 -408 10 -15 8 -58 15 -105 16 -122 2
-121 2 -106 17 9 9 53 11 165 9 116 -2 156 1 164 10 6 8 12 84 14 192 4 209 4
210 97 200 31 -4 59 -10 63 -13z m-282 -195 c0 -11 -19 -15 -25 -6 -3 5 1 10
9 10 9 0 16 -2 16 -4z m-310 -96 c0 -33 0 -63 0 -67 0 -5 -4 -9 -8 -11 -5 -1
-9 29 -10 68 -1 42 2 70 8 70 6 0 10 -26 10 -60z m-110 -86 c0 -8 -4 -12 -10
-9 -5 3 -10 10 -10 16 0 5 5 9 10 9 6 0 10 -7 10 -16z m-184 -101 c-11 -11
-19 6 -11 24 8 17 8 17 12 0 3 -10 2 -21 -1 -24z m564 -89 c0 -8 -4 -12 -10
-9 -5 3 -10 10 -10 16 0 5 5 9 10 9 6 0 10 -7 10 -16z m1119 -111 c0 -5 -3 -9
-9 -11 -5 -2 -10 4 -10 13 0 16 16 14 19 -2z m281 -88 c0 -8 -4 -15 -10 -15
-5 0 -10 7 -10 15 0 8 5 15 10 15 6 0 10 -7 10 -15z m-1969 -28 c-13 -13 -26
-3 -16 12 3 6 11 8 17 5 6 -4 6 -10 -1 -17z m1389 -42 c0 -8 -4 -15 -10 -15
-5 0 -10 7 -10 15 0 8 5 15 10 15 6 0 10 -7 10 -15z M24561 2204 c-15 -11 -35
-15 -61 -11 -22 3 -46 0 -54 -7 -23 -16 -36 -102 -36 -230 0 -61 -7 -152 -15
-202 -8 -49 -14 -139 -14 -200 2 -174 -28 -334 -62 -334 -7 0 -9 -12 -5 -32
15 -73 17 -104 7 -130 -6 -16 -15 -28 -20 -28 -20 0 -42 98 -41 181 1 46 -1
136 -4 199 -3 63 -8 169 -11 235 -3 66 -7 170 -10 230 -3 61 -5 151 -4 200 0
76 -2 93 -18 107 -46 40 -146 28 -194 -23 l-28 -30 -18 28 c-24 38 -44 52 -70
53 -32 0 -40 -40 -19 -93 9 -24 16 -63 16 -87 1 -25 7 -56 15 -70 8 -14 14
-46 15 -71 0 -26 7 -60 15 -75 8 -16 15 -41 15 -57 0 -29 34 -91 66 -119 11
-9 35 -23 54 -30 19 -8 41 -22 49 -32 19 -23 33 -88 37 -176 5 -112 22 -292
29 -316 5 -17 -1 -27 -28 -48 -40 -31 -66 -33 -98 -7 -13 10 -39 26 -57 35
-18 9 -37 27 -41 39 -9 25 4 71 31 106 29 38 23 74 -17 110 -20 17 -42 31 -50
31 -8 0 -31 8 -51 17 -34 17 -37 17 -48 0 -7 -9 -16 -55 -20 -102 -5 -71 -3
-94 12 -133 38 -94 41 -116 36 -207 -5 -67 -13 -104 -32 -145 -26 -57 -31 -97
-18 -140 7 -26 -16 -68 -114 -200 -112 -150 -122 -185 -71 -234 38 -36 137
-49 165 -21 30 30 17 57 -34 69 -69 17 -67 43 14 146 37 46 66 87 66 92 0 15
28 8 34 -8 3 -9 6 -73 6 -144 0 -126 0 -129 26 -149 35 -28 57 -33 88 -22 34
13 33 33 -4 84 l-30 42 10 105 c5 58 9 120 10 137 0 27 6 35 33 47 17 7 43 25
56 39 21 23 23 33 18 76 -3 28 -13 62 -23 75 -15 24 -15 26 2 32 11 3 45 17
78 30 54 23 60 23 76 9 12 -11 20 -38 24 -83 3 -37 9 -93 12 -124 6 -64 10
-61 -86 -72 -44 -5 -80 -32 -80 -60 0 -27 28 -49 59 -48 39 1 49 -19 27 -54
-10 -13 -14 -33 -11 -43 3 -11 -9 -47 -31 -90 -36 -68 -37 -71 -20 -90 23 -26
114 -35 226 -24 l85 8 -3 50 c-3 33 -10 55 -22 65 -12 9 -20 33 -23 65 -3 28
-7 61 -9 75 -3 22 1 25 40 31 57 7 76 27 67 68 -8 37 -35 51 -96 51 -24 0 -42
5 -45 13 -3 8 11 109 31 224 19 116 35 214 35 217 0 3 7 6 15 6 8 0 15 -5 15
-10 0 -6 13 -16 28 -23 23 -10 67 -53 152 -150 4 -5 38 -12 75 -17 111 -14
108 -28 -22 -119 -36 -25 -55 -48 -76 -91 -15 -32 -27 -65 -27 -73 0 -8 25
-30 55 -48 63 -39 68 -59 31 -123 -13 -23 -26 -53 -30 -68 -8 -35 -32 -58 -61
-58 -31 0 -70 -47 -54 -66 14 -17 68 -18 123 -2 58 16 76 35 76 77 0 20 14 70
30 111 41 99 90 138 90 72 0 -15 11 -49 25 -76 13 -27 22 -53 19 -58 -3 -5
-21 -15 -40 -23 -30 -12 -35 -19 -32 -42 3 -27 5 -28 68 -31 55 -2 69 1 92 20
l28 23 -29 67 c-16 38 -25 70 -20 74 13 7 29 -4 29 -22 0 -19 24 -18 40 2 8 8
27 22 44 30 59 28 80 43 92 66 9 17 21 23 46 23 26 0 34 4 36 21 2 12 -37 94
-93 195 -114 205 -118 220 -77 235 17 7 42 9 56 7 14 -3 32 0 40 6 8 7 25 9
38 6 50 -13 103 30 64 52 -7 4 -54 58 -104 118 -49 61 -111 129 -138 153 -45
40 -52 43 -88 37 -92 -14 -127 -57 -107 -133 6 -23 11 -62 11 -86 0 -36 -5
-48 -26 -65 -54 -42 -104 -24 -198 70 -39 39 -88 78 -108 86 -23 9 -40 24 -43
37 -7 28 40 313 55 331 6 8 25 17 41 20 68 15 89 35 126 114 38 82 145 484
136 509 -5 11 -18 13 -62 8 -31 -4 -65 -13 -76 -20 -19 -12 -23 -12 -33 5 -15
23 -40 24 -71 3z m-525 -110 c8 -31 -6 -86 -24 -92 -8 -2 -12 9 -12 35 0 75
23 111 36 57z m497 -56 c-6 -56 -22 -106 -35 -114 -15 -9 -5 91 13 129 18 40
28 33 22 -15z m-375 -56 c2 -7 -3 -12 -12 -12 -9 0 -16 7 -16 16 0 17 22 14
28 -4z m-100 -86 c2 -9 -2 -24 -9 -32 -10 -13 -14 -13 -20 -1 -11 18 1 59 15
54 6 -2 12 -11 14 -21z m112 -151 c0 -8 -7 -15 -15 -15 -8 0 -15 7 -15 15 0 8
7 15 15 15 8 0 15 -7 15 -15z m350 -661 c0 -17 -22 -14 -28 4 -2 7 3 12 12 12
9 0 16 -7 16 -16z m150 -149 c0 -16 -9 -19 -34 -9 -25 9 -19 24 9 24 16 0 25
-6 25 -15z m-360 -414 c0 -34 -12 -81 -21 -81 -10 0 -12 44 -3 78 8 27 24 29
24 3z m615 -91 c3 -5 2 -10 -4 -10 -5 0 -13 5 -16 10 -3 6 -2 10 4 10 5 0 13
-4 16 -10z M30364 2195 c-11 -17 -25 -25 -44 -25 -16 0 -35 -6 -42 -13 -7 -8
-33 -16 -57 -20 -24 -3 -48 -10 -53 -15 -11 -11 7 -92 33 -147 10 -22 19 -49
19 -60 0 -11 11 -41 25 -67 14 -26 25 -58 25 -72 0 -14 9 -40 20 -58 11 -18
20 -42 20 -53 0 -11 11 -44 25 -73 14 -30 25 -64 25 -76 0 -11 11 -42 25 -68
14 -26 25 -58 25 -71 0 -13 11 -45 25 -71 14 -26 30 -68 35 -93 6 -25 29 -76
51 -114 40 -66 44 -94 13 -82 -16 6 -64 -33 -64 -52 0 -23 -87 -94 -122 -99
-56 -9 -123 7 -156 38 -58 52 -66 116 -48 382 10 141 3 166 -35 128 -32 -33
-52 -137 -52 -274 0 -166 8 -203 57 -275 22 -33 42 -73 43 -90 5 -68 12 -123
22 -175 6 -30 14 -76 19 -102 10 -53 38 -101 55 -95 15 5 15 3 -7 195 -14 116
-16 166 -9 173 6 6 42 12 79 14 38 1 81 5 95 9 26 8 27 7 19 -31 -10 -52 -29
-92 -62 -131 -15 -18 -28 -38 -28 -44 0 -7 -10 -22 -22 -35 -18 -19 -20 -28
-12 -41 6 -9 20 -19 30 -21 10 -1 26 -9 34 -16 8 -7 35 -19 60 -26 25 -7 58
-22 74 -34 27 -19 28 -23 22 -76 -3 -32 -11 -69 -18 -83 -10 -23 -17 -26 -53
-25 -23 2 -47 -1 -53 -5 -16 -10 -15 -73 1 -79 18 -7 96 8 139 27 50 22 61 46
59 135 -1 103 27 281 44 274 7 -2 16 -16 20 -31 9 -37 74 -121 108 -138 32
-17 35 -40 6 -63 -18 -15 -20 -21 -10 -39 6 -12 21 -22 32 -22 34 0 99 42 105
67 7 27 21 29 43 8 42 -40 83 -67 94 -62 6 2 23 39 36 81 14 42 28 79 33 82 4
3 8 16 8 29 0 13 5 27 10 30 6 3 10 18 10 33 0 15 7 40 15 56 33 64 27 68
-220 151 -167 57 -175 61 -175 83 0 39 131 146 172 140 20 -3 24 -10 28 -53 7
-59 34 -115 56 -115 13 0 15 12 13 74 -2 41 0 78 3 82 8 7 46 -22 170 -126 45
-38 81 -38 86 -1 3 20 -9 37 -59 83 -35 32 -66 58 -70 58 -3 0 -20 12 -37 28
-61 54 -90 71 -130 78 -43 7 -76 -7 -200 -86 -37 -24 -56 -30 -63 -23 -8 8 -2
19 21 39 39 35 55 72 62 144 10 93 81 316 139 436 44 91 47 127 12 132 -12 2
-33 19 -48 38 -14 19 -34 34 -44 34 -10 0 -26 9 -36 20 -10 11 -26 20 -35 20
-10 0 -25 11 -34 24 -8 14 -26 26 -38 28 -14 2 -24 12 -28 28 -6 26 -34 32
-74 15 -17 -7 -18 -5 -12 19 3 14 2 36 -5 47 -10 20 -120 79 -146 79 -8 0 -13
12 -13 29 0 16 -7 45 -15 65 -18 43 -47 48 -71 11z m156 -1345 c0 -5 -7 -10
-16 -10 -8 0 -12 5 -9 10 3 6 10 10 16 10 5 0 9 -4 9 -10z m215 -260 c17 -34
19 -50 5 -50 -10 0 -40 52 -40 70 0 20 20 9 35 -20z M29304 2196 c-3 -9 -3
-50 0 -92 l7 -76 -43 7 c-24 4 -65 16 -91 26 -79 31 -85 22 -127 -176 -12 -55
-25 -116 -30 -135 -6 -19 -14 -57 -20 -85 -5 -27 -16 -79 -24 -115 -8 -36 -22
-98 -30 -138 -8 -40 -18 -76 -21 -81 -3 -5 -7 -22 -9 -38 -2 -15 -9 -50 -16
-78 -7 -27 -14 -59 -15 -70 -2 -11 -13 -58 -25 -105 -12 -47 -28 -116 -35
-155 -8 -38 -19 -88 -24 -110 -14 -56 -32 -136 -36 -160 -3 -20 -16 -79 -35
-160 -26 -111 -22 -195 11 -195 12 0 31 39 41 85 5 22 13 58 18 80 10 45 30
142 54 255 9 41 20 95 26 120 6 25 12 56 13 69 3 40 31 49 80 25 66 -33 165
-60 200 -55 13 2 18 -3 15 -16 -2 -10 -26 -29 -59 -45 -70 -33 -230 -199 -255
-264 -18 -48 -9 -74 27 -74 12 0 19 -7 19 -20 0 -25 35 -44 70 -36 24 4 28 2
33 -22 2 -15 8 -35 12 -44 6 -15 2 -18 -28 -18 -33 0 -67 -20 -67 -39 0 -4 9
-16 19 -25 14 -13 37 -18 81 -18 70 0 101 16 126 65 16 30 23 52 44 137 16 64
41 125 57 138 31 23 43 14 43 -29 0 -46 22 -124 51 -181 24 -47 24 -64 -1 -71
-30 -8 -26 -51 5 -65 36 -17 71 -15 102 5 26 17 26 17 67 -30 23 -26 46 -47
53 -47 6 0 26 24 43 53 18 28 56 77 85 107 29 30 63 74 75 98 26 50 21 63 -54
127 -26 22 -74 66 -107 98 -32 31 -63 57 -69 57 -15 0 -90 70 -90 84 0 22 135
66 201 66 l31 0 -7 -88 c-6 -74 -5 -90 9 -101 26 -22 44 -5 56 54 7 31 18 59
26 62 20 7 36 -16 86 -119 23 -48 47 -90 55 -92 19 -8 41 3 48 24 11 35 -56
170 -141 283 -61 81 -69 88 -96 85 -23 -4 -28 -2 -22 11 4 9 8 28 9 43 2 14 6
49 10 76 4 32 3 52 -4 57 -16 9 -13 42 4 49 23 8 19 53 -5 61 -11 3 -20 10
-20 15 0 5 37 39 82 77 141 118 178 155 178 177 0 27 -18 46 -43 46 -13 0 -17
5 -13 18 7 20 -3 36 -26 45 -11 4 -18 17 -18 31 0 15 -8 30 -20 36 -11 6 -20
19 -20 30 0 22 -31 72 -91 148 -29 37 -48 52 -65 52 -21 0 -24 5 -24 35 0 27
-7 39 -31 57 -30 23 -30 23 -26 101 4 54 1 80 -6 82 -7 2 -48 7 -92 10 -44 3
-104 8 -132 11 -43 5 -54 4 -59 -10z m10 -251 c4 -14 5 -29 2 -33 -4 -7 18
-302 29 -376 3 -23 8 -59 10 -81 2 -22 6 -59 10 -83 6 -32 2 -60 -16 -115 -19
-57 -23 -90 -21 -161 l2 -88 -29 5 c-21 4 -37 0 -55 -14 l-26 -20 0 21 c0 11
-7 35 -16 52 -15 28 -14 31 5 52 27 29 19 93 -12 98 -11 2 -22 9 -25 17 -3 10
3 12 27 6 17 -4 32 -3 32 2 7 40 5 72 -3 94 -7 20 -5 35 7 59 16 31 16 34 -6
63 l-22 30 21 18 c35 28 27 84 -14 100 -35 13 -29 29 9 27 l32 -3 1 55 c0 30
4 67 8 83 5 17 4 39 -4 58 -11 27 -10 32 10 54 22 23 22 25 6 50 -14 21 -15
29 -5 41 18 22 36 17 43 -11z m-100 -211 c22 -9 20 -24 -3 -24 -21 0 -34 13
-24 24 8 7 8 7 27 0z m499 -176 c42 -57 41 -64 -2 -23 -22 21 -41 43 -41 47 0
18 20 6 43 -24z m-533 -88 c0 -5 -4 -10 -9 -10 -6 0 -13 5 -16 10 -3 6 1 10 9
10 9 0 16 -4 16 -10z m8 -118 c3 -9 -2 -13 -14 -10 -9 1 -19 9 -22 16 -3 9 2
13 14 10 9 -1 19 -9 22 -16z m-48 -132 c0 -5 -4 -10 -10 -10 -5 0 -10 5 -10
10 0 6 5 10 10 10 6 0 10 -4 10 -10z m368 -102 c-3 -7 -8 -13 -13 -13 -5 0
-10 6 -12 13 -3 6 3 12 12 12 9 0 15 -6 13 -12z m-350 -26 c3 -9 -2 -13 -14
-10 -9 1 -19 9 -22 16 -3 9 2 13 14 10 9 -1 19 -9 22 -16z m-142 -71 c8 -9 44
-20 124 -38 14 -3 34 -12 44 -19 18 -13 18 -14 -10 -24 -37 -15 -108 -5 -151
20 -19 11 -42 20 -52 20 -20 0 -41 19 -41 37 0 15 71 18 86 4z m94 -655 c0
-16 -14 -36 -26 -36 -14 0 -19 22 -7 33 7 8 33 10 33 3z M39373 2203 c-18 -7
-17 -28 18 -218 31 -170 48 -248 67 -296 11 -28 63 -72 128 -110 41 -23 42
-24 47 -89 3 -36 10 -114 16 -175 23 -253 23 -263 -7 -290 -15 -14 -39 -25
-53 -25 -30 0 -159 93 -159 114 0 7 11 29 24 49 45 67 48 75 36 113 -13 38
-34 52 -123 79 -41 13 -61 15 -69 7 -6 -6 -10 -49 -10 -99 1 -69 7 -104 27
-163 24 -68 26 -83 19 -155 -4 -44 -8 -96 -8 -115 -1 -20 -14 -57 -30 -83 -26
-45 -27 -51 -16 -96 11 -48 11 -49 -36 -122 -26 -41 -67 -100 -91 -131 -71
-93 -90 -159 -58 -204 16 -24 100 -39 154 -28 54 11 50 74 -6 74 -33 0 -63 17
-63 36 0 17 149 234 161 234 12 0 16 -64 10 -161 -6 -94 3 -157 24 -178 6 -6
32 -14 57 -17 40 -6 47 -4 57 14 9 16 5 26 -19 57 -36 46 -39 68 -25 249 6 89
9 96 34 96 30 0 91 63 91 92 0 30 -33 113 -49 122 -6 4 -11 14 -11 23 0 11 6
14 23 8 34 -10 79 -6 104 10 54 36 68 17 83 -109 6 -55 16 -110 20 -122 12
-30 0 -37 -56 -36 -24 1 -59 -5 -79 -14 -34 -14 -36 -17 -33 -57 l3 -42 42 0
c23 -1 45 -4 49 -7 3 -4 -3 -23 -15 -42 -15 -23 -20 -43 -16 -59 5 -18 -2 -36
-25 -68 -26 -36 -31 -51 -26 -78 3 -19 11 -38 18 -43 20 -12 256 -10 280 3 17
9 19 17 14 52 -4 22 -15 57 -26 76 -10 20 -21 56 -24 81 -3 25 -6 54 -8 65 -3
18 2 20 43 17 40 -3 49 0 63 19 21 30 20 42 -2 69 -18 22 -30 25 -121 29 -19
1 -22 5 -17 24 11 36 28 120 32 152 15 135 48 275 64 275 20 0 109 -82 139
-129 19 -28 42 -56 52 -61 10 -6 49 -10 88 -10 55 0 71 -3 71 -14 0 -21 -58
-76 -79 -76 -18 0 -99 -79 -119 -116 -16 -30 -19 -106 -4 -111 7 -3 26 10 42
27 17 18 33 30 37 26 3 -3 -2 -15 -12 -26 -21 -23 -14 -50 16 -57 21 -6 21 -8
-2 -73 -43 -122 -44 -124 -98 -150 -55 -27 -71 -51 -50 -77 11 -12 26 -14 73
-9 68 7 104 26 110 59 2 12 10 49 17 81 21 98 109 203 109 131 0 -14 7 -36 14
-48 8 -12 18 -41 22 -63 6 -41 6 -41 -30 -48 -29 -6 -36 -11 -36 -30 0 -38 23
-49 87 -43 82 8 105 16 99 36 -3 9 -8 30 -12 46 -4 17 -16 42 -27 56 -10 15
-17 34 -15 44 3 15 5 15 30 -4 14 -12 31 -21 36 -21 6 0 29 17 52 37 23 21 52
38 64 38 12 0 25 9 31 22 6 15 22 24 47 28 21 4 40 10 43 15 6 9 -70 161 -102
207 -13 17 -23 38 -23 46 0 8 -16 38 -35 66 -19 28 -35 59 -35 69 0 27 31 52
66 51 65 -1 164 29 164 50 0 23 -251 296 -292 317 -37 19 -67 18 -104 -5 -44
-27 -57 -72 -45 -150 6 -37 6 -72 1 -85 -12 -32 -74 -69 -100 -61 -11 4 -59
43 -107 87 -48 44 -104 92 -126 106 -34 23 -38 29 -33 56 3 17 13 87 22 156
18 133 35 170 78 170 57 0 120 78 146 180 6 25 16 59 21 77 6 18 12 41 14 52
6 34 35 145 46 176 6 17 11 41 13 55 1 14 6 35 10 47 6 19 3 25 -19 33 -42 16
-66 12 -91 -16 -26 -27 -44 -25 -44 7 0 28 -42 25 -78 -6 -35 -29 -45 -31 -62
-10 -7 8 -20 15 -30 15 -34 0 -47 -32 -54 -135 -4 -55 -9 -120 -11 -145 -2
-25 -6 -85 -10 -135 -35 -511 -32 -485 -61 -527 -26 -37 -27 -41 -16 -89 16
-66 15 -104 -1 -118 -11 -8 -19 -5 -34 12 -19 20 -21 40 -28 262 -4 132 -9
283 -10 335 -2 52 -7 190 -11 305 -8 255 -6 250 -109 240 -93 -10 -104 -16
-101 -62 1 -21 5 -44 10 -51 10 -17 -8 -37 -24 -27 -6 4 -9 13 -6 21 3 7 -2
28 -11 46 -9 18 -19 40 -23 48 -9 20 -62 49 -77 43z m637 -107 c0 -3 -4 -8
-10 -11 -5 -3 -10 -1 -10 4 0 6 5 11 10 11 6 0 10 -2 10 -4z m120 0 c0 -3 -4
-8 -10 -11 -5 -3 -10 -1 -10 4 0 6 5 11 10 11 6 0 10 -2 10 -4z m-131 -73 c0
-5 -3 -9 -9 -11 -5 -2 -10 4 -10 13 0 16 16 14 19 -2z m-479 -19 c0 -8 -4 -14
-10 -14 -5 0 -10 9 -10 21 0 11 5 17 10 14 6 -3 10 -13 10 -21z m280 -1014 c0
-19 -11 -26 -23 -14 -8 8 3 34 14 34 5 0 9 -9 9 -20z m304 -41 c28 -22 34 -39
14 -39 -14 0 -58 40 -58 52 0 14 16 9 44 -13z m-514 -39 c0 -5 -4 -10 -10 -10
-5 0 -10 5 -10 10 0 6 5 10 10 10 6 0 10 -4 10 -10z m176 -407 c-10 -10 -19 5
-10 18 6 11 8 11 12 0 2 -7 1 -15 -2 -18z M25525 2191 c-98 -25 -151 -104
-149 -222 0 -53 6 -75 26 -110 52 -87 49 -85 100 -61 24 12 49 22 54 22 5 0
19 -18 32 -40 13 -24 38 -48 62 -60 21 -11 42 -24 45 -30 4 -6 8 -74 11 -153
3 -78 8 -145 12 -148 4 -4 30 -9 58 -12 37 -4 57 -2 73 9 27 19 61 85 61 119
0 14 6 28 14 31 8 3 24 25 35 50 20 42 23 44 69 46 26 1 67 3 92 4 51 2 100
19 100 34 0 12 -13 37 -58 107 -21 34 -35 71 -39 103 -8 65 -23 78 -66 55 -44
-23 -81 -17 -85 14 -4 25 -95 196 -116 219 -7 7 -38 16 -69 19 -55 6 -57 5
-67 -23 -6 -16 -8 -39 -3 -54 4 -14 8 -41 9 -60 1 -19 5 -74 8 -122 7 -87 6
-88 -16 -88 -13 0 -29 9 -35 19 -20 31 -26 115 -14 168 13 54 8 71 -39 130
-28 35 -60 45 -105 34z M14835 2150 c-44 -21 -92 -42 -107 -45 -14 -3 -29 -12
-31 -20 -7 -17 59 -222 136 -420 9 -22 32 -87 52 -145 20 -58 45 -130 57 -160
11 -30 28 -77 38 -105 43 -119 65 -172 83 -196 26 -36 19 -73 -13 -77 -19 -2
-32 -16 -53 -56 -30 -56 -64 -79 -137 -91 -47 -8 -138 38 -160 80 -39 76 -42
121 -21 310 10 86 6 161 -8 170 -26 15 -62 -63 -73 -160 -23 -189 -6 -308 55
-397 35 -51 41 -67 43 -121 4 -120 51 -328 76 -343 25 -16 28 18 13 137 -8 68
-15 149 -15 181 0 56 1 58 28 59 15 0 62 3 104 5 l77 4 -16 -48 c-9 -26 -33
-70 -54 -97 -64 -86 -80 -145 -39 -145 11 0 24 -9 30 -19 13 -26 71 -44 126
-39 l44 3 -6 -75 c-4 -41 -13 -90 -20 -108 -12 -31 -16 -33 -45 -27 -22 5 -36
2 -50 -11 -19 -17 -26 -68 -11 -78 10 -6 139 26 170 43 26 14 23 5 27 106 4
134 17 269 26 287 14 26 29 22 29 -8 0 -31 27 -70 99 -141 53 -51 54 -53 37
-72 -26 -29 -13 -61 26 -61 22 0 41 11 71 40 44 45 36 45 111 -14 51 -40 70
-30 62 33 -5 38 -3 50 8 54 18 7 66 106 66 136 0 12 7 38 15 58 8 19 15 43 15
53 0 24 -61 59 -122 70 -27 5 -68 21 -92 35 -23 14 -56 25 -72 25 -33 0 -103
30 -121 51 -12 15 3 34 100 127 41 39 84 44 92 10 3 -13 11 -50 18 -83 9 -44
17 -61 31 -63 10 -2 23 2 28 10 8 12 4 80 -8 121 -14 46 78 -8 166 -97 49 -51
82 -59 101 -25 10 19 3 29 -62 96 -97 97 -201 163 -259 163 -42 0 -109 -30
-155 -70 -23 -20 -85 -34 -85 -20 0 6 6 10 14 10 24 0 63 72 69 130 10 85 24
151 41 195 8 22 15 52 16 66 0 15 13 52 30 83 34 66 80 189 80 216 0 23 -86
101 -137 125 -21 10 -63 42 -94 71 -56 53 -95 72 -124 60 -11 -4 -17 3 -22 25
-4 19 -14 34 -29 39 -12 5 -28 18 -34 30 -6 11 -21 20 -34 20 -31 0 -66 40
-66 77 0 28 -26 63 -46 63 -5 -1 -45 -18 -89 -40z m435 -630 c0 -5 -2 -10 -4
-10 -3 0 -8 5 -11 10 -3 6 -1 10 4 10 6 0 11 -4 11 -10z m46 -1027 c-7 -7 -26
7 -26 19 0 6 6 6 15 -2 9 -7 13 -15 11 -17z M8446 2164 c-10 -27 -7 -73 9
-111 8 -19 15 -55 15 -80 0 -24 5 -54 11 -66 7 -11 15 -51 19 -88 5 -44 19
-91 43 -141 33 -67 40 -76 86 -98 85 -39 82 -31 104 -306 18 -233 19 -246 2
-264 -10 -11 -32 -22 -50 -26 -27 -5 -42 1 -81 28 -27 19 -57 37 -66 41 -25 9
-23 28 13 97 28 55 29 64 19 96 -7 19 -22 42 -35 50 -37 24 -120 53 -132 46
-37 -24 -40 -166 -4 -243 41 -91 21 -363 -29 -394 -13 -8 -13 -58 1 -87 12
-28 -5 -72 -56 -138 -19 -25 -43 -56 -52 -70 -10 -14 -23 -29 -30 -33 -28 -17
-64 -110 -61 -156 3 -42 6 -46 48 -67 41 -21 49 -21 95 -10 42 11 50 17 50 37
0 20 -8 27 -47 39 -41 13 -48 19 -48 41 0 15 13 41 33 62 53 60 87 104 87 116
0 5 9 15 20 21 17 9 22 7 30 -15 6 -15 8 -30 6 -34 -3 -4 -7 -56 -10 -116 l-5
-108 31 -29 c45 -42 118 -36 118 10 0 8 -14 30 -31 50 l-32 36 8 110 c5 61 9
127 10 146 2 28 7 36 26 40 13 3 39 16 57 29 43 33 44 83 1 159 -20 35 -27 58
-21 64 6 6 12 6 16 -1 10 -16 60 -14 103 4 19 8 41 15 48 15 19 0 36 -51 40
-121 2 -35 11 -85 19 -111 16 -52 11 -62 -29 -52 -33 8 -109 -13 -130 -36 -9
-10 -15 -29 -13 -42 2 -19 11 -24 43 -28 39 -5 40 -6 37 -40 -1 -19 -3 -51 -3
-70 0 -24 -8 -44 -26 -62 -18 -19 -27 -41 -30 -75 l-5 -48 39 -11 c21 -5 70
-9 108 -7 39 2 90 5 115 6 44 2 45 2 48 40 2 24 -4 49 -16 70 -14 22 -21 55
-24 107 l-3 75 35 3 c46 5 60 18 60 58 0 46 -34 68 -89 59 -21 -3 -41 -3 -44
2 -3 4 -1 31 4 58 5 28 18 100 29 160 41 236 44 243 78 212 10 -9 22 -17 27
-17 9 0 105 -102 105 -112 0 -3 17 -17 37 -29 27 -17 53 -23 93 -24 49 0 55
-2 52 -20 -5 -29 -32 -55 -73 -72 -57 -22 -129 -122 -129 -178 0 -18 8 -29 26
-37 15 -7 40 -25 57 -41 26 -24 28 -31 18 -50 -6 -12 -22 -51 -34 -86 -20 -57
-26 -64 -60 -76 -62 -21 -88 -57 -63 -90 9 -12 18 -13 46 -5 19 5 52 10 73 10
31 0 40 5 57 33 12 19 18 42 15 57 -6 28 81 212 102 218 7 2 15 -9 18 -25 4
-15 15 -52 26 -81 26 -74 25 -89 -10 -97 -56 -12 -66 -54 -18 -76 18 -8 37 -7
79 6 72 21 87 37 66 73 -21 36 -41 110 -32 123 4 7 15 0 29 -17 l23 -28 37 19
c25 14 38 29 42 48 5 24 9 28 31 22 16 -4 31 0 42 10 10 9 34 24 52 33 42 21
47 47 15 80 -13 15 -30 44 -37 65 -6 21 -22 50 -34 65 -13 15 -29 44 -35 64
-7 20 -26 54 -42 74 -49 61 -40 73 76 101 113 27 137 42 114 70 -9 10 -46 54
-83 98 -37 44 -81 95 -97 112 -16 18 -29 36 -29 40 0 9 -48 39 -92 59 -20 9
-37 10 -63 3 -30 -9 -40 -19 -57 -55 -19 -43 -19 -48 -3 -117 l16 -72 -35 -32
c-62 -57 -101 -44 -216 72 -41 41 -80 75 -87 75 -7 0 -20 11 -29 25 -15 23
-15 35 1 168 9 78 21 152 27 164 7 15 36 32 80 49 38 14 72 34 75 43 2 9 9 25
14 36 5 11 20 61 34 110 14 50 30 104 35 120 5 17 17 66 26 110 9 44 20 89 26
101 5 11 8 34 6 50 -2 24 -9 31 -40 38 -33 8 -41 7 -63 -14 -23 -22 -26 -22
-43 -7 -33 30 -86 20 -93 -18 -6 -29 -34 -30 -47 0 -24 53 -83 16 -82 -51 0
-54 -8 -180 -18 -288 -5 -50 -10 -104 -11 -121 -1 -16 -3 -50 -4 -75 -2 -25
-7 -110 -11 -189 -6 -112 -12 -153 -27 -182 -10 -21 -23 -40 -29 -44 -15 -9
-12 -43 6 -92 15 -39 15 -45 0 -67 -12 -19 -13 -31 -6 -50 5 -15 5 -28 0 -31
-11 -7 -15 0 -35 58 -15 44 -19 97 -30 412 -6 177 -15 394 -22 550 -3 72 -5
145 -5 163 l1 32 -57 2 c-96 3 -114 1 -135 -21 -19 -18 -20 -24 -9 -54 14 -40
15 -67 3 -67 -15 0 -41 41 -52 85 -6 22 -18 48 -26 58 -20 21 -59 22 -67 1z
m772 -87 c2 -10 -3 -17 -12 -17 -10 0 -16 9 -16 21 0 24 23 21 28 -4z m-130
-45 c3 -16 -1 -20 -12 -16 -19 7 -22 48 -3 42 6 -3 13 -14 15 -26z m112 -37
c0 -8 -4 -15 -10 -15 -5 0 -10 7 -10 15 0 8 5 15 10 15 6 0 10 -7 10 -15z
m-591 -62 c16 -35 -1 -52 -23 -22 -9 13 -16 29 -16 36 0 23 26 14 39 -14z
m471 6 c0 -5 -4 -9 -10 -9 -5 0 -10 7 -10 16 0 8 5 12 10 9 6 -3 10 -10 10
-16z m-455 -150 c4 -11 4 -23 2 -26 -9 -8 -24 5 -30 27 -7 27 20 27 28 -1z
m425 -721 c0 -5 -4 -8 -10 -8 -5 0 -10 10 -10 23 0 18 2 19 10 7 5 -8 10 -18
10 -22z m60 -63 c0 -8 -2 -15 -4 -15 -2 0 -6 7 -10 15 -3 8 -1 15 4 15 6 0 10
-7 10 -15z m70 -75 c0 -5 -2 -10 -4 -10 -3 0 -8 5 -11 10 -3 6 -1 10 4 10 6 0
11 -4 11 -10z m-320 -461 c0 -10 -4 -19 -9 -19 -12 0 -23 29 -15 41 8 14 24 0
24 -22z M44798 2169 c-36 -14 -41 -31 -26 -116 6 -40 10 -75 7 -78 -3 -2 -28
6 -55 19 -62 31 -143 56 -159 49 -7 -2 -15 -21 -18 -41 -3 -20 -11 -59 -17
-87 -6 -27 -13 -63 -16 -80 -3 -16 -9 -39 -14 -50 -5 -11 -11 -33 -14 -50 -7
-42 -38 -182 -56 -255 -15 -60 -30 -128 -36 -165 -3 -16 -9 -39 -14 -50 -5
-11 -11 -33 -14 -50 -13 -74 -38 -191 -67 -310 -10 -40 -23 -96 -38 -170 -10
-46 -38 -171 -53 -230 -5 -22 -17 -91 -26 -153 -12 -88 -13 -115 -4 -124 9 -9
17 -10 29 -2 18 11 27 37 43 124 6 30 15 73 20 95 23 102 43 193 50 230 5 22
14 60 20 85 7 25 14 62 17 83 3 20 8 37 12 37 3 0 38 -12 76 -26 39 -15 89
-30 112 -34 79 -13 96 -49 34 -73 -77 -31 -292 -274 -277 -313 3 -8 16 -14 30
-14 16 0 27 -7 31 -21 4 -11 31 -36 61 -55 62 -39 72 -70 27 -79 -62 -13 -75
-33 -41 -65 20 -19 30 -20 88 -15 57 6 69 10 95 40 19 20 36 55 44 87 23 95
60 191 80 211 21 22 41 16 41 -12 0 -27 48 -213 61 -235 8 -14 6 -21 -10 -33
-30 -20 -26 -50 8 -68 36 -18 87 -11 118 18 l22 20 13 -29 c14 -32 46 -63 65
-64 7 0 18 10 24 23 7 12 27 38 46 57 18 19 36 43 39 54 3 10 30 43 60 73 69
71 70 88 2 144 -29 23 -57 47 -63 53 -22 24 -177 157 -200 172 -14 9 -25 22
-25 28 0 18 124 66 170 66 53 0 65 -22 56 -111 -5 -52 -3 -69 9 -79 19 -16 45
-6 45 17 0 29 32 103 45 103 6 0 19 -15 28 -32 10 -18 28 -51 42 -73 13 -22
31 -53 41 -70 9 -16 22 -33 27 -37 18 -11 47 11 47 36 0 24 -55 142 -77 164
-7 7 -13 17 -13 21 0 10 -88 123 -134 172 -31 32 -33 40 -29 81 5 41 3 47 -17
53 -21 7 -21 8 9 26 28 17 31 24 31 68 0 39 -4 52 -22 64 -23 16 -23 16 67 99
123 113 185 176 185 188 0 5 -13 16 -29 25 -21 10 -28 20 -24 34 3 13 -3 25
-21 36 -15 10 -26 27 -26 39 0 12 -9 27 -20 34 -11 7 -20 19 -20 27 0 8 -11
27 -25 42 -49 56 -95 119 -110 151 -8 17 -19 32 -24 32 -5 0 -15 16 -21 36 -7
21 -21 39 -35 44 -24 9 -27 23 -37 145 l-3 30 -90 6 c-49 4 -99 9 -110 12 -11
3 -32 1 -47 -4z m258 -226 c-10 -10 -19 5 -10 18 6 11 8 11 12 0 2 -7 1 -15
-2 -18z m-290 -60 c3 -16 10 -41 15 -57 5 -16 9 -72 9 -125 0 -53 7 -132 16
-176 23 -116 23 -257 -1 -320 -13 -34 -19 -77 -19 -135 l-1 -85 -45 -6 c-55
-8 -58 -6 -68 34 -7 28 -13 32 -43 32 -53 0 -50 20 3 23 41 3 49 7 54 28 3 13
3 35 0 49 -5 21 -12 25 -41 25 -42 0 -47 17 -7 25 46 10 57 20 57 56 0 30 -4
35 -32 44 -42 12 -42 21 2 35 55 18 63 90 11 90 -40 0 -41 19 -2 35 24 10 38
24 42 42 7 26 4 30 -43 59 -17 11 -16 13 10 23 52 20 62 91 13 91 -37 0 -42
19 -8 31 18 6 35 22 42 39 17 40 7 61 -27 58 -37 -4 -45 16 -8 22 26 5 48 35
38 53 -7 12 5 37 16 37 6 0 13 -12 17 -27z m-294 -897 c24 -7 63 -19 88 -26
84 -23 85 -24 66 -43 -10 -9 -29 -17 -44 -17 -27 0 -115 29 -128 43 -4 4 -15
7 -25 7 -22 0 -31 13 -23 34 7 19 12 20 66 2z m378 -502 c0 -14 -4 -22 -10
-19 -5 3 -10 17 -10 31 0 14 4 22 10 19 6 -3 10 -17 10 -31z m-290 -179 c0 -8
-7 -15 -15 -15 -8 0 -15 7 -15 15 0 8 7 15 15 15 8 0 15 -7 15 -15z M45815
2160 c-10 -11 -28 -20 -39 -20 -27 0 -40 -9 -55 -39 -10 -17 -16 -20 -24 -12
-16 16 -39 13 -66 -8 l-24 -18 20 -34 c12 -19 24 -54 28 -79 4 -25 20 -72 36
-105 16 -33 29 -71 29 -85 0 -14 11 -45 24 -70 13 -25 28 -67 34 -95 6 -27 20
-68 32 -90 11 -21 20 -48 20 -60 0 -11 11 -42 25 -70 13 -27 25 -59 25 -70 0
-12 9 -39 20 -60 12 -22 26 -59 31 -82 6 -23 17 -48 25 -54 8 -6 14 -19 14
-29 0 -9 10 -30 22 -45 21 -27 21 -28 3 -41 -10 -8 -22 -14 -25 -14 -4 0 -25
-26 -47 -57 -56 -80 -73 -93 -129 -99 -41 -5 -58 -1 -103 23 -30 15 -63 40
-74 54 -27 37 -44 177 -29 238 14 55 18 197 8 229 -32 98 -93 -137 -87 -338 1
-60 8 -88 32 -140 17 -36 39 -74 49 -85 13 -15 21 -53 29 -144 7 -72 23 -158
38 -205 13 -45 26 -87 29 -93 5 -18 21 -16 28 3 3 8 -1 90 -9 181 -9 91 -13
173 -10 182 4 13 21 16 95 17 89 0 90 0 90 -25 0 -26 -60 -143 -91 -176 -30
-33 -29 -67 4 -83 15 -7 27 -17 27 -23 0 -5 11 -9 25 -9 14 0 44 -9 66 -21 43
-21 69 -14 69 19 0 12 3 13 11 5 9 -9 8 -20 0 -45 -6 -18 -14 -66 -18 -106 -5
-65 -9 -75 -29 -83 -13 -4 -30 -6 -37 -3 -8 3 -26 0 -40 -5 -28 -11 -36 -42
-18 -70 13 -20 101 -8 154 21 l42 23 7 115 c9 157 23 289 32 297 10 10 26 -17
26 -43 0 -29 67 -117 119 -157 l42 -32 -26 -18 c-28 -21 -32 -48 -10 -67 13
-11 23 -9 55 6 l40 19 0 238 c0 214 -2 237 -17 237 -20 0 -123 52 -123 62 0 4
5 8 11 8 6 0 37 25 70 57 54 51 59 60 59 99 l0 43 -37 -22 c-21 -12 -44 -27
-51 -34 -16 -15 -22 -16 -40 -5 -9 7 -6 15 13 37 33 34 45 65 45 113 1 20 7
48 15 62 8 14 14 39 15 57 0 18 9 55 20 83 18 45 20 74 20 244 0 180 -1 194
-20 211 -11 10 -20 23 -20 30 0 14 -68 60 -102 68 -14 4 -30 18 -37 33 -8 19
-16 24 -29 19 -35 -15 -46 -10 -53 23 -7 33 -28 54 -108 107 -33 22 -47 39
-54 65 -14 59 -58 78 -92 40z m-25 -285 c0 -13 -4 -27 -10 -30 -11 -7 -25 39
-15 55 10 16 25 2 25 -25z m167 3 c-3 -8 -6 -5 -6 6 -1 11 2 17 5 13 3 -3 4
-12 1 -19z m-120 -200 c-3 -7 -5 -2 -5 12 0 14 2 19 5 13 2 -7 2 -19 0 -25z
m343 -1104 c0 -17 -22 -14 -28 4 -2 7 3 12 12 12 9 0 16 -7 16 -16z M13851
2156 c-8 -10 -10 -29 -6 -59 4 -25 4 -55 0 -67 -8 -25 -31 -24 -134 5 -66 18
-76 12 -85 -53 -3 -26 -26 -119 -51 -207 -25 -88 -56 -226 -70 -306 -13 -81
-60 -299 -104 -485 -155 -658 -165 -722 -125 -755 23 -19 31 -3 54 106 12 55
41 188 66 295 24 107 47 205 49 218 3 12 13 22 23 22 38 -1 237 -69 240 -82 1
-8 -28 -35 -66 -61 -78 -53 -174 -152 -203 -208 -10 -21 -23 -40 -29 -44 -18
-11 -10 -41 19 -69 25 -24 34 -27 62 -21 27 6 31 5 26 -9 -11 -27 4 -47 50
-67 55 -23 48 -39 -17 -39 -44 0 -50 -3 -56 -24 -9 -35 0 -43 60 -57 49 -11
58 -10 100 11 26 12 50 29 55 38 5 10 24 72 41 140 18 68 40 132 49 143 21 26
51 16 51 -17 0 -30 23 -118 44 -168 22 -52 21 -83 -4 -91 -44 -14 -9 -56 58
-69 21 -3 45 0 68 12 39 18 37 20 78 -42 20 -30 62 -14 86 34 11 22 29 46 40
52 12 8 20 24 20 40 0 23 4 28 25 28 18 0 26 7 31 24 3 14 21 38 40 55 31 29
38 61 12 61 -5 0 -31 20 -56 45 -91 87 -203 182 -245 209 -61 38 -9 87 106
101 82 10 91 0 82 -91 -5 -59 -4 -74 10 -88 26 -25 38 -15 59 48 28 84 33 81
128 -87 34 -60 59 -71 81 -36 13 20 -18 100 -66 173 -18 27 -37 58 -43 68 -6
10 -41 53 -78 94 l-66 76 6 51 c4 29 11 60 16 70 5 10 5 25 -2 37 -8 14 -8 26
0 41 9 15 9 28 0 49 -15 35 -10 43 65 110 33 30 72 66 87 82 14 15 31 28 37
28 15 0 42 56 35 73 -3 8 -16 19 -30 25 -17 9 -24 19 -24 41 0 22 -10 38 -40
64 -28 23 -40 42 -40 60 0 14 -7 30 -16 35 -8 5 -21 18 -27 29 -7 12 -27 42
-44 68 -18 25 -33 50 -33 56 0 5 -11 14 -25 19 -14 5 -25 17 -25 26 0 9 -16
34 -35 55 -31 35 -35 45 -35 97 0 72 -9 86 -57 89 -188 14 -210 14 -222 -1z
m-5 -252 c-7 -28 -23 -30 -54 -8 -29 20 -28 32 3 40 13 3 30 13 37 22 12 13
13 13 16 -7 2 -13 1 -34 -2 -47z m284 46 c0 -5 -5 -10 -11 -10 -5 0 -7 5 -4
10 3 6 8 10 11 10 2 0 4 -4 4 -10z m-269 -142 c0 -29 2 -73 4 -98 2 -25 7 -76
10 -115 8 -103 18 -188 30 -247 5 -28 0 -57 -20 -117 -24 -72 -26 -90 -20
-168 l6 -88 -52 0 c-52 0 -52 0 -70 43 -18 43 -18 44 2 71 30 41 21 62 -36 91
l-50 25 45 3 c48 4 60 13 60 50 0 23 -19 35 -72 46 -16 4 -28 13 -28 22 0 13
9 14 55 9 l55 -7 0 28 c0 39 -8 49 -53 68 -48 20 -40 38 13 30 37 -6 40 -4 50
22 12 31 0 74 -21 74 -8 0 -7 6 3 18 38 42 33 102 -8 102 -13 0 -24 5 -24 10
0 6 13 10 29 10 32 0 43 16 34 52 -8 32 -22 48 -44 48 -11 0 -19 7 -19 15 0
10 10 14 37 12 31 -2 40 2 48 21 18 41 36 26 36 -30z m-124 -244 c-3 -3 -12
-4 -19 -1 -8 3 -5 6 6 6 11 1 17 -2 13 -5z m-122 -593 c73 -23 91 -32 93 -50
3 -18 -1 -21 -30 -20 -18 0 -69 13 -113 27 -66 22 -81 31 -83 50 -4 30 19 28
133 -7z m45 -630 c-11 -42 -30 -56 -30 -22 0 10 5 33 11 50 17 48 33 24 19
-28z M40924 2142 c-54 -40 -81 -123 -76 -233 1 -26 14 -51 43 -88 43 -53 62
-61 95 -36 10 8 24 15 30 15 6 0 46 -35 88 -77 l76 -78 0 -132 c0 -125 1 -133
22 -147 31 -22 101 -21 121 2 10 10 17 24 17 30 0 6 13 26 28 44 16 18 43 63
60 99 l31 66 53 6 c29 4 77 7 106 7 62 0 71 12 53 72 -8 25 -20 42 -32 45 -16
5 -18 11 -13 43 5 30 2 45 -15 68 -11 17 -21 42 -21 56 0 32 -18 33 -69 4 -49
-28 -69 -20 -77 32 -4 23 -13 44 -20 47 -13 5 -74 120 -74 141 0 36 -75 55
-134 32 -28 -10 -27 2 -8 -225 5 -57 5 -104 0 -110 -12 -13 -39 5 -61 43 -15
26 -16 39 -7 95 13 85 1 154 -35 184 -40 35 -129 33 -181 -5z M10028 2132
c-45 -21 -72 -55 -93 -116 -14 -40 -14 -56 -4 -104 18 -87 39 -132 72 -152 29
-18 31 -18 57 2 33 24 66 17 82 -18 6 -13 35 -42 64 -64 60 -45 72 -76 55
-150 -11 -48 -6 -117 11 -162 13 -35 69 -48 107 -27 24 14 71 72 91 114 6 11
14 27 19 35 4 8 19 36 31 62 l24 47 73 6 c40 4 88 4 108 1 49 -10 56 14 22 75
-15 26 -27 59 -27 74 0 28 -16 64 -35 80 -7 6 -16 23 -19 39 -7 27 -9 28 -49
22 -82 -14 -81 -15 -97 36 -8 25 -23 54 -32 65 -9 10 -25 39 -36 64 -11 25
-32 56 -47 67 -34 27 -94 29 -125 4 -22 -18 -22 -18 -6 -103 9 -47 17 -114 18
-150 3 -62 2 -64 -23 -67 -14 -2 -31 4 -38 12 -14 17 -18 103 -6 153 4 18 2
54 -5 82 -9 40 -19 55 -45 71 -40 24 -97 25 -147 2z M33984 2018 c-9 -14 -10
-25 -23 -208 -6 -74 -15 -198 -21 -275 -13 -163 -13 -259 1 -264 6 -1 31 -21
56 -43 42 -36 50 -39 85 -34 37 6 119 45 169 80 13 9 41 16 62 16 32 0 41 -5
55 -31 9 -17 25 -41 34 -53 21 -26 38 -18 81 41 28 39 30 48 29 118 l-2 76 38
16 c75 31 88 62 53 131 -10 20 -21 54 -24 75 -3 20 -15 49 -26 64 -12 14 -21
34 -21 45 0 26 -23 68 -53 96 -38 35 -72 26 -121 -32 -40 -47 -41 -50 -45
-132 l-3 -84 -41 -11 c-76 -20 -115 -7 -176 57 -46 49 -52 61 -48 88 9 60 -8
257 -24 267 -19 12 -26 11 -35 -3z m86 -528 c0 -5 17 -28 37 -51 36 -39 39
-41 82 -35 25 3 56 13 69 22 13 9 26 13 29 10 9 -8 -20 -42 -85 -100 -73 -65
-104 -71 -158 -30 -32 25 -34 30 -34 84 0 43 5 64 21 84 21 26 39 34 39 16z
M3080 1956 c-7 -20 -21 -190 -22 -286 -1 -14 -7 -99 -14 -190 -21 -255 -22
-246 30 -271 24 -11 51 -28 60 -38 24 -27 89 -11 183 44 43 25 89 45 104 45
25 0 59 -27 59 -47 0 -20 39 -44 65 -41 22 2 35 15 57 55 27 48 29 56 20 99
-10 47 -10 47 31 85 22 21 44 40 49 41 29 10 7 105 -63 279 -49 119 -71 135
-148 108 -23 -8 -39 -25 -58 -62 -22 -45 -25 -60 -20 -117 l5 -65 -41 -18
c-23 -9 -55 -17 -70 -17 -37 0 -84 25 -92 49 -3 11 -17 26 -30 35 -34 22 -44
74 -39 188 2 53 0 108 -6 122 -12 34 -47 35 -60 2z m125 -541 c43 -64 56 -67
136 -31 30 12 60 21 67 19 23 -8 12 -30 -20 -44 -18 -7 -49 -28 -68 -46 -78
-76 -78 -76 -108 -70 -16 3 -45 15 -65 27 l-36 21 6 72 c10 124 30 136 88 52z
m405 9 c0 -8 -4 -12 -10 -9 -5 3 -10 10 -10 16 0 5 5 9 10 9 6 0 10 -7 10 -16z
M0 1583 l0 -178 19 35 c10 19 21 49 25 67 4 17 13 37 21 43 8 6 17 24 20 40 3
16 13 34 21 41 17 14 18 39 1 59 -14 17 -89 70 -100 70 -4 0 -7 -80 -7 -177z
m30 117 c0 -5 -5 -10 -11 -10 -5 0 -7 5 -4 10 3 6 8 10 11 10 2 0 4 -4 4 -10z
M25593 1304 c-15 -19 -43 -49 -61 -67 -22 -21 -39 -52 -53 -100 -29 -97 -56
-158 -85 -188 -14 -14 -27 -41 -30 -60 -4 -31 0 -37 47 -73 28 -21 66 -44 85
-51 48 -16 50 -22 21 -51 -15 -15 -27 -30 -27 -34 0 -4 -22 -21 -48 -37 -73
-45 -73 -63 1 -137 83 -82 137 -149 137 -170 0 -9 -9 -35 -21 -58 -27 -54 -20
-84 23 -91 66 -9 102 25 73 70 -17 26 -12 41 32 100 17 22 26 49 29 90 7 84
13 103 28 103 8 0 16 -12 19 -28 4 -15 13 -56 22 -92 26 -109 35 -161 35 -201
0 -44 7 -47 96 -51 73 -4 96 11 92 56 -3 29 -5 31 -41 28 -52 -4 -79 16 -95
70 -22 75 -7 105 72 143 22 11 46 30 52 42 5 12 21 30 33 40 l24 19 -26 30
c-14 16 -37 43 -51 59 -57 67 -86 103 -86 110 0 4 -18 29 -40 55 -22 26 -40
51 -40 54 0 17 50 2 83 -25 48 -39 84 -37 112 9 11 18 41 62 67 98 62 86 76
128 53 155 -17 18 -17 21 6 64 l24 45 -22 21 c-11 12 -26 18 -32 14 -7 -3 -33
-50 -60 -103 -27 -53 -58 -105 -69 -115 -35 -32 -191 -21 -213 14 -3 6 -2 36
3 67 5 31 6 67 3 80 -7 28 -109 132 -129 132 -8 0 -27 -16 -43 -36z m397 -348
c0 -3 -4 -8 -10 -11 -5 -3 -10 -1 -10 4 0 6 5 11 10 11 6 0 10 -2 10 -4z
M41088 1320 c-16 -12 -28 -28 -28 -36 0 -8 -18 -34 -41 -58 -36 -40 -79 -129
-79 -165 0 -8 -11 -29 -25 -47 -14 -18 -25 -39 -25 -47 0 -8 -13 -33 -30 -55
-16 -23 -30 -50 -30 -60 0 -23 37 -58 71 -65 34 -8 79 -51 79 -75 0 -11 -27
-43 -65 -77 -36 -31 -65 -64 -65 -74 0 -9 23 -34 50 -55 28 -21 50 -42 50 -46
0 -4 18 -26 40 -49 22 -22 40 -45 40 -50 0 -5 11 -13 25 -18 l25 -8 -36 -45
c-25 -32 -34 -52 -32 -74 4 -39 25 -50 81 -42 45 7 47 8 47 42 0 23 -5 34 -14
34 -29 0 -27 22 7 63 33 40 67 140 67 195 0 25 16 37 26 20 4 -6 11 -30 16
-52 5 -23 14 -61 19 -86 6 -25 14 -78 17 -118 9 -99 27 -114 126 -110 l71 3 3
43 3 42 -61 0 c-69 0 -75 6 -86 105 -6 53 -6 53 27 70 40 21 149 125 149 142
0 6 -24 36 -54 66 -30 30 -70 78 -89 108 -19 30 -49 67 -66 83 -30 28 -41 56
-22 56 4 0 38 -16 75 -35 47 -24 75 -33 92 -29 13 3 24 10 24 14 0 4 16 31 35
59 19 28 35 55 35 60 0 5 12 23 26 40 32 39 44 108 20 117 -20 8 -21 28 -1 44
25 20 37 82 20 99 -13 13 -17 12 -35 -4 -11 -10 -20 -26 -20 -35 0 -9 -11 -31
-25 -50 -14 -19 -25 -38 -25 -43 0 -6 -17 -32 -37 -58 -35 -46 -40 -49 -83
-48 -25 0 -70 8 -100 18 -43 14 -55 21 -53 37 1 10 5 46 8 79 l7 61 -64 68
-63 68 -27 -22z m-33 -530 c3 -5 1 -10 -4 -10 -6 0 -11 5 -11 10 0 6 2 10 4
10 3 0 8 -4 11 -10z M10145 1270 c-16 -22 -39 -48 -51 -58 -16 -11 -36 -51
-58 -116 -20 -54 -52 -126 -72 -160 -21 -35 -37 -75 -38 -95 -1 -30 5 -38 54
-73 30 -22 67 -44 83 -50 15 -5 27 -13 27 -16 0 -13 -71 -82 -84 -82 -7 0 -27
-18 -44 -39 l-32 -39 76 -79 c42 -43 83 -89 92 -103 9 -14 25 -31 34 -38 17
-12 16 -15 -7 -50 -53 -82 -38 -127 38 -116 62 9 90 55 39 62 -29 4 -28 15 8
68 38 54 60 115 60 163 0 20 4 42 9 49 12 20 25 -2 56 -98 23 -71 30 -116 35
-222 0 -4 7 -14 17 -23 13 -13 28 -15 77 -10 101 11 115 21 96 71 -10 24 -13
25 -59 19 -46 -6 -51 -5 -66 19 -10 15 -20 55 -23 93 -4 59 -3 66 11 60 35
-13 167 102 167 145 0 9 -6 21 -13 25 -19 12 -117 129 -117 140 0 5 -25 35
-55 65 -47 48 -52 58 -39 69 12 10 23 7 61 -20 35 -25 54 -31 82 -29 32 3 39
9 68 58 17 30 50 85 73 122 l41 67 -17 36 c-15 33 -15 37 4 77 17 36 18 45 7
57 -21 22 -42 6 -72 -56 -15 -32 -45 -81 -66 -109 -51 -70 -88 -79 -187 -44
-51 17 -55 21 -52 47 2 15 5 52 9 82 l5 55 -63 58 c-35 32 -69 58 -75 58 -6 0
-24 -18 -39 -40z m45 -186 c0 -8 -5 -12 -10 -9 -6 4 -8 11 -5 16 9 14 15 11
15 -7z m150 -374 c0 -5 -4 -10 -10 -10 -5 0 -10 5 -10 10 0 6 5 10 10 10 6 0
10 -4 10 -10z M33 1053 c-29 -15 -33 -21 -33 -58 0 -41 1 -41 31 -37 35 5 49
-8 49 -49 0 -31 39 -129 51 -129 15 0 23 25 24 82 1 32 6 63 11 68 6 6 41 -16
94 -61 47 -38 96 -74 109 -80 27 -11 51 3 51 31 0 17 -97 109 -174 165 -23 16
-43 32 -46 36 -10 13 -95 49 -114 48 -12 0 -36 -8 -53 -16z M33011 1058 c-14
-5 -34 -18 -45 -29 -12 -11 -45 -42 -75 -68 -51 -47 -53 -51 -47 -85 4 -20 20
-52 36 -70 17 -19 30 -38 30 -44 0 -6 8 -16 18 -22 15 -10 15 -10 -4 -5 -23 6
-71 -39 -99 -95 -35 -69 -76 -349 -61 -417 11 -50 50 -61 191 -54 126 7 138
11 168 48 25 31 36 29 48 -7 6 -17 12 -30 12 -31 1 0 70 -2 153 -5 l151 -6 22
27 c26 34 27 77 5 206 -10 59 -27 114 -45 148 -16 30 -29 61 -29 69 0 24 -69
122 -86 122 -29 0 -74 -31 -80 -55 -8 -31 -20 -32 -26 -2 -7 37 2 54 33 68 42
17 84 109 70 152 -13 37 -53 83 -105 123 -37 28 -50 32 -126 36 -47 3 -96 1
-109 -4z m349 -659 c0 -27 -3 -29 -36 -29 l-35 0 27 35 c30 39 44 38 44 -6z
m-155 -25 c20 -15 20 -16 1 -29 -10 -8 -23 -16 -28 -17 -5 -2 -13 -19 -17 -38
l-7 -35 -18 35 c-10 19 -27 42 -39 51 -12 10 -18 23 -14 33 8 21 94 21 122 0z
M20131 1044 c-78 -23 -172 -110 -185 -171 -6 -28 -2 -37 33 -74 23 -23 41 -48
41 -55 0 -7 -13 -20 -30 -29 -16 -9 -30 -20 -30 -26 0 -6 -11 -24 -23 -39 -18
-21 -28 -53 -41 -136 -38 -247 -39 -321 -4 -343 20 -13 191 -18 226 -7 9 3 33
8 51 10 38 4 61 28 61 62 0 41 18 35 36 -11 9 -25 21 -48 25 -51 18 -11 287
-16 306 -6 27 15 43 73 32 119 -5 21 -9 59 -9 84 0 64 -32 162 -76 234 -20 33
-45 77 -55 98 -14 27 -26 37 -43 37 -34 0 -56 -10 -56 -25 0 -7 -7 -26 -15
-41 l-15 -29 0 29 c0 19 13 45 38 75 44 53 68 131 51 163 -13 24 -84 93 -126
123 -32 22 -131 27 -192 9z m336 -640 c4 -11 -1 -22 -12 -30 -40 -29 -61 -8
-28 28 20 22 32 23 40 2z m-127 -20 c0 -4 -21 -28 -48 -54 l-47 -47 -28 29
c-44 44 -33 63 36 64 31 0 60 4 64 7 8 9 23 9 23 1z M35515 1000 c-38 -34 -74
-68 -79 -77 -4 -8 -6 -35 -4 -58 4 -33 15 -53 47 -86 46 -48 50 -59 22 -59
-35 0 -51 -12 -85 -64 -39 -59 -52 -133 -63 -348 l-6 -127 29 -12 c20 -7 68
-9 149 -4 137 7 170 21 185 73 10 39 5 58 -23 90 -19 20 -19 24 -5 38 27 27
148 31 148 6 0 -5 -15 -15 -32 -23 -18 -8 -38 -25 -45 -39 -17 -33 -12 -111 7
-121 8 -4 74 -13 145 -20 117 -10 134 -10 162 5 26 13 33 24 39 62 3 25 4 62
0 82 -25 151 -49 228 -104 331 -39 74 -55 91 -89 91 -29 0 -29 7 3 68 24 47
25 53 12 88 -7 21 -39 64 -70 96 -54 55 -59 58 -106 58 -27 0 -76 3 -108 6
l-59 5 -70 -61z m365 -274 c0 -8 -5 -27 -11 -43 -8 -22 -12 -24 -19 -13 -6 8
-10 27 -10 43 0 20 5 27 20 27 11 0 20 -6 20 -14z m60 -320 c0 -31 -14 -40
-40 -26 -26 14 -25 24 3 38 33 16 37 14 37 -12z m120 -156 c0 -5 -4 -10 -10
-10 -5 0 -10 5 -10 10 0 6 5 10 10 10 6 0 10 -4 10 -10z M17542 1041 c-22 -4
-57 -28 -102 -69 -65 -58 -70 -66 -70 -104 0 -32 8 -50 40 -88 22 -26 40 -52
40 -58 0 -6 -12 -12 -27 -14 -23 -2 -33 -14 -60 -67 -17 -36 -34 -81 -37 -100
-12 -69 -25 -177 -31 -266 -7 -83 -5 -91 14 -109 19 -17 32 -18 138 -13 161 9
174 11 195 37 35 43 33 67 -7 118 l-36 47 28 6 c42 10 123 10 123 1 0 -5 -12
-19 -26 -33 -39 -36 -47 -66 -33 -115 16 -52 14 -51 189 -59 173 -8 173 -9
173 106 1 89 -13 164 -44 239 -10 25 -21 56 -25 70 -4 14 -14 36 -24 50 -10
14 -27 44 -39 68 -15 28 -28 42 -42 42 -21 0 -62 -35 -71 -61 -5 -12 -8 -11
-23 3 -17 15 -15 19 30 67 49 52 72 113 59 154 -8 27 -81 112 -113 133 -25 17
-155 26 -219 15z m348 -644 c0 -19 -21 -37 -42 -37 -21 0 -22 4 -8 31 12 21
50 26 50 6z m-90 -27 c0 -5 -7 -10 -16 -10 -8 0 -12 5 -9 10 3 6 10 10 16 10
5 0 9 -4 9 -10z M2137 1022 c-55 -12 -177 -128 -177 -168 0 -31 21 -73 49 -98
28 -26 26 -41 -8 -66 -48 -33 -76 -109 -105 -280 -22 -130 -25 -164 -16 -210
6 -29 16 -57 22 -61 17 -11 246 -1 284 11 18 6 38 18 44 26 17 20 48 17 55 -5
7 -24 66 -33 215 -35 l105 -1 19 38 c17 35 18 48 8 136 -12 102 -64 252 -122
351 -24 40 -30 45 -63 45 -31 0 -38 -5 -52 -34 -11 -23 -19 -31 -26 -24 -17
17 -6 47 23 60 29 14 55 70 64 137 6 40 4 43 -63 112 l-70 71 -84 0 c-46 0
-92 -2 -102 -5z m53 -212 c0 -5 -5 -10 -11 -10 -5 0 -7 5 -4 10 3 6 8 10 11
10 2 0 4 -4 4 -10z m260 -455 c-14 -17 -46 -20 -55 -5 -8 13 48 41 59 30 5 -6
4 -15 -4 -25z m-109 -12 c8 -8 3 -16 -21 -28 -18 -9 -38 -31 -46 -51 -15 -37
-34 -45 -34 -15 0 10 -11 35 -25 55 -14 21 -23 40 -21 44 7 12 135 7 147 -5z
m159 -57 c0 -3 -4 -8 -10 -11 -5 -3 -10 -1 -10 4 0 6 5 11 10 11 6 0 10 -2 10
-4z M4770 1021 c-91 -7 -150 -38 -204 -108 -55 -71 -51 -107 20 -174 52 -51
59 -73 15 -50 -11 6 -26 9 -33 6 -23 -9 -78 -104 -78 -134 0 -16 -7 -44 -15
-64 -8 -19 -18 -84 -22 -144 -15 -219 -11 -225 131 -222 129 2 186 14 213 44
27 30 40 32 48 5 11 -33 40 -41 184 -47 l138 -5 23 29 c20 26 22 35 16 121 -4
51 -11 103 -16 115 -4 12 -25 67 -46 122 -21 55 -43 107 -50 115 -7 8 -17 27
-23 41 -7 20 -19 28 -48 32 -21 4 -39 2 -41 -3 -2 -5 -12 -20 -22 -32 -18 -22
-19 -22 -26 -4 -6 15 1 27 29 51 41 36 67 88 67 137 0 26 -11 42 -57 87 -55
51 -112 93 -123 89 -3 -1 -39 -4 -80 -7z m264 -647 c10 -27 7 -32 -24 -36 -38
-6 -48 7 -24 33 21 23 40 24 48 3z m-139 -35 c4 -6 -4 -23 -18 -37 -13 -15
-30 -37 -36 -49 -14 -28 -31 -30 -31 -5 0 10 -13 31 -30 47 -16 16 -30 34 -30
41 0 15 136 19 145 3z m45 1 c0 -5 -5 -10 -11 -10 -5 0 -7 5 -4 10 3 6 8 10
11 10 2 0 4 -4 4 -10z M0 526 c0 -202 2 -235 15 -230 8 3 17 14 20 25 8 25 27
24 56 -5 51 -50 89 -56 89 -13 0 12 9 35 19 51 15 22 17 34 10 48 -11 21 -4
38 16 38 8 0 19 18 26 43 6 23 20 63 32 90 l20 47 -23 25 c-13 14 -39 28 -59
31 -20 4 -52 15 -71 24 -19 10 -51 21 -70 25 -19 4 -45 14 -57 22 l-23 15 0
-236z M20995 721 c-3 -11 -17 -27 -32 -36 -24 -16 -25 -20 -18 -69 10 -73 9
-126 -4 -139 -6 -6 -11 -36 -11 -67 0 -80 37 -125 70 -85 9 11 9 22 -1 50 -23
62 17 76 101 35 15 -8 16 -29 5 -85 -5 -22 -1 -36 14 -52 26 -27 39 -23 70 24
18 28 22 44 17 73 -5 31 -1 43 24 76 16 21 30 47 30 58 0 25 -38 86 -55 86
-27 0 -45 -13 -45 -31 0 -20 -25 -34 -71 -41 -33 -4 -37 31 -8 78 19 31 20 40
11 72 -8 24 -22 43 -43 55 -39 22 -46 21 -54 -2z M36438 694 c-31 -38 -35 -49
-28 -72 35 -117 34 -107 10 -140 -18 -25 -22 -39 -18 -76 6 -54 31 -96 57 -96
26 0 34 26 20 65 -23 62 11 82 88 50 35 -15 35 -16 28 -58 -16 -84 -13 -102
17 -105 35 -4 56 27 68 103 9 58 32 105 50 105 20 0 9 59 -16 89 -32 39 -49
39 -68 2 -19 -36 -66 -57 -95 -41 -26 13 -26 21 0 72 26 51 19 99 -18 128 -38
29 -54 25 -95 -26z M5545 659 c-34 -38 -37 -45 -30 -83 4 -22 9 -56 12 -74 3
-21 -1 -41 -12 -59 -14 -20 -16 -39 -12 -86 6 -62 16 -77 54 -77 27 0 32 16
20 57 -15 47 -4 63 41 63 58 0 76 -25 68 -93 -6 -42 -4 -56 8 -66 38 -31 86
27 83 100 -2 37 4 52 31 84 39 48 39 55 6 94 -32 39 -57 39 -84 1 -18 -25 -28
-30 -61 -30 -43 0 -49 12 -24 48 24 33 24 115 1 141 -29 32 -59 26 -101 -20z
M22138 34 c-4 -4 -789 -8 -1745 -10 -2781 -5 -5807 -15 -5812 -20 -2 -2 6430
-4 14294 -4 7864 0 14296 2 14294 4 -2 3 -983 7 -2179 11 -1196 3 -2920 9
-3830 12 -910 3 -1675 5 -1700 5 -25 0 -144 0 -265 0 -1126 3 -12794 0 -12870
-3 -55 -2 -118 0 -140 4 -22 5 -44 5 -47 1z M58 3 c34 -2 88 -2 120 0 31 2 3
3 -63 3 -66 0 -92 -1 -57 -3z M683 3 c15 -2 37 -2 50 0 12 2 0 4 -28 4 -27 0
-38 -2 -22 -4z M998 3 c6 -2 18 -2 25 0 6 3 1 5 -13 5 -14 0 -19 -2 -12 -5z
M10158 3 c7 -3 16 -2 19 1 4 3 -2 6 -13 5 -11 0 -14 -3 -6 -6z M10348 3 c6 -2
18 -2 25 0 6 3 1 5 -13 5 -14 0 -19 -2 -12 -5z M10568 3 c12 -2 30 -2 40 0 9
3 -1 5 -23 4 -22 0 -30 -2 -17 -4z M10867 3 c18 -2 50 -2 70 0 21 2 7 4 -32 4
-38 0 -55 -2 -38 -4z M11478 3 c68 -2 176 -2 240 0 64 1 9 3 -123 3 -132 0
-185 -2 -117 -3z M12213 3 c26 -2 67 -2 90 0 23 2 2 3 -48 3 -49 0 -68 -1 -42
-3z M12538 3 c18 -2 45 -2 60 0 15 2 0 4 -33 4 -33 0 -45 -2 -27 -4z M12773 3
c15 -2 39 -2 55 0 15 2 2 4 -28 4 -30 0 -43 -2 -27 -4z M12973 3 c15 -2 37 -2
50 0 12 2 0 4 -28 4 -27 0 -38 -2 -22 -4z M13148 3 c12 -2 30 -2 40 0 9 3 -1
5 -23 4 -22 0 -30 -2 -17 -4z M13298 3 c12 -2 32 -2 45 0 12 2 2 4 -23 4 -25
0 -35 -2 -22 -4z M13448 3 c12 -2 30 -2 40 0 9 3 -1 5 -23 4 -22 0 -30 -2 -17
-4z M13578 3 c12 -2 30 -2 40 0 9 3 -1 5 -23 4 -22 0 -30 -2 -17 -4z M13698 3
c12 -2 30 -2 40 0 9 3 -1 5 -23 4 -22 0 -30 -2 -17 -4z M13818 3 c12 -2 30 -2
40 0 9 3 -1 5 -23 4 -22 0 -30 -2 -17 -4z M13928 3 c12 -2 30 -2 40 0 9 3 -1
5 -23 4 -22 0 -30 -2 -17 -4z M14038 3 c12 -2 30 -2 40 0 9 3 -1 5 -23 4 -22
0 -30 -2 -17 -4z M14138 3 c12 -2 30 -2 40 0 9 3 -1 5 -23 4 -22 0 -30 -2 -17
-4z M14238 3 c12 -2 30 -2 40 0 9 3 -1 5 -23 4 -22 0 -30 -2 -17 -4z M14328 3
c12 -2 32 -2 45 0 12 2 2 4 -23 4 -25 0 -35 -2 -22 -4z M14428 3 c12 -2 30 -2
40 0 9 3 -1 5 -23 4 -22 0 -30 -2 -17 -4z M14508 3 c12 -2 32 -2 45 0 12 2 2
4 -23 4 -25 0 -35 -2 -22 -4z M43203 3 c9 -2 25 -2 35 0 9 3 1 5 -18 5 -19 0
-27 -2 -17 -5z M43283 3 c9 -2 25 -2 35 0 9 3 1 5 -18 5 -19 0 -27 -2 -17 -5z
M43373 3 c9 -2 25 -2 35 0 9 3 1 5 -18 5 -19 0 -27 -2 -17 -5z M43463 3 c9 -2
25 -2 35 0 9 3 1 5 -18 5 -19 0 -27 -2 -17 -5z M43553 3 c9 -2 25 -2 35 0 9 3
1 5 -18 5 -19 0 -27 -2 -17 -5z M43653 3 c9 -2 25 -2 35 0 9 3 1 5 -18 5 -19
0 -27 -2 -17 -5z M43753 3 c9 -2 25 -2 35 0 9 3 1 5 -18 5 -19 0 -27 -2 -17
-5z M43853 3 c9 -2 25 -2 35 0 9 3 1 5 -18 5 -19 0 -27 -2 -17 -5z M43953 3
c9 -2 25 -2 35 0 9 3 1 5 -18 5 -19 0 -27 -2 -17 -5z M44068 3 c12 -2 30 -2
40 0 9 3 -1 5 -23 4 -22 0 -30 -2 -17 -4z M44183 3 c9 -2 25 -2 35 0 9 3 1 5
-18 5 -19 0 -27 -2 -17 -5z M44313 3 c9 -2 25 -2 35 0 9 3 1 5 -18 5 -19 0
-27 -2 -17 -5z M44443 3 c9 -2 25 -2 35 0 9 3 1 5 -18 5 -19 0 -27 -2 -17 -5z
M44583 3 c9 -2 25 -2 35 0 9 3 1 5 -18 5 -19 0 -27 -2 -17 -5z M44738 3 c12
-2 30 -2 40 0 9 3 -1 5 -23 4 -22 0 -30 -2 -17 -4z M44908 3 c12 -2 30 -2 40
0 9 3 -1 5 -23 4 -22 0 -30 -2 -17 -4z M45098 3 c12 -2 32 -2 45 0 12 2 2 4
-23 4 -25 0 -35 -2 -22 -4z M45323 3 c15 -2 39 -2 55 0 15 2 2 4 -28 4 -30 0
-43 -2 -27 -4z M45618 3 c23 -2 59 -2 80 0 20 2 1 4 -43 4 -44 0 -61 -2 -37
-4z M46158 3 c34 -2 88 -2 120 0 31 2 3 3 -63 3 -66 0 -92 -1 -57 -3z"/>
</g>
</svg>
