<svg version="1.0" xmlns="http://www.w3.org/2000/svg"
 width="802" height="200" viewBox="0 0 802.000000 200.000000"
 preserveAspectRatio="xMidYMid meet">
<g transform="translate(0.000000,200.000000) scale(0.100000,-0.100000)"
fill="#c8a84e" stroke="none">
<path d="M0 1957 c0 -37 4 -44 28 -55 15 -7 38 -19 52 -27 56 -33 129 -13 181
49 16 19 17 18 59 -21 31 -31 52 -42 81 -45 49 -5 68 3 106 41 18 17 38 31 46
31 8 0 36 -17 63 -39 65 -51 85 -56 114 -31 13 11 28 20 35 20 6 0 24 14 40
30 16 17 33 30 37 30 5 0 22 -15 39 -34 54 -62 171 -57 201 9 6 14 16 25 23
25 6 0 47 -18 91 -41 69 -35 85 -40 124 -35 28 4 58 17 82 36 20 17 40 30 44
30 4 0 26 -18 50 -40 51 -46 87 -59 112 -37 9 8 27 18 40 22 12 3 30 17 38 31
9 13 21 24 26 24 6 0 33 -18 60 -40 70 -56 103 -54 189 13 20 15 41 27 46 27
6 0 28 -16 49 -36 50 -46 74 -55 99 -38 11 8 27 14 36 14 9 0 31 14 49 30 18
17 39 30 47 30 8 0 44 -16 80 -35 94 -50 140 -49 192 5 l39 40 53 -43 c62 -50
91 -60 116 -41 10 7 24 14 31 14 7 0 28 11 46 25 41 31 53 31 81 1 14 -15 43
-28 77 -35 50 -11 59 -10 91 9 19 12 43 33 53 47 l17 27 21 -26 c62 -75 200
-78 234 -4 13 30 30 33 47 10 11 -16 37 -27 137 -61 45 -16 49 -16 83 3 20 10
43 29 51 42 19 29 32 28 69 -7 16 -17 51 -36 78 -43 42 -11 51 -10 80 7 17 10
38 27 45 37 19 26 57 23 75 -6 10 -14 37 -31 65 -40 46 -16 51 -16 82 1 19 10
44 30 58 46 13 15 27 27 31 27 5 0 30 -16 56 -37 43 -33 54 -36 103 -34 46 2
58 6 79 31 42 50 80 48 153 -10 34 -27 41 -28 94 -23 50 5 60 10 83 39 31 41
46 42 76 8 28 -34 106 -69 121 -54 5 5 20 10 32 10 14 0 36 16 59 43 24 27 38
37 42 29 10 -25 47 -52 97 -71 43 -16 53 -16 75 -5 14 8 31 14 36 14 6 0 23
16 38 35 l28 35 32 -33 c18 -18 52 -39 75 -46 37 -13 46 -12 84 4 24 10 55 30
70 44 l28 25 42 -24 c24 -12 50 -28 58 -35 8 -7 39 -15 67 -19 51 -6 54 -6 97
34 l45 42 43 -30 c24 -16 59 -36 78 -44 31 -13 39 -13 73 2 20 9 48 26 60 38
29 27 39 27 63 1 32 -36 70 -50 121 -45 40 4 53 11 78 40 17 20 35 36 41 36 5
0 28 -13 50 -29 57 -41 110 -58 134 -43 11 7 26 12 34 12 8 0 27 13 43 30 15
16 33 30 40 30 6 0 43 -18 81 -40 62 -36 75 -40 113 -34 28 5 55 19 81 42 l39
35 27 -21 c88 -71 163 -76 209 -16 31 42 51 43 88 4 58 -61 129 -63 185 -5 41
42 59 44 91 9 38 -41 73 -55 119 -48 39 6 40 8 40 46 l0 39 -26 -20 c-22 -17
-30 -19 -42 -9 -13 11 -13 13 6 16 19 3 62 49 62 66 0 3 -210 6 -467 6 -417 0
-469 -2 -485 -17 -16 -14 -18 -14 -18 -1 0 14 -20 16 -147 14 -145 -1 -148 -1
-151 -23 -2 -13 -10 -23 -19 -23 -11 0 -14 7 -11 25 l5 24 -266 -2 c-261 -2
-266 -2 -269 -23 -2 -14 5 -24 23 -32 27 -12 34 -32 11 -32 -20 0 -68 60 -62
76 4 11 -9 14 -63 14 -56 0 -70 -3 -75 -17 -13 -35 -37 -73 -47 -73 -15 0 -10
27 6 34 8 3 15 17 15 31 l0 25 -200 0 c-190 0 -200 -1 -210 -20 -9 -18 -7 -23
19 -38 17 -9 31 -23 31 -29 0 -16 -3 -16 -35 -1 -24 11 -42 48 -37 76 2 9 -28
12 -126 12 -89 0 -132 -4 -141 -12 -11 -10 -14 -10 -18 0 -4 9 -54 12 -206 12
-171 0 -203 -2 -219 -16 -16 -15 -18 -15 -24 0 -5 14 -25 16 -148 15 -89 -1
-146 -5 -155 -13 -11 -8 -15 -8 -18 2 -4 10 -123 12 -569 12 -498 -1 -564 -2
-564 -16 0 -27 -30 -74 -44 -68 -11 4 -10 12 6 42 l18 37 -187 3 c-159 2 -188
0 -195 -13 -11 -19 -28 -19 -28 0 0 12 -20 15 -120 15 -119 0 -120 0 -126 -25
-3 -14 -9 -25 -13 -25 -16 0 -20 13 -10 31 9 18 5 19 -75 19 -58 0 -86 -4 -89
-12 -4 -10 -6 -10 -6 0 -1 9 -38 12 -151 12 -137 0 -150 -2 -148 -17 3 -37 -3
-53 -17 -53 -13 0 -15 7 -9 35 l6 35 -56 0 c-44 0 -56 -3 -56 -16 0 -8 -5 -12
-10 -9 -6 4 -8 11 -5 16 4 5 -44 9 -119 9 -122 0 -125 -1 -128 -22 -2 -13 -7
-21 -13 -18 -5 3 -9 13 -8 22 2 16 -15 17 -210 18 l-213 0 1 -27 c0 -14 -6
-28 -14 -31 -11 -4 -13 2 -8 27 l7 31 -50 0 c-45 0 -50 -3 -56 -25 -8 -32 -24
-32 -24 -1 l0 24 -230 1 -230 2 0 -31 c0 -20 -5 -30 -15 -30 -10 0 -15 10 -15
30 0 29 -1 30 -50 30 -27 0 -50 -4 -50 -10 0 -5 -5 -10 -11 -10 -5 0 -7 5 -4
10 4 6 -38 10 -119 10 l-126 0 0 -25 c0 -14 -4 -25 -10 -25 -10 0 -14 14 -11
38 1 9 -19 12 -74 12 -66 0 -75 -2 -75 -18 0 -28 -54 -74 -81 -70 -37 5 -28
23 14 26 34 3 37 6 37 33 l0 29 -90 0 -90 0 0 -43z m3100 -7 c-8 -15 -15 -19
-22 -12 -7 7 -6 17 2 32 8 15 15 19 22 12 7 -7 6 -17 -2 -32z m600 31 c0 -5
-7 -14 -15 -21 -13 -10 -15 -9 -15 9 0 12 6 21 15 21 8 0 15 -4 15 -9z m1440
-14 c0 -19 -27 -53 -36 -45 -9 10 12 58 26 58 5 0 10 -6 10 -13z m290 -11 c0
-17 -28 -41 -37 -32 -10 9 16 58 27 51 6 -3 10 -12 10 -19z m2324 16 c3 -5
-10 -24 -29 -42 -29 -28 -37 -32 -48 -21 -10 11 -9 15 3 19 8 3 23 16 35 28
21 25 31 29 39 16z m-3330 -23 c-3 -5 -10 -7 -15 -3 -5 3 -7 10 -3 15 3 5 10
7 15 3 5 -3 7 -10 3 -15z m3046 6 c0 -8 -11 -22 -25 -31 -20 -13 -30 -14 -59
-4 -36 12 -53 27 -42 37 3 4 14 -1 24 -10 25 -22 45 -21 67 3 21 24 35 26 35
5z m460 -17 c0 -5 -9 -4 -20 2 -11 6 -18 15 -14 21 6 11 34 -7 34 -23z m-6290
14 c0 -13 -12 -22 -22 -16 -10 6 -1 24 13 24 5 0 9 -4 9 -8z m4670 -1 c0 -5
-7 -14 -15 -21 -16 -14 -18 -10 -9 14 6 17 24 22 24 7z m871 -24 c-16 -16 -26
0 -10 19 9 11 15 12 17 4 2 -6 -1 -17 -7 -23z m459 23 c0 -5 -2 -10 -4 -10 -3
0 -8 5 -11 10 -3 6 -1 10 4 10 6 0 11 -4 11 -10z m-6648 -10 c19 0 28 -4 25
-12 -4 -12 -71 -13 -90 -1 -13 8 4 25 20 19 8 -3 28 -6 45 -6z m1490 -2 c23 1
33 -17 14 -24 -26 -10 -86 5 -86 22 0 11 7 13 28 7 15 -3 35 -6 44 -5z m803 2
c3 -5 -1 -10 -9 -10 -9 0 -16 5 -16 10 0 6 4 10 9 10 6 0 13 -4 16 -10z m358
-4 c15 -1 25 -5 23 -11 -3 -10 -84 -11 -93 -1 -11 11 10 27 26 20 9 -4 28 -8
44 -8z m270 -3 c15 -3 26 -11 24 -17 -4 -12 -52 -9 -80 6 -22 11 -12 32 12 23
9 -4 29 -9 44 -12z m927 2 c0 -8 -7 -15 -15 -15 -26 0 -18 20 13 29 1 1 2 -6
2 -14z m512 -12 c10 -12 7 -14 -17 -11 -18 2 -31 10 -33 20 -4 20 31 14 50 -9z
m1200 5 c-7 -7 -12 -8 -12 -2 0 14 12 26 19 19 2 -3 -1 -11 -7 -17z m553 2
c18 -19 17 -20 -1 -20 -20 0 -44 17 -44 32 0 15 27 8 45 -12z m-4069 -5 c18
-14 17 -15 -15 -13 -19 2 -36 9 -39 16 -5 17 30 15 54 -3z m1464 5 c0 -5 -5
-10 -11 -10 -5 0 -7 5 -4 10 3 6 8 10 11 10 2 0 4 -4 4 -10z m563 -7 c4 -3 5
-9 2 -14 -7 -11 -45 7 -45 21 0 8 20 5 43 -7z m1735 -2 c3 -8 -1 -12 -9 -9 -7
2 -15 10 -17 17 -3 8 1 12 9 9 7 -2 15 -10 17 -17z m-6358 -1 c0 -5 -9 -10
-20 -10 -11 0 -20 5 -20 10 0 6 9 10 20 10 11 0 20 -4 20 -10z m3739 1 c9 -6
10 -11 2 -15 -13 -8 -31 1 -31 15 0 11 11 11 29 0z m2316 -1 c3 -5 -1 -10 -9
-10 -9 0 -16 5 -16 10 0 6 4 10 9 10 6 0 13 -4 16 -10z M1270 1831 c-9 -5
-278 -8 -643 -8 l-627 2 0 -27 0 -28 328 -2 c180 -1 611 -3 957 -5 347 -2 646
-4 665 -4 19 0 78 0 130 -1 52 0 106 0 120 0 37 0 -36 0 2870 1 1477 0 2745 1
2818 1 l132 0 0 30 0 30 -437 1 c-241 0 -447 1 -458 1 -20 0 -571 0 -610 0
-11 0 -202 0 -425 -1 -223 0 -416 0 -430 0 -14 0 -144 0 -290 0 -146 0 -272 0
-280 0 -17 0 -275 -1 -305 -1 -11 0 -85 0 -165 0 -80 1 -156 1 -170 1 -38 0
-853 -1 -865 -1 -27 1 -255 1 -290 1 -22 0 -139 0 -260 0 -121 0 -231 0 -245
0 -14 0 -95 0 -180 0 -85 1 -171 1 -190 1 -19 -1 -69 0 -110 0 -41 1 -97 1
-125 0 -27 0 -81 0 -120 0 -99 2 -134 2 -185 -1 -74 -5 -533 6 -565 13 -16 3
-37 2 -45 -3z M2840 1720 c-53 -17 -128 -31 -199 -35 -40 -3 -77 -8 -82 -10
-4 -3 -15 -31 -24 -63 -8 -31 -27 -84 -41 -118 -13 -33 -22 -68 -18 -77 9 -24
-5 -89 -18 -85 -6 2 -22 32 -36 66 -23 55 -28 61 -48 56 -13 -3 -43 -7 -66 -9
-24 -2 -83 -9 -133 -15 -49 -7 -110 -13 -135 -14 -25 -2 -65 -8 -90 -14 -64
-16 -64 -17 -99 37 -17 28 -42 53 -54 57 -12 4 -34 16 -48 27 -62 46 -136 40
-267 -20 -29 -13 -65 -24 -80 -25 -108 -3 -663 25 -732 37 -47 8 -149 19 -227
25 -78 6 -161 17 -185 26 -23 8 -81 19 -128 23 -47 5 -92 11 -100 13 -10 2
-16 -6 -18 -23 -3 -24 1 -27 35 -34 21 -3 47 -12 58 -19 11 -8 41 -17 65 -21
25 -4 71 -16 102 -26 32 -10 75 -19 98 -19 22 0 66 -9 97 -20 32 -11 100 -24
151 -30 52 -6 110 -17 130 -26 20 -8 88 -22 150 -29 62 -8 154 -26 205 -39 51
-14 146 -32 211 -41 65 -9 135 -22 155 -29 20 -8 54 -21 76 -29 22 -9 52 -18
67 -21 15 -3 33 -12 40 -19 7 -7 25 -20 40 -30 25 -16 81 -80 118 -137 27 -41
64 -84 100 -115 19 -16 41 -37 50 -45 30 -30 109 -79 192 -119 61 -30 119 -47
221 -68 l137 -28 2 -65 c1 -36 4 -92 5 -125 2 -33 5 -94 6 -135 3 -74 15 -118
40 -145 6 -8 26 -32 42 -54 32 -43 55 -50 76 -24 8 9 25 21 39 28 52 24 89 51
99 72 7 15 19 23 36 23 30 0 43 24 25 45 -8 9 -10 28 -6 52 4 21 7 52 6 70 0
23 5 33 20 38 27 9 48 43 70 112 20 65 47 81 42 24 -4 -42 15 -89 39 -96 11
-4 27 -17 35 -30 43 -65 168 -97 255 -64 27 11 60 19 72 19 13 0 27 4 33 9 5
5 36 16 69 24 33 9 92 25 130 37 67 21 95 29 168 49 17 5 93 27 169 50 75 23
143 41 152 41 21 0 43 47 29 61 -10 10 -112 -10 -168 -32 -55 -21 -71 -19
-104 15 l-33 34 53 25 c30 13 79 32 109 42 66 21 82 38 74 80 -5 31 -5 31 53
42 76 14 226 57 336 95 68 24 87 35 87 49 0 22 -54 121 -75 139 -8 7 -17 27
-21 46 -4 21 -13 36 -26 40 -11 3 -17 12 -14 19 2 7 -3 23 -12 36 -9 13 -24
41 -33 63 -25 63 -34 64 -140 19 -52 -22 -128 -52 -169 -67 -41 -15 -84 -31
-95 -36 -196 -79 -476 -177 -630 -221 -22 -6 -49 -15 -60 -19 -11 -5 -31 -11
-45 -14 -14 -2 -43 -10 -65 -16 -61 -17 -115 -30 -170 -40 -63 -12 -79 1 -82
68 -1 26 -7 74 -13 107 -6 33 -12 79 -13 103 -2 32 -8 48 -26 61 -21 16 -22
19 -6 25 14 5 16 14 11 44 -12 64 -8 94 30 221 36 119 37 124 19 137 -21 15
-56 16 -95 4z m-105 -132 c-11 -36 -25 -45 -25 -17 0 27 7 39 22 39 5 0 6 -10
3 -22z m85 -188 c0 -5 -7 -10 -15 -10 -8 0 -15 5 -15 10 0 6 7 10 15 10 8 0
15 -4 15 -10z m-1424 -20 c19 -8 24 -14 17 -21 -12 -12 -150 8 -159 23 -7 12
110 10 142 -2z m312 1 c8 -5 12 -21 10 -37 -2 -23 -9 -30 -29 -32 -35 -4 -52
18 -39 52 10 26 33 33 58 17z m782 -101 c0 -11 -7 -20 -15 -20 -8 0 -15 9 -15
20 0 11 7 20 15 20 8 0 15 -9 15 -20z m107 -52 c-3 -8 -6 -5 -6 6 -1 11 2 17
5 13 3 -3 4 -12 1 -19z m-115 -28 c23 -18 26 -29 32 -122 4 -57 14 -122 23
-146 9 -23 13 -45 10 -49 -4 -3 -55 0 -114 6 -120 13 -252 52 -298 87 -95 73
-115 94 -139 139 l-27 50 83 8 c46 4 103 10 128 12 99 9 201 23 207 29 14 13
72 5 95 -14z m138 -79 c0 -6 -4 -13 -10 -16 -5 -3 -10 1 -10 9 0 9 5 16 10 16
6 0 10 -4 10 -9z m1360 -75 c0 -8 7 -19 15 -26 10 -8 12 -17 6 -23 -13 -13
-34 2 -27 19 3 7 1 16 -4 19 -6 4 -10 13 -10 21 0 8 5 12 10 9 6 -3 10 -12 10
-19z m-1354 -63 c-10 -10 -19 5 -10 18 6 11 8 11 12 0 2 -7 1 -15 -2 -18z
m1284 7 c0 -5 -4 -10 -10 -10 -5 0 -10 5 -10 10 0 6 5 10 10 10 6 0 10 -4 10
-10z m-1925 -21 c10 -15 -1 -23 -20 -15 -9 3 -13 10 -10 16 8 13 22 13 30 -1z
m1625 -35 c21 -56 17 -60 -77 -73 -117 -15 -138 -19 -208 -31 -97 -17 -247
-42 -285 -46 -19 -2 -89 -11 -155 -19 -238 -31 -523 -17 -612 29 -26 14 -68
28 -93 32 -51 8 -80 20 -80 34 0 20 65 9 144 -24 70 -29 97 -35 196 -41 136
-9 269 -7 359 5 108 15 252 38 311 50 64 13 91 18 145 25 22 4 49 10 60 15 11
5 34 11 50 13 48 8 185 44 192 51 15 15 44 4 53 -20z m-1556 -10 c22 -8 20
-34 -2 -34 -19 0 -42 18 -42 32 0 9 22 10 44 2z m626 -24 c0 -13 -11 -13 -30
0 -12 8 -11 10 8 10 12 0 22 -4 22 -10z m1310 -100 c0 -5 -10 -11 -22 -15 -24
-7 -40 -13 -102 -40 -21 -9 -66 -25 -100 -35 -33 -9 -79 -25 -101 -34 -47 -20
-109 -41 -147 -50 -28 -6 -39 7 -14 17 8 3 21 26 31 50 16 42 20 46 59 50 22
3 79 13 126 22 47 9 118 22 158 29 40 7 75 16 78 19 8 7 34 -3 34 -13z m-556
-86 c27 -10 18 -31 -39 -86 -62 -60 -108 -88 -145 -88 -27 0 -114 57 -137 90
-8 11 -21 20 -29 20 -9 0 -14 6 -12 12 3 8 57 18 156 29 84 9 155 19 159 22 8
9 27 9 47 1z m396 -74 c0 -5 -4 -10 -10 -10 -5 0 -10 5 -10 10 0 6 5 10 10 10
6 0 10 -4 10 -10z m-40 -19 c0 -11 -174 -97 -215 -106 -16 -4 -55 -16 -86 -26
-67 -23 -89 -24 -89 -4 0 8 9 15 19 15 11 0 22 4 25 9 3 5 29 16 58 25 29 10
69 24 88 33 54 25 163 63 183 63 9 0 17 -4 17 -9z m-705 -71 c3 -5 2 -10 -4
-10 -5 0 -13 5 -16 10 -3 6 -2 10 4 10 5 0 13 -4 16 -10z m79 -56 c9 -3 16
-10 16 -15 0 -15 -37 -10 -50 6 -10 12 -10 15 3 15 8 0 22 -3 31 -6z m216 -35
c0 -5 -7 -9 -15 -9 -15 0 -20 12 -9 23 8 8 24 -1 24 -14z M7355 1688 c-11 -6
-37 -11 -57 -9 -21 1 -48 -5 -62 -14 -20 -13 -28 -14 -44 -4 -14 9 -27 9 -51
1 -17 -6 -38 -9 -46 -5 -40 15 -105 -45 -105 -96 0 -12 -12 -45 -26 -73 -23
-45 -25 -60 -22 -142 2 -50 -1 -93 -5 -96 -8 -4 -37 63 -35 79 2 20 -17 72
-32 86 -16 14 -26 14 -118 -1 -55 -9 -107 -14 -115 -11 -12 4 -41 58 -95 174
-18 39 -46 47 -122 33 -32 -6 -84 -11 -115 -12 -34 -1 -59 -6 -62 -13 -4 -12
28 -79 48 -99 5 -6 9 -14 9 -18 0 -16 -33 -8 -84 21 -45 25 -60 28 -124 26
-54 -2 -80 -7 -100 -22 -54 -39 -87 -45 -239 -46 -222 0 -545 19 -733 43 -47
7 -105 13 -130 15 -25 1 -63 8 -85 14 -22 6 -59 11 -81 11 -23 0 -61 7 -84 15
-49 17 -146 20 -155 5 -18 -29 83 -75 197 -91 37 -6 93 -19 124 -30 32 -10 74
-19 94 -19 21 0 57 -7 80 -15 23 -8 59 -15 80 -15 20 0 63 -9 95 -20 32 -11
66 -18 75 -15 9 3 38 -2 66 -10 27 -8 63 -15 80 -15 17 0 51 -7 74 -15 23 -8
60 -15 82 -15 22 0 48 -4 58 -10 17 -9 83 -22 211 -40 30 -4 65 -12 77 -19 11
-6 36 -11 54 -11 70 0 277 -119 299 -172 6 -16 20 -33 30 -39 10 -5 25 -23 34
-38 42 -82 261 -261 320 -261 11 0 44 -12 74 -25 30 -14 59 -24 65 -22 6 2 27
-1 46 -8 19 -7 65 -15 102 -19 l67 -7 5 -52 c5 -46 10 -125 20 -324 3 -55 8
-68 37 -101 19 -21 42 -53 51 -70 22 -41 55 -42 93 -2 16 17 35 30 42 30 7 0
30 16 52 35 21 19 46 35 55 35 24 0 32 48 12 81 -17 28 -16 30 3 55 12 15 21
32 21 39 0 6 9 20 20 30 11 10 23 34 26 54 4 20 13 45 20 56 8 11 14 29 14 40
0 12 12 27 31 38 32 18 49 15 49 -7 0 -8 34 -39 75 -70 41 -31 75 -61 75 -66
0 -22 -28 -7 -88 45 -35 30 -72 55 -82 55 -23 0 -35 -33 -21 -59 20 -36 124
-120 169 -136 60 -20 84 -19 156 5 63 21 88 29 169 51 47 13 47 13 47 57 0 38
-2 43 -17 37 -10 -4 -32 -11 -49 -15 -18 -4 -37 -10 -43 -14 -6 -4 -16 -4 -22
-1 -12 8 17 45 35 45 6 0 30 8 53 17 41 17 43 20 43 62 0 45 2 44 -47 24 -18
-7 -16 19 2 43 8 10 15 29 15 42 0 13 6 22 15 22 12 0 15 15 15 71 l0 71 -27
-6 c-106 -22 -676 -107 -753 -112 -179 -13 -392 -4 -435 18 -10 6 -36 12 -56
13 -46 3 -126 58 -92 63 12 2 37 -5 55 -14 18 -10 47 -19 63 -21 17 -1 59 -7
95 -12 173 -26 323 -14 735 59 152 27 206 39 353 77 l62 16 0 72 0 73 -32 -8
c-73 -19 -84 -22 -103 -31 -20 -9 -72 -23 -215 -60 -41 -11 -104 -28 -140 -39
-102 -30 -112 -29 -121 3 -4 16 -12 34 -18 41 -6 7 -9 26 -6 42 4 16 -1 76
-10 134 -10 58 -19 125 -22 150 -3 30 -12 51 -26 62 -20 15 -20 18 -5 35 8 10
21 42 27 72 6 30 20 68 30 85 21 36 44 123 36 137 -8 12 -35 11 -60 -3z m-165
-152 c0 -3 -4 -8 -10 -11 -5 -3 -10 -1 -10 4 0 6 5 11 10 11 6 0 10 -2 10 -4z
m80 -166 c0 -5 -4 -10 -10 -10 -5 0 -10 5 -10 10 0 6 5 10 10 10 6 0 10 -4 10
-10z m-55 -10 c-3 -5 -10 -10 -16 -10 -5 0 -9 5 -9 10 0 6 7 10 16 10 8 0 12
-4 9 -10z m-1425 -20 c0 -5 -4 -10 -10 -10 -5 0 -10 5 -10 10 0 6 5 10 10 10
6 0 10 -4 10 -10z m90 0 c0 -5 -4 -10 -10 -10 -5 0 -10 5 -10 10 0 6 5 10 10
10 6 0 10 -4 10 -10z m302 -15 c14 -31 3 -45 -38 -48 -25 -2 -29 2 -32 27 -6
49 50 65 70 21z m772 -154 c10 -11 16 -23 13 -28 -3 -4 5 -68 18 -141 18 -110
20 -134 9 -138 -8 -2 -21 -6 -30 -9 -30 -10 -198 16 -235 36 -20 10 -45 19
-54 19 -60 0 -211 137 -217 196 -3 27 -1 29 37 32 22 1 105 11 185 22 138 19
189 25 236 28 11 1 29 -7 38 -17z m-664 -21 c0 -5 -4 -10 -10 -10 -5 0 -10 5
-10 10 0 6 5 10 10 10 6 0 10 -4 10 -10z m96 -144 c22 -17 11 -35 -13 -20 -19
12 -29 34 -16 34 5 0 18 -6 29 -14z m130 -127 c27 -18 60 -41 74 -52 l25 -20
-30 7 c-33 8 -135 73 -135 87 0 15 14 10 66 -22z m1403 -198 c10 -6 -6 -27
-64 -82 -93 -90 -129 -102 -185 -65 -58 38 -114 96 -104 105 5 5 70 17 144 26
74 9 137 19 139 21 8 7 56 4 70 -5z m-49 -231 c0 -12 -40 -34 -47 -26 -9 8 17
36 33 36 8 0 14 -4 14 -10z m-80 -30 c0 -5 -4 -10 -10 -10 -5 0 -10 5 -10 10
0 6 5 10 10 10 6 0 10 -4 10 -10z M920 1135 c-19 -7 -53 -14 -75 -15 -22 0
-51 -7 -65 -15 -14 -8 -36 -14 -50 -15 -14 0 -56 -8 -95 -17 -62 -15 -88 -15
-247 -5 -97 6 -184 9 -193 6 -24 -10 -18 -30 20 -59 20 -14 43 -34 53 -44 9
-10 38 -30 63 -45 25 -14 54 -35 64 -46 10 -11 22 -20 26 -20 4 0 42 -24 84
-52 42 -29 90 -60 106 -70 17 -9 38 -23 48 -32 10 -9 23 -16 31 -16 7 0 27 -9
44 -19 17 -10 55 -24 84 -30 29 -6 66 -18 81 -26 16 -8 57 -19 91 -24 34 -6
64 -12 65 -13 15 -17 45 -88 45 -106 0 -13 7 -36 14 -50 71 -130 62 -181 -34
-197 -86 -14 -134 -55 -117 -99 7 -18 133 -31 215 -23 183 19 202 26 202 80 0
22 -13 44 -50 83 -27 29 -50 59 -50 68 0 8 -8 28 -17 44 -14 25 -15 32 -4 46
19 23 38 20 63 -9 12 -14 25 -25 29 -25 11 0 109 99 109 110 0 10 38 56 88
105 12 12 22 31 22 41 0 12 11 24 29 30 66 25 42 108 -38 131 -86 25 -124 79
-81 118 28 25 25 37 -12 66 -58 43 -132 89 -144 89 -6 0 -36 11 -65 24 -37 17
-87 28 -158 35 -126 13 -137 13 -181 -4z m70 -99 c0 -14 -5 -28 -10 -31 -13
-8 -24 20 -16 40 9 24 26 17 26 -9z m195 -36 c0 -7 -6 -15 -12 -17 -8 -3 -13
4 -13 17 0 13 5 20 13 18 6 -3 12 -11 12 -18z m-734 -43 c-5 -5 -18 -7 -28 -3
-14 6 -15 9 -4 16 19 11 46 1 32 -13z m179 -37 c0 -5 -7 -10 -15 -10 -8 0 -15
5 -15 10 0 6 7 10 15 10 8 0 15 -4 15 -10z m736 -27 c-11 -11 -19 6 -11 24 8
17 8 17 12 0 3 -10 2 -21 -1 -24z m-313 6 c58 -16 44 -29 -30 -28 -87 0 -145
11 -151 27 -5 15 125 17 181 1z m134 -68 c3 -11 16 -22 29 -25 13 -4 24 -13
24 -21 0 -21 -26 -19 -42 3 -7 9 -25 23 -40 29 -35 16 -36 33 -2 33 17 0 28
-6 31 -19z m-270 -73 c-3 -8 -6 -5 -6 6 -1 11 2 17 5 13 3 -3 4 -12 1 -19z
m83 0 c0 -16 -3 -19 -11 -11 -6 6 -8 16 -5 22 11 17 16 13 16 -11z m284 -4 c9
-3 16 -15 16 -25 0 -16 -3 -17 -25 -7 -40 18 -32 48 9 32z M5635 1021 c-3 -2
-35 -7 -72 -11 -38 -4 -111 -17 -163 -30 -103 -23 -283 -30 -343 -12 -17 6
-58 13 -90 15 -75 7 -81 -7 -30 -73 21 -28 50 -67 66 -86 15 -20 27 -43 27
-50 0 -8 4 -14 10 -14 5 0 21 -17 35 -37 14 -21 35 -52 47 -69 13 -17 39 -55
58 -83 45 -66 80 -67 80 -1 0 9 7 23 16 30 8 7 14 23 13 34 0 12 -1 24 0 28 1
4 58 -20 127 -53 70 -34 150 -64 178 -69 89 -15 100 -22 115 -78 13 -53 34
-100 64 -142 27 -39 21 -64 -20 -91 -21 -13 -54 -31 -73 -38 -49 -20 -60 -30
-60 -56 0 -29 30 -37 155 -40 141 -4 195 4 207 30 12 27 -11 77 -52 111 -32
27 -69 129 -52 146 7 7 17 6 30 -1 46 -24 66 -14 143 75 41 47 80 96 87 110 7
13 24 41 37 61 14 19 25 46 25 59 0 23 -7 27 -100 48 -14 3 -34 12 -45 20 -20
15 -20 15 4 60 21 37 23 47 12 60 -28 34 -187 115 -246 126 -78 15 -185 27
-190 21z m205 -341 c0 -11 -4 -20 -9 -20 -14 0 -23 18 -16 30 10 17 25 11 25
-10z M0 987 c0 -20 5 -37 10 -37 19 0 22 29 6 52 -16 22 -16 22 -16 -15z M555
10 c-86 -5 -61 -6 119 -8 126 -1 227 0 225 2 -9 7 -239 11 -344 6z M27 3 c18
-2 50 -2 70 0 21 2 7 4 -32 4 -39 0 -55 -2 -38 -4z M1113 3 c31 -2 83 -2 115
0 31 2 5 3 -58 3 -63 0 -89 -1 -57 -3z M1448 3 c23 -2 61 -2 85 0 23 2 4 4
-43 4 -47 0 -66 -2 -42 -4z M1728 3 c17 -2 47 -2 65 0 17 2 3 4 -33 4 -36 0
-50 -2 -32 -4z M1963 3 c15 -2 39 -2 55 0 15 2 2 4 -28 4 -30 0 -43 -2 -27 -4z
M2173 3 c15 -2 37 -2 50 0 12 2 0 4 -28 4 -27 0 -38 -2 -22 -4z M2358 3 c12
-2 32 -2 45 0 12 2 2 4 -23 4 -25 0 -35 -2 -22 -4z M2538 3 c12 -2 30 -2 40 0
9 3 -1 5 -23 4 -22 0 -30 -2 -17 -4z M2698 3 c12 -2 30 -2 40 0 9 3 -1 5 -23
4 -22 0 -30 -2 -17 -4z M2853 3 c9 -2 25 -2 35 0 9 3 1 5 -18 5 -19 0 -27 -2
-17 -5z M3003 3 c9 -2 23 -2 30 0 6 3 -1 5 -18 5 -16 0 -22 -2 -12 -5z M3143
3 c9 -2 23 -2 30 0 6 3 -1 5 -18 5 -16 0 -22 -2 -12 -5z M3273 3 c9 -2 23 -2
30 0 6 3 -1 5 -18 5 -16 0 -22 -2 -12 -5z M3403 3 c9 -2 23 -2 30 0 6 3 -1 5
-18 5 -16 0 -22 -2 -12 -5z M3523 3 c9 -2 23 -2 30 0 6 3 -1 5 -18 5 -16 0
-22 -2 -12 -5z M3643 3 c9 -2 23 -2 30 0 6 3 -1 5 -18 5 -16 0 -22 -2 -12 -5z
M3758 3 c6 -2 18 -2 25 0 6 3 1 5 -13 5 -14 0 -19 -2 -12 -5z M3868 3 c6 -2
18 -2 25 0 6 3 1 5 -13 5 -14 0 -19 -2 -12 -5z M3988 3 c7 -3 16 -2 19 1 4 3
-2 6 -13 5 -11 0 -14 -3 -6 -6z M4088 3 c7 -3 16 -2 19 1 4 3 -2 6 -13 5 -11
0 -14 -3 -6 -6z M4188 3 c7 -3 16 -2 19 1 4 3 -2 6 -13 5 -11 0 -14 -3 -6 -6z
M4298 3 c7 -3 16 -2 19 1 4 3 -2 6 -13 5 -11 0 -14 -3 -6 -6z M4388 3 c7 -3
16 -2 19 1 4 3 -2 6 -13 5 -11 0 -14 -3 -6 -6z M4588 3 c7 -3 16 -2 19 1 4 3
-2 6 -13 5 -11 0 -14 -3 -6 -6z M4858 3 c7 -3 16 -2 19 1 4 3 -2 6 -13 5 -11
0 -14 -3 -6 -6z M5758 3 c7 -3 16 -2 19 1 4 3 -2 6 -13 5 -11 0 -14 -3 -6 -6z
M6478 3 c7 -3 16 -2 19 1 4 3 -2 6 -13 5 -11 0 -14 -3 -6 -6z M7008 3 c7 -3
16 -2 19 1 4 3 -2 6 -13 5 -11 0 -14 -3 -6 -6z M7138 3 c7 -3 16 -2 19 1 4 3
-2 6 -13 5 -11 0 -14 -3 -6 -6z M7318 3 c7 -3 16 -2 19 1 4 3 -2 6 -13 5 -11
0 -14 -3 -6 -6z M7498 3 c6 -2 18 -2 25 0 6 3 1 5 -13 5 -14 0 -19 -2 -12 -5z
M7738 3 c7 -3 16 -2 19 1 4 3 -2 6 -13 5 -11 0 -14 -3 -6 -6z M7968 3 c7 -3
16 -2 19 1 4 3 -2 6 -13 5 -11 0 -14 -3 -6 -6z"/>
</g>
</svg>
