<svg version="1.0" xmlns="http://www.w3.org/2000/svg"
 width="125" height="113" viewBox="0 0 125.000000 113.000000"
 preserveAspectRatio="xMidYMid meet">
<g transform="translate(0.000000,113.000000) scale(0.100000,-0.100000)"
fill="#c8a84e" stroke="none">
<path d="M0 1122 c0 -13 411 -26 852 -27 373 0 398 1 398 18 0 16 -36 17 -625
17 -344 0 -625 -4 -625 -8z M440 1000 c-47 -3 -165 -4 -263 -2 l-177 5 0 -26
0 -27 108 -1 c154 -1 360 -13 368 -22 4 -4 2 -18 -4 -33 -9 -18 -9 -31 -2 -45
9 -16 7 -21 -15 -29 -15 -6 -54 -10 -87 -10 l-60 0 6 28 c4 15 8 34 9 41 2 18
-44 37 -67 28 -18 -7 -21 -48 -6 -77 14 -26 -12 -33 -113 -30 -134 4 -137 3
-137 -25 l0 -25 158 0 c118 0 163 -3 177 -14 18 -13 17 -14 -12 -30 -18 -9
-34 -25 -38 -36 -9 -29 -24 -25 -66 16 -33 32 -41 35 -95 35 -55 0 -60 -2 -91
-38 -26 -31 -32 -47 -33 -84 0 -43 2 -46 45 -74 50 -31 46 -45 -12 -45 -31 0
-33 -2 -33 -35 l0 -34 277 -1 c153 0 296 -1 318 -1 22 0 85 -1 140 0 55 0 193
-1 308 -2 l207 -2 0 160 c0 112 -4 165 -12 173 -9 9 -9 12 0 12 7 0 12 13 12
29 0 23 -5 30 -22 33 -20 3 -23 8 -20 40 2 28 -2 39 -17 47 -54 29 -85 -4 -57
-61 9 -17 14 -33 12 -35 -2 -3 -41 -1 -86 3 l-81 7 3 40 c3 35 -1 43 -24 56
-22 13 -29 13 -42 2 -26 -22 -20 -69 9 -83 47 -21 27 -31 -52 -24 -113 10
-116 12 -109 51 8 39 -10 58 -51 53 -24 -3 -28 -8 -31 -37 -2 -18 1 -38 7 -44
6 -6 11 -15 11 -19 0 -18 -159 -3 -178 17 -4 4 1 11 11 16 21 12 22 37 1 60
-16 17 -15 19 12 30 17 7 74 11 134 10 58 -1 210 -3 338 -4 l232 -2 0 30 0 30
-317 1 c-175 0 -338 3 -363 6 -25 3 -83 2 -130 -2z m713 -259 c16 -2 6 -22
-17 -30 -14 -6 -30 -26 -40 -51 l-16 -41 -33 22 c-17 12 -43 32 -57 44 -28 25
-81 45 -116 45 -19 0 -51 -31 -80 -78 -4 -7 -48 21 -64 40 -8 10 -40 24 -72
30 l-57 12 -36 -37 c-20 -20 -40 -37 -46 -37 -13 0 -79 53 -79 63 0 20 67 24
374 22 182 -2 334 -3 339 -4z m85 -79 c3 -9 -2 -13 -14 -10 -9 1 -19 9 -22 16
-3 9 2 13 14 10 9 -1 19 -9 22 -16z m-1113 -2 c3 -5 -3 -10 -15 -10 -12 0 -18
5 -15 10 3 6 10 10 15 10 5 0 12 -4 15 -10z m540 -3 c16 -13 15 -14 -13 -9
-18 2 -29 8 -26 13 7 12 17 11 39 -4z m239 4 c3 -5 -1 -12 -10 -15 -22 -9 -24
-8 -24 9 0 16 25 21 34 6z m-716 -50 c2 -32 0 -42 -10 -39 -7 3 -12 14 -10 26
2 12 -2 31 -8 43 -10 18 -9 20 7 17 13 -2 19 -14 21 -47z m772 23 c0 -18 -14
-18 -29 0 -9 11 -9 15 1 19 17 6 28 -1 28 -19z m-610 1 c0 -8 -4 -15 -10 -15
-5 0 -10 7 -10 15 0 8 5 15 10 15 6 0 10 -7 10 -15z m819 3 c0 -7 -4 -22 -9
-33 -7 -17 -9 -15 -9 13 -1 17 4 32 9 32 6 0 10 -6 9 -12z m-569 -5 c-1 -18
-18 -35 -24 -24 -4 6 -4 16 -1 21 7 12 25 13 25 3z m116 -17 c7 -17 -14 -59
-25 -52 -10 7 -1 66 10 66 5 0 12 -6 15 -14z m-346 -47 c0 -5 -9 -9 -20 -9
-19 0 -27 20 -13 33 7 8 33 -11 33 -24z m580 6 c0 -8 -4 -15 -10 -15 -5 0 -10
7 -10 15 0 8 5 15 10 15 6 0 10 -7 10 -15z m-661 -30 c43 -64 156 -73 186 -15
19 37 29 37 77 4 43 -30 45 -36 22 -55 -19 -16 -337 -15 -379 1 -32 12 -32 24
-1 38 14 6 32 23 42 37 9 14 19 25 23 25 3 0 17 -16 30 -35z m136 15 c-3 -5
-12 -10 -20 -10 -8 0 -17 5 -20 10 -4 6 5 10 20 10 15 0 24 -4 20 -10z m365 0
c0 -6 11 -20 25 -32 50 -44 16 -74 -71 -63 -53 6 -81 24 -53 34 8 2 28 19 44
36 30 33 55 44 55 25z m280 -10 c22 -11 40 -24 40 -29 0 -4 18 -16 40 -26 22
-10 40 -21 40 -24 0 -9 -233 -7 -248 2 -16 11 -6 27 18 27 10 0 27 15 39 35
11 19 23 35 26 35 3 0 24 -9 45 -20z m128 14 c12 -4 22 -11 22 -16 0 -14 -53
-5 -58 10 -4 13 2 15 36 6z M0 875 l0 -46 43 3 c42 3 42 3 42 43 0 40 0 40
-42 43 l-43 3 0 -46z M132 332 l-132 -3 0 -24 0 -25 118 -2 c64 -1 345 -2 624
-2 l508 -1 0 28 c0 26 -2 27 -47 28 -239 2 -966 3 -1071 1z M17 230 c-14 -9
-17 -27 -17 -120 l0 -110 40 0 c22 0 40 5 40 10 0 7 6 7 19 0 11 -6 87 -10
174 -10 148 0 155 1 160 21 5 20 6 20 33 2 23 -14 55 -18 191 -21 l164 -4 -12
25 c-6 14 -9 33 -5 43 5 14 11 10 33 -23 l26 -40 168 -2 c153 -1 168 1 162 16
-5 14 -1 15 25 10 l32 -6 0 104 c0 58 -4 105 -9 105 -5 0 -16 3 -25 6 -10 4
-28 -6 -48 -26 l-32 -32 -17 21 c-26 32 -65 43 -108 31 -24 -6 -57 -6 -96 0
-85 14 -93 13 -120 -15 -32 -31 -31 -38 6 -52 l31 -12 -19 -25 c-23 -32 -37
-28 -43 10 -9 54 -39 83 -100 94 -66 13 -232 3 -257 -15 -29 -21 -1 -41 69
-49 81 -8 105 -29 28 -25 -68 4 -80 -3 -80 -47 0 -48 -24 -40 -28 9 -2 19 -10
41 -18 47 -8 7 -14 18 -14 24 0 7 -11 22 -23 34 -22 20 -37 23 -168 28 -96 3
-150 1 -162 -6z m1000 -71 c57 -10 87 -29 71 -45 -7 -6 -148 39 -148 48 0 10
1 10 77 -3z m167 -8 c11 -12 16 -31 14 -52 -4 -43 -28 -52 -28 -10 0 16 -4 33
-10 36 -12 7 -13 45 -2 45 5 0 17 -9 26 -19z m-864 -22 c0 -14 -5 -19 -17 -17
-26 5 -29 38 -4 38 15 0 21 -6 21 -21z m378 9 c7 -7 12 -20 12 -30 0 -18 -1
-18 -25 -1 -26 19 -33 43 -12 43 7 0 18 -5 25 -12z"/>
</g>
</svg>
