<svg xmlns="http://www.w3.org/2000/svg" width="240" height="100" viewBox="0 0 240 100">
  <rect x="0.0" y="0.0" width="240.0" height="2.5" fill="#C8A84E" opacity="1.0"/>
  <rect x="0.0" y="5.0" width="240.0" height="1.0" fill="#C8A84E" opacity="0.6"/>
  <polygon points="0,38 24,8 48,38" fill="#C8A84E" opacity="1.0"/>
  <polygon points="48,38 72,8 96,38" fill="#C8A84E" opacity="1.0"/>
  <polygon points="96,38 120,8 144,38" fill="#C8A84E" opacity="1.0"/>
  <polygon points="144,38 168,8 192,38" fill="#C8A84E" opacity="1.0"/>
  <polygon points="192,38 216,8 240,38" fill="#C8A84E" opacity="1.0"/>
  <path d="M24,8 L48,38 L72,8" fill="none" stroke="#C8A84E" stroke-width="1.5" opacity="0.8"/>
  <line x1="43.2" y1="14.0" x2="52.8" y2="14.0" stroke="#C8A84E" stroke-width="1.0" opacity="0.6"/>
  <line x1="38.4" y1="20.0" x2="57.6" y2="20.0" stroke="#C8A84E" stroke-width="1.0" opacity="0.6"/>
  <line x1="33.6" y1="26.0" x2="62.4" y2="26.0" stroke="#C8A84E" stroke-width="1.0" opacity="0.6"/>
  <line x1="28.8" y1="32.0" x2="67.2" y2="32.0" stroke="#C8A84E" stroke-width="1.0" opacity="0.6"/>
  <path d="M72,8 L96,38 L120,8" fill="none" stroke="#C8A84E" stroke-width="1.5" opacity="0.8"/>
  <line x1="91.2" y1="14.0" x2="100.8" y2="14.0" stroke="#C8A84E" stroke-width="1.0" opacity="0.6"/>
  <line x1="86.4" y1="20.0" x2="105.6" y2="20.0" stroke="#C8A84E" stroke-width="1.0" opacity="0.6"/>
  <line x1="81.6" y1="26.0" x2="110.4" y2="26.0" stroke="#C8A84E" stroke-width="1.0" opacity="0.6"/>
  <line x1="76.8" y1="32.0" x2="115.2" y2="32.0" stroke="#C8A84E" stroke-width="1.0" opacity="0.6"/>
  <path d="M120,8 L144,38 L168,8" fill="none" stroke="#C8A84E" stroke-width="1.5" opacity="0.8"/>
  <line x1="139.2" y1="14.0" x2="148.8" y2="14.0" stroke="#C8A84E" stroke-width="1.0" opacity="0.6"/>
  <line x1="134.4" y1="20.0" x2="153.6" y2="20.0" stroke="#C8A84E" stroke-width="1.0" opacity="0.6"/>
  <line x1="129.6" y1="26.0" x2="158.4" y2="26.0" stroke="#C8A84E" stroke-width="1.0" opacity="0.6"/>
  <line x1="124.8" y1="32.0" x2="163.2" y2="32.0" stroke="#C8A84E" stroke-width="1.0" opacity="0.6"/>
  <path d="M168,8 L192,38 L216,8" fill="none" stroke="#C8A84E" stroke-width="1.5" opacity="0.8"/>
  <line x1="187.2" y1="14.0" x2="196.8" y2="14.0" stroke="#C8A84E" stroke-width="1.0" opacity="0.6"/>
  <line x1="182.4" y1="20.0" x2="201.6" y2="20.0" stroke="#C8A84E" stroke-width="1.0" opacity="0.6"/>
  <line x1="177.6" y1="26.0" x2="206.4" y2="26.0" stroke="#C8A84E" stroke-width="1.0" opacity="0.6"/>
  <line x1="172.8" y1="32.0" x2="211.2" y2="32.0" stroke="#C8A84E" stroke-width="1.0" opacity="0.6"/>
  <path d="M216,8 L240,38 L264,8" fill="none" stroke="#C8A84E" stroke-width="1.5" opacity="0.8"/>
  <line x1="235.2" y1="14.0" x2="244.8" y2="14.0" stroke="#C8A84E" stroke-width="1.0" opacity="0.6"/>
  <line x1="230.4" y1="20.0" x2="249.6" y2="20.0" stroke="#C8A84E" stroke-width="1.0" opacity="0.6"/>
  <line x1="225.6" y1="26.0" x2="254.4" y2="26.0" stroke="#C8A84E" stroke-width="1.0" opacity="0.6"/>
  <line x1="220.8" y1="32.0" x2="259.2" y2="32.0" stroke="#C8A84E" stroke-width="1.0" opacity="0.6"/>
  <rect x="0.0" y="38.0" width="240.0" height="1.0" fill="#C8A84E" opacity="0.6"/>
  <rect x="0.0" y="40.0" width="240.0" height="1.0" fill="#C8A84E" opacity="0.6"/>
  <rect x="0.0" y="42.0" width="240.0" height="2.5" fill="#C8A84E" opacity="1.0"/>
  <rect x="0.0" y="46.0" width="240.0" height="1.5" fill="#C8A84E" opacity="0.8"/>
  <rect x="0.0" y="56.5" width="240.0" height="1.5" fill="#C8A84E" opacity="0.8"/>
  <rect x="-1.5" y="48.0" width="3.0" height="8.0" fill="#C8A84E" opacity="0.7"/>
  <rect x="8.5" y="48.0" width="3.0" height="8.0" fill="#C8A84E" opacity="0.7"/>
  <rect x="18.5" y="48.0" width="3.0" height="8.0" fill="#C8A84E" opacity="0.7"/>
  <rect x="28.5" y="48.0" width="3.0" height="8.0" fill="#C8A84E" opacity="0.7"/>
  <rect x="38.5" y="48.0" width="3.0" height="8.0" fill="#C8A84E" opacity="0.7"/>
  <rect x="48.5" y="48.0" width="3.0" height="8.0" fill="#C8A84E" opacity="0.7"/>
  <rect x="58.5" y="48.0" width="3.0" height="8.0" fill="#C8A84E" opacity="0.7"/>
  <rect x="68.5" y="48.0" width="3.0" height="8.0" fill="#C8A84E" opacity="0.7"/>
  <rect x="78.5" y="48.0" width="3.0" height="8.0" fill="#C8A84E" opacity="0.7"/>
  <rect x="88.5" y="48.0" width="3.0" height="8.0" fill="#C8A84E" opacity="0.7"/>
  <rect x="98.5" y="48.0" width="3.0" height="8.0" fill="#C8A84E" opacity="0.7"/>
  <rect x="108.5" y="48.0" width="3.0" height="8.0" fill="#C8A84E" opacity="0.7"/>
  <rect x="118.5" y="48.0" width="3.0" height="8.0" fill="#C8A84E" opacity="0.7"/>
  <rect x="128.5" y="48.0" width="3.0" height="8.0" fill="#C8A84E" opacity="0.7"/>
  <rect x="138.5" y="48.0" width="3.0" height="8.0" fill="#C8A84E" opacity="0.7"/>
  <rect x="148.5" y="48.0" width="3.0" height="8.0" fill="#C8A84E" opacity="0.7"/>
  <rect x="158.5" y="48.0" width="3.0" height="8.0" fill="#C8A84E" opacity="0.7"/>
  <rect x="168.5" y="48.0" width="3.0" height="8.0" fill="#C8A84E" opacity="0.7"/>
  <rect x="178.5" y="48.0" width="3.0" height="8.0" fill="#C8A84E" opacity="0.7"/>
  <rect x="188.5" y="48.0" width="3.0" height="8.0" fill="#C8A84E" opacity="0.7"/>
  <rect x="198.5" y="48.0" width="3.0" height="8.0" fill="#C8A84E" opacity="0.7"/>
  <rect x="208.5" y="48.0" width="3.0" height="8.0" fill="#C8A84E" opacity="0.7"/>
  <rect x="218.5" y="48.0" width="3.0" height="8.0" fill="#C8A84E" opacity="0.7"/>
  <rect x="228.5" y="48.0" width="3.0" height="8.0" fill="#C8A84E" opacity="0.7"/>
  <rect x="238.5" y="48.0" width="3.0" height="8.0" fill="#C8A84E" opacity="0.7"/>
  <rect x="0.0" y="60.0" width="240.0" height="2.5" fill="#C8A84E" opacity="1.0"/>
  <rect x="0.0" y="63.5" width="240.0" height="1.0" fill="#C8A84E" opacity="0.6"/>
  <rect x="6.0" y="66.0" width="24.0" height="3.0" fill="#C8A84E" opacity="1.0"/>
  <rect x="27.0" y="66.0" width="3.0" height="26.0" fill="#C8A84E" opacity="1.0"/>
  <rect x="15.0" y="89.0" width="15.0" height="3.0" fill="#C8A84E" opacity="1.0"/>
  <rect x="15.0" y="79.0" width="3.0" height="10.0" fill="#C8A84E" opacity="1.0"/>
  <rect x="0.0" y="79.0" width="9.0" height="3.0" fill="#C8A84E" opacity="1.0"/>
  <rect x="54.0" y="66.0" width="24.0" height="3.0" fill="#C8A84E" opacity="1.0"/>
  <rect x="75.0" y="66.0" width="3.0" height="26.0" fill="#C8A84E" opacity="1.0"/>
  <rect x="63.0" y="89.0" width="15.0" height="3.0" fill="#C8A84E" opacity="1.0"/>
  <rect x="63.0" y="79.0" width="3.0" height="10.0" fill="#C8A84E" opacity="1.0"/>
  <rect x="48.0" y="79.0" width="9.0" height="3.0" fill="#C8A84E" opacity="1.0"/>
  <rect x="102.0" y="66.0" width="24.0" height="3.0" fill="#C8A84E" opacity="1.0"/>
  <rect x="123.0" y="66.0" width="3.0" height="26.0" fill="#C8A84E" opacity="1.0"/>
  <rect x="111.0" y="89.0" width="15.0" height="3.0" fill="#C8A84E" opacity="1.0"/>
  <rect x="111.0" y="79.0" width="3.0" height="10.0" fill="#C8A84E" opacity="1.0"/>
  <rect x="96.0" y="79.0" width="9.0" height="3.0" fill="#C8A84E" opacity="1.0"/>
  <rect x="150.0" y="66.0" width="24.0" height="3.0" fill="#C8A84E" opacity="1.0"/>
  <rect x="171.0" y="66.0" width="3.0" height="26.0" fill="#C8A84E" opacity="1.0"/>
  <rect x="159.0" y="89.0" width="15.0" height="3.0" fill="#C8A84E" opacity="1.0"/>
  <rect x="159.0" y="79.0" width="3.0" height="10.0" fill="#C8A84E" opacity="1.0"/>
  <rect x="144.0" y="79.0" width="9.0" height="3.0" fill="#C8A84E" opacity="1.0"/>
  <rect x="198.0" y="66.0" width="24.0" height="3.0" fill="#C8A84E" opacity="1.0"/>
  <rect x="219.0" y="66.0" width="3.0" height="26.0" fill="#C8A84E" opacity="1.0"/>
  <rect x="207.0" y="89.0" width="15.0" height="3.0" fill="#C8A84E" opacity="1.0"/>
  <rect x="207.0" y="79.0" width="3.0" height="10.0" fill="#C8A84E" opacity="1.0"/>
  <rect x="192.0" y="79.0" width="9.0" height="3.0" fill="#C8A84E" opacity="1.0"/>
  <rect x="0.0" y="94.0" width="240.0" height="1.0" fill="#C8A84E" opacity="0.6"/>
  <rect x="0.0" y="97.0" width="240.0" height="2.5" fill="#C8A84E" opacity="1.0"/>
</svg>