<?xml version="1.0" standalone="no"?>
<!DOCTYPE svg PUBLIC "-//W3C//DTD SVG 20010904//EN"
 "http://www.w3.org/TR/2001/REC-SVG-20010904/DTD/svg10.dtd">
<svg version="1.0" xmlns="http://www.w3.org/2000/svg"
 width="7225.000000pt" height="200.000000pt" viewBox="0 0 7225.000000 200.000000"
 preserveAspectRatio="xMidYMid meet">
<metadata>
Created by potrace 1.16, written by Peter Selinger 2001-2019
</metadata>
<g transform="translate(0.000000,200.000000) scale(0.100000,-0.100000)"
fill="#c8a84e" stroke="none">
<path d="M188 1964 c-4 -32 -3 -34 9 -18 7 10 13 23 13 30 0 7 6 15 13 17 6 3
2 6 -9 6 -18 1 -23 -6 -26 -35z M356 1992 c7 -4 14 -16 17 -27 4 -15 5 -14 6
8 1 20 -4 27 -16 27 -12 0 -14 -3 -7 -8z M600 1996 c0 -9 39 -13 51 -5 10 6 4
9 -18 9 -18 0 -33 -2 -33 -4z M748 1970 c2 -16 8 -30 13 -30 5 0 9 14 9 30 0
18 -5 30 -13 30 -9 0 -12 -10 -9 -30z M1240 1973 c1 -26 1 -27 12 -8 6 11 16
23 22 27 6 5 1 8 -11 8 -18 0 -23 -6 -23 -27z M1367 1987 c-11 -29 -9 -53 4
-40 6 6 9 21 7 34 -3 21 -4 22 -11 6z M1780 1993 c8 -4 20 -13 27 -22 11 -15
12 -14 13 1 0 9 6 19 13 21 6 3 -6 5 -28 5 -22 0 -33 -2 -25 -5z M2050 1993
c8 -3 17 -9 20 -13 3 -4 11 -2 18 6 11 12 8 14 -20 13 -18 0 -26 -3 -18 -6z
M2196 1978 c-8 -33 -7 -48 4 -48 6 0 10 13 10 29 0 20 6 31 18 34 13 4 13 5
-4 6 -15 1 -24 -7 -28 -21z M2503 1993 c9 -2 25 -2 35 0 9 3 1 5 -18 5 -19 0
-27 -2 -17 -5z M2684 1975 c-1 -14 2 -25 7 -25 5 0 9 4 9 9 0 5 7 17 16 25 14
15 13 16 -8 16 -17 0 -23 -6 -24 -25z M2940 1993 c8 -3 18 -11 23 -17 5 -8 9
-8 15 0 4 7 16 14 27 17 11 2 -2 5 -30 5 -27 0 -43 -2 -35 -5z M3303 1993 l67
-4 -15 -29 c-8 -16 -15 -34 -15 -40 0 -20 22 2 36 36 13 31 18 33 66 37 29 2
-5 3 -77 3 -71 0 -100 -1 -62 -3z M4478 1991 c30 -4 75 -4 100 0 34 4 19 6
-53 6 -79 0 -89 -1 -47 -6z M4820 1993 c8 -3 17 -9 20 -12 3 -4 21 -1 40 6
l35 12 -55 0 c-30 0 -48 -3 -40 -6z M5253 1994 c7 -8 87 -7 95 0 3 3 -19 6
-48 6 -29 0 -51 -3 -47 -6z M5563 1993 c10 -3 17 -14 17 -29 0 -24 31 -64 50
-64 18 0 10 17 -15 34 -31 20 -32 44 -2 56 18 7 13 9 -23 8 -25 0 -37 -2 -27
-5z M6010 1978 c0 -12 -7 -30 -17 -40 -9 -10 -13 -21 -10 -24 3 -4 15 9 26 27
11 19 25 40 31 47 8 9 6 12 -10 12 -14 0 -20 -7 -20 -22z M6175 1971 c18 -35
42 -61 58 -61 7 0 0 11 -15 25 -50 46 -32 54 125 58 l142 3 -163 2 -163 2 16
-29z M6730 1975 c0 -30 16 -33 25 -5 6 20 14 20 212 19 112 0 207 2 211 5 3 3
-97 6 -221 6 l-227 0 0 -25z M8155 1993 c33 -2 62 -8 65 -12 3 -4 16 -1 30 6
22 11 14 12 -65 11 -71 -1 -77 -3 -30 -5z M8501 1968 c9 -32 37 -63 47 -53 3
3 -3 14 -13 25 -23 25 -14 47 22 53 18 3 12 5 -19 6 l-47 1 10 -32z M8870
1993 c8 -4 20 -13 26 -21 10 -14 12 -14 20 0 5 9 18 18 29 21 11 2 -5 5 -35 5
-30 0 -48 -2 -40 -5z M9463 1993 c38 -6 44 -29 17 -59 -13 -13 -19 -24 -12
-24 20 0 42 31 42 61 0 27 -2 29 -37 28 -32 -2 -33 -3 -10 -6z M11140 1991
c41 -3 80 -9 85 -12 6 -4 16 -1 23 7 11 12 -2 14 -85 12 l-98 -1 75 -6z
M11387 1984 c3 -9 8 -11 12 -6 3 6 20 12 36 15 24 3 22 4 -12 6 -35 1 -41 -2
-36 -15z M12038 1993 c46 -3 62 -8 62 -18 0 -8 4 -15 8 -15 4 0 8 9 8 20 0 18
-6 20 -71 18 l-70 -2 63 -3z M12370 1987 c19 -7 37 -10 40 -6 3 3 12 9 20 12
8 3 -10 6 -40 6 l-55 0 35 -12z M12753 1990 c20 -4 54 -4 75 0 29 6 21 8 -38
8 -59 0 -67 -2 -37 -8z M13235 1993 c11 -3 25 -13 32 -22 11 -15 12 -15 13 1
0 9 6 19 13 21 6 3 -8 5 -33 5 -25 0 -36 -3 -25 -5z M13531 1988 c8 -7 20 -20
27 -27 10 -13 12 -11 12 12 0 23 -4 27 -27 27 -22 0 -24 -2 -12 -12z M13800
1993 c8 -3 23 -12 33 -21 15 -14 17 -13 17 1 0 8 6 18 13 20 6 3 -8 5 -33 5
-25 0 -38 -2 -30 -5z M14150 1981 c0 -11 5 -23 10 -26 6 -3 10 3 10 14 0 10 6
22 13 24 6 3 2 6 -10 6 -16 1 -23 -5 -23 -18z M14411 1988 c8 -7 20 -20 27
-27 10 -13 12 -11 12 12 0 23 -4 27 -27 27 -22 0 -24 -2 -12 -12z M14832 1995
c8 -8 98 -9 105 -1 4 3 -20 6 -52 6 -32 0 -56 -2 -53 -5z M15200 1970 c11 -39
19 -50 34 -50 10 0 8 10 -6 40 -23 47 -40 53 -28 10z M15590 1986 c0 -29 27
-38 32 -11 4 19 1 25 -13 25 -11 0 -19 -6 -19 -14z M16040 1986 c0 -29 20 -66
35 -66 15 0 15 2 1 22 -21 29 -20 45 2 51 10 3 6 5 -10 6 -18 1 -28 -4 -28
-13z M16480 1969 c0 -17 4 -28 10 -24 6 3 10 17 10 31 0 13 -4 24 -10 24 -5 0
-10 -14 -10 -31z M16920 1975 c0 -14 2 -25 4 -25 2 0 6 11 8 25 3 14 1 25 -3
25 -5 0 -9 -11 -9 -25z M17047 1979 c5 -19 8 -20 17 -7 6 8 18 17 26 21 8 3 1
6 -17 6 -27 1 -30 -2 -26 -20z M17530 1974 c0 -14 4 -23 9 -20 5 3 7 15 4 26
-7 28 -13 25 -13 -6z M17921 1973 c1 -22 2 -23 6 -8 3 11 10 23 17 27 7 5 5 8
-6 8 -13 0 -18 -7 -17 -27z M18078 1993 c6 -2 12 -13 12 -23 0 -22 45 -60 71
-60 32 0 21 19 -13 22 -29 3 -33 7 -36 36 -3 26 -8 32 -25 31 -12 0 -16 -3 -9
-6z M18478 1975 c2 -14 8 -25 13 -25 5 0 9 11 9 25 0 14 -6 25 -14 25 -9 0
-12 -8 -8 -25z M18937 1993 c12 -2 23 -11 25 -19 2 -12 7 -11 20 6 18 20 17
20 -25 19 -23 -1 -32 -4 -20 -6z M19088 1975 c4 -25 22 -25 22 0 0 7 8 16 18
18 9 3 3 5 -14 6 -28 1 -31 -2 -26 -24z M19530 1973 c0 -22 2 -25 10 -13 13
20 13 40 0 40 -5 0 -10 -12 -10 -27z M19968 1980 c-11 -38 -10 -56 3 -43 6 6
9 23 7 39 l-3 29 -7 -25z M20385 1993 c11 -3 25 -9 30 -13 6 -4 16 -2 23 6 11
12 6 14 -30 13 -24 -1 -34 -4 -23 -6z M20538 1975 c2 -14 6 -25 8 -25 2 0 4
11 4 25 0 14 -4 25 -9 25 -4 0 -6 -11 -3 -25z M20807 1976 c-5 -15 -6 -31 -3
-34 8 -8 18 25 14 45 -3 13 -6 10 -11 -11z M21306 1978 c-3 -13 -6 -26 -6 -30
0 -8 70 -32 76 -25 3 3 -4 8 -15 12 -29 9 -48 45 -30 56 11 7 11 9 -2 9 -9 0
-19 -10 -23 -22z M21560 1993 c8 -3 17 -9 20 -14 3 -4 14 -1 24 7 18 13 17 14
-20 13 -21 0 -32 -3 -24 -6z M21830 1993 c8 -3 18 -11 23 -17 5 -8 9 -8 15 0
4 6 14 14 22 17 8 3 -5 5 -30 5 -25 0 -38 -2 -30 -5z M22150 1993 c8 -3 18
-10 21 -15 3 -5 19 -2 35 7 l29 15 -50 -1 c-27 0 -43 -3 -35 -6z M22443 1993
c9 -2 17 -9 17 -15 0 -7 4 -7 13 0 7 6 33 12 57 15 28 2 16 4 -30 4 -41 0 -67
-1 -57 -4z M22703 1994 c7 -8 87 -7 95 0 3 3 -19 6 -48 6 -29 0 -51 -3 -47 -6z
M23013 1993 c9 -2 17 -12 17 -22 0 -24 34 -54 57 -49 14 3 12 7 -12 18 -46 23
-45 48 2 53 25 2 17 4 -22 4 -33 0 -52 -1 -42 -4z M23858 1991 c30 -4 75 -4
100 0 34 4 19 6 -53 6 -79 0 -89 -1 -47 -6z M24458 1991 c35 -3 89 -3 120 0
40 4 20 6 -63 6 -91 0 -105 -2 -57 -6z M25138 1993 c18 -2 45 -2 60 0 15 2 0
4 -33 4 -33 0 -45 -2 -27 -4z M25335 1991 c11 -4 54 -4 95 -1 l75 7 -95 1
c-52 0 -86 -3 -75 -7z M26575 1993 c27 -3 53 -9 56 -15 5 -8 13 -6 24 5 15 16
11 17 -57 15 -59 -1 -64 -2 -23 -5z M26813 1993 c8 -7 98 -5 105 2 3 3 -21 5
-53 5 -32 0 -55 -3 -52 -7z M27214 1993 l28 -5 -23 -24 c-12 -13 -18 -24 -11
-24 6 0 20 14 32 30 l21 30 -38 -1 c-32 -2 -33 -3 -9 -6z M28334 1993 l79 -4
-28 -29 c-16 -17 -23 -30 -17 -30 14 0 52 36 52 49 0 6 24 12 53 14 28 2 -9 3
-83 3 -74 0 -99 -2 -56 -3z M28673 1993 c17 -4 16 -8 -9 -34 -20 -21 -23 -29
-12 -29 17 0 48 31 48 48 0 6 8 13 18 15 9 3 -1 5 -23 5 -22 0 -32 -2 -22 -5z
M29157 1993 c18 -2 50 -2 70 0 21 2 7 4 -32 4 -38 0 -55 -2 -38 -4z M29820
1991 l35 -6 -34 -24 c-39 -28 -26 -41 14 -15 53 34 52 54 -2 53 -45 -2 -46 -2
-13 -8z M30017 1970 c14 -17 28 -28 30 -26 8 8 -29 56 -43 56 -9 0 -5 -10 13
-30z M30695 1991 l50 -6 -30 -22 c-17 -12 -27 -24 -23 -28 4 -4 24 9 44 29
l37 36 -64 -2 -64 -1 50 -6z M30886 1992 c6 -4 13 -15 17 -24 3 -10 11 -18 17
-18 7 0 8 6 0 19 -7 14 -6 21 3 24 6 3 -1 6 -18 6 -16 0 -25 -3 -19 -7z
M31182 1975 c24 -28 33 -26 23 4 -3 12 -15 21 -26 21 -18 0 -18 -1 3 -25z
M32148 1993 l203 -3 9 -25 c13 -34 20 -31 17 5 l-2 30 -215 -2 -215 -3 203 -2z
M32650 1993 c8 -4 20 -13 27 -22 11 -15 12 -14 13 1 0 9 6 19 13 21 6 3 -6 5
-28 5 -22 0 -33 -2 -25 -5z M32930 1993 c8 -3 17 -9 20 -13 3 -4 11 -2 18 6
11 12 8 14 -20 13 -18 0 -26 -3 -18 -6z M33061 1990 c9 -5 28 -6 45 0 27 8 26
8 -16 9 -32 0 -40 -2 -29 -9z M33323 1993 c26 -7 21 -19 -15 -34 -17 -7 -26
-15 -19 -17 18 -6 71 19 71 34 0 7 10 15 23 17 12 2 0 4 -28 4 -27 1 -42 -1
-32 -4z M33806 1993 c12 -2 30 -13 40 -24 12 -13 29 -19 58 -17 40 1 41 1 6 5
-43 5 -61 20 -40 33 10 7 0 9 -35 8 -27 0 -40 -3 -29 -5z M34213 1993 c9 -2
17 -12 17 -21 1 -15 2 -16 13 -1 7 9 19 18 27 22 8 3 -5 5 -30 5 -25 0 -37 -2
-27 -5z M34651 1990 c15 -4 53 -4 85 0 58 7 58 7 -26 8 -57 0 -76 -2 -59 -8z
M35255 1993 c11 -3 25 -11 32 -20 10 -12 12 -12 20 0 4 8 15 17 23 20 8 3 -10
5 -40 5 -30 0 -46 -2 -35 -5z M35640 1996 c0 -9 50 -12 62 -5 8 6 -1 9 -24 9
-21 0 -38 -2 -38 -4z M35835 1991 c11 -5 29 -18 39 -30 12 -13 31 -21 50 -21
37 0 23 17 -18 22 -36 4 -46 25 -14 31 13 2 1 5 -27 5 -35 1 -44 -2 -30 -7z
M36232 1995 c7 -8 87 -9 95 -2 3 4 -18 7 -47 7 -29 0 -51 -2 -48 -5z M36448
1991 c12 -7 62 -4 62 5 0 2 -17 4 -37 4 -24 0 -33 -3 -25 -9z M36830 1993 c8
-3 18 -11 23 -17 5 -8 9 -8 15 0 4 7 16 14 27 17 11 2 -2 5 -30 5 -27 0 -43
-2 -35 -5z M37281 1995 c8 -7 78 -9 85 -2 4 4 -14 7 -41 7 -27 0 -46 -2 -44
-5z M37453 1985 c0 -17 9 -19 23 -6 5 5 20 11 34 14 17 3 11 5 -16 6 -30 1
-41 -3 -41 -14z M37710 1991 c8 -4 38 -5 65 -1 l50 7 -65 1 c-39 1 -59 -2 -50
-7z M38268 1993 c12 -2 22 -12 22 -21 1 -16 2 -16 13 -1 7 9 21 19 32 22 11 2
-5 5 -35 4 -30 0 -45 -2 -32 -4z M38767 1993 c18 -2 50 -2 70 0 21 2 7 4 -32
4 -38 0 -55 -2 -38 -4z M39160 1993 c8 -3 18 -10 21 -15 3 -5 19 -2 35 7 l29
15 -50 -1 c-27 0 -43 -3 -35 -6z M39443 1994 c3 -4 2 -15 -4 -25 -7 -15 -6
-19 5 -19 13 0 36 28 36 44 0 3 -10 6 -22 6 -12 0 -18 -3 -15 -6z M40422 1995
c7 -8 179 -8 186 -1 3 3 -39 6 -93 6 -54 0 -96 -2 -93 -5z M41198 1993 c12 -2
22 -12 22 -20 0 -14 2 -15 18 -1 9 9 24 18 32 21 8 3 -10 5 -40 5 -30 0 -45
-3 -32 -5z M41498 1993 c6 -2 12 -11 12 -19 0 -19 6 -18 30 6 l20 20 -37 -1
c-21 0 -32 -3 -25 -6z M41670 1993 c8 -3 27 -17 42 -31 15 -14 31 -22 35 -18
4 4 -3 16 -16 26 -23 17 -23 18 -5 23 10 2 -1 5 -26 5 -25 0 -38 -2 -30 -5z
M42088 1993 c19 -4 21 -7 11 -19 -22 -27 1 -27 25 -1 l25 27 -42 -1 c-24 -1
-32 -4 -19 -6z M42393 1993 c9 -2 17 -10 17 -16 0 -9 2 -9 8 -1 4 6 14 14 22
17 8 3 -3 5 -25 5 -22 0 -32 -2 -22 -5z M42658 1993 c6 -2 9 -10 5 -16 -5 -9
-3 -9 8 0 8 6 28 13 44 16 19 2 12 4 -20 5 -27 0 -44 -2 -37 -5z M43155 1993
c11 -3 28 -14 38 -24 17 -18 37 -25 37 -14 0 16 -44 45 -67 44 -21 -1 -23 -2
-8 -6z M43286 1985 c4 -10 10 -12 18 -7 6 5 18 12 26 15 8 3 1 6 -17 6 -25 1
-31 -2 -27 -14z M43473 1980 c14 -11 28 -20 31 -20 3 0 1 9 -6 20 -7 11 -21
20 -32 20 -16 0 -15 -3 7 -20z M43552 1980 c-10 -17 -10 -20 2 -20 8 0 18 5
21 11 4 6 17 14 29 19 19 8 18 9 -9 9 -20 1 -34 -6 -43 -19z M43733 1993 c9
-2 25 -2 35 0 9 3 1 5 -18 5 -19 0 -27 -2 -17 -5z M43829 1993 c11 -4 8 -10
-9 -23 -12 -9 -19 -20 -14 -23 5 -3 27 8 48 24 l40 29 -40 -1 c-21 0 -33 -3
-25 -6z M44000 1993 c8 -3 28 -12 43 -20 27 -13 27 -13 15 7 -9 13 -23 20 -43
19 -16 0 -23 -3 -15 -6z M44101 1974 c-31 -30 -24 -30 35 1 43 23 45 25 18 24
-16 -1 -40 -12 -53 -25z M44449 1991 c7 -5 10 -14 7 -20 -4 -6 -2 -11 3 -11 6
0 11 6 11 14 0 8 6 17 13 19 6 3 -1 6 -18 6 -21 0 -26 -2 -16 -8z M44615 1990
c12 -4 27 -15 34 -24 19 -22 34 -20 21 3 -8 16 -6 20 8 24 9 3 -5 5 -33 5 -36
1 -44 -2 -30 -8z M45200 1975 c13 -14 27 -25 32 -25 4 0 2 11 -4 25 -6 15 -20
25 -31 25 -20 0 -19 -1 3 -25z M45292 1980 c-10 -17 -10 -20 3 -20 8 0 15 5
15 10 0 6 10 15 23 20 22 9 22 9 -3 9 -15 1 -30 -7 -38 -19z M45603 1994 c3
-4 2 -15 -4 -25 -13 -26 -3 -24 33 6 l30 25 -33 0 c-18 0 -29 -3 -26 -6z
M45796 1975 c34 -30 49 -32 35 -6 -6 10 -7 21 -4 25 3 3 -9 6 -27 6 l-33 0 29
-25z M46060 1993 c8 -3 25 -15 38 -26 12 -11 22 -15 22 -9 0 6 -5 14 -11 18
-8 4 -7 9 2 15 9 6 0 8 -26 8 -22 0 -33 -3 -25 -6z M46348 1990 c12 -5 22 -14
22 -20 0 -5 7 -10 16 -10 10 0 14 6 11 14 -3 8 -1 17 6 20 7 2 -8 4 -33 5 -37
0 -41 -2 -22 -9z M46698 1975 c35 -29 53 -33 28 -6 -13 15 -14 20 -4 24 7 3
-2 6 -20 6 l-34 1 30 -25z M46946 1990 c12 -5 25 -13 29 -19 3 -6 13 -11 21
-11 12 0 12 3 2 20 -9 13 -23 20 -43 19 -27 0 -28 -1 -9 -9z M47055 1980 c-16
-18 -16 -20 -2 -20 9 0 20 6 24 14 4 8 22 16 38 19 28 4 28 4 -6 6 -25 1 -42
-5 -54 -19z M47856 1975 c19 -30 38 -33 31 -6 -3 15 1 21 17 24 11 2 2 5 -22
6 l-42 1 16 -25z M48385 1993 c11 -3 26 -13 33 -22 13 -15 13 -15 8 1 -3 9 0
19 7 22 7 2 -6 4 -28 4 -22 0 -31 -3 -20 -5z M48688 1990 c12 -5 22 -14 22
-20 0 -5 5 -10 11 -10 5 0 7 5 3 11 -3 6 0 15 7 20 9 6 0 9 -26 8 -34 0 -37
-2 -17 -9z M49100 1990 l25 -8 -32 -13 c-18 -7 -33 -17 -33 -21 0 -8 47 10 69
26 8 6 46 14 85 17 66 5 63 6 -34 6 -65 1 -95 -2 -80 -7z M50125 1993 c22 -3
45 -9 52 -15 9 -7 13 -7 13 0 0 6 24 13 53 15 28 2 5 3 -53 3 -58 1 -87 -1
-65 -3z M50813 1993 c20 -2 54 -2 75 0 20 2 3 4 -38 4 -41 0 -58 -2 -37 -4z
M51350 1994 c0 -17 23 -44 37 -44 13 0 14 3 5 12 -20 20 -14 27 31 31 36 3 34
4 -15 5 -32 1 -58 -1 -58 -4z M51600 1993 c8 -3 18 -11 22 -16 4 -7 11 -7 20
0 7 6 29 13 48 16 19 2 4 4 -35 5 -38 0 -63 -2 -55 -5z M52200 1986 c0 -19 27
-39 41 -30 8 5 6 10 -6 17 -14 8 -15 11 -4 18 10 6 8 9 -8 9 -13 0 -23 -6 -23
-14z M52470 1996 c0 -9 50 -12 62 -5 8 6 -1 9 -24 9 -21 0 -38 -2 -38 -4z
M52625 1983 c11 -10 19 -13 23 -6 4 6 16 13 27 16 11 2 1 5 -23 6 -41 1 -42 0
-27 -16z M53022 1994 c8 -7 128 -7 136 0 3 4 -28 6 -68 6 -40 0 -71 -3 -68 -6z
M53442 1993 c9 -2 18 -11 20 -19 2 -12 7 -11 20 6 17 20 17 20 -20 19 -20 -1
-29 -3 -20 -6z M53660 1993 c8 -3 18 -11 23 -17 5 -8 9 -8 15 0 4 6 14 14 22
17 8 3 -5 5 -30 5 -25 0 -38 -2 -30 -5z M54040 1996 c0 -9 50 -12 62 -5 8 6
-1 9 -24 9 -21 0 -38 -2 -38 -4z M54235 1991 c11 -5 29 -18 39 -30 19 -21 66
-29 66 -11 0 6 -6 10 -14 10 -8 0 -27 5 -43 11 l-28 12 25 7 c20 7 16 8 -20 8
-33 1 -40 -1 -25 -7z M54619 1990 c19 -5 44 -4 55 0 15 6 5 9 -34 8 -50 0 -52
-1 -21 -8z M54852 1986 c7 -8 15 -10 18 -6 3 4 14 10 25 13 12 3 4 5 -18 6
-32 1 -36 -1 -25 -13z M55228 1990 c19 -4 46 -4 60 0 21 6 13 8 -33 8 -51 0
-55 -1 -27 -8z M55642 1995 c8 -8 77 -9 85 -2 3 4 -15 7 -42 7 -27 0 -46 -2
-43 -5z M55814 1991 c3 -5 15 -7 26 -4 28 7 25 13 -6 13 -14 0 -23 -4 -20 -9z
M56108 1993 c6 -2 12 -11 12 -19 0 -8 5 -14 10 -14 6 0 10 6 10 14 0 8 6 17
13 19 6 3 -4 5 -23 5 -19 0 -29 -2 -22 -5z M56296 1985 c7 -16 24 -21 24 -6 0
5 8 12 18 14 9 3 3 5 -15 6 -25 1 -31 -2 -27 -14z M56670 1993 c14 -3 28 -10
33 -17 5 -8 9 -8 15 0 4 6 14 14 22 17 8 3 -10 5 -40 5 -30 0 -44 -3 -30 -5z
M56957 1980 c6 -23 19 -26 30 -6 4 8 17 16 28 19 11 2 1 5 -22 6 -36 1 -41 -1
-36 -19z M57440 1993 c8 -4 21 -14 30 -25 8 -10 31 -20 50 -23 34 -5 34 -5 10
7 -53 27 -57 32 -30 39 18 5 11 7 -25 7 -27 0 -43 -2 -35 -5z M57845 1993 c11
-3 22 -9 25 -13 3 -4 11 -2 18 6 11 12 7 14 -25 13 -22 -1 -30 -3 -18 -6z
M58000 1993 c8 -3 21 -11 29 -17 11 -8 13 -8 8 1 -4 6 -1 14 5 16 7 3 -3 5
-22 5 -19 0 -28 -2 -20 -5z M58143 1978 c-2 -20 0 -21 10 -7 7 9 21 19 32 22
14 3 11 5 -10 6 -25 1 -31 -3 -32 -21z M58453 1993 c13 -3 16 -11 12 -26 l-6
-22 19 21 c10 12 27 24 38 27 10 2 -3 5 -31 5 -27 0 -42 -2 -32 -5z M58733
1993 c11 -3 16 -11 13 -19 -7 -18 11 -18 21 0 4 8 19 16 33 19 14 2 0 4 -30 4
-30 1 -47 -1 -37 -4z M59190 1991 c0 -21 46 -63 65 -60 16 4 12 9 -20 29 l-40
25 50 6 50 6 -52 1 c-29 1 -53 -2 -53 -7z M59862 1991 c39 -5 46 -9 38 -21
-12 -19 -13 -30 -2 -30 8 0 32 43 32 55 0 3 -26 4 -57 3 l-58 -1 47 -6z
M61042 1991 c30 -5 36 -9 28 -21 -19 -29 -9 -35 13 -8 14 17 35 28 57 31 19 2
-3 4 -50 4 -54 0 -71 -2 -48 -6z M61802 1993 c26 -3 42 -11 49 -26 14 -26 28
-37 48 -37 10 0 5 10 -14 29 l-28 30 64 4 c35 2 15 3 -46 3 -60 1 -93 -1 -73
-3z M62755 1993 c22 -3 43 -9 47 -16 5 -8 10 -8 20 0 7 6 22 13 33 16 11 2
-16 4 -60 4 -44 0 -62 -2 -40 -4z M63000 1990 c9 -4 31 -5 50 0 34 8 33 8 -15
9 -34 0 -45 -3 -35 -9z M63384 1993 l28 -5 -23 -24 c-12 -13 -18 -24 -11 -24
6 0 20 14 32 30 l21 30 -38 -1 c-32 -2 -33 -3 -9 -6z M64509 1991 l74 -6 -27
-32 c-15 -18 -23 -33 -18 -33 14 0 52 49 52 66 0 11 -18 14 -77 12 l-78 -2 74
-5z M64838 1993 c28 -6 28 -11 -5 -45 -15 -15 -22 -28 -16 -28 7 0 21 12 32
28 12 15 26 33 31 40 8 9 2 12 -27 11 -23 -1 -29 -3 -15 -6z M65303 1994 c3
-3 26 -6 52 -6 26 0 49 3 53 6 3 3 -21 6 -53 6 -32 0 -56 -3 -52 -6z M66138
1993 c25 -3 42 -9 42 -17 0 -18 27 -52 35 -44 4 3 -1 18 -10 32 l-17 25 99 4
c66 2 51 3 -47 3 -80 0 -126 -1 -102 -3z M66705 1993 c197 -4 218 -10 170 -49
-20 -16 -25 -24 -14 -24 17 0 59 40 59 57 0 7 10 14 23 16 12 2 -77 4 -198 3
-214 0 -215 -1 -40 -3z M67352 1970 c14 -42 32 -51 23 -12 -5 24 -3 31 12 35
10 3 4 5 -14 6 -31 1 -32 0 -21 -29z M67891 1996 c8 -8 88 -10 95 -3 4 4 -17
7 -46 7 -29 0 -51 -2 -49 -4z M68230 1993 c1 -20 38 -75 43 -66 4 6 0 16 -8
23 -18 15 -19 37 -2 43 6 3 2 6 -10 6 -13 1 -23 -2 -23 -6z M68464 1991 c41
-5 50 -10 61 -36 11 -26 13 -27 14 -8 2 46 -8 53 -68 51 l-56 -1 49 -6z
M68810 1994 c9 -3 22 -19 29 -37 14 -35 27 -22 17 18 -5 19 -13 25 -34 24 -15
-1 -20 -3 -12 -5z M69224 1985 c21 -22 21 -22 40 -2 17 16 16 17 -19 17 -33 0
-35 -2 -21 -15z M69498 1993 c28 -11 0 -55 -43 -66 -15 -3 -16 -5 -3 -6 40 -3
68 18 68 49 0 22 -5 30 -17 29 -11 0 -13 -3 -5 -6z M69995 1970 c23 -45 92
-69 111 -38 5 8 -3 9 -29 5 -39 -6 -57 6 -60 42 -1 13 -8 21 -19 21 -17 0 -17
-2 -3 -30z M70122 1986 c7 -8 15 -11 18 -7 3 3 9 9 14 14 5 4 -3 7 -18 7 -22
0 -25 -2 -14 -14z M70390 1970 c0 -16 5 -30 10 -30 6 0 10 14 10 30 0 17 -4
30 -10 30 -5 0 -10 -13 -10 -30z M70803 1993 c15 -2 27 -11 27 -18 0 -25 18
-25 22 0 5 24 3 25 -36 24 -30 -2 -34 -3 -13 -6z M70957 1980 c6 -23 23 -27
23 -6 0 8 8 17 18 19 9 3 3 5 -15 6 -26 1 -30 -2 -26 -19z M71441 1970 c6 -16
12 -30 14 -30 1 0 5 14 7 30 4 24 1 30 -13 30 -16 0 -17 -4 -8 -30z M71840
1975 c0 -14 2 -25 4 -25 2 0 6 11 8 25 3 14 1 25 -3 25 -5 0 -9 -11 -9 -25z
M71998 1993 c6 -2 12 -13 12 -23 0 -25 46 -60 78 -60 35 0 16 17 -23 22 -26 3
-30 8 -33 36 -3 26 -8 32 -25 31 -12 0 -16 -3 -9 -6z M10546 1967 c12 -21 47
-57 56 -57 16 0 7 18 -12 23 -11 3 -20 12 -20 20 0 8 -7 18 -16 21 -10 4 -13
2 -8 -7z M11710 1970 c0 -19 28 -60 41 -60 11 0 1 21 -25 55 -12 15 -15 16
-16 5z M16350 1965 c0 -8 5 -15 10 -15 6 0 10 7 10 15 0 8 -4 15 -10 15 -5 0
-10 -7 -10 -15z M21981 1966 c-8 -9 -11 -19 -7 -23 9 -9 29 13 24 27 -2 8 -8
7 -17 -4z M22580 1959 c0 -11 5 -17 10 -14 6 3 10 13 10 21 0 8 -4 14 -10 14
-5 0 -10 -9 -10 -21z M23735 1960 c-10 -11 -16 -22 -13 -25 3 -3 13 4 23 15
10 11 16 22 13 25 -3 3 -13 -4 -23 -15z M24903 1968 c-21 -28 -24 -38 -9 -32
14 5 30 33 23 41 -2 2 -9 -2 -14 -9z M25680 1968 c0 -19 35 -51 50 -46 6 2 -3
16 -20 33 -21 20 -30 24 -30 13z M27773 1955 c-18 -16 -23 -24 -13 -24 15 0
60 32 60 43 0 13 -20 5 -47 -19z M29251 1954 c-19 -13 -28 -24 -20 -24 15 0
79 36 79 45 0 11 -27 2 -59 -21z M29450 1971 c0 -13 29 -35 37 -28 7 8 -15 37
-28 37 -5 0 -9 -4 -9 -9z M30421 1959 c-18 -11 -30 -23 -27 -27 8 -7 76 28 76
40 0 13 -12 10 -49 -13z M39960 1973 c0 -11 44 -33 65 -33 23 0 17 17 -7 23
-13 2 -31 8 -40 12 -10 4 -18 3 -18 -2z M41422 1968 c3 -7 15 -14 29 -16 23
-2 23 -2 5 13 -24 18 -39 20 -34 3z M51983 1967 c-18 -6 -33 -15 -33 -20 0 -5
15 -5 33 -2 39 9 47 13 47 26 0 10 -3 10 -47 -4z M63945 1955 c-16 -13 -24
-24 -17 -25 17 0 62 30 62 41 0 15 -13 10 -45 -16z M65620 1968 c0 -18 27 -44
37 -34 4 4 -3 16 -15 29 -18 17 -22 18 -22 5z M65990 1950 c-39 -34 -30 -39
18 -10 18 11 30 25 27 30 -8 13 -4 14 -45 -20z M67070 1959 c7 -11 14 -19 16
-16 7 7 -7 37 -17 37 -6 0 -5 -9 1 -21z M69110 1966 c0 -8 5 -18 10 -21 6 -3
10 1 10 9 0 8 -4 18 -10 21 -5 3 -10 -1 -10 -9z M3085 1959 c-4 -6 -5 -13 -2
-16 7 -7 27 6 27 18 0 12 -17 12 -25 -2z M5122 1958 c-6 -6 -12 -19 -12 -27 0
-13 2 -13 16 1 9 9 15 21 13 27 -3 9 -8 8 -17 -1z M5412 1957 c-17 -20 -12
-40 6 -28 8 5 12 16 10 26 -3 17 -4 17 -16 2z M7712 1941 c-32 -28 -34 -48 -2
-31 19 10 55 60 43 60 -5 -1 -23 -13 -41 -29z M8000 1945 c-13 -14 -31 -25
-39 -25 -14 0 -14 -1 -1 -10 15 -9 81 43 69 55 -3 3 -16 -6 -29 -20z M12562
1945 c6 -14 15 -25 20 -25 12 0 9 12 -6 33 -19 25 -27 21 -14 -8z M22300 1949
c0 -11 5 -17 10 -14 6 3 10 13 10 21 0 8 -4 14 -10 14 -5 0 -10 -9 -10 -21z
M22867 1964 c-4 -4 -7 -14 -7 -23 0 -11 3 -12 11 -4 6 6 10 16 7 23 -2 6 -7 8
-11 4z M25960 1961 c0 -9 33 -41 44 -41 4 0 2 8 -3 19 -11 20 -41 36 -41 22z
M27420 1950 c11 -20 30 -28 30 -12 0 11 -22 32 -32 32 -5 0 -4 -9 2 -20z
M31887 1964 c-3 -4 -21 -10 -39 -14 l-33 -8 32 -1 c36 -1 63 7 63 20 0 10 -14
12 -23 3z M37030 1960 c0 -5 21 -10 47 -10 55 0 54 5 -4 14 -27 4 -43 2 -43
-4z M38524 1961 c3 -4 20 -11 37 -15 39 -7 64 5 29 15 -37 10 -72 10 -66 0z
M39100 1955 c7 -8 22 -15 34 -15 21 1 21 1 2 15 -27 21 -53 20 -36 0z M39529
1948 c-36 -68 -163 -75 -226 -12 l-25 25 -27 -23 c-82 -73 -138 -72 -242 3
-12 9 -24 6 -58 -19 -88 -64 -112 -63 -209 10 l-44 33 -21 -29 c-45 -63 -97
-65 -220 -8 l-77 35 -28 -25 c-79 -74 -129 -78 -200 -13 -39 35 -39 35 -63 16
-91 -70 -147 -76 -220 -21 l-54 40 -25 -30 c-14 -17 -31 -30 -38 -30 -7 0 -23
-7 -36 -15 -31 -21 -65 -12 -114 31 -49 41 -52 42 -104 4 -57 -42 -106 -40
-209 7 l-80 36 -28 -33 c-23 -28 -35 -34 -82 -38 -56 -4 -119 16 -119 38 0 27
-42 32 -69 7 -38 -36 -109 -69 -132 -62 -11 4 -40 22 -64 41 -56 42 -63 42
-116 -2 -59 -49 -118 -46 -179 10 l-41 37 -41 -35 c-66 -56 -110 -56 -217 1
-57 30 -76 29 -117 -7 -63 -54 -129 -52 -195 7 l-40 36 -32 -30 c-66 -63 -117
-69 -187 -23 -25 16 -52 30 -61 30 -19 0 -113 -69 -105 -78 8 -8 12305 -1
12591 7 127 4 221 10 210 14 -11 4 -48 22 -82 39 l-61 31 -48 -31 c-60 -40
-97 -41 -172 -3 -94 47 -98 47 -142 7 -54 -49 -117 -51 -176 -6 -49 37 -59 37
-108 0 -60 -46 -151 -36 -213 22 -22 20 -23 21 -49 2 -65 -46 -81 -54 -112
-54 -41 0 -84 22 -111 57 l-22 26 -27 -22 c-85 -69 -123 -72 -227 -21 -94 47
-91 47 -99 17 -16 -64 -153 -74 -213 -14 -43 41 -59 46 -68 18 -10 -33 -42
-52 -96 -57 -57 -5 -70 0 -133 50 l-37 29 -32 -31 c-65 -63 -124 -68 -191 -15
-34 26 -51 34 -61 27 -8 -5 -32 -22 -54 -38 -52 -36 -113 -30 -197 20 l-57 35
-31 -29 c-72 -68 -135 -72 -206 -12 -47 40 -70 49 -70 30 0 -20 -83 -70 -117
-70 -38 0 -98 23 -125 47 -16 15 -21 14 -56 -10 -60 -42 -121 -46 -176 -11
-25 16 -46 32 -46 37 0 15 -27 6 -46 -14 -58 -64 -133 -60 -281 13 -18 9 -27
7 -49 -8 -64 -45 -81 -54 -107 -54 -33 0 -75 20 -101 49 -27 30 -53 26 -97
-14 -49 -44 -99 -47 -150 -10 -71 51 -74 52 -125 12 -63 -49 -103 -50 -175 -1
l-53 35 -25 -19 c-84 -62 -129 -65 -215 -17 -73 41 -86 42 -112 14 -51 -58
-128 -63 -201 -14 -64 43 -62 43 -113 0 -62 -52 -135 -49 -197 8 -22 19 -23
19 -49 1 -93 -66 -113 -67 -208 -9 l-59 35 -34 -27 c-76 -60 -119 -60 -223 1
l-58 34 -21 -22 c-12 -13 -44 -33 -72 -46 l-50 -24 -54 27 c-30 15 -60 35 -67
46 -11 18 -14 18 -55 -19 -72 -63 -159 -59 -217 11 -31 37 -40 36 -65 -5 -42
-67 -133 -72 -200 -11 -47 43 -45 43 -92 0 -52 -46 -103 -48 -184 -5 -31 17
-70 30 -86 30 -17 0 -42 -12 -62 -30 -29 -25 -43 -30 -84 -30 -40 0 -59 6 -91
30 -52 37 -60 37 -107 0 -65 -52 -115 -52 -180 0 -47 37 -47 37 -102 -2 -67
-49 -122 -42 -206 25 l-29 22 -21 -27 c-38 -47 -85 -60 -149 -42 -65 20 -128
51 -128 64 0 19 -29 10 -41 -12z M39695 1960 c3 -5 22 -10 41 -10 19 0 34 5
34 10 0 6 -18 10 -41 10 -24 0 -38 -4 -34 -10z M47325 1960 c-3 -5 1 -10 9
-10 8 0 18 5 21 10 3 6 -1 10 -9 10 -8 0 -18 -4 -21 -10z M48276 1914 l-59
-54 914 -2 c503 -2 937 -2 964 -2 28 0 82 1 120 2 39 1 169 0 290 0 121 -1
240 -1 265 1 48 3 2574 5 2650 2 183 -6 1666 -11 1830 -6 l204 7 -29 24 c-17
12 -40 32 -53 43 -29 27 -29 27 -81 -14 -60 -48 -135 -44 -200 10 -35 30 -43
31 -66 5 -9 -10 -39 -31 -66 -45 l-49 -25 -85 51 c-82 49 -86 50 -108 35 -12
-9 -37 -28 -56 -41 -50 -37 -98 -33 -152 10 -54 43 -64 43 -114 3 -59 -50
-126 -47 -184 5 l-42 38 -39 -35 c-64 -58 -123 -59 -192 -5 -47 37 -54 36
-107 -6 -65 -52 -121 -44 -236 34 l-30 20 -30 -29 c-62 -60 -153 -69 -208 -20
-43 37 -51 37 -93 1 -66 -58 -134 -52 -207 18 -37 35 -38 35 -44 13 -15 -60
-147 -81 -207 -33 -44 35 -67 39 -87 14 -19 -23 -72 -43 -112 -43 -35 0 -160
51 -172 70 -11 17 -23 11 -37 -17 -29 -62 -155 -69 -213 -13 l-33 32 -52 -36
c-73 -50 -119 -51 -189 -5 -55 36 -51 36 -101 -6 -70 -59 -102 -55 -197 22
l-43 35 -11 -26 c-30 -65 -148 -70 -238 -11 l-53 35 -34 -29 c-64 -57 -143
-65 -199 -21 -47 38 -54 37 -108 -4 -51 -39 -82 -51 -92 -36 -3 5 -16 10 -28
10 -12 0 -42 14 -66 30 -55 37 -53 37 -98 -4 -42 -37 -78 -52 -88 -36 -3 5
-14 10 -24 10 -9 0 -41 15 -71 34 l-54 34 -44 -40 c-52 -48 -70 -47 -196 7
l-79 34 -39 -34 c-58 -53 -131 -47 -224 20 -19 14 -23 12 -63 -21 -58 -50
-137 -43 -213 18 l-27 21 -20 -24 c-25 -33 -93 -63 -123 -56 -13 4 -49 22 -80
41 l-57 34 -35 -27 c-65 -52 -114 -58 -173 -21 -62 38 -129 51 -139 26 -4 -9
-24 -26 -46 -37 -57 -29 -111 -18 -162 32 l-39 39 -43 -40 c-70 -65 -131 -63
-204 5 l-35 33 -59 -54z M48490 1955 c-10 -12 -10 -15 3 -15 8 0 20 7 27 15
10 12 10 15 -3 15 -8 0 -20 -7 -27 -15z M48770 1955 c-8 -9 -8 -15 -2 -15 18
0 42 12 42 21 0 14 -26 10 -40 -6z M49374 1955 c-16 -12 -16 -14 -3 -15 9 0
22 7 29 15 16 19 0 19 -26 0z M52825 1960 c-7 -12 29 -12 65 0 21 7 19 8 -17
9 -23 1 -45 -3 -48 -9z M60979 1950 c30 -26 49 -26 26 0 -10 11 -25 20 -34 20
-12 -1 -10 -5 8 -20z M62130 1962 c0 -13 23 -32 38 -32 7 0 10 4 7 10 -9 14
-45 32 -45 22z M63590 1950 c11 -20 30 -28 30 -12 0 11 -22 32 -32 32 -5 0 -4
-9 2 -20z M65444 1955 c-10 -8 -27 -15 -36 -15 -15 0 -27 -20 -13 -20 14 0 73
29 79 39 10 16 -7 14 -30 -4z M66615 1959 c-4 -5 -18 -15 -32 -20 -14 -5 -23
-13 -19 -16 8 -8 76 26 76 39 0 12 -18 10 -25 -3z M7434 1939 c-21 -20 -22
-20 -55 -3 -29 15 -32 15 -21 1 30 -36 112 -25 112 15 0 14 -15 9 -36 -13z
M9950 1954 c0 -15 27 -50 34 -43 4 3 -2 17 -13 30 -11 13 -20 19 -21 13z
M10230 1953 c0 -15 31 -46 38 -38 3 3 -4 15 -16 28 -12 12 -22 16 -22 10z
M10820 1950 c0 -9 32 -30 46 -30 4 0 -1 9 -11 20 -19 21 -35 26 -35 10z
M12975 1940 c-10 -11 -14 -20 -9 -20 12 1 44 25 44 34 0 12 -17 6 -35 -14z
M24800 1950 c0 -9 32 -30 46 -30 4 0 -1 9 -11 20 -19 21 -35 26 -35 10z
M25227 1908 c-64 -65 -99 -61 -219 24 -14 10 -24 5 -62 -30 -60 -55 -99 -57
-175 -6 -53 36 -53 36 -74 16 -61 -55 -141 -58 -243 -8 l-69 35 -30 -25 c-71
-58 -73 -59 -122 -45 -25 6 -59 23 -75 36 -37 31 -45 31 -77 1 -70 -64 -164
-61 -223 8 l-27 31 -38 -37 c-63 -61 -136 -64 -196 -9 l-45 41 -48 -40 c-61
-50 -98 -52 -194 -10 -73 32 -95 36 -105 19 -4 -5 -27 -23 -53 -39 l-45 -28
-46 20 c-25 11 -61 31 -79 44 l-32 25 -30 -24 c-78 -66 -146 -69 -211 -10
l-40 36 -27 -25 c-67 -63 -158 -62 -221 2 l-25 26 -42 -31 c-76 -58 -125 -64
-187 -23 -79 52 -90 54 -134 19 -71 -57 -151 -56 -212 3 -27 26 -51 34 -51 17
0 -4 -17 -20 -38 -35 -48 -33 -91 -33 -160 -1 -67 31 -74 31 -120 0 -54 -37
-131 -30 -191 17 -32 24 -53 23 -80 -6 -52 -55 -115 -57 -192 -7 -66 44 -90
47 -119 16 -61 -66 -133 -71 -194 -15 -52 48 -44 48 -97 5 -60 -48 -159 -45
-204 5 -25 27 -41 25 -82 -10 -18 -17 -44 -30 -56 -30 -12 0 -31 -3 -42 -6
-14 -3 -41 9 -83 36 l-62 42 -30 -30 c-16 -17 -50 -38 -75 -47 -45 -18 -45
-18 -83 7 -20 14 -54 35 -74 47 l-37 22 -67 -40 c-85 -51 -108 -51 -175 -1
-63 47 -59 47 -89 15 -51 -54 -145 -56 -205 -4 l-33 29 -29 -23 c-69 -58 -135
-64 -204 -17 -48 32 -74 38 -82 16 -3 -8 -30 -26 -59 -40 l-54 -26 -84 45
c-100 54 -88 53 -140 10 -69 -58 -123 -59 -188 -5 -45 37 -56 37 -98 0 -61
-53 -130 -50 -199 12 l-32 27 -44 -37 c-60 -51 -125 -53 -184 -4 -50 40 -57
40 -108 -3 -55 -48 -92 -47 -191 6 l-78 41 -26 -25 c-35 -32 -85 -57 -114 -57
-29 0 -108 36 -108 49 0 27 -43 22 -75 -9 -59 -57 -186 -43 -217 24 -14 33
-23 33 -45 0 -39 -61 -153 -74 -210 -24 -38 34 -55 37 -74 14 -43 -53 -137
-59 -219 -14 -30 16 -61 33 -67 36 -7 3 -25 -7 -41 -24 -55 -59 -165 -61 -216
-3 -25 27 -37 27 -65 -3 -21 -23 -87 -46 -129 -46 -10 0 -39 13 -63 30 -55 37
-66 37 -109 1 -19 -15 -45 -31 -57 -35 -28 -9 -107 25 -145 61 l-27 26 -29
-31 c-26 -27 -84 -52 -122 -52 -8 0 -48 18 -89 40 l-74 39 -33 -29 c-64 -56
-147 -64 -197 -20 -44 38 -58 38 -114 -5 -58 -44 -79 -44 -163 2 l-68 36 -43
-36 c-50 -43 -87 -47 -139 -16 -19 12 -49 30 -66 40 l-31 19 -42 -37 c-54 -46
-84 -46 -197 3 l-84 36 -28 -29 c-58 -63 -123 -64 -204 -2 -46 36 -42 37 -94
-10 -38 -36 -46 -39 -81 -34 -52 9 -95 27 -117 52 -25 28 -33 27 -65 -8 -54
-58 -125 -58 -210 -2 l-45 30 -31 -28 c-59 -51 -113 -58 -171 -21 -68 42 -119
50 -145 21 -60 -64 -140 -64 -201 0 l-38 39 -38 -34 c-72 -65 -136 -67 -206
-6 -41 37 -59 38 -74 4 -28 -60 -125 -64 -208 -7 -44 29 -50 29 -104 -8 -54
-37 -117 -37 -168 0 -60 42 -90 47 -120 18 -62 -57 -123 -63 -192 -17 -56 37
-58 37 -105 0 -46 -37 -111 -41 -165 -11 -84 47 -81 46 -98 33 -96 -69 -141
-71 -208 -10 l-45 41 -32 -30 c-62 -59 -110 -68 -181 -32 -22 12 -58 30 -78
40 -46 24 -48 24 -48 -1 0 -31 -56 -60 -116 -60 -46 0 -58 5 -100 40 -52 43
-64 48 -64 27 0 -32 -49 -61 -109 -65 -59 -4 -60 -4 -107 40 l-47 45 -29 -33
c-56 -63 -141 -69 -204 -15 -43 38 -45 38 -89 0 -63 -56 -137 -49 -241 21
l-32 21 -47 -41 c-66 -57 -121 -57 -194 1 l-51 41 -46 -42 c-44 -41 -48 -42
-99 -38 -47 4 -66 12 -121 53 -9 6 -20 3 -36 -12 -56 -52 -137 -58 -193 -13
-42 34 -66 38 -86 14 -44 -53 -114 -56 -216 -9 -92 42 -82 42 -133 0 -59 -49
-111 -49 -170 0 -51 43 -56 43 -103 4 -67 -55 -119 -55 -183 0 -44 39 -48 39
-97 -5 -51 -47 -112 -45 -184 5 -44 32 -45 32 -70 14 -64 -45 -80 -53 -116
-53 -25 0 -61 13 -105 37 l-68 37 -40 -31 c-79 -62 -121 -59 -241 17 -20 13
-25 11 -62 -23 -57 -52 -131 -54 -187 -5 -35 31 -37 31 -63 15 -108 -67 -124
-68 -210 -12 -64 42 -53 42 -101 -1 -53 -48 -114 -46 -207 8 l-61 36 -22 -23
c-66 -70 -153 -73 -228 -9 l-38 32 -26 -32 c-55 -69 -155 -67 -227 4 l-28 29
-34 -35 c-62 -64 -129 -67 -197 -8 -49 42 -46 42 -93 -1 -53 -48 -125 -50
-185 -6 -63 46 -85 48 -129 10 -58 -51 -123 -53 -192 -5 -64 44 -57 44 -109
-4 -59 -55 -135 -51 -188 9 -25 28 -41 27 -85 -7 -65 -51 -114 -49 -186 8 -46
36 -52 37 -76 6 -40 -51 -78 -59 -160 -31 -41 14 -87 35 -102 46 l-29 21 -32
-35 c-54 -60 -156 -58 -217 3 l-28 28 -41 -39 c-57 -54 -148 -51 -212 8 -17
15 -23 14 -89 -20 -88 -47 -95 -46 -165 7 l-59 44 -37 -34 c-63 -57 -83 -56
-225 7 l-52 23 -45 -32 c-24 -18 -51 -32 -58 -32 -8 0 -19 -5 -25 -11 -17 -17
-59 -3 -102 36 -47 43 -45 43 -109 0 -79 -53 -96 -54 -170 -5 l-63 43 -27 -26
c-79 -73 -118 -74 -206 -3 l-36 29 -38 -27 c-80 -55 -103 -55 -225 2 l-78 36
-25 -32 c-47 -60 -138 -61 -199 -2 -36 35 -51 33 -89 -9 -11 -12 -25 -21 -31
-21 -7 0 -18 -7 -25 -15 -20 -25 -54 -17 -116 25 -71 48 -66 48 -117 5 -54
-46 -106 -48 -165 -6 -22 16 -43 34 -46 40 -4 6 -25 -3 -52 -24 -73 -56 -167
-51 -231 13 -11 11 -13 5 -13 -38 l0 -52 733 4 c402 2 3734 2 7402 1 10518 -4
27127 23 27175 44 l25 11 -30 12 c-16 6 -44 25 -62 42 l-32 31 -45 -41 c-57
-52 -94 -55 -184 -12 -77 36 -105 37 -142 6 -20 -16 -47 -25 -91 -30 l-62 -7
-43 42 -43 42 -29 -31 c-50 -54 -147 -62 -200 -17 -38 32 -53 31 -103 -2 -62
-41 -133 -39 -183 5 -44 38 -41 38 -77 7 -29 -23 -86 -45 -121 -45 -9 0 -52
18 -94 40 l-76 41 -49 -46 c-28 -26 -58 -45 -71 -45 -41 0 -99 26 -122 55
l-22 27 -68 -36 c-83 -44 -117 -45 -176 -6 -56 37 -58 37 -111 -5 -24 -19 -50
-35 -58 -35 -35 0 -95 26 -132 58 l-40 35 -31 -38 c-60 -72 -85 -74 -193 -16
-92 49 -93 49 -111 30 -64 -70 -158 -78 -219 -19 l-35 34 -44 -32 c-69 -50
-144 -55 -191 -13 -44 38 -42 38 -102 2 -72 -45 -123 -45 -178 -1 -47 37 -56
37 -98 0 -43 -37 -86 -55 -101 -40 -5 5 -20 10 -32 10 -12 0 -45 16 -74 35
-65 43 -64 44 -116 -5 -63 -57 -135 -52 -204 15 l-37 36 -17 -25 c-52 -80
-174 -85 -231 -10 -29 38 -41 42 -47 16 -3 -10 -30 -31 -60 -47 -66 -34 -112
-27 -173 26 l-35 31 -34 -30 c-64 -56 -94 -59 -184 -18 -98 44 -100 44 -152 1
-23 -19 -52 -35 -63 -35 -53 1 -102 21 -137 55 -37 36 -38 37 -49 16 -15 -26
-91 -71 -122 -71 -13 0 -53 16 -88 35 l-63 34 -25 -29 c-46 -55 -139 -52 -202
6 -46 41 -42 41 -81 4 -34 -32 -97 -54 -126 -44 -33 11 -108 49 -133 67 -31
22 -36 22 -49 -8 -36 -78 -128 -83 -224 -12 l-26 19 -60 -36 c-68 -43 -97 -43
-189 1 l-51 25 -45 -31 c-58 -40 -97 -40 -175 0 l-60 31 -45 -32 c-56 -40
-128 -36 -202 11 -57 36 -55 36 -116 -6 -75 -51 -132 -45 -200 22 l-37 35 -13
-28 c-35 -73 -143 -85 -214 -24 -56 49 -48 49 -102 -1 -55 -50 -113 -52 -185
-4 -26 18 -46 24 -53 19 -102 -76 -120 -76 -278 2 -39 19 -45 18 -83 -16 -64
-55 -126 -52 -197 10 l-45 40 -16 -26 c-51 -77 -152 -82 -248 -12 -14 10 -21
9 -40 -9 -22 -21 -96 -53 -122 -53 -7 0 -39 16 -71 35 l-58 35 -37 -25 c-74
-52 -101 -52 -196 -3 l-85 43 -17 -21 c-27 -34 -76 -54 -133 -54 -48 0 -55 3
-93 43 l-41 42 -48 -47z M28100 1950 c-8 -5 -11 -12 -8 -16 10 -9 38 3 38 16
0 12 -10 13 -30 0z M28940 1945 c-7 -8 -8 -15 -2 -15 5 0 15 7 22 15 7 8 8 15
2 15 -5 0 -15 -7 -22 -15z M30980 1945 c-10 -12 -10 -15 3 -15 8 0 20 7 27 15
10 12 10 15 -3 15 -8 0 -20 -7 -27 -15z M34726 1950 c7 -7 19 -7 35 -1 23 9
22 10 -10 10 -24 1 -32 -2 -25 -9z M35060 1950 c-12 -8 -9 -10 12 -10 15 0 30
5 33 10 8 13 -25 13 -45 0z M36205 1950 c-3 -6 5 -10 19 -10 14 0 28 5 31 10
3 6 -5 10 -19 10 -14 0 -28 -4 -31 -10z M49925 1950 c-8 -13 15 -13 35 0 12 8
11 10 -7 10 -12 0 -25 -4 -28 -10z M53995 1950 c-4 -6 6 -10 24 -10 16 0 33 5
36 10 4 6 -6 10 -24 10 -16 0 -33 -4 -36 -10z M55170 1950 c20 -13 40 -13 40
0 0 6 -12 10 -27 10 -22 0 -25 -2 -13 -10z M56620 1950 c20 -13 40 -13 40 0 0
6 -12 10 -27 10 -22 0 -25 -2 -13 -10z M57214 1945 c22 -17 42 -19 50 -6 6 9
-26 21 -54 21 -11 -1 -10 -4 4 -15z M62590 1934 c-25 -64 -145 -80 -222 -29
l-40 26 -41 -27 c-59 -39 -128 -40 -183 -1 -49 33 -55 33 -103 2 -66 -44 -98
-43 -189 5 l-80 43 -32 -31 c-63 -63 -156 -64 -215 -2 -36 38 -38 38 -92 -10
-62 -54 -108 -49 -206 24 l-29 21 -20 -28 c-54 -74 -149 -76 -217 -3 l-25 26
-25 -24 c-61 -58 -145 -62 -247 -12 l-69 35 -30 -25 c-64 -52 -71 -55 -114
-48 -23 4 -58 20 -78 35 -44 35 -53 36 -83 4 -26 -28 -114 -51 -156 -41 -15 4
-43 23 -62 43 l-33 36 -39 -38 c-59 -57 -141 -58 -199 -1 l-40 39 -38 -30
c-82 -65 -102 -67 -206 -17 l-74 35 -67 -36 -66 -37 -52 18 c-28 9 -61 28 -74
41 l-22 24 -28 -24 c-87 -73 -150 -75 -226 -9 l-35 31 -28 -29 c-59 -61 -138
-58 -216 7 l-30 26 -27 -26 c-64 -62 -145 -70 -208 -22 -64 49 -89 53 -122 22
-68 -63 -173 -61 -223 5 -16 21 -18 21 -40 5 -13 -10 -39 -29 -57 -42 -39 -28
-66 -26 -155 13 -62 27 -63 27 -134 -19 -40 -25 -128 -7 -170 35 -33 33 -33
33 -83 -9 -68 -57 -111 -56 -209 6 -54 35 -72 36 -97 8 -61 -68 -137 -75 -199
-18 l-44 40 -51 -35 c-29 -20 -62 -36 -74 -36 -35 0 -99 21 -125 41 -30 24
-49 24 -76 -1 -11 -11 -39 -26 -60 -34 l-40 -14 27 -11 c20 -7 1149 -12 3840
-16 2097 -3 3984 -7 4193 -10 688 -10 7033 -7 7050 3 14 7 9 13 -29 36 -26 15
-52 36 -58 46 -11 18 -15 16 -54 -19 -63 -59 -106 -62 -194 -17 -82 43 -96 44
-130 11 -20 -19 -40 -26 -98 -31 l-73 -7 -35 42 c-40 46 -53 51 -61 21 -15
-57 -123 -73 -198 -31 l-55 31 -56 -30 c-77 -41 -126 -40 -183 2 -29 21 -47
28 -56 22 -61 -45 -71 -49 -129 -49 -51 0 -70 5 -114 33 -66 40 -65 40 -119
-8 -62 -54 -161 -49 -193 10 -12 22 -54 27 -66 9 -31 -50 -146 -61 -207 -19
-56 38 -53 38 -111 -10 -50 -41 -61 -46 -70 -31 -3 5 -21 12 -41 15 -19 4 -51
22 -71 42 l-38 35 -41 -46 c-57 -62 -92 -62 -198 1 l-78 45 -46 -42 c-61 -56
-131 -55 -191 5 l-38 36 -24 -25 c-54 -57 -156 -67 -212 -20 -35 30 -51 31
-86 6 -79 -56 -141 -55 -200 2 -23 23 -36 29 -46 22 -7 -6 -33 -25 -57 -43
-60 -46 -99 -40 -204 28 -53 35 -55 34 -101 -11 -65 -64 -143 -59 -205 14
l-27 31 -33 -29 c-90 -79 -160 -77 -231 4 -22 25 -33 31 -36 22 -9 -26 -52
-59 -96 -74 -49 -17 -84 -7 -138 38 -37 31 -39 31 -76 0 -65 -55 -97 -57 -184
-14 -93 47 -94 47 -146 9 -67 -48 -140 -44 -200 12 -43 39 -46 40 -53 20 -9
-24 -86 -72 -117 -72 -12 0 -51 14 -87 32 l-65 32 -29 -28 c-54 -51 -150 -45
-206 14 -36 37 -34 37 -85 -5 -62 -52 -93 -54 -179 -11 -39 20 -71 41 -71 46
0 20 -35 10 -45 -12 -6 -13 -30 -33 -55 -46 -55 -27 -87 -23 -149 21 l-44 31
-41 -23 c-94 -53 -88 -52 -145 -35 -29 8 -66 24 -83 34 l-31 19 -46 -32 c-61
-42 -113 -41 -183 2 l-49 31 -46 -31 c-67 -46 -137 -38 -239 30 l-30 20 -48
-39 c-68 -57 -153 -50 -205 16 -25 32 -39 33 -54 4 -35 -69 -141 -79 -213 -21
l-47 40 -50 -40 c-66 -52 -124 -55 -182 -9 -46 36 -49 37 -86 5 -56 -46 -100
-46 -219 4 l-74 32 -26 -21 c-78 -63 -131 -63 -203 0 -53 47 -55 47 -67 14z
M64272 1948 c-19 -19 -14 -30 8 -18 11 6 20 15 20 20 0 14 -14 12 -28 -2z
M9070 1941 c0 -13 29 -35 37 -28 7 8 -15 37 -28 37 -5 0 -9 -4 -9 -9z M9675
1930 c10 -11 22 -20 27 -20 5 0 4 9 -2 20 -6 11 -18 20 -27 20 -14 0 -14 -2 2
-20z M10914 1929 c-19 -22 -19 -22 3 -10 24 12 39 31 25 31 -5 0 -17 -10 -28
-21z M15830 1932 c-31 -14 -32 -16 -13 -20 24 -4 63 13 63 28 0 13 -8 12 -50
-8z M55589 1933 c-8 -9 -34 -25 -58 -36 -31 -13 -40 -22 -32 -30 12 -12 806
-28 829 -17 15 7 -44 64 -92 90 -23 12 -28 11 -52 -13 -14 -14 -46 -36 -70
-48 l-45 -21 -37 25 c-20 14 -48 31 -62 36 -14 6 -32 16 -41 23 -14 9 -29 4
-83 -30 -84 -54 -111 -54 -171 -2 -51 44 -66 48 -86 23z M59815 1940 c3 -5 13
-10 21 -10 8 0 12 5 9 10 -3 6 -13 10 -21 10 -8 0 -12 -4 -9 -10z M67150 1935
c-24 -13 -24 -14 -4 -15 12 0 27 7 34 15 16 19 3 19 -30 0z M68020 1934 c-37
-14 -23 -18 29 -8 17 4 31 10 31 15 0 12 -17 10 -60 -7z M70580 1935 c0 -9 5
-15 10 -13 12 4 11 16 -1 24 -5 3 -9 -2 -9 -11z M930 1930 c0 -5 21 -10 47
-10 55 0 54 5 -4 14 -27 4 -43 2 -43 -4z M2420 1932 c0 -5 7 -13 16 -16 25
-10 74 -7 74 4 0 6 -13 10 -29 10 -16 0 -36 3 -45 6 -9 3 -16 2 -16 -4z M3586
1932 c-8 -13 35 -21 60 -11 18 7 18 8 -3 8 -12 1 -28 4 -36 7 -8 3 -18 1 -21
-4z M3859 1926 c8 -9 28 -16 50 -16 42 1 27 13 -29 25 -31 7 -33 6 -21 -9z
M5312 1928 c3 -7 15 -14 29 -16 23 -2 23 -2 5 13 -24 18 -39 20 -34 3z M7070
1931 c0 -10 24 -21 43 -21 7 0 3 7 -7 15 -22 17 -36 19 -36 6z M9160 1930 c-8
-5 -11 -12 -8 -16 10 -9 38 3 38 16 0 12 -10 13 -30 0z M16725 1930 c-3 -5 3
-10 14 -10 12 0 21 5 21 10 0 6 -6 10 -14 10 -8 0 -18 -4 -21 -10z M20455
1930 c3 -5 16 -10 28 -10 18 0 19 2 7 10 -20 13 -43 13 -35 0z M70900 1930
c-12 -8 -11 -10 7 -10 12 0 25 5 28 10 8 13 -15 13 -35 0z M120 1920 c0 -5 9
-10 19 -10 11 0 23 5 26 10 4 6 -5 10 -19 10 -14 0 -26 -4 -26 -10z M2995
1920 c3 -5 15 -10 26 -10 11 0 17 5 14 10 -3 6 -15 10 -26 10 -11 0 -17 -4
-14 -10z M5030 1920 c0 -7 24 -20 36 -20 13 0 1 19 -16 23 -11 3 -20 2 -20 -3z
M11195 1919 c-11 -17 0 -20 21 -4 17 13 17 14 2 15 -9 0 -20 -5 -23 -11z
M12355 1919 c-12 -19 5 -23 22 -6 16 16 16 17 1 17 -9 0 -20 -5 -23 -11z
M12635 1920 c-3 -5 1 -10 9 -10 8 0 18 5 21 10 3 6 -1 10 -9 10 -8 0 -18 -4
-21 -10z M13234 1915 c-16 -12 -16 -14 -3 -15 9 0 22 7 29 15 16 19 0 19 -26
0z M17845 1920 c-3 -6 5 -10 19 -10 14 0 28 5 31 10 3 6 -5 10 -19 10 -14 0
-28 -4 -31 -10z M19005 1920 c3 -5 15 -10 25 -10 10 0 22 5 25 10 4 6 -7 10
-25 10 -18 0 -29 -4 -25 -10z M21055 1920 c3 -5 15 -10 26 -10 11 0 17 5 14
10 -3 6 -15 10 -26 10 -11 0 -17 -4 -14 -10z M71205 1920 c-4 -6 6 -10 24 -10
16 0 33 5 36 10 4 6 -6 10 -24 10 -16 0 -33 -4 -36 -10z M71899 1904 c-57 -61
-108 -68 -186 -24 -66 38 -70 37 -131 -4 -37 -25 -47 -37 -39 -45 12 -12 441
-16 610 -4 l97 6 0 44 c0 56 -35 60 -95 11 -59 -50 -129 -48 -182 5 -46 44
-43 44 -74 11z M13780 1910 c0 -5 6 -10 14 -10 8 0 18 5 21 10 3 6 -3 10 -14
10 -12 0 -21 -4 -21 -10z M37255 1783 c-995 -1 -6920 -9 -13165 -18 -6245 -10
-14220 -16 -17723 -14 l-6367 4 0 -371 c0 -321 2 -373 15 -378 9 -3 15 -18 15
-36 0 -30 -14 -41 -23 -18 -3 7 -6 -204 -6 -469 l-1 -482 8059 2 c4433 1 8062
5 8066 9 9 8 -10 44 -52 95 -48 58 -62 113 -68 271 -3 76 -8 160 -11 189 l-5
51 -72 7 c-258 23 -471 147 -640 371 -116 154 -189 186 -612 265 -929 175
-1111 216 -1160 265 -43 43 -8 43 280 0 514 -76 1105 -98 1210 -46 75 38 204
36 263 -3 23 -15 44 -27 47 -27 16 0 1 44 -26 74 l-30 35 23 15 c24 15 97 30
203 41 l60 6 48 -89 c26 -49 47 -97 47 -105 0 -24 36 -29 138 -20 105 10 138
3 123 -25 -8 -16 -4 -23 28 -44 l38 -25 6 71 c6 77 57 229 85 259 13 12 44 20
112 26 52 5 102 12 110 15 25 10 144 24 158 19 20 -8 14 -46 -25 -144 -32 -82
-37 -105 -38 -179 0 -80 -1 -85 -25 -97 -24 -12 -24 -13 -3 -13 30 0 49 -34
56 -96 7 -59 -1 -75 -45 -91 l-33 -11 31 -1 c45 -1 63 -20 74 -81 6 -30 15
-59 20 -64 14 -14 139 8 247 44 51 16 98 30 105 30 16 0 259 79 388 126 242
88 348 129 405 155 22 10 76 32 120 50 44 17 86 36 93 42 18 14 56 -8 72 -42
27 -57 54 -107 64 -120 10 -12 71 -121 122 -218 21 -39 20 -39 -42 -57 -27 -8
-80 -24 -119 -36 -38 -12 -101 -29 -140 -39 -38 -10 -81 -23 -95 -28 -14 -6
-59 -16 -100 -23 l-75 -13 40 -9 c69 -15 63 -49 -15 -82 -22 -9 -58 -24 -81
-33 -50 -21 -63 -42 -43 -71 19 -27 44 -28 117 -2 59 21 142 27 152 11 10 -18
-35 -48 -98 -66 -34 -10 -96 -28 -137 -40 -41 -13 -115 -35 -165 -50 -164 -48
-289 -86 -382 -116 -157 -50 -201 -40 -321 75 -62 59 -67 71 -43 103 12 14 21
37 21 52 l-1 26 -24 -28 c-14 -15 -25 -36 -25 -46 0 -19 -70 -134 -89 -145 -6
-4 -11 -15 -11 -24 0 -9 -7 -30 -15 -46 -12 -23 -13 -36 -5 -59 15 -46 12 -67
-12 -77 -35 -15 -169 -122 -186 -148 l-15 -23 3084 5 c1696 3 5197 10 7779 16
2582 5 9324 12 14983 16 5658 4 10287 10 10287 14 0 4 -23 38 -50 76 -65 88
-69 108 -79 329 -4 102 -10 188 -13 190 -3 3 -43 10 -89 15 -46 6 -95 15 -109
20 -14 5 -41 12 -60 16 -116 22 -312 157 -415 286 -155 193 -234 238 -503 288
-59 10 -188 35 -287 54 -99 19 -290 55 -425 81 -395 75 -590 128 -611 166 -19
36 30 37 216 5 266 -47 710 -85 1015 -88 l205 -1 60 29 c49 24 73 29 130 29
70 0 165 -27 165 -46 0 -5 5 -9 10 -9 20 0 9 44 -17 72 -44 46 -10 64 166 88
91 13 90 13 157 -119 l47 -94 124 8 125 7 -4 -25 c-2 -20 5 -31 35 -51 l37
-25 0 55 c0 31 9 79 21 112 12 31 24 70 26 85 11 58 63 97 129 97 33 0 86 7
119 15 33 8 89 14 124 15 l64 0 -7 -39 c-3 -21 -22 -81 -42 -132 -30 -79 -35
-103 -31 -149 2 -30 0 -65 -6 -78 -8 -18 -7 -25 7 -35 11 -8 20 -36 26 -77 11
-76 1 -94 -64 -109 l-41 -11 44 6 c53 6 78 -13 86 -65 15 -94 17 -95 102 -81
164 27 812 241 1078 355 16 8 66 28 109 45 44 18 87 37 97 43 24 15 67 -15 85
-60 9 -19 40 -78 70 -130 30 -51 54 -98 54 -102 0 -5 16 -32 36 -61 41 -59 39
-64 -32 -84 -27 -8 -80 -24 -119 -36 -38 -12 -101 -29 -140 -39 -38 -10 -81
-23 -95 -28 -14 -6 -56 -16 -95 -23 l-70 -14 38 -9 c70 -17 46 -55 -63 -97
-78 -29 -94 -43 -86 -75 10 -38 30 -41 105 -17 81 26 161 30 161 7 0 -19 -53
-52 -105 -65 -22 -6 -80 -22 -130 -36 -49 -15 -128 -38 -175 -51 -160 -47
-285 -84 -377 -114 -144 -46 -187 -37 -291 56 -74 67 -90 100 -63 129 12 12
21 35 21 52 l0 29 -25 -30 c-13 -16 -24 -37 -25 -45 0 -9 -20 -47 -44 -87 -68
-108 -89 -164 -76 -197 16 -44 12 -61 -19 -77 -35 -17 -170 -119 -190 -142
-12 -16 -7 -17 60 -17 180 -1 5371 -11 10944 -22 3339 -6 6259 -12 6490 -12
371 -1 529 5 544 20 2 2 -16 34 -41 72 -71 105 -70 99 -78 314 -4 110 -9 200
-11 202 -2 1 -49 10 -104 19 -261 42 -428 138 -589 340 -150 188 -212 218
-616 292 -267 48 -415 77 -465 90 -27 7 -115 25 -195 40 -312 60 -514 118
-527 151 -12 32 14 33 157 9 336 -56 626 -84 979 -94 l284 -9 70 30 c114 49
159 48 284 -3 53 -21 52 11 -1 69 -20 22 -20 24 -3 37 21 15 146 35 220 35
l53 0 47 -93 c26 -51 47 -98 47 -106 0 -11 23 -12 125 -6 122 7 125 7 125 -14
0 -11 18 -38 40 -60 l40 -39 0 66 c0 63 16 136 38 178 6 11 16 33 22 51 21 58
36 63 226 89 120 16 181 21 188 14 9 -9 -16 -99 -61 -214 -7 -17 -12 -66 -12
-109 -1 -58 -5 -79 -16 -83 -11 -5 -9 -11 11 -27 51 -45 48 -176 -4 -177 -9
-1 -3 -7 15 -15 20 -8 34 -23 37 -37 3 -13 9 -41 13 -63 l9 -40 74 1 c77 1
169 24 445 114 66 22 143 46 170 55 28 9 64 21 80 27 82 29 137 49 205 76 41
17 91 36 110 43 19 7 53 20 75 30 22 9 65 27 95 40 30 12 74 31 98 42 51 23
71 12 103 -58 19 -41 30 -60 61 -107 10 -15 18 -31 18 -36 0 -4 16 -37 35 -72
l35 -65 0 368 0 367 -2622 0 c-1443 0 -4389 4 -6548 10 -3558 8 -21403 18
-25825 13z m10865 -33 c0 -11 -18 -66 -41 -122 l-41 -103 6 -105 c9 -154 12
-173 23 -195 6 -11 13 -49 16 -85 11 -124 26 -173 51 -166 11 3 57 14 101 25
138 34 191 48 257 68 34 11 81 25 103 31 65 17 361 123 648 232 297 113 297
113 311 35 4 -18 13 -38 21 -45 8 -7 15 -21 15 -32 0 -10 23 -47 52 -81 73
-88 108 -174 78 -192 -25 -16 -280 -97 -348 -111 -99 -20 -112 -28 -112 -64 0
-38 -21 -57 -85 -76 -30 -8 -114 -41 -187 -73 -73 -32 -167 -69 -208 -81 -107
-32 -253 -109 -208 -110 9 0 37 9 62 19 25 11 62 23 83 26 21 4 100 36 177 73
l139 66 22 -28 22 -28 76 26 c117 40 215 31 158 -15 -12 -10 -48 -26 -79 -35
-31 -9 -106 -31 -167 -50 -60 -19 -117 -34 -125 -34 -8 0 -48 -11 -90 -24 -41
-13 -118 -36 -170 -51 -52 -15 -126 -38 -165 -51 -113 -39 -181 -24 -272 59
-61 56 -102 87 -115 87 -18 0 -111 -196 -104 -220 3 -11 8 -29 11 -39 5 -17
-68 -81 -92 -81 -3 0 -20 -12 -39 -27 -106 -88 -103 -88 -161 0 -60 89 -63
102 -73 306 -5 101 -12 187 -17 192 -4 4 -42 13 -83 20 -290 44 -404 116 -684
431 l-77 88 -126 40 c-68 22 -175 48 -236 59 -724 125 -1229 238 -1281 285
-52 47 -24 52 131 23 291 -55 665 -91 1053 -102 l235 -6 78 35 c157 72 288 26
376 -131 7 -14 12 -13 37 6 31 23 151 43 364 60 125 10 140 6 140 -38 0 -29
34 -91 50 -91 6 0 8 10 3 28 -13 46 -6 115 17 172 12 30 27 69 34 87 27 72 61
86 242 103 60 5 123 14 139 19 46 14 55 13 55 -9z m-18085 0 c3 -5 -13 -58
-37 -117 -41 -103 -43 -113 -43 -214 0 -64 5 -112 11 -120 7 -8 8 -23 4 -34
-4 -11 -1 -34 6 -52 8 -17 18 -69 23 -115 9 -78 26 -138 40 -138 10 0 298 77
411 109 135 38 381 124 540 188 69 27 194 76 279 108 l154 59 18 -23 c10 -13
23 -40 29 -62 6 -21 15 -41 20 -44 6 -3 10 -13 10 -21 0 -9 22 -41 49 -72 52
-59 90 -131 91 -169 0 -32 -168 -97 -370 -143 -75 -17 -100 -34 -100 -69 0
-37 -12 -46 -97 -75 -39 -13 -119 -45 -178 -71 -60 -26 -159 -65 -222 -86
-106 -37 -183 -75 -197 -98 -7 -11 24 -3 89 22 22 9 65 22 95 31 31 8 107 41
170 71 l115 57 22 -28 22 -28 80 27 c83 28 135 34 161 17 24 -15 -15 -48 -79
-66 -290 -83 -292 -84 -556 -163 -55 -16 -131 -39 -170 -50 -124 -37 -169 -25
-295 78 -41 33 -78 61 -82 61 -9 0 -68 -91 -99 -151 -18 -37 -20 -48 -10 -74
17 -48 14 -60 -21 -79 -57 -29 -77 -42 -96 -59 -10 -10 -23 -17 -27 -17 -5 0
-24 -15 -43 -33 l-34 -32 -24 30 c-99 121 -112 170 -113 446 -1 108 -5 113
-108 127 -247 34 -382 111 -590 336 -187 203 -229 225 -518 275 -495 87 -1061
201 -1174 236 -153 49 -178 106 -35 81 368 -65 668 -94 1055 -103 l286 -6 74
31 c161 66 255 44 349 -83 40 -55 41 -55 69 -41 43 23 451 76 484 63 8 -3 17
-23 19 -45 3 -21 14 -52 24 -68 l19 -28 6 89 c6 101 59 248 98 273 11 8 74 20
138 28 144 17 211 29 220 37 9 10 31 8 38 -3z m9007 -2 c15 -12 15 -21 -8
-103 -42 -155 -49 -203 -36 -238 10 -27 9 -34 -8 -51 -19 -19 -19 -20 5 -42
18 -17 25 -33 25 -62 0 -41 27 -232 36 -256 10 -26 58 -25 139 4 11 4 72 20
135 35 215 53 531 163 964 336 93 38 173 66 178 63 16 -10 74 -139 71 -156 -3
-9 4 -19 14 -22 17 -6 38 -39 105 -166 l29 -55 -22 -18 c-12 -9 -80 -35 -153
-57 -72 -23 -151 -47 -176 -55 -25 -7 -64 -17 -87 -20 -40 -6 -43 -9 -43 -38
0 -47 -9 -54 -93 -87 -124 -47 -139 -57 -127 -80 22 -41 44 -43 162 -15 115
28 136 25 123 -14 -7 -23 -17 -27 -545 -183 -414 -122 -435 -122 -564 11 -44
45 -49 54 -48 91 3 60 -17 46 -43 -29 -14 -43 -31 -71 -53 -90 -34 -28 -46
-105 -27 -173 6 -24 4 -29 -20 -38 -15 -6 -48 -28 -73 -50 -24 -22 -49 -40
-54 -40 -6 0 -27 -14 -48 -30 l-38 -30 -47 52 c-78 89 -94 156 -95 410 0 115
8 107 -135 137 -287 62 -405 139 -623 411 -28 36 -68 76 -87 89 -54 36 -226
89 -365 112 -69 11 -172 31 -230 44 -58 13 -141 28 -185 34 -44 6 -118 20
-165 30 -95 22 -224 48 -315 63 -204 35 -405 99 -405 130 0 25 67 24 202 -2
57 -11 171 -26 253 -35 83 -9 179 -20 215 -25 101 -14 549 -33 668 -27 88 4
118 9 172 33 95 41 178 44 230 10 22 -14 44 -26 50 -26 5 0 27 -23 47 -51 l37
-51 50 6 c487 59 472 59 499 -14 11 -30 22 -57 24 -60 9 -11 23 28 23 65 0 42
61 239 84 270 10 14 34 20 107 26 52 5 119 15 149 23 70 18 102 19 122 4z
m18104 -12 c3 -8 -11 -72 -30 -142 -39 -137 -43 -173 -24 -204 10 -16 9 -23
-7 -40 -19 -21 -19 -22 3 -39 18 -13 22 -23 17 -42 -3 -14 -1 -38 5 -54 6 -17
15 -67 20 -112 10 -90 28 -140 51 -134 8 2 34 7 59 12 25 4 95 21 155 39 61
17 135 37 165 45 148 38 462 153 952 346 53 21 50 24 98 -68 18 -34 30 -69 27
-78 -4 -9 -1 -15 8 -15 13 0 65 -81 114 -178 21 -41 21 -45 6 -62 -20 -22
-189 -79 -347 -117 l-118 -28 0 -31 c0 -39 -22 -59 -91 -83 -104 -36 -141 -59
-129 -82 22 -40 49 -42 157 -15 126 32 123 32 123 -3 0 -34 50 -16 -440 -161
-288 -85 -454 -130 -481 -130 -33 0 -136 61 -184 110 -46 47 -49 53 -47 96 2
58 -20 46 -36 -19 -6 -23 -27 -61 -47 -85 -46 -53 -54 -90 -43 -197 2 -23 -1
-30 -17 -33 -11 -2 -33 -16 -50 -31 -66 -61 -154 -112 -174 -101 -19 10 -78
85 -101 129 -13 26 -28 178 -31 322 -2 107 3 103 -135 133 -252 57 -395 141
-537 313 -99 122 -159 184 -197 203 -68 34 -219 80 -297 91 -43 6 -139 24
-213 40 -74 16 -180 36 -235 44 -55 9 -122 22 -150 30 -27 7 -86 19 -130 25
-44 6 -102 17 -130 25 -27 7 -79 19 -115 25 -168 28 -370 94 -370 121 0 26 75
25 212 -1 57 -10 153 -24 213 -30 61 -6 160 -18 220 -25 61 -8 218 -19 350
-25 132 -5 279 -13 326 -16 83 -6 89 -5 175 31 157 66 278 42 358 -73 29 -40
34 -43 66 -38 51 8 453 56 468 56 7 0 16 -10 21 -22 42 -110 60 -122 61 -37 0
34 73 255 89 272 5 4 58 15 119 23 61 8 121 18 134 23 37 16 128 13 134 -3z
m-45194 -127 c-50 -132 -66 -263 -39 -317 8 -18 13 -40 10 -51 -3 -10 0 -28 6
-40 6 -11 16 -65 21 -120 15 -160 17 -162 84 -142 17 6 72 20 121 31 174 42
547 162 699 225 49 20 135 53 190 72 56 19 139 50 186 69 134 54 156 55 176 8
8 -22 22 -53 30 -71 8 -17 13 -36 12 -40 -2 -5 13 -23 32 -40 65 -57 132 -191
107 -211 -19 -15 -276 -102 -347 -117 -105 -22 -112 -27 -124 -75 -11 -42 -11
-42 -101 -75 -49 -17 -143 -55 -208 -83 -64 -29 -139 -57 -165 -63 -61 -15
-183 -71 -201 -92 -19 -23 1 -22 57 3 23 10 59 22 80 25 20 4 100 36 176 72
l139 66 22 -27 21 -26 74 25 c79 27 170 31 177 8 7 -19 -55 -51 -132 -68 -38
-9 -104 -27 -145 -40 -41 -14 -122 -38 -180 -55 -58 -17 -141 -41 -185 -54
-44 -13 -119 -36 -167 -51 -128 -40 -186 -24 -304 86 -74 69 -78 70 -100 27
-9 -18 -24 -42 -34 -53 -33 -37 -63 -121 -51 -143 18 -34 13 -62 -12 -71 -13
-5 -29 -16 -36 -25 -7 -9 -18 -16 -23 -16 -10 0 -40 -22 -102 -73 -45 -36 -58
-29 -117 60 -54 83 -55 89 -65 308 -7 177 -9 182 -72 190 -84 11 -240 53 -304
82 -94 41 -160 96 -328 273 -192 201 -208 209 -585 279 -904 168 -1159 227
-1206 277 -31 33 -15 49 37 36 22 -6 57 -13 79 -16 22 -3 74 -12 115 -20 200
-39 590 -73 945 -82 l240 -7 70 33 c155 74 298 26 384 -127 7 -14 12 -13 37 6
30 21 103 34 361 60 107 11 133 7 133 -23 0 -11 10 -41 21 -66 27 -59 39 -40
39 62 0 70 4 86 40 162 49 102 61 109 248 125 67 6 137 17 155 25 52 22 54 5
9 -115z m31586 99 c2 -15 -9 -55 -23 -90 -15 -35 -32 -87 -39 -115 -7 -29 -19
-60 -26 -68 -11 -13 -10 -19 5 -35 21 -23 54 -218 55 -322 0 -37 5 -70 10 -73
6 -3 10 -17 10 -31 0 -19 5 -24 26 -24 59 0 412 101 679 193 72 25 146 51 165
58 19 6 47 18 62 25 14 8 34 14 45 14 10 0 27 7 37 15 11 8 29 15 41 15 12 0
25 4 31 10 5 5 34 18 64 29 76 27 179 69 215 88 58 29 59 28 161 -162 15 -27
34 -61 44 -75 10 -14 21 -36 25 -50 4 -14 18 -39 31 -57 13 -17 24 -38 24 -47
0 -13 -88 -46 -245 -91 -27 -8 -79 -24 -114 -35 -36 -11 -74 -20 -85 -20 -27
0 -56 -29 -56 -56 0 -28 -20 -42 -122 -84 -87 -36 -93 -41 -78 -70 17 -31 53
-34 138 -11 92 25 125 26 141 7 17 -20 -20 -43 -102 -66 -34 -10 -224 -65
-422 -124 -201 -59 -377 -106 -400 -106 -101 1 -270 142 -231 195 16 22 46 8
121 -54 64 -53 83 -53 25 1 -25 22 -63 58 -85 78 -38 37 -41 38 -67 24 -16 -8
-28 -20 -28 -26 0 -18 -51 -141 -70 -168 -44 -63 -51 -86 -35 -123 20 -48 22
-46 -147 -162 -74 -51 -92 -51 -125 3 -9 15 -30 44 -47 66 -29 38 -30 39 -38
220 -12 263 -9 255 -93 256 -48 0 -266 66 -342 102 -75 36 -205 157 -302 281
-99 126 -210 182 -451 227 -25 5 -83 16 -130 25 -47 9 -110 20 -140 25 -30 4
-73 12 -95 18 -22 6 -83 18 -135 27 -105 17 -210 38 -310 61 -36 8 -74 14 -85
14 -10 0 -64 11 -120 25 -55 13 -125 29 -156 35 -69 13 -143 49 -147 71 -4 22
49 31 108 18 25 -5 77 -14 117 -19 39 -5 89 -13 110 -19 106 -28 566 -60 858
-61 l230 -1 70 30 c93 40 164 41 246 5 73 -33 78 -29 43 31 -24 42 -25 48 -12
62 18 17 151 36 224 31 l49 -3 50 -100 51 -100 69 4 c39 2 95 5 125 5 l55 1
32 -90 32 -90 0 102 c1 86 5 109 26 155 14 29 25 63 25 75 0 13 13 37 29 55
29 32 31 33 122 35 50 1 97 7 103 13 5 5 30 10 56 10 25 0 52 5 60 10 27 18
55 7 58 -22z m22672 27 c0 -3 -21 -56 -47 -118 -51 -123 -66 -265 -35 -330 7
-15 10 -32 6 -38 -3 -6 -2 -21 4 -32 6 -12 19 -77 30 -145 23 -144 20 -139 72
-118 22 9 51 16 64 16 13 0 43 7 67 16 24 8 64 19 89 24 25 4 72 17 105 28 33
11 78 24 100 30 71 19 307 101 435 152 69 27 190 74 270 104 80 30 160 60 178
67 43 18 63 5 79 -49 6 -23 18 -51 27 -63 8 -12 12 -27 9 -35 -3 -8 2 -16 10
-20 40 -15 143 -186 131 -218 -9 -23 -206 -95 -349 -127 -100 -22 -125 -39
-125 -80 0 -30 -25 -49 -83 -63 -16 -4 -94 -35 -175 -70 -81 -35 -192 -77
-248 -94 -90 -28 -194 -85 -181 -99 3 -2 27 5 53 16 26 12 74 28 107 37 32 8
112 40 176 70 134 62 134 62 153 32 14 -22 18 -22 59 -10 168 47 214 51 207
15 -4 -23 -58 -48 -168 -78 -52 -15 -126 -35 -165 -46 -38 -10 -108 -30 -155
-44 -47 -15 -123 -37 -170 -51 -47 -14 -112 -34 -145 -45 -121 -38 -187 -21
-300 80 -83 73 -87 73 -136 -4 -47 -75 -69 -147 -51 -175 6 -11 9 -25 6 -32
-5 -13 -85 -68 -98 -68 -4 0 -35 -23 -69 -50 -75 -61 -66 -62 -114 7 -72 104
-73 108 -84 310 -12 222 -11 218 -88 227 -236 27 -403 116 -580 311 -228 250
-224 248 -686 335 -853 160 -1104 219 -1150 270 -33 36 -7 41 105 20 314 -60
687 -97 1060 -106 l255 -6 80 33 c164 67 288 25 374 -128 7 -14 11 -14 32 0
28 18 162 40 357 58 149 14 145 15 156 -51 3 -21 15 -48 25 -61 l20 -24 -2 75
c-2 66 3 87 37 177 46 121 55 127 186 138 47 4 114 12 150 20 70 14 130 18
130 10z m-63286 -15 c34 -13 34 -35 -5 -166 -26 -87 -31 -118 -26 -169 3 -38
0 -68 -6 -74 -7 -7 -6 -16 6 -28 11 -13 22 -67 36 -172 22 -167 25 -174 81
-165 209 35 906 269 1264 424 77 33 94 26 133 -50 18 -36 33 -70 33 -75 0 -6
9 -18 20 -28 11 -9 20 -23 20 -30 0 -7 16 -37 36 -67 61 -94 69 -122 43 -142
-26 -22 -227 -87 -361 -118 l-97 -22 -3 -42 -3 -41 -112 -45 c-127 -50 -126
-49 -79 -85 l34 -26 87 26 c89 25 140 31 149 17 11 -18 -20 -56 -54 -64 -66
-17 -625 -179 -660 -192 -174 -65 -270 -58 -367 26 -69 61 -73 66 -82 126 l-7
47 -28 -73 c-18 -47 -38 -80 -56 -93 -32 -24 -53 -146 -29 -175 14 -17 -4 -44
-30 -44 -9 0 -29 -14 -45 -30 -15 -17 -42 -38 -60 -47 -17 -8 -45 -26 -63 -39
-40 -30 -52 -25 -103 42 -57 76 -59 85 -70 302 -6 107 -11 197 -13 198 -2 2
-59 15 -127 29 -257 54 -430 162 -573 356 -113 154 -229 216 -477 254 -58 9
-163 30 -235 45 -71 16 -166 34 -210 40 -44 6 -102 18 -130 25 -27 8 -93 21
-145 29 -52 9 -117 22 -145 31 -27 8 -63 15 -78 15 -31 0 -250 54 -282 70 -11
5 -36 13 -55 18 -36 8 -47 26 -32 50 10 15 139 2 242 -23 30 -8 105 -19 165
-25 61 -6 171 -17 245 -25 167 -18 474 -35 638 -35 115 0 129 2 200 31 155 62
275 36 353 -78 27 -39 35 -44 58 -39 59 13 464 57 477 52 8 -3 25 -31 39 -63
29 -66 45 -60 45 16 0 41 61 240 82 267 4 6 45 14 91 18 45 4 116 15 157 25
94 24 84 23 114 11z m18059 -9 c4 -4 -9 -63 -28 -131 -37 -130 -42 -178 -24
-212 9 -17 7 -24 -10 -41 l-20 -21 24 -22 c18 -17 25 -33 25 -62 0 -61 30
-245 42 -260 35 -41 587 127 1123 341 305 123 276 121 331 17 25 -47 52 -92
60 -101 8 -8 14 -21 14 -29 0 -7 18 -40 40 -73 42 -62 56 -98 47 -120 -6 -16
-126 -58 -320 -111 l-152 -42 0 -35 c0 -37 -9 -44 -158 -109 l-68 -29 22 -31
c28 -37 25 -37 156 0 112 32 128 30 117 -14 -5 -22 -16 -29 -63 -42 -31 -8
-148 -43 -261 -76 -113 -33 -236 -69 -275 -79 -38 -11 -86 -26 -105 -34 -175
-67 -250 -64 -352 13 -79 60 -109 103 -101 144 11 56 -19 26 -42 -41 -14 -43
-31 -71 -53 -90 -34 -28 -46 -105 -27 -173 6 -24 4 -29 -21 -38 -16 -6 -40
-22 -54 -34 -14 -13 -55 -44 -92 -69 l-67 -46 -29 34 c-94 107 -104 147 -115
464 l-2 75 -110 22 c-281 59 -436 154 -604 369 -45 58 -101 117 -124 133 -58
39 -249 98 -382 118 -60 9 -155 26 -210 39 -55 13 -138 29 -185 35 -47 6 -107
17 -135 25 -27 8 -95 21 -150 30 -55 8 -115 20 -133 26 -18 6 -67 17 -110 24
-132 22 -352 85 -352 100 0 2 -3 10 -6 19 -9 23 88 21 230 -4 241 -43 526 -70
858 -82 l327 -11 58 25 c97 43 150 58 185 51 78 -15 193 -94 210 -144 4 -11
22 -11 104 0 125 17 419 50 420 48 1 -1 13 -29 28 -62 29 -65 46 -63 46 5 0
39 63 236 84 266 11 15 33 20 108 26 51 4 120 14 153 22 57 14 111 12 128 -3z
m13506 5 c9 -11 6 -30 -15 -88 -47 -132 -54 -160 -54 -229 0 -59 -3 -70 -22
-83 -22 -16 -22 -16 -1 -16 34 0 47 -26 47 -102 l1 -71 -35 -13 -35 -12 37 -1
c43 -1 53 -14 63 -83 4 -26 14 -53 21 -59 20 -17 108 -4 212 30 48 16 103 32
122 35 49 10 207 62 428 140 161 57 219 79 252 94 19 8 55 23 80 33 149 56
179 68 215 86 70 36 84 37 111 12 13 -12 24 -29 24 -37 0 -8 8 -26 19 -40 10
-15 40 -70 66 -122 26 -52 61 -114 76 -137 31 -45 37 -72 17 -77 -7 -2 -31 -8
-53 -14 -22 -6 -71 -20 -110 -32 -38 -12 -101 -29 -140 -39 -38 -10 -81 -23
-95 -28 -14 -6 -59 -16 -100 -24 -72 -12 -73 -13 -37 -19 82 -15 59 -60 -51
-100 -82 -30 -108 -54 -89 -83 20 -30 47 -32 117 -8 96 33 183 26 145 -12 -15
-16 -116 -57 -137 -57 -7 0 -46 -11 -88 -25 -41 -13 -113 -36 -160 -49 -149
-43 -292 -86 -390 -116 -173 -53 -191 -49 -308 64 -73 69 -78 81 -53 113 12
14 21 37 21 52 l-1 26 -24 -28 c-14 -15 -25 -37 -25 -49 0 -11 -10 -33 -22
-48 -13 -15 -31 -40 -40 -56 -10 -16 -22 -36 -27 -44 -31 -51 -43 -99 -32
-131 16 -46 14 -56 -13 -71 -36 -20 -148 -103 -177 -132 l-26 -25 -58 76 c-69
91 -71 99 -85 337 -5 98 -12 182 -15 186 -3 4 -40 11 -82 15 -43 4 -96 13
-118 21 -22 7 -48 14 -57 14 -27 0 -161 64 -225 108 -73 50 -153 127 -224 217
-140 176 -181 194 -644 279 -931 172 -1128 218 -1149 271 -12 33 8 33 279 -8
308 -47 562 -69 865 -74 l285 -5 65 31 c95 45 228 40 286 -11 42 -37 49 3 8
51 -14 17 -24 37 -21 44 8 21 84 39 187 44 l95 6 48 -94 c26 -52 47 -101 47
-108 0 -14 98 -11 219 6 l43 6 -6 -29 c-5 -25 0 -34 33 -61 l39 -32 5 82 c5
88 50 225 85 259 13 13 45 21 122 29 58 5 123 14 145 18 63 13 102 12 114 -3z
m-9037 -46 c-2 -25 -14 -71 -27 -102 -13 -31 -26 -72 -30 -90 -4 -18 -14 -45
-22 -59 -14 -24 -14 -29 5 -55 22 -32 55 -242 51 -325 -2 -29 3 -54 13 -68 9
-13 14 -30 11 -37 -3 -8 1 -14 8 -14 56 0 649 176 809 240 25 10 72 28 105 40
33 12 72 29 87 36 14 8 33 14 41 14 9 0 28 6 44 14 15 8 75 34 133 57 58 23
122 50 142 60 l37 19 25 -31 c14 -17 26 -36 26 -42 0 -7 11 -28 24 -48 13 -19
46 -77 73 -129 27 -52 59 -110 70 -129 27 -43 22 -55 -30 -69 -23 -6 -107 -31
-187 -56 -80 -25 -164 -48 -187 -52 -47 -7 -69 -27 -75 -64 -3 -25 -127 -98
-169 -99 -27 -1 -42 -27 -29 -50 17 -32 53 -35 138 -12 92 25 128 26 135 6 11
-27 -40 -51 -254 -113 -118 -35 -304 -91 -414 -125 -282 -86 -321 -82 -443 46
-57 61 -60 68 -36 91 18 19 36 12 104 -43 75 -61 80 -64 80 -53 0 6 -34 38
-75 72 -41 34 -75 68 -75 76 0 18 -4 18 -40 -1 -17 -9 -30 -23 -30 -32 0 -19
-26 -80 -76 -175 -31 -60 -34 -72 -28 -120 l6 -54 -53 -34 c-29 -19 -61 -40
-71 -46 -10 -6 -29 -20 -41 -31 -51 -47 -68 -41 -142 51 l-47 58 -9 187 c-9
182 -16 251 -24 251 -99 0 -365 73 -445 123 -61 38 -166 134 -206 189 -21 29
-43 58 -49 63 -6 6 -23 27 -38 47 -54 73 -190 143 -337 173 -47 9 -123 25
-170 35 -47 10 -110 21 -140 25 -30 4 -80 13 -110 20 -53 13 -134 28 -230 44
-99 17 -338 65 -435 88 -38 9 -102 22 -140 28 -118 21 -199 64 -179 96 8 13
80 11 149 -5 193 -46 782 -96 1120 -96 146 0 152 1 210 29 95 47 166 50 251
13 83 -37 86 -36 49 33 -16 29 -26 57 -22 61 4 5 65 14 134 21 155 16 156 15
201 -95 45 -109 41 -108 168 -94 117 13 144 7 144 -33 0 -13 5 -27 10 -30 6
-3 10 -17 10 -30 0 -13 5 -27 10 -30 6 -3 10 -15 10 -26 0 -10 4 -19 9 -19 5
0 6 40 3 89 -4 80 -2 97 21 153 14 35 28 76 32 91 10 48 47 77 102 79 26 1 66
3 88 4 22 0 53 6 68 13 16 6 38 9 50 6 12 -2 36 2 52 10 49 23 60 16 57 -35z
m36170 5 c-2 -22 -16 -71 -31 -110 -15 -38 -31 -83 -35 -100 -4 -16 -15 -38
-23 -47 -14 -16 -14 -19 7 -36 25 -20 51 -161 55 -302 1 -41 7 -85 13 -97 7
-12 12 -29 12 -38 0 -15 7 -16 46 -10 61 9 463 120 538 149 34 13 88 31 121
40 69 21 258 91 297 112 14 8 33 14 41 14 9 0 28 7 44 15 15 8 55 24 88 36 33
11 99 39 147 62 l87 41 20 -25 c12 -13 24 -35 28 -49 3 -14 16 -38 28 -55 13
-16 47 -77 77 -135 30 -58 60 -115 68 -126 21 -33 7 -47 -61 -68 -35 -10 -71
-22 -80 -26 -9 -5 -78 -24 -155 -44 -170 -45 -184 -50 -184 -75 0 -49 -23 -66
-140 -106 -70 -24 -84 -43 -54 -76 22 -24 39 -24 149 5 90 24 115 22 115 -9 0
-24 -28 -34 -320 -121 -623 -183 -603 -178 -675 -145 -88 40 -173 131 -160
170 10 31 25 26 109 -35 98 -71 110 -64 18 10 -39 31 -76 66 -84 78 -13 20
-15 20 -46 4 -18 -9 -32 -24 -32 -34 0 -9 -7 -30 -15 -46 -8 -15 -15 -36 -15
-45 0 -9 -9 -29 -21 -46 -51 -75 -60 -103 -48 -144 12 -41 0 -81 -24 -81 -7 0
-28 -13 -47 -29 -19 -15 -49 -35 -66 -44 -17 -9 -36 -23 -43 -31 -30 -36 -74
-12 -117 62 -10 17 -22 32 -26 32 -15 0 -27 82 -38 265 -12 209 -8 200 -86
209 -104 12 -302 72 -364 109 -68 42 -170 138 -253 239 -92 112 -143 154 -240
197 -64 30 -213 71 -254 71 -12 0 -42 4 -65 9 -95 21 -197 41 -263 52 -38 6
-99 17 -135 24 -113 24 -183 37 -245 46 -32 5 -82 16 -110 23 -27 8 -77 20
-110 25 -286 52 -419 101 -370 137 24 18 36 18 147 -5 221 -45 521 -78 843
-92 341 -15 434 -10 500 24 82 43 157 46 241 9 38 -17 70 -29 72 -27 2 1 -10
28 -25 59 -32 66 -27 76 45 76 24 0 75 5 113 11 93 14 106 5 160 -111 48 -103
37 -98 189 -80 96 11 104 5 131 -83 33 -105 40 -103 38 9 -1 83 3 108 19 140
11 22 25 57 31 80 19 71 48 89 153 91 50 1 96 7 102 13 5 5 30 10 56 10 25 0
52 5 60 10 34 22 55 8 52 -35z m-54204 -12 c2 -19 -10 -63 -27 -108 -17 -42
-31 -82 -31 -89 0 -6 -9 -29 -20 -51 -18 -36 -19 -40 -3 -57 18 -20 52 -219
53 -308 0 -72 28 -140 56 -140 65 0 733 204 879 269 26 12 55 21 64 21 9 0 25
7 35 15 11 8 28 15 38 15 10 0 26 4 36 10 9 5 67 30 127 55 61 25 128 54 150
65 l40 21 28 -31 c15 -16 27 -38 27 -47 0 -9 7 -24 15 -33 9 -10 30 -46 49
-81 61 -117 92 -174 110 -201 19 -29 15 -48 -11 -48 -8 0 -61 -16 -116 -35
-56 -19 -155 -48 -221 -65 -140 -36 -136 -34 -136 -68 0 -15 -4 -32 -8 -38 -7
-12 -149 -74 -168 -74 -27 0 -37 -29 -20 -55 20 -31 47 -32 145 -4 41 11 86
19 100 17 36 -4 39 -34 4 -51 -34 -18 -331 -107 -355 -107 -9 0 -20 -4 -23
-10 -3 -5 -14 -10 -23 -10 -9 0 -122 -32 -250 -71 -223 -68 -235 -71 -279 -59
-82 20 -203 123 -203 172 0 52 34 44 124 -31 48 -41 80 -55 56 -26 -7 9 -42
38 -77 66 -34 28 -63 57 -63 65 0 18 -4 18 -40 -1 -17 -9 -30 -21 -30 -28 0
-12 -37 -112 -51 -137 -4 -8 -22 -38 -38 -67 -29 -48 -30 -54 -17 -85 15 -35
6 -78 -15 -78 -7 0 -28 -12 -48 -27 -19 -16 -50 -37 -67 -48 -18 -11 -43 -28
-57 -38 -30 -22 -52 -14 -80 28 -12 18 -34 50 -49 71 -26 37 -28 49 -38 209
-15 258 -14 253 -58 260 -37 6 -139 24 -177 31 -11 2 -42 12 -70 23 -27 11
-62 22 -76 25 -35 8 -130 72 -202 137 -53 47 -95 96 -167 195 -47 64 -232 174
-293 174 -14 0 -42 6 -63 14 -22 7 -77 19 -124 25 -47 7 -110 18 -140 26 -52
13 -132 28 -230 44 -95 16 -294 55 -390 77 -36 8 -74 14 -86 14 -11 0 -54 9
-95 19 -41 11 -110 27 -154 36 -94 20 -163 47 -172 70 -13 36 39 44 146 21
254 -55 703 -96 1060 -97 l211 -1 65 31 c84 41 175 43 250 6 70 -34 94 -32 60
5 -24 27 -46 88 -34 96 16 9 236 27 261 20 17 -4 37 -33 73 -103 l50 -98 40 1
c22 0 74 4 116 8 89 10 104 -1 120 -91 15 -81 29 -75 29 12 1 47 7 96 16 120
9 22 22 61 29 86 22 78 71 128 113 115 9 -3 31 -2 47 3 18 4 39 4 52 -2 16 -7
27 -6 37 2 7 6 38 14 67 18 30 3 61 10 69 14 27 15 45 5 48 -28z m29892 -513
c126 -34 192 -67 264 -132 l41 -36 -23 -24 c-12 -14 -22 -31 -22 -40 0 -22 62
-75 98 -83 51 -11 87 -58 72 -94 -7 -17 -20 -33 -30 -36 -9 -3 -31 -27 -47
-53 -39 -61 -156 -197 -189 -218 -23 -16 -26 -16 -48 5 -26 25 -54 27 -62 6
-9 -22 33 -104 77 -152 67 -73 59 -134 -18 -150 -61 -13 -340 -10 -354 4 -34
34 15 84 108 108 87 23 103 43 79 103 -10 26 -31 82 -46 125 -40 111 -50 123
-107 131 -46 7 -153 39 -260 79 -46 17 -245 139 -382 234 -244 171 -243 179
15 169 187 -7 309 4 409 39 22 7 74 19 115 25 41 7 80 14 85 15 22 7 164 -9
225 -25z m9046 -1 c91 -22 219 -87 261 -131 l32 -33 -23 -40 -24 -39 23 -18
c13 -10 26 -18 31 -18 14 0 113 -52 125 -66 18 -21 3 -59 -46 -116 -24 -29
-53 -69 -64 -89 -25 -45 -85 -99 -111 -99 -14 0 -20 -7 -20 -23 0 -13 -9 -32
-20 -42 -19 -17 -20 -16 -51 9 -28 24 -34 25 -47 13 -23 -23 -6 -70 54 -150
105 -137 85 -157 -178 -173 -136 -8 -184 -1 -193 26 -14 43 27 77 120 99 102
25 111 49 57 155 -13 27 -31 72 -39 99 -19 65 -47 91 -119 112 -199 57 -263
79 -296 101 -21 13 -41 24 -45 24 -5 0 -35 20 -68 45 -33 25 -64 45 -69 45 -5
0 -32 17 -60 39 -28 21 -64 47 -81 57 -86 52 -166 127 -163 153 l3 26 95 -5
c219 -12 338 -4 475 28 195 46 294 49 441 11z m8988 10 c39 -5 90 -19 114 -29
25 -11 50 -20 57 -20 16 0 156 -93 175 -114 10 -12 8 -21 -9 -45 -37 -52 -24
-73 71 -115 93 -41 113 -106 43 -138 -14 -6 -25 -16 -25 -22 0 -31 -193 -256
-219 -256 -10 0 -26 9 -36 20 -22 24 -38 25 -55 5 -15 -18 15 -88 65 -150 103
-127 75 -155 -162 -163 -176 -5 -200 -1 -209 33 -9 36 9 52 82 75 138 42 144
55 83 184 -16 34 -29 70 -29 81 -2 57 -35 89 -117 112 -164 45 -228 65 -252
78 -14 7 -33 16 -41 19 -45 18 -407 266 -466 319 -74 67 -66 71 165 63 176 -7
206 -5 291 13 105 23 146 33 235 55 61 15 108 14 239 -5z m-27045 -35 c47 -14
102 -36 122 -50 19 -13 40 -24 46 -24 15 0 71 -48 84 -72 8 -15 5 -27 -11 -55
-25 -42 -27 -39 77 -89 109 -52 114 -81 29 -172 -24 -26 -50 -61 -59 -78 -19
-37 -91 -104 -112 -104 -8 0 -15 -8 -15 -18 0 -20 -27 -62 -40 -62 -5 0 -22
12 -39 26 -34 29 -51 25 -51 -12 0 -32 11 -53 70 -134 97 -133 76 -150 -211
-165 -121 -7 -137 -6 -152 10 -34 33 2 89 67 105 160 40 156 23 59 254 -37 89
-54 101 -203 143 -142 40 -272 103 -405 198 -49 35 -114 78 -144 95 -63 37
-164 135 -158 153 3 9 59 12 228 12 217 0 228 1 354 32 206 50 308 52 464 7z
m36130 5 c94 -24 215 -83 264 -128 43 -41 44 -43 17 -79 -29 -40 -20 -52 71
-96 111 -53 115 -79 30 -170 -27 -28 -51 -61 -55 -72 -10 -33 -102 -115 -120
-108 -12 5 -16 -1 -16 -23 0 -52 -31 -69 -68 -38 -82 69 -74 -18 15 -147 75
-110 75 -118 -3 -137 -64 -16 -322 -31 -351 -20 -52 19 -3 119 59 119 27 0
100 21 116 34 18 13 9 55 -28 133 -17 34 -30 66 -30 72 0 6 -7 29 -16 51 -20
51 -51 67 -202 109 -156 43 -248 91 -452 236 -36 25 -86 59 -111 76 -56 35
-132 115 -126 132 3 9 52 11 193 9 196 -4 327 8 389 34 103 43 286 48 424 13z
m-63277 0 c87 -12 200 -56 274 -106 86 -59 90 -65 63 -102 -32 -44 -16 -75 59
-107 76 -34 92 -50 92 -91 0 -27 -6 -37 -30 -51 -16 -9 -30 -22 -30 -29 0 -7
-20 -35 -44 -62 -24 -27 -58 -69 -74 -94 -17 -24 -47 -58 -68 -76 l-36 -32
-27 25 c-51 48 -87 24 -57 -38 9 -19 16 -37 16 -40 0 -4 23 -34 50 -67 76 -91
64 -129 -46 -151 -75 -15 -271 -15 -306 0 -60 25 -10 91 84 111 92 20 109 61
64 157 -13 28 -31 77 -40 108 -19 65 -45 96 -81 96 -14 0 -51 8 -83 19 -31 10
-89 28 -129 40 -40 12 -75 26 -78 31 -3 6 -13 10 -21 10 -7 0 -80 44 -161 98
-229 153 -264 178 -317 225 -77 68 -68 71 163 63 218 -7 227 -6 526 68 60 15
108 14 237 -5z m18014 7 c49 -7 112 -23 138 -35 27 -11 54 -21 60 -21 19 0
163 -98 170 -116 3 -9 -3 -28 -14 -44 -33 -47 -23 -61 79 -110 86 -42 105
-114 36 -140 -14 -5 -25 -16 -25 -24 0 -8 -26 -46 -57 -85 -32 -38 -71 -85
-86 -105 -49 -63 -72 -73 -108 -47 -86 64 -72 -47 19 -152 98 -113 35 -158
-218 -156 -136 1 -155 7 -155 43 0 37 33 62 103 78 29 7 64 22 79 34 l25 20
-35 90 c-19 49 -42 110 -51 135 -21 57 -39 75 -91 83 -81 14 -294 88 -345 121
-69 43 -235 154 -316 211 -216 151 -214 160 39 150 183 -7 284 3 412 39 166
47 209 51 341 31z m-8956 -23 c45 -9 109 -33 160 -59 138 -72 159 -97 128
-151 -20 -32 -20 -35 -3 -53 10 -11 23 -20 28 -20 16 0 99 -41 120 -58 29 -25
20 -54 -43 -132 -33 -41 -60 -80 -60 -86 0 -14 -95 -104 -110 -104 -5 0 -10
-6 -10 -13 0 -8 -11 -24 -25 -37 l-24 -23 -31 27 c-72 60 -72 -32 1 -130 94
-127 94 -132 2 -160 -67 -21 -327 -31 -348 -14 -43 36 1 92 91 115 120 31 125
44 63 167 -16 31 -29 64 -29 73 0 9 -9 34 -21 56 -23 47 -41 55 -184 94 -116
31 -260 96 -328 148 -26 21 -51 37 -56 37 -5 0 -31 16 -57 36 -26 20 -72 52
-102 71 -80 51 -164 136 -156 156 5 15 29 17 228 14 219 -2 222 -2 351 30 189
46 257 49 415 16z m31723 -71 c61 -11 208 -86 244 -124 27 -29 28 -29 10 -59
-9 -17 -17 -37 -17 -45 0 -16 73 -53 106 -54 59 0 57 -49 -8 -147 -77 -116
-179 -217 -209 -208 -13 4 -32 9 -41 11 -40 11 -6 -108 42 -151 31 -28 52 -73
45 -96 -10 -31 -46 -39 -181 -39 -204 0 -247 34 -123 100 107 56 121 80 81
138 -17 25 -33 61 -62 140 -15 38 -33 50 -110 68 -32 7 -109 36 -173 64 -135
58 -127 57 -127 26 0 -13 -7 -29 -15 -36 -8 -7 -15 -23 -15 -35 0 -34 -22 -48
-48 -29 -18 12 -176 226 -294 397 -38 54 -30 61 61 51 156 -16 366 -8 491 20
120 27 228 29 343 8z m9052 -6 c83 -22 248 -114 260 -144 3 -8 -4 -29 -15 -47
-29 -47 -26 -53 38 -71 121 -34 128 -58 47 -165 -30 -40 -55 -75 -55 -79 0 -4
-11 -12 -25 -18 -14 -6 -25 -18 -25 -26 0 -8 -18 -34 -41 -57 -40 -41 -42 -42
-75 -30 -71 26 -75 -28 -6 -113 78 -97 76 -94 64 -121 -31 -68 -382 -56 -382
14 0 13 21 27 74 47 54 20 106 59 106 78 0 7 -16 43 -35 80 -19 37 -35 75 -35
84 0 46 -38 80 -112 102 -40 12 -121 40 -181 62 -124 47 -125 46 -165 -42
l-24 -55 -34 40 c-19 22 -55 69 -79 105 -76 113 -106 154 -131 181 -13 14 -24
28 -24 32 0 3 -15 27 -32 53 -40 55 -24 81 42 69 121 -21 385 -16 470 9 100
29 289 35 375 12z m-18040 -20 c56 -25 167 -92 194 -117 l22 -21 -26 -43 c-28
-49 -30 -47 44 -69 70 -21 101 -41 101 -67 0 -27 -118 -190 -142 -197 -10 -2
-18 -10 -18 -17 0 -7 -20 -35 -43 -61 -43 -47 -44 -48 -75 -35 -80 33 -72 -29
18 -139 88 -107 64 -130 -132 -130 -159 0 -193 9 -193 50 0 20 9 28 50 43 111
41 137 84 90 148 -14 19 -33 58 -41 87 -21 73 -47 96 -125 116 -37 10 -115 37
-174 61 l-108 43 -23 -25 c-13 -14 -26 -41 -30 -60 -13 -69 -39 -54 -125 71
-42 61 -46 67 -129 175 -28 35 -50 67 -50 72 0 4 -12 21 -26 38 -46 55 -41 56
222 56 220 0 244 2 299 22 80 29 353 28 420 -1z m27127 -4 c73 -26 195 -97
207 -120 7 -13 4 -30 -9 -59 -23 -51 -17 -57 72 -81 52 -14 64 -21 66 -40 5
-32 -63 -143 -137 -224 -34 -36 -61 -71 -61 -76 0 -17 -38 -24 -86 -17 -37 5
-44 4 -44 -10 0 -24 47 -116 75 -145 36 -38 47 -73 29 -99 -20 -28 -321 -33
-348 -5 -31 30 -14 50 85 100 80 40 86 58 44 124 -14 22 -35 69 -46 104 -23
70 -41 84 -134 101 -22 4 -89 29 -150 57 -147 66 -149 67 -142 37 3 -14 0 -32
-9 -43 -8 -11 -14 -27 -14 -36 0 -9 -9 -25 -19 -34 -18 -17 -22 -13 -108 101
-49 65 -124 169 -167 232 -87 128 -87 138 2 127 157 -21 356 -17 472 8 146 33
329 32 422 -2z m-36220 7 c57 -12 118 -40 211 -96 64 -38 70 -55 37 -108 l-20
-32 38 -20 c20 -11 54 -24 74 -27 51 -9 61 -32 39 -82 -23 -48 -90 -140 -161
-218 l-54 -58 -48 5 c-36 5 -48 3 -48 -7 0 -31 33 -103 60 -131 49 -50 64 -98
39 -121 -23 -20 -259 -28 -322 -11 -49 13 -34 55 33 94 30 17 66 40 79 50 l24
19 -41 91 c-23 50 -44 103 -48 117 -8 32 -37 48 -124 70 -36 9 -110 37 -165
62 -55 25 -106 48 -112 51 -9 3 -13 -4 -13 -20 0 -28 -33 -112 -48 -121 -12
-7 -56 43 -147 168 -38 53 -87 120 -108 148 -69 93 -92 139 -76 149 21 13 70
11 146 -7 89 -21 258 -12 403 20 117 27 265 33 352 15z m45169 1 c63 -12 219
-87 269 -129 l35 -30 -23 -41 c-29 -52 -19 -65 69 -84 28 -6 79 -42 79 -56 0
-17 -143 -200 -156 -200 -8 0 -14 -7 -14 -15 0 -27 -87 -108 -107 -100 -41 17
-53 17 -59 1 -11 -28 4 -59 61 -130 61 -76 64 -87 34 -117 -32 -32 -317 -26
-350 7 -26 26 -21 32 76 82 87 46 102 75 65 124 -14 18 -36 67 -50 108 -30 83
-14 73 -180 124 -47 15 -116 41 -154 59 l-69 31 -23 -29 c-13 -17 -27 -44 -30
-62 -15 -80 -42 -56 -196 174 -26 38 -54 76 -63 83 -9 7 -23 27 -32 44 -8 17
-26 43 -40 57 -21 23 -23 30 -13 49 11 21 15 22 113 14 174 -14 340 -6 452 20
108 26 220 32 306 16z m-63236 -15 c88 -15 243 -86 282 -127 l23 -24 -22 -43
c-26 -53 -17 -64 67 -87 33 -8 64 -19 69 -24 39 -39 -202 -350 -261 -336 -57
13 -58 13 -55 -23 3 -34 39 -111 53 -111 14 0 49 -67 49 -94 0 -40 -34 -48
-197 -44 -120 2 -145 6 -160 21 -23 23 -10 46 43 71 118 56 132 78 90 145 -14
21 -35 69 -48 107 -26 76 -12 66 -158 110 -30 9 -98 36 -151 60 -110 50 -109
50 -109 26 0 -10 -7 -27 -15 -38 -8 -10 -15 -26 -15 -35 0 -8 -6 -24 -14 -35
-19 -26 -45 -2 -125 116 -32 47 -68 94 -80 104 -11 11 -21 24 -21 30 0 6 -27
47 -60 90 -80 106 -80 120 3 112 224 -20 320 -19 457 8 211 40 239 42 355 21z
m9095 -16 c75 -33 169 -84 205 -113 l29 -24 -29 -42 c-33 -48 -33 -49 62 -80
77 -26 90 -41 74 -78 -21 -44 -122 -171 -142 -177 -11 -4 -19 -15 -19 -24 0
-16 -73 -101 -87 -101 -2 0 -14 7 -27 15 -21 14 -24 13 -40 -4 -24 -26 -16
-48 50 -128 61 -75 67 -108 24 -131 -39 -20 -314 -13 -336 9 -28 28 -9 54 56
78 77 28 135 95 100 116 -14 8 -53 89 -70 144 -15 46 -56 81 -96 81 -21 0
-217 71 -268 97 -29 15 -31 15 -58 -16 -15 -17 -28 -42 -28 -54 0 -13 -6 -31
-13 -41 -14 -19 -47 14 -122 121 -48 68 -157 221 -192 268 l-33 44 27 20 c14
12 33 19 42 17 142 -37 352 -34 496 8 122 34 308 32 395 -5z M46807 1413 c-25
-25 21 -86 48 -63 18 15 19 42 3 58 -13 13 -41 16 -51 5z M47620 1278 c0 -24
-5 -27 -42 -32 -24 -3 -115 -15 -203 -26 -224 -29 -225 -29 -225 -52 0 -36
118 -146 195 -183 74 -36 204 -65 288 -65 l50 0 -6 88 c-11 150 -56 364 -57
270z M46995 1130 c19 -36 76 -103 82 -96 7 7 -78 126 -89 126 -5 0 -2 -13 7
-30z M49124 1071 c6 -35 22 -61 37 -61 18 0 8 40 -17 67 l-26 28 6 -34z
M47160 959 c11 -20 37 -36 45 -27 7 6 -34 48 -46 48 -6 0 -6 -8 1 -21z M48630
960 c-30 -11 -66 -19 -79 -19 -13 -1 -47 -7 -75 -15 -28 -8 -76 -19 -106 -25
-30 -5 -89 -17 -130 -25 -370 -78 -784 -65 -962 30 -35 19 -54 19 -39 0 36
-43 240 -99 425 -118 174 -17 334 -1 896 91 63 11 136 22 162 26 56 7 65 18
44 50 -20 30 -56 31 -136 5z M47782 948 c3 -7 13 -15 24 -17 16 -3 17 -1 5 13
-16 19 -34 21 -29 4z M49100 839 c-36 -10 -80 -19 -98 -19 -18 0 -41 -4 -51
-9 -9 -5 -64 -16 -121 -25 -114 -17 -150 -39 -150 -92 0 -34 21 -31 137 15 54
21 132 49 173 61 87 26 180 67 180 81 0 5 -1 9 -2 8 -2 0 -32 -9 -68 -20z
M48569 746 c-2 -2 -65 -11 -140 -20 -196 -22 -203 -28 -118 -96 65 -51 90 -57
142 -34 43 20 157 123 157 143 0 10 -32 16 -41 7z M48167 627 c-28 -37 -34
-57 -18 -57 13 0 53 68 49 81 -2 6 -16 -5 -31 -24z M28721 1386 c-18 -22 4
-58 32 -54 31 4 32 62 1 66 -11 2 -26 -4 -33 -12z M29532 1263 l3 -28 -225
-28 c-241 -31 -246 -32 -236 -71 27 -109 258 -225 449 -226 l67 0 0 48 c-1 94
-40 332 -56 332 -3 0 -3 -12 -2 -27z M28900 1135 c0 -12 59 -102 76 -115 22
-19 17 2 -14 51 -28 44 -62 79 -62 64z M31030 1075 c0 -22 29 -75 40 -75 16 0
12 22 -10 58 -22 35 -30 40 -30 17z M29070 959 c0 -19 37 -55 47 -45 4 3 -5
19 -20 34 -20 19 -27 22 -27 11z M30565 954 c-22 -9 -60 -19 -85 -23 -25 -5
-65 -13 -90 -19 -464 -110 -856 -132 -1086 -61 -38 12 -73 22 -79 23 -5 1 -23
10 -38 20 -15 10 -31 16 -34 12 -15 -14 29 -39 133 -75 233 -82 468 -81 999 4
269 44 278 45 338 52 66 6 78 20 53 58 -19 29 -50 31 -111 9z M29690 948 c0
-18 18 -34 28 -24 3 4 -2 14 -11 23 -16 16 -17 16 -17 1z M31016 828 c-10 -6
-44 -14 -75 -18 -31 -4 -92 -15 -136 -23 -44 -9 -102 -19 -128 -22 -40 -5 -51
-12 -68 -38 -47 -78 -15 -85 128 -28 54 21 118 44 143 51 68 17 157 53 182 72
l23 18 -25 -1 c-14 0 -33 -5 -44 -11z M30430 725 c-36 -8 -99 -16 -140 -20
-135 -11 -144 -18 -87 -72 82 -77 118 -81 204 -23 52 34 113 101 113 123 0 9
-9 8 -90 -8z M30082 610 c-12 -16 -22 -35 -22 -42 1 -18 50 39 50 58 0 20 -3
18 -28 -16z M38827 1634 c-4 -4 -7 -17 -7 -28 1 -19 1 -20 11 -3 11 19 8 43
-4 31z M37400 1400 c37 -12 122 -12 115 0 -3 6 -36 10 -73 9 -49 -1 -60 -3
-42 -9z M37762 1398 c-21 -21 -14 -47 14 -54 31 -8 47 6 42 37 -3 27 -36 37
-56 17z M38565 1320 c-7 -12 2 -30 16 -30 12 0 12 27 0 35 -5 3 -12 1 -16 -5z
M38355 1220 c-71 -10 -158 -19 -193 -19 -74 -1 -84 -14 -52 -65 74 -120 216
-190 439 -216 109 -13 107 -13 92 42 -6 24 -16 84 -21 135 -18 162 -10 158
-265 123z M40078 1078 c7 -7 12 -20 12 -30 0 -10 5 -18 10 -18 6 0 10 5 10 11
0 18 -20 49 -32 49 -9 0 -9 -3 0 -12z M39635 973 c-22 -8 -80 -23 -130 -34
-49 -11 -108 -24 -130 -29 -441 -97 -816 -116 -1015 -50 -91 29 -157 39 -146
21 4 -5 28 -14 55 -20 27 -6 79 -22 115 -35 112 -42 399 -61 566 -36 228 33
360 53 525 80 105 17 205 33 223 36 36 5 37 8 21 53 -12 34 -23 36 -84 14z
M38134 935 c27 -21 53 -20 36 0 -7 8 -22 15 -34 15 -21 -1 -21 -1 -2 -15z
M40025 830 c-49 -10 -254 -47 -313 -55 -37 -6 -44 -12 -58 -43 -8 -20 -22 -44
-31 -54 -23 -25 -20 -25 176 42 292 99 379 141 226 110z M39385 725 c-44 -8
-98 -14 -120 -14 -63 -2 -75 -14 -45 -47 67 -73 150 -101 200 -68 33 22 140
126 140 136 0 11 -82 8 -175 -7z M39845 653 c-25 -7 -262 -102 -333 -134 -62
-29 -69 -44 -11 -24 23 8 51 15 63 15 11 0 34 7 50 15 15 8 36 15 45 15 18 0
241 106 241 114 0 7 -26 6 -55 -1z M39245 520 c3 -5 13 -10 21 -10 8 0 12 5 9
10 -3 6 -13 10 -21 10 -8 0 -12 -4 -9 -10z M56921 1623 c0 -6 -4 -20 -7 -30
-5 -14 -4 -15 5 -7 7 7 11 20 8 30 -3 11 -5 14 -6 7z M55470 1406 c0 -9 112
-27 128 -21 15 6 15 8 -3 15 -21 9 -125 13 -125 6z M55854 1396 c-11 -28 1
-51 25 -51 35 0 52 32 27 51 -25 18 -45 18 -52 0z M56660 1305 c0 -8 5 -15 10
-15 6 0 10 7 10 15 0 8 -4 15 -10 15 -5 0 -10 -7 -10 -15z M56569 1231 c-23
-7 -94 -15 -326 -37 -35 -3 -63 -10 -63 -15 0 -42 124 -169 197 -201 68 -30
191 -58 286 -65 89 -6 94 -5 77 27 -5 10 -17 73 -25 141 -9 68 -22 130 -29
137 -16 17 -82 24 -117 13z M58174 1067 c3 -10 6 -25 6 -33 0 -8 5 -14 10 -14
15 0 12 24 -6 46 -14 17 -15 17 -10 1z M57750 969 c-47 -19 -387 -91 -570
-120 -332 -53 -582 -50 -748 11 -83 30 -132 38 -132 21 0 -5 24 -15 53 -21 28
-7 77 -23 107 -35 172 -71 483 -64 1040 25 140 23 270 43 288 46 35 5 39 18
20 59 -12 27 -20 29 -58 14z M56210 940 c0 -12 48 -25 58 -16 8 9 -18 26 -40
26 -10 0 -18 -4 -18 -10z M58000 800 c-80 -15 -167 -30 -193 -34 -45 -7 -50
-10 -67 -51 -10 -24 -27 -48 -37 -55 -35 -21 48 1 202 55 355 125 369 137 95
85z M57415 710 c-71 -10 -132 -19 -134 -19 -2 -1 18 -20 44 -43 86 -77 137
-94 185 -62 33 22 140 126 140 136 0 12 -92 7 -235 -12z M57935 643 c-39 -10
-320 -125 -330 -135 -32 -34 187 33 308 93 91 46 99 61 22 42z M57335 510 c3
-5 13 -10 21 -10 8 0 12 5 9 10 -3 6 -13 10 -21 10 -8 0 -12 -4 -9 -10z
M10677 1373 c-22 -21 10 -77 38 -67 20 8 29 42 15 59 -13 16 -42 20 -53 8z
M11485 1225 c-10 -15 -30 -19 -333 -56 -157 -19 -164 -37 -62 -139 93 -93 193
-132 368 -146 l94 -7 -7 59 c-26 249 -41 318 -60 289z M10850 1114 c0 -15 81
-124 92 -124 5 0 1 14 -9 31 -24 42 -82 107 -83 93z M12980 1047 c0 -23 28
-77 40 -77 19 0 10 39 -15 67 -20 23 -24 25 -25 10z M11020 932 c0 -5 11 -19
25 -32 19 -18 25 -20 25 -8 0 8 -8 22 -18 31 -20 19 -32 22 -32 9z M12490 920
c-30 -9 -116 -30 -190 -45 -74 -15 -164 -33 -200 -41 -307 -64 -743 -64 -874
1 -16 8 -36 15 -45 15 -9 0 -25 7 -35 15 -32 24 -55 19 -30 -6 32 -32 172 -76
318 -100 199 -34 390 -19 974 78 234 38 235 38 216 87 -8 21 -63 20 -134 -4z
M11640 922 c0 -13 23 -32 38 -32 7 0 10 4 7 10 -9 14 -45 32 -45 22z M12961
799 c-13 -5 -52 -14 -85 -19 -258 -42 -299 -53 -319 -88 -41 -70 -9 -77 119
-26 49 20 136 52 194 70 115 37 186 74 140 73 -14 0 -36 -5 -49 -10z M12395
700 c-22 -4 -85 -13 -141 -19 -114 -12 -134 -17 -134 -37 0 -17 97 -90 132
-99 41 -10 142 48 184 105 48 65 46 67 -41 50z M12031 584 c-31 -39 -27 -67 4
-29 22 27 33 55 21 55 -3 0 -14 -12 -25 -26z M42240 1350 c0 -37 23 -49 50
-25 25 23 10 55 -25 55 -21 0 -25 -5 -25 -30z M43000 1218 c-25 -4 -128 -18
-230 -31 -169 -21 -185 -25 -188 -43 -3 -23 56 -95 118 -144 76 -60 311 -122
392 -105 l31 7 -7 57 c-13 115 -39 232 -55 249 -13 15 -24 17 -61 10z M42482
1039 c2 -7 10 -15 17 -17 8 -3 12 1 9 9 -2 7 -10 15 -17 17 -8 3 -12 -1 -9 -9z
M44572 1018 c2 -6 10 -14 16 -16 7 -2 10 2 6 12 -7 18 -28 22 -22 4z M44030
929 c-201 -55 -613 -124 -800 -135 -127 -7 -329 14 -393 41 -20 8 -42 15 -49
15 -21 -1 41 -49 70 -55 15 -3 55 -12 89 -20 152 -37 424 -20 903 56 349 56
389 69 344 113 -20 21 -39 19 -164 -15z M42588 927 c19 -22 106 -77 122 -77
17 0 -42 45 -95 72 -30 16 -37 17 -27 5z M44477 804 c-32 -8 -121 -25 -199
-39 -161 -28 -147 -22 -170 -82 -21 -57 -21 -57 33 -37 47 17 231 84 289 104
19 7 43 17 52 21 10 5 26 9 36 9 19 0 42 18 42 32 0 10 -12 9 -83 -8z M43825
699 c-71 -11 -132 -22 -135 -25 -6 -8 86 -91 122 -110 51 -27 114 8 198 107
l41 49 -48 -1 c-26 -1 -106 -10 -178 -20z M44402 658 c-14 -14 -16 -28 -3 -28
9 0 24 30 18 36 -2 2 -9 -2 -15 -8z M44316 625 c-11 -8 -29 -15 -40 -15 -12 0
-30 -7 -40 -15 -11 -8 -27 -15 -37 -15 -9 0 -55 -18 -103 -40 -47 -22 -93 -40
-100 -40 -16 0 -50 -30 -42 -37 2 -3 14 1 26 7 11 6 58 20 103 31 91 23 262
101 271 124 7 19 -13 19 -38 0z M64884 1375 c-11 -26 30 -62 51 -45 9 7 15 23
13 34 -4 27 -55 36 -64 11z M65701 1258 c-1 -33 3 -32 -211 -58 -278 -33 -260
-29 -260 -50 0 -27 72 -114 125 -150 96 -66 201 -99 325 -103 l75 -2 -2 89
c-3 119 -50 367 -52 274z M65075 1103 c25 -42 84 -110 85 -97 0 16 -73 117
-89 122 -10 3 -9 -3 4 -25z M67190 1064 c0 -14 33 -74 41 -74 14 0 10 34 -7
58 -14 20 -34 30 -34 16z M65230 952 c0 -14 49 -56 57 -49 3 4 -4 18 -17 32
-24 25 -40 32 -40 17z M66735 944 c-22 -9 -60 -19 -85 -23 -25 -5 -65 -13 -90
-19 -482 -115 -947 -134 -1124 -46 -16 8 -36 14 -45 14 -9 0 -25 7 -35 15 -23
17 -46 20 -46 5 0 -16 118 -66 221 -94 198 -54 432 -46 964 34 371 56 355 53
355 78 0 47 -47 61 -115 36z M65860 932 c0 -11 22 -32 32 -32 5 0 4 9 -2 20
-11 20 -30 28 -30 12z M67182 814 c-18 -8 -67 -19 -110 -25 -67 -8 -190 -30
-259 -44 -24 -6 -68 -69 -58 -85 11 -17 62 -11 119 14 29 13 104 40 165 60 61
20 129 45 150 56 68 34 62 54 -7 24z M66635 719 c-16 -5 -86 -14 -153 -21
-152 -15 -169 -24 -127 -68 16 -17 53 -42 81 -56 l52 -25 42 21 c46 24 160
129 160 148 0 14 -12 14 -55 1z M66241 595 c-13 -20 -21 -38 -18 -41 8 -9 27
5 27 20 0 8 7 19 15 26 8 7 15 16 15 21 0 18 -16 8 -39 -26z M66505 450 c-3
-5 1 -10 9 -10 8 0 18 5 21 10 3 6 -1 10 -9 10 -8 0 -18 -4 -21 -10z M2720
1578 c0 -19 2 -20 10 -8 13 19 13 30 0 30 -5 0 -10 -10 -10 -22z M1285 1371
c35 -15 125 -24 125 -13 0 16 -27 22 -88 21 -40 0 -51 -3 -37 -8z M1661 1361
c-16 -30 -3 -53 28 -49 22 2 26 8 26 33 0 37 -37 48 -54 16z M2470 1275 c0 -8
5 -15 10 -15 6 0 10 7 10 15 0 8 -4 15 -10 15 -5 0 -10 -7 -10 -15z M2360
1200 c-34 -8 -326 -40 -363 -40 -33 0 27 -92 97 -149 68 -55 125 -80 231 -104
76 -17 225 -33 225 -24 0 3 -6 32 -14 64 -8 32 -18 95 -21 141 -10 115 -42
138 -155 112z M3976 1030 c7 -39 11 -46 20 -37 4 4 -1 21 -10 39 l-17 33 7
-35z M3541 939 c-67 -27 -351 -87 -616 -129 -271 -44 -530 -36 -683 20 -83 30
-132 38 -132 21 0 -5 24 -15 53 -21 28 -7 77 -23 107 -35 160 -66 522 -60 955
15 66 12 178 30 249 40 143 21 155 27 140 67 -10 31 -35 38 -73 22z M2020 911
c0 -11 39 -25 47 -18 3 3 2 10 -2 16 -8 13 -45 15 -45 2z M3958 805 c-5 -5
-369 -75 -390 -75 -4 0 -15 -17 -23 -37 -9 -21 -23 -45 -32 -55 -9 -10 -12
-18 -6 -18 32 0 468 163 470 176 1 8 -13 14 -19 9z M3390 707 c-3 -3 -63 -12
-135 -21 -188 -24 -180 -21 -137 -61 60 -53 113 -85 142 -85 49 0 198 121 187
153 -3 12 -48 22 -57 14z M3690 595 c-258 -95 -322 -125 -262 -125 50 0 362
125 362 145 0 11 -38 3 -100 -20z M3140 480 c20 -13 43 -13 35 0 -3 6 -16 10
-28 10 -18 0 -19 -2 -7 -10z M20757 1604 c-4 -4 -7 -17 -7 -28 1 -19 1 -20 11
-3 11 19 8 43 -4 31z M19335 1370 c46 -12 117 -12 110 0 -3 6 -36 9 -73 9 -52
-1 -60 -3 -37 -9z M19690 1351 c0 -34 31 -51 55 -31 32 27 12 60 -36 60 -14 0
-19 -7 -19 -29z M20500 1285 c0 -8 5 -15 10 -15 6 0 10 7 10 15 0 8 -4 15 -10
15 -5 0 -10 -7 -10 -15z M20265 1189 c-71 -9 -156 -18 -187 -18 -69 -1 -75
-15 -30 -74 87 -118 210 -176 422 -202 114 -14 125 -13 110 14 -7 15 -40 225
-40 261 0 44 -67 48 -275 19z M22013 1046 c4 -6 7 -18 7 -28 0 -10 5 -18 10
-18 15 0 12 16 -7 37 -10 10 -15 14 -10 9z M21580 949 c-37 -15 -208 -55 -406
-94 -406 -80 -714 -87 -897 -21 -54 20 -107 36 -117 36 -35 0 -21 -19 23 -31
23 -6 80 -24 126 -40 45 -16 99 -29 120 -29 20 0 77 -7 126 -14 94 -14 135
-12 405 20 109 13 691 103 697 108 1 1 -2 19 -8 39 -11 39 -23 44 -69 26z
M20065 910 c3 -5 15 -10 26 -10 11 0 17 5 14 10 -3 6 -15 10 -26 10 -11 0 -17
-4 -14 -10z M21988 814 c-5 -4 -198 -42 -356 -69 -26 -5 -37 -15 -57 -55 -13
-26 -30 -51 -37 -54 -54 -25 88 15 190 53 70 26 152 56 182 66 30 9 59 21 65
26 5 5 17 9 27 9 10 0 18 7 18 15 0 15 -21 21 -32 9z M21260 689 c-74 -9 -136
-18 -138 -18 -7 -2 67 -71 102 -95 44 -30 90 -33 126 -10 33 22 140 126 140
136 0 12 -79 7 -230 -13z M21775 623 c-36 -9 -320 -124 -329 -134 -18 -16 41
-10 94 11 28 11 59 20 69 20 9 0 58 20 107 44 126 63 143 80 59 59z M21175
490 c3 -5 13 -10 21 -10 8 0 12 5 9 10 -3 6 -13 10 -21 10 -8 0 -12 -4 -9 -10z
M33194 1355 c-14 -37 26 -69 53 -42 22 22 8 57 -23 57 -14 0 -27 -7 -30 -15z
M34318 1293 c12 -2 30 -2 40 0 9 3 -1 5 -23 4 -22 0 -30 -2 -17 -4z M33905
1200 c-44 -9 -224 -28 -325 -34 -73 -4 -75 -8 -34 -67 44 -64 166 -159 205
-159 9 0 37 -9 61 -20 47 -20 268 -41 268 -25 0 5 -9 56 -19 114 -11 58 -23
127 -26 154 l-6 47 -42 -1 c-23 -1 -60 -5 -82 -9z M34157 1022 c3 -29 9 -65
13 -80 l8 -27 0 30 c0 17 -6 53 -13 80 l-14 50 6 -53z M35510 1046 c0 -14 5
-28 10 -31 6 -4 10 7 10 24 0 17 -4 31 -10 31 -5 0 -10 -11 -10 -24z M35432
994 c1 -9 9 -19 16 -22 9 -3 13 2 10 14 -1 9 -9 19 -16 22 -9 3 -13 -2 -10
-14z M35070 943 c-19 -8 -77 -23 -130 -33 -52 -10 -140 -30 -195 -44 -422
-107 -867 -104 -1083 8 -35 18 -56 21 -47 6 9 -14 121 -70 140 -70 8 0 23 -4
33 -9 25 -13 102 -32 142 -36 19 -1 64 -8 100 -15 89 -16 190 -8 615 51 502
70 535 79 505 134 -15 28 -30 30 -80 8z M33544 925 c15 -14 32 -25 39 -25 13
0 -43 49 -57 50 -5 0 3 -11 18 -25z M35255 764 c-137 -33 -151 -40 -185 -91
-17 -24 -30 -46 -30 -49 0 -8 36 -4 46 6 5 5 41 20 79 33 209 72 326 114 332
120 16 17 -150 4 -242 -19z M34761 689 c-150 -22 -154 -25 -93 -71 124 -92
154 -92 256 3 42 39 76 75 76 80 0 14 -103 9 -239 -12z M35205 594 c-33 -14
-83 -37 -111 -50 -28 -13 -60 -24 -71 -24 -10 0 -28 -7 -39 -15 -34 -25 55
-18 138 11 67 24 198 90 198 100 0 12 -63 0 -115 -22z M34805 453 c-16 -3 -34
-9 -40 -15 -13 -14 106 -4 132 11 19 11 -26 13 -92 4z M24167 1353 c-4 -3 -7
-19 -7 -35 0 -24 4 -28 29 -28 37 0 47 15 30 46 -12 23 -38 32 -52 17z M24840
1184 c-52 -7 -147 -20 -210 -29 -131 -18 -137 -22 -117 -62 68 -131 316 -242
486 -218 l43 7 -6 56 c-8 63 -34 217 -42 245 -6 20 -19 20 -154 1z M26482 998
c3 -7 13 -15 24 -17 16 -3 17 -1 5 13 -16 19 -34 21 -29 4z M25980 914 c-461
-131 -1008 -178 -1216 -105 -72 26 -71 26 -48 0 29 -32 42 -37 155 -56 217
-37 407 -25 924 58 337 54 362 63 320 109 -22 24 -28 24 -135 -6z M24500 905
c0 -11 110 -77 122 -73 7 3 -12 21 -44 41 -53 34 -78 44 -78 32z M26355 773
c-60 -13 -155 -32 -210 -44 -97 -20 -101 -22 -111 -52 -6 -18 -15 -41 -19 -51
-7 -16 -5 -18 11 -12 10 5 33 12 49 16 17 5 80 27 140 50 61 23 121 44 135 47
14 3 34 12 45 19 11 8 29 14 41 14 22 0 51 25 37 32 -4 2 -57 -6 -118 -19z
M25889 696 c-2 -2 -65 -12 -139 -21 -74 -9 -137 -19 -139 -21 -7 -6 58 -71
101 -101 35 -24 42 -25 77 -14 47 14 178 131 167 149 -7 11 -57 17 -67 8z
M26315 629 c-4 -6 -5 -13 -2 -16 7 -7 27 6 27 18 0 12 -17 12 -25 -2z M26226
595 c-11 -8 -29 -15 -39 -15 -11 0 -62 -18 -113 -40 -52 -22 -100 -40 -108
-40 -7 0 -19 -6 -25 -14 -6 -7 -25 -16 -41 -20 -17 -3 -30 -10 -30 -16 0 -13
27 -13 35 0 3 6 14 10 23 10 27 0 230 67 254 84 12 9 30 16 38 16 9 0 27 11
40 25 28 30 2 37 -34 10z M60337 1363 c-4 -3 -7 -19 -7 -35 0 -31 45 -42 56
-14 12 31 -28 70 -49 49z M60890 1179 c-112 -16 -209 -34 -214 -39 -28 -28 87
-154 178 -196 111 -51 332 -85 351 -55 7 12 -30 256 -44 294 -13 33 -4 33
-271 -4z M60565 1020 c3 -5 13 -10 21 -10 8 0 12 5 9 10 -3 6 -13 10 -21 10
-8 0 -12 -4 -9 -10z M62652 999 c2 -7 10 -15 17 -17 8 -3 12 1 9 9 -2 7 -10
15 -17 17 -8 3 -12 -1 -9 -9z M62115 909 c-484 -126 -982 -163 -1194 -88 -30
10 -57 16 -60 13 -8 -8 40 -43 69 -50 14 -3 52 -12 85 -21 75 -21 436 -23 565
-4 176 25 597 92 647 102 65 13 83 31 58 59 -23 25 -35 24 -170 -11z M60685
901 c11 -10 43 -31 70 -47 65 -36 36 2 -31 41 -51 30 -66 32 -39 6z M62618
795 c-3 -3 -70 -16 -149 -30 -262 -46 -243 -39 -273 -97 -15 -28 -25 -53 -23
-55 2 -2 87 26 188 63 101 36 205 72 230 80 26 8 49 21 53 29 5 14 -14 21 -26
10z M61912 680 c-68 -10 -126 -20 -129 -24 -17 -17 108 -116 147 -116 41 0
200 121 200 152 0 12 -83 8 -218 -12z M62476 624 c-4 -10 -1 -14 6 -12 15 5
23 28 10 28 -5 0 -13 -7 -16 -16z M62385 603 c-65 -34 -87 -43 -103 -43 -9 0
-26 -7 -36 -15 -11 -8 -27 -15 -36 -15 -9 0 -43 -13 -75 -30 -32 -16 -64 -30
-71 -30 -7 0 -16 -5 -20 -12 -5 -8 0 -9 17 -4 13 4 50 14 83 22 151 37 296
104 296 135 0 13 -20 10 -55 -8z M6124 1326 c-11 -29 1 -51 26 -48 34 4 47 19
34 40 -14 22 -52 28 -60 8z M6665 1151 c-185 -25 -200 -28 -197 -46 5 -31 53
-94 104 -138 76 -64 305 -129 395 -112 l36 6 -7 62 c-13 132 -34 240 -47 248
-20 13 -61 10 -284 -20z M6370 995 c7 -8 17 -15 22 -15 6 0 5 7 -2 15 -7 8
-17 15 -22 15 -6 0 -5 -7 2 -15z M8442 978 c3 -7 13 -15 24 -17 16 -3 17 -1 5
13 -16 19 -34 21 -29 4z M7898 885 c-247 -64 -688 -135 -836 -135 -109 1 -299
26 -350 46 -23 9 -45 14 -49 10 -10 -10 28 -35 72 -46 22 -6 54 -16 70 -22 76
-28 427 -21 655 12 605 87 668 103 612 153 -23 21 -21 21 -174 -18z M6474 881
c19 -21 115 -75 122 -68 5 5 -118 87 -131 87 -4 0 -1 -8 9 -19z M8409 775 c-3
-2 -86 -20 -185 -40 -98 -19 -188 -37 -199 -39 -17 -5 -61 -93 -51 -103 2 -2
68 20 147 48 79 28 174 61 210 74 83 29 111 44 104 56 -7 10 -19 12 -26 4z
M7720 659 c-166 -25 -161 -22 -115 -69 97 -100 139 -99 253 5 101 92 90 98
-138 64z M8275 609 c-4 -6 -5 -13 -2 -16 7 -7 27 6 27 18 0 12 -17 12 -25 -2z
M8186 575 c-11 -8 -27 -15 -36 -15 -44 0 -269 -104 -256 -118 8 -7 235 70 247
84 6 8 18 14 26 14 18 0 63 29 63 41 0 13 -23 10 -44 -6z M7835 439 c-12 -19
5 -23 22 -6 16 16 16 17 1 17 -9 0 -20 -5 -23 -11z M37070 1060 c0 -11 5 -20
10 -20 6 0 10 9 10 20 0 11 -4 20 -10 20 -5 0 -10 -9 -10 -20z M36996 932
c-19 -8 -19 -9 0 -16 32 -13 184 -20 184 -8 0 19 -148 39 -184 24z M37240 865
c0 -8 6 -15 14 -15 8 0 28 -11 44 -25 31 -26 42 -30 42 -17 0 9 -80 72 -92 72
-4 0 -8 -7 -8 -15z M37375 760 c20 -22 31 -20 22 5 -4 8 -14 15 -23 15 -16 0
-16 -2 1 -20z M46506 934 c-4 -10 -1 -14 6 -12 15 5 23 28 10 28 -5 0 -13 -7
-16 -16z M46040 930 c-59 -8 -27 -17 85 -23 44 -3 88 -8 98 -12 10 -4 17 -3
17 4 0 6 -10 11 -22 11 -13 0 -32 7 -42 15 -20 15 -58 17 -136 5z M46279 882
c5 -9 19 -26 30 -36 26 -24 29 -2 5 32 -19 27 -50 31 -35 4z M46403 794 c18
-35 44 -60 54 -50 4 4 -10 23 -31 44 l-38 37 15 -31z M55160 1055 c0 -14 5
-25 10 -25 6 0 10 11 10 25 0 14 -4 25 -10 25 -5 0 -10 -11 -10 -25z M55078
919 c8 -8 47 -15 110 -17 80 -3 95 -2 84 9 -8 8 -47 15 -110 17 -80 3 -95 2
-84 -9z M55350 850 c14 -10 33 -26 43 -34 9 -9 22 -16 27 -16 18 0 10 19 -12
31 -13 7 -27 18 -31 25 -4 8 -18 14 -30 14 -22 -1 -22 -1 3 -20z M55468 758
c12 -12 24 -19 28 -15 10 10 -16 37 -34 37 -13 0 -12 -4 6 -22z M28427 923
c-12 -12 -7 -22 8 -17 8 4 15 10 15 15 0 11 -14 12 -23 2z M27950 911 l-35 -7
35 -7 c19 -3 73 -8 120 -10 83 -4 84 -4 50 11 -41 17 -120 24 -170 13z M28190
870 c0 -13 37 -50 51 -50 11 0 4 15 -19 43 -17 19 -32 22 -32 7z M28310 788
c1 -18 48 -74 55 -66 12 12 -5 46 -30 62 -18 12 -25 13 -25 4z M64133 913
c-85 -6 -61 -20 45 -26 53 -3 107 -8 120 -12 14 -5 22 -3 22 4 0 6 -10 11 -23
11 -13 0 -32 7 -43 15 -10 8 -30 14 -44 13 -14 -1 -49 -3 -77 -5z M64360 862
c0 -14 39 -46 47 -39 3 4 -2 16 -12 27 -19 21 -35 26 -35 12z M64480 771 c13
-25 39 -51 51 -51 15 0 10 14 -16 43 -30 32 -51 37 -35 8z M970 1025 c0 -14 5
-25 10 -25 6 0 10 11 10 25 0 14 -4 25 -10 25 -5 0 -10 -11 -10 -25z M888 889
c8 -8 47 -15 110 -17 80 -3 95 -2 84 9 -8 8 -47 15 -110 17 -80 3 -95 2 -84
-9z M1160 820 c14 -10 33 -26 43 -34 9 -9 22 -16 27 -16 18 0 10 19 -12 31
-13 7 -27 18 -31 25 -4 8 -18 14 -30 14 -22 -1 -22 -1 3 -20z M1260 741 c0 -6
9 -15 21 -21 18 -10 20 -9 17 7 -3 19 -38 32 -38 14z M19004 1036 c-8 -22 3
-33 18 -18 9 9 9 15 0 24 -9 9 -13 7 -18 -6z M19200 995 c0 -8 5 -15 10 -15 6
0 10 7 10 15 0 8 -4 15 -10 15 -5 0 -10 -7 -10 -15z M18916 902 c-9 -16 22
-24 117 -29 55 -4 87 -2 87 4 0 20 -192 43 -204 25z M19170 840 c0 -6 10 -14
23 -19 13 -5 29 -16 36 -25 7 -9 21 -16 30 -16 10 0 2 12 -24 35 -40 34 -65
44 -65 25z M19300 735 c7 -8 19 -15 26 -15 8 0 11 6 8 15 -4 8 -15 15 -26 15
-17 0 -18 -3 -8 -15z M9945 893 c-89 -6 -82 -17 15 -23 52 -4 107 -10 123 -14
18 -6 27 -4 27 3 0 6 -10 11 -23 11 -13 0 -32 7 -43 15 -10 8 -26 14 -34 13
-8 -1 -37 -3 -65 -5z M10370 890 c0 -5 7 -10 15 -10 8 0 15 5 15 10 0 6 -7 10
-15 10 -8 0 -15 -4 -15 -10z M10140 852 c0 -5 14 -21 30 -37 35 -34 45 -10 10
25 -21 21 -40 26 -40 12z M10270 751 c13 -25 39 -51 51 -51 15 0 10 14 -16 43
-30 32 -51 37 -35 8z M60020 700 c0 -5 7 -10 15 -10 8 0 15 5 15 10 0 6 -7 10
-15 10 -8 0 -15 -4 -15 -10z M5820 675 c0 -8 5 -15 10 -15 6 0 10 7 10 15 0 8
-4 15 -10 15 -5 0 -10 -7 -10 -15z M51000 1370 c0 -5 7 -10 15 -10 8 0 15 5
15 10 0 6 -7 10 -15 10 -8 0 -15 -4 -15 -10z M51290 1365 c-18 -22 -8 -50 19
-50 32 0 49 28 32 49 -17 20 -35 20 -51 1z M69070 1340 c0 -5 7 -10 15 -10 8
0 15 5 15 10 0 6 -7 10 -15 10 -8 0 -15 -4 -15 -10z M69354 1335 c-14 -35 24
-68 51 -45 8 7 15 20 15 30 0 30 -56 42 -66 15z M14855 1330 c3 -5 13 -10 21
-10 8 0 14 5 14 10 0 6 -9 10 -21 10 -11 0 -17 -4 -14 -10z M15142 1328 c-16
-16 -15 -33 2 -47 22 -18 58 4 54 32 -3 25 -37 34 -56 15z M51900 1326 c0 -8
5 -18 10 -21 6 -3 10 1 10 9 0 8 -4 18 -10 21 -5 3 -10 -1 -10 -9z M70460
1270 c-17 -6 -9 -7 25 -3 28 3 52 7 54 9 8 7 -54 2 -79 -6z M16238 1263 c12
-2 32 -2 45 0 12 2 2 4 -23 4 -25 0 -35 -2 -22 -4z M51985 1204 c-38 -7 -134
-16 -212 -20 -170 -8 -175 -10 -148 -60 39 -73 156 -159 263 -193 64 -21 260
-47 270 -36 11 11 -27 290 -44 316 -7 12 -43 10 -129 -7z M51430 1185 c0 -8 5
-15 10 -15 6 0 10 7 10 15 0 8 -4 15 -10 15 -5 0 -10 -7 -10 -15z M70050 1174
c-41 -7 -137 -16 -212 -20 -75 -4 -142 -11 -149 -15 -19 -12 0 -46 65 -116 91
-98 216 -147 396 -155 l75 -3 3 31 c3 30 -34 270 -44 286 -7 11 -42 8 -134 -8z
M15850 1170 c-52 -12 -243 -30 -322 -30 -73 0 -77 -4 -54 -48 48 -92 185 -181
336 -217 150 -35 213 -30 206 19 -3 17 -12 78 -21 136 -24 162 -19 150 -68
149 -23 -1 -58 -5 -77 -9z M69500 1155 c0 -8 5 -15 10 -15 6 0 10 7 10 15 0 8
-4 15 -10 15 -5 0 -10 -7 -10 -15z M52247 1035 c3 -32 9 -71 14 -85 l7 -25 1
25 c0 14 -6 52 -14 85 l-14 60 6 -60z M53600 1053 c0 -10 4 -24 9 -31 11 -18
23 11 15 33 -8 21 -24 19 -24 -2z M16091 1039 c-1 -35 19 -142 29 -153 10 -10
2 59 -16 129 -8 33 -12 41 -13 24z M70311 1030 c0 -14 6 -52 13 -85 8 -33 14
-49 15 -35 0 14 -6 52 -13 85 -8 33 -14 49 -15 35z M17450 1016 c0 -14 5 -28
10 -31 6 -3 10 5 10 19 0 14 -4 28 -10 31 -6 3 -10 -5 -10 -19z M71670 1016
c0 -14 5 -26 10 -26 6 0 10 9 10 19 0 11 -4 23 -10 26 -6 4 -10 -5 -10 -19z
M53530 996 c0 -14 5 -26 10 -26 6 0 10 9 10 19 0 11 -4 23 -10 26 -6 4 -10 -5
-10 -19z M17373 974 c-3 -8 -1 -20 6 -27 8 -8 11 -4 11 16 0 30 -7 35 -17 11z
M71590 965 c0 -14 5 -25 10 -25 6 0 10 11 10 25 0 14 -4 25 -10 25 -5 0 -10
-11 -10 -25z M51610 950 c0 -5 6 -10 14 -10 7 0 19 -7 26 -15 7 -8 18 -15 24
-15 12 0 -44 49 -56 50 -5 0 -8 -4 -8 -10z M53177 949 c-16 -9 -156 -41 -434
-99 -282 -59 -604 -76 -767 -40 -117 25 -213 57 -240 79 -8 7 -21 11 -28 9
-30 -10 118 -82 222 -108 19 -5 55 -14 80 -20 117 -30 371 -18 760 38 461 65
500 76 470 131 -12 23 -35 26 -63 10z M72170 920 c-66 -26 -149 -52 -195 -61
-84 -18 -259 -68 -237 -68 104 -4 65 -56 -85 -111 -45 -17 -70 -47 -57 -67 22
-35 40 -38 106 -15 72 25 159 33 165 15 7 -19 -36 -50 -95 -67 -31 -9 -93 -27
-137 -40 -213 -63 -258 -76 -360 -105 -60 -17 -144 -42 -185 -56 -156 -51
-201 -43 -308 58 -73 70 -78 80 -53 121 23 37 28 70 9 64 -12 -4 -21 -20 -47
-78 -6 -14 -25 -45 -41 -70 -59 -89 -75 -131 -75 -200 0 -56 -2 -65 -20 -68
-11 -3 -26 -13 -33 -23 -7 -11 -30 -28 -50 -38 -41 -22 -109 -87 -99 -97 3 -3
427 -7 941 -8 l936 -2 0 468 c0 528 8 483 -80 448z M15460 915 c0 -8 7 -15 15
-15 8 0 15 4 15 9 0 5 -7 11 -15 15 -9 3 -15 0 -15 -9z M17014 915 c-17 -8
-76 -23 -130 -34 -54 -11 -142 -31 -195 -45 -395 -102 -833 -103 -1054 -2 -32
14 -63 26 -70 26 -7 0 -18 7 -25 15 -7 8 -18 15 -24 15 -13 0 44 -49 58 -50 5
0 17 -6 25 -14 22 -19 143 -66 170 -66 12 0 31 -5 42 -10 38 -21 306 -41 398
-30 226 28 809 113 839 123 48 16 62 40 38 66 -22 24 -29 25 -72 6z M69680
920 c0 -5 6 -10 14 -10 7 0 19 -7 26 -15 7 -8 18 -15 24 -15 12 0 -44 49 -56
50 -5 0 -8 -4 -8 -10z M71237 919 c-10 -6 -78 -23 -150 -39 -73 -15 -181 -40
-242 -54 -328 -76 -647 -85 -885 -26 -56 14 -140 46 -153 59 -6 6 -17 11 -25
11 -40 0 51 -55 148 -90 180 -64 367 -73 681 -31 714 95 732 99 695 156 -18
27 -40 31 -69 14z M53460 789 c-160 -21 -300 -74 -300 -112 0 -6 -7 -19 -17
-29 -21 -24 -8 -36 20 -18 12 7 47 21 77 31 30 9 93 31 140 49 47 17 112 39
144 48 115 33 80 50 -64 31z M17225 744 c-144 -34 -183 -53 -215 -101 -35 -51
-33 -62 7 -43 16 7 98 37 183 67 85 30 174 61 198 70 23 8 42 17 42 19 0 10
-161 1 -215 -12z M71452 745 c-139 -30 -175 -45 -214 -88 -41 -43 -51 -75 -20
-62 40 18 300 111 367 132 28 8 54 19 60 24 14 14 -121 9 -193 -6z M52900 699
c-204 -31 -200 -28 -146 -71 134 -107 184 -101 304 36 55 62 41 65 -158 35z
M70960 669 c-198 -27 -203 -29 -152 -62 15 -9 49 -33 76 -52 27 -20 60 -35 76
-35 47 0 210 135 194 161 -7 12 -34 10 -194 -12z M16726 664 c-181 -24 -176
-20 -97 -88 56 -47 101 -63 146 -52 25 6 165 131 165 147 0 12 -97 9 -214 -7z
M53325 607 c-11 -6 -76 -33 -144 -58 -120 -45 -145 -68 -58 -54 43 7 156 46
192 67 11 7 37 20 58 30 20 10 37 21 37 23 0 10 -66 4 -85 -8z M17145 564
c-33 -14 -83 -37 -111 -50 -28 -13 -60 -24 -71 -24 -10 0 -28 -7 -39 -16 -58
-46 149 9 271 73 96 50 58 63 -50 17z M71365 567 c-27 -11 -80 -33 -117 -49
-36 -15 -75 -28 -86 -28 -11 0 -26 -7 -33 -17 -20 -23 81 -13 142 15 24 11 55
23 69 27 14 4 41 18 60 31 19 13 40 24 47 24 6 0 15 5 18 10 10 17 -47 9 -100
-13z M52885 450 c-24 -6 -18 -8 30 -9 33 0 67 4 75 9 18 12 -59 12 -105 0z
M16745 423 c-16 -3 -34 -9 -40 -15 -13 -14 106 -4 132 11 19 11 -26 13 -92 4z
M70943 423 c-13 -2 -23 -9 -23 -15 0 -11 89 -2 125 13 21 8 -60 10 -102 2z"/>
</g>
</svg>
