<svg xmlns="http://www.w3.org/2000/svg" width="300" height="150" viewBox="0 0 300 150">
  <circle cx="150" cy="0" r="147.5" stroke-width="2" stroke="#A68A3E" fill="none"/>
  <circle cx="150" cy="0" r="127.5" stroke-width="2" stroke="#A68A3E" fill="none"/>
  <circle cx="150" cy="0" r="107.5" stroke-width="2" stroke="#A68A3E" fill="none"/>
  <circle cx="150" cy="0" r="87.5" stroke-width="2" stroke="#A68A3E" fill="none"/>
  <circle cx="150" cy="0" r="67.5" stroke-width="2" stroke="#A68A3E" fill="none"/>
  <circle cx="150" cy="0" r="47.5" stroke-width="2" stroke="#A68A3E" fill="none"/>
  <circle cx="150" cy="0" r="27.5" stroke-width="2" stroke="#A68A3E" fill="none"/>
  <circle cx="0" cy="75" r="147.5" stroke-width="2" stroke="#A68A3E" fill="none"/>
  <circle cx="0" cy="75" r="127.5" stroke-width="2" stroke="#A68A3E" fill="none"/>
  <circle cx="0" cy="75" r="107.5" stroke-width="2" stroke="#A68A3E" fill="none"/>
  <circle cx="0" cy="75" r="87.5" stroke-width="2" stroke="#A68A3E" fill="none"/>
  <circle cx="0" cy="75" r="67.5" stroke-width="2" stroke="#A68A3E" fill="none"/>
  <circle cx="0" cy="75" r="47.5" stroke-width="2" stroke="#A68A3E" fill="none"/>
  <circle cx="0" cy="75" r="27.5" stroke-width="2" stroke="#A68A3E" fill="none"/>
  <circle cx="300" cy="75" r="147.5" stroke-width="2" stroke="#A68A3E" fill="none"/>
  <circle cx="300" cy="75" r="127.5" stroke-width="2" stroke="#A68A3E" fill="none"/>
  <circle cx="300" cy="75" r="107.5" stroke-width="2" stroke="#A68A3E" fill="none"/>
  <circle cx="300" cy="75" r="87.5" stroke-width="2" stroke="#A68A3E" fill="none"/>
  <circle cx="300" cy="75" r="67.5" stroke-width="2" stroke="#A68A3E" fill="none"/>
  <circle cx="300" cy="75" r="47.5" stroke-width="2" stroke="#A68A3E" fill="none"/>
  <circle cx="300" cy="75" r="27.5" stroke-width="2" stroke="#A68A3E" fill="none"/>
  <circle cx="150" cy="150" r="147.5" stroke-width="2" stroke="#A68A3E" fill="none"/>
  <circle cx="150" cy="150" r="127.5" stroke-width="2" stroke="#A68A3E" fill="none"/>
  <circle cx="150" cy="150" r="107.5" stroke-width="2" stroke="#A68A3E" fill="none"/>
  <circle cx="150" cy="150" r="87.5" stroke-width="2" stroke="#A68A3E" fill="none"/>
  <circle cx="150" cy="150" r="67.5" stroke-width="2" stroke="#A68A3E" fill="none"/>
  <circle cx="150" cy="150" r="47.5" stroke-width="2" stroke="#A68A3E" fill="none"/>
  <circle cx="150" cy="150" r="27.5" stroke-width="2" stroke="#A68A3E" fill="none"/>
</svg>
